<svg version="1.1" height="33.6" width="380" viewBox="0.0 0.0 380.0 33.6010498687664" fill="none" stroke="none" stroke-linecap="square" stroke-miterlimit="10" xmlns:xlink="http://www.w3.org/1999/xlink" xmlns="http://www.w3.org/2000/svg"><clipPath id="p.0"><path d="m0 0l380.0 0l0 33.60105l-380.0 0l0 -33.60105z" clip-rule="nonzero"/></clipPath><g clip-path="url(#p.0)"><path fill="#000000" fill-opacity="0.0" d="m0 0l380.0 0l0 33.60105l-380.0 0z" fill-rule="evenodd"/><path fill="#000000" fill-opacity="0.0" d="m0 0l379.937 0l0 33.574802l-379.937 0z" fill-rule="evenodd"/><path fill="#ffffff" d="m9.34375 24.2674l0 -14.9375l3.96875 0l4.09375 8.0625l4.09375 -8.0625l3.96875 0l0 14.9375l-2.921875 0l0 -10.984375l-5.1875 9.921875l-5.15625 -9.96875l0 11.03125l-2.859375 0zm18.623978 0l0 -11.109375l2.921875 0l0 11.109375l-2.921875 0zm1.453125 -12.4375q-0.6875 0 -1.1875 -0.484375q-0.484375 -0.5 -0.484375 -1.171875q0 -0.703125 0.484375 -1.1875q0.5 -0.484375 1.1875 -0.484375q0.703125 0 1.171875 0.484375q0.484375 0.484375 0.484375 1.1875q0 0.671875 -0.484375 1.171875q-0.46875 0.484375 -1.171875 0.484375zm9.329086 17.0q-1.28125 0 -2.46875 -0.265625q-1.1875 -0.265625 -2.15625 -0.75l1.03125 -2.265625q0.90625 0.453125 1.78125 0.65625q0.875 0.21875 1.75 0.21875q1.3125 0 1.984375 -0.5625q0.671875 -0.546875 0.671875 -1.65625l0 -0.875q-1.375 1.0 -3.0625 1.0q-1.578125 0 -2.84375 -0.75q-1.265625 -0.765625 -2.03125 -2.0625q-0.75 -1.296875 -0.75 -2.875q0 -1.578125 0.75 -2.859375q0.765625 -1.28125 2.0625 -2.03125q1.296875 -0.765625 2.90625 -0.765625q0.8125 0 1.578125 0.234375q0.765625 0.234375 1.421875 0.65625l0 -0.71875l2.890625 0l0 11.09375q0 2.1875 -1.421875 3.375q-1.421875 1.203125 -4.09375 1.203125zm-0.015625 -6.96875q0.8125 0 1.46875 -0.265625q0.65625 -0.265625 1.140625 -0.765625l0 -4.34375q-0.484375 -0.46875 -1.15625 -0.734375q-0.671875 -0.265625 -1.4375 -0.265625q-0.90625 0 -1.640625 0.421875q-0.71875 0.40625 -1.15625 1.125q-0.421875 0.703125 -0.421875 1.609375q0 0.90625 0.40625 1.640625q0.421875 0.71875 1.15625 1.15625q0.75 0.421875 1.640625 0.421875zm7.8102875 2.40625l0 -11.109375l2.921875 0l0 1.234375q0.53125 -0.71875 1.265625 -1.109375q0.75 -0.390625 1.6875 -0.390625q0.8125 0.03125 1.21875 0.265625l0 2.5625q-0.3125 -0.15625 -0.703125 -0.21875q-0.375 -0.078125 -0.78125 -0.078125q-0.859375 0 -1.5625 0.421875q-0.703125 0.421875 -1.125 1.21875l0 7.203125l-2.921875 0zm11.934494 0.1875q-1.1875 0 -2.109375 -0.4375q-0.921875 -0.4375 -1.4375 -1.203125q-0.5 -0.765625 -0.5 -1.765625q0 -1.59375 1.203125 -2.484375q1.203125 -0.890625 3.3125 -0.890625q1.453125 0 2.734375 0.453125l0 -0.8125q0 -0.953125 -0.59375 -1.4375q-0.59375 -0.5 -1.75 -0.5q-0.703125 0 -1.515625 0.21875q-0.8125 0.21875 -1.875 0.6875l-1.0625 -2.140625q1.3125 -0.609375 2.515625 -0.90625q1.203125 -0.296875 2.421875 -0.296875q2.25 0 3.484375 1.078125q1.25 1.078125 1.25 3.046875l0 7.203125l-2.875 0l0 -0.796875q-0.6875 0.515625 -1.484375 0.75q-0.78125 0.234375 -1.71875 0.234375zm-1.28125 -3.46875q0 0.640625 0.546875 1.015625q0.5625 0.375 1.484375 0.375q0.71875 0 1.34375 -0.1875q0.625 -0.1875 1.109375 -0.546875l0 -1.625q-0.53125 -0.203125 -1.109375 -0.3125q-0.578125 -0.109375 -1.234375 -0.109375q-1.0 0 -1.578125 0.375q-0.5625 0.375 -0.5625 1.015625zm14.532776 3.453125q-1.859375 0 -2.8125 -0.84375q-0.9375 -0.84375 -0.9375 -2.46875l0 -5.546875l-2.28125 0l0 -2.421875l2.28125 0l0 -2.84375l2.921875 -0.65625l0 3.5l3.171875 0l0 2.421875l-3.171875 0l0 4.953125q0 0.765625 0.328125 1.109375q0.34375 0.328125 1.203125 0.328125q0.421875 0 0.765625 -0.046875q0.359375 -0.0625 0.796875 -0.21875l0 2.40625q-0.453125 0.15625 -1.125 0.234375q-0.671875 0.09375 -1.140625 0.09375zm3.777542 -0.171875l0 -11.109375l2.921875 0l0 11.109375l-2.921875 0zm1.453125 -12.4375q-0.6875 0 -1.1875 -0.484375q-0.484375 -0.5 -0.484375 -1.171875q0 -0.703125 0.484375 -1.1875q0.5 -0.484375 1.1875 -0.484375q0.703125 0 1.171875 0.484375q0.484375 0.484375 0.484375 1.1875q0 0.671875 -0.484375 1.171875q-0.46875 0.484375 -1.171875 0.484375zm9.157211 12.65625q-1.65625 0 -3.0 -0.765625q-1.34375 -0.78125 -2.140625 -2.078125q-0.78125 -1.296875 -0.78125 -2.921875q0 -1.625 0.78125 -2.9375q0.78125 -1.3125 2.125 -2.078125q1.359375 -0.765625 3.015625 -0.765625q1.671875 0 3.015625 0.765625q1.359375 0.765625 2.140625 2.078125q0.78125 1.3125 0.78125 2.9375q0 1.625 -0.78125 2.921875q-0.78125 1.296875 -2.125 2.078125q-1.34375 0.765625 -3.03125 0.765625zm0 -2.546875q0.875 0 1.5625 -0.421875q0.703125 -0.421875 1.109375 -1.15625q0.421875 -0.75 0.421875 -1.640625q0 -0.921875 -0.421875 -1.640625q-0.40625 -0.71875 -1.109375 -1.15625q-0.6875 -0.4375 -1.5625 -0.4375q-0.84375 0 -1.546875 0.4375q-0.703125 0.4375 -1.109375 1.15625q-0.40625 0.71875 -0.40625 1.640625q0 0.890625 0.40625 1.640625q0.40625 0.734375 1.109375 1.15625q0.703125 0.421875 1.546875 0.421875zm7.7319336 2.328125l0 -11.109375l2.921875 0l0 0.921875q1.25 -1.140625 3.109375 -1.140625q1.296875 0 2.28125 0.578125q1.0 0.5625 1.546875 1.546875q0.5625 0.984375 0.5625 2.3125l0 6.890625l-2.921875 0l0 -6.46875q0 -1.078125 -0.625 -1.703125q-0.609375 -0.640625 -1.671875 -0.640625q-0.75 0 -1.328125 0.296875q-0.578125 0.28125 -0.953125 0.8125l0 7.703125l-2.921875 0zm21.200226 0l0 -12.203125l-5.03125 0l0 -2.734375l13.125 0l0 2.734375l-5.0 0l0 12.203125l-3.09375 0zm12.50795 0.21875q-1.65625 0 -3.0 -0.765625q-1.34375 -0.78125 -2.140625 -2.078125q-0.78125 -1.296875 -0.78125 -2.921875q0 -1.625 0.78125 -2.9375q0.78125 -1.3125 2.125 -2.078125q1.359375 -0.765625 3.015625 -0.765625q1.671875 0 3.015625 0.765625q1.359375 0.765625 2.140625 2.078125q0.78125 1.3125 0.78125 2.9375q0 1.625 -0.78125 2.921875q-0.78125 1.296875 -2.125 2.078125q-1.34375 0.765625 -3.03125 0.765625zm0 -2.546875q0.875 0 1.5625 -0.421875q0.703125 -0.421875 1.109375 -1.15625q0.421875 -0.75 0.421875 -1.640625q0 -0.921875 -0.421875 -1.640625q-0.40625 -0.71875 -1.109375 -1.15625q-0.6875 -0.4375 -1.5625 -0.4375q-0.84375 0 -1.546875 0.4375q-0.703125 0.4375 -1.109375 1.15625q-0.40625 0.71875 -0.40625 1.640625q0 0.890625 0.40625 1.640625q0.40625 0.734375 1.109375 1.15625q0.703125 0.421875 1.546875 0.421875zm13.138184 2.546875q-1.65625 0 -3.0 -0.765625q-1.34375 -0.78125 -2.140625 -2.078125q-0.78125 -1.296875 -0.78125 -2.921875q0 -1.625 0.78125 -2.9375q0.78125 -1.3125 2.125 -2.078125q1.359375 -0.765625 3.015625 -0.765625q1.671875 0 3.015625 0.765625q1.359375 0.765625 2.140625 2.078125q0.78125 1.3125 0.78125 2.9375q0 1.625 -0.78125 2.921875q-0.78125 1.296875 -2.125 2.078125q-1.34375 0.765625 -3.03125 0.765625zm0 -2.546875q0.875 0 1.5625 -0.421875q0.703125 -0.421875 1.109375 -1.15625q0.421875 -0.75 0.421875 -1.640625q0 -0.921875 -0.421875 -1.640625q-0.40625 -0.71875 -1.109375 -1.15625q-0.6875 -0.4375 -1.5625 -0.4375q-0.84375 0 -1.546875 0.4375q-0.703125 0.4375 -1.109375 1.15625q-0.40625 0.71875 -0.40625 1.640625q0 0.890625 0.40625 1.640625q0.40625 0.734375 1.109375 1.15625q0.703125 0.421875 1.546875 0.421875zm7.7319336 2.328125l0 -14.9375l2.921875 -0.484375l0 15.421875l-2.921875 0zm5.2040863 0l0 -14.9375l2.921875 -0.484375l0 8.984375l4.796875 -4.671875l3.296875 0l-5.234375 5.09375l5.5625 6.015625l-3.734375 0l-4.6875 -5.078125l0 5.078125l-2.921875 0zm12.114426 0l0 -11.109375l2.921875 0l0 11.109375l-2.921875 0zm1.453125 -12.4375q-0.6875 0 -1.1875 -0.484375q-0.484375 -0.5 -0.484375 -1.171875q0 -0.703125 0.484375 -1.1875q0.5 -0.484375 1.1875 -0.484375q0.703125 0 1.171875 0.484375q0.484375 0.484375 0.484375 1.1875q0 0.671875 -0.484375 1.171875q-0.46875 0.484375 -1.171875 0.484375zm9.016586 12.609375q-1.859375 0 -2.8125 -0.84375q-0.9375 -0.84375 -0.9375 -2.46875l0 -5.546875l-2.28125 0l0 -2.421875l2.28125 0l0 -2.84375l2.921875 -0.65625l0 3.5l3.171875 0l0 2.421875l-3.171875 0l0 4.953125q0 0.765625 0.328125 1.109375q0.34375 0.328125 1.203125 0.328125q0.421875 0 0.765625 -0.046875q0.359375 -0.0625 0.796875 -0.21875l0 2.40625q-0.453125 0.15625 -1.125 0.234375q-0.671875 0.09375 -1.140625 0.09375zm9.767639 -0.171875l0 -8.6875l-2.46875 0l0 -2.421875l2.46875 0l0 -1.0625q0 -1.890625 1.078125 -2.875q1.09375 -0.984375 3.140625 -0.984375q0.453125 0 0.921875 0.046875q0.46875 0.03125 0.8125 0.140625l0 2.453125q-0.40625 -0.09375 -0.703125 -0.125q-0.296875 -0.046875 -0.671875 -0.046875q-0.828125 0 -1.25 0.359375q-0.40625 0.34375 -0.40625 1.09375l0 1.0l3.03125 0l0 2.421875l-3.03125 0l0 8.6875l-2.921875 0zm12.447586 0.21875q-1.65625 0 -3.0 -0.765625q-1.34375 -0.78125 -2.140625 -2.078125q-0.78125 -1.296875 -0.78125 -2.921875q0 -1.625 0.78125 -2.9375q0.78125 -1.3125 2.125 -2.078125q1.359375 -0.765625 3.015625 -0.765625q1.671875 0 3.015625 0.765625q1.359375 0.765625 2.140625 2.078125q0.78125 1.3125 0.78125 2.9375q0 1.625 -0.78125 2.921875q-0.78125 1.296875 -2.125 2.078125q-1.34375 0.765625 -3.03125 0.765625zm0 -2.546875q0.875 0 1.5625 -0.421875q0.703125 -0.421875 1.109375 -1.15625q0.421875 -0.75 0.421875 -1.640625q0 -0.921875 -0.421875 -1.640625q-0.40625 -0.71875 -1.109375 -1.15625q-0.6875 -0.4375 -1.5625 -0.4375q-0.84375 0 -1.546875 0.4375q-0.703125 0.4375 -1.109375 1.15625q-0.40625 0.71875 -0.40625 1.640625q0 0.890625 0.40625 1.640625q0.40625 0.734375 1.109375 1.15625q0.703125 0.421875 1.546875 0.421875zm7.7319336 2.328125l0 -11.109375l2.921875 0l0 1.234375q0.53125 -0.71875 1.265625 -1.109375q0.75 -0.390625 1.6875 -0.390625q0.8125 0.03125 1.21875 0.265625l0 2.5625q-0.3125 -0.15625 -0.703125 -0.21875q-0.375 -0.078125 -0.78125 -0.078125q-0.859375 0 -1.5625 0.421875q-0.703125 0.421875 -1.125 1.21875l0 7.203125l-2.921875 0zm11.754501 0l6.140625 -14.9375l3.5625 0l6.078125 14.9375l-3.359375 0l-1.515625 -3.921875l-6.15625 0l-1.53125 3.921875l-3.21875 0zm5.703125 -6.40625l4.265625 0l-2.125 -5.5l-2.140625 5.5zm11.143494 10.75l0 -15.453125l2.875 0l0 0.921875q1.359375 -1.078125 3.15625 -1.078125q1.578125 0 2.859375 0.78125q1.28125 0.765625 2.03125 2.0625q0.765625 1.28125 0.765625 2.875q0 1.59375 -0.78125 2.890625q-0.765625 1.296875 -2.0625 2.0625q-1.296875 0.75 -2.890625 0.75q-0.84375 0 -1.609375 -0.21875q-0.765625 -0.234375 -1.421875 -0.65625l0 5.0625l-2.921875 0zm5.5625 -6.671875q0.921875 0 1.65625 -0.421875q0.734375 -0.421875 1.15625 -1.140625q0.421875 -0.734375 0.421875 -1.65625q0 -0.921875 -0.421875 -1.65625q-0.421875 -0.734375 -1.15625 -1.140625q-0.734375 -0.421875 -1.65625 -0.421875q-0.8125 0 -1.484375 0.265625q-0.671875 0.265625 -1.15625 0.796875l0 4.328125q0.46875 0.5 1.15625 0.78125q0.6875 0.265625 1.484375 0.265625zm7.8955994 6.671875l0 -15.453125l2.875 0l0 0.921875q1.359375 -1.078125 3.15625 -1.078125q1.578125 0 2.859375 0.78125q1.28125 0.765625 2.03125 2.0625q0.765625 1.28125 0.765625 2.875q0 1.59375 -0.78125 2.890625q-0.765625 1.296875 -2.0625 2.0625q-1.296875 0.75 -2.890625 0.75q-0.84375 0 -1.609375 -0.21875q-0.765625 -0.234375 -1.421875 -0.65625l0 5.0625l-2.921875 0zm5.5625 -6.671875q0.921875 0 1.65625 -0.421875q0.734375 -0.421875 1.15625 -1.140625q0.421875 -0.734375 0.421875 -1.65625q0 -0.921875 -0.421875 -1.65625q-0.421875 -0.734375 -1.15625 -1.140625q-0.734375 -0.421875 -1.65625 -0.421875q-0.8125 0 -1.484375 0.265625q-0.671875 0.265625 -1.15625 0.796875l0 4.328125q0.46875 0.5 1.15625 0.78125q0.6875 0.265625 1.484375 0.265625zm7.8955994 2.328125l0 -14.9375l2.921875 -0.484375l0 15.421875l-2.921875 0zm5.204071 0l0 -11.109375l2.921875 0l0 11.109375l-2.921875 0zm1.453125 -12.4375q-0.6875 0 -1.1875 -0.484375q-0.484375 -0.5 -0.484375 -1.171875q0 -0.703125 0.484375 -1.1875q0.5 -0.484375 1.1875 -0.484375q0.703125 0 1.171875 0.484375q0.484375 0.484375 0.484375 1.1875q0 0.671875 -0.484375 1.171875q-0.46875 0.484375 -1.171875 0.484375zm9.063477 12.65625q-1.65625 0 -2.984375 -0.75q-1.3125 -0.765625 -2.078125 -2.078125q-0.765625 -1.3125 -0.765625 -2.9375q0 -1.640625 0.765625 -2.9375q0.765625 -1.3125 2.078125 -2.078125q1.328125 -0.765625 2.984375 -0.765625q1.3125 0 2.515625 0.515625q1.203125 0.515625 2.078125 1.46875l-1.78125 1.90625q-0.625 -0.6875 -1.296875 -1.015625q-0.671875 -0.328125 -1.453125 -0.328125q-0.859375 0 -1.53125 0.421875q-0.671875 0.421875 -1.0625 1.15625q-0.390625 0.71875 -0.390625 1.65625q0 0.890625 0.390625 1.640625q0.390625 0.734375 1.09375 1.15625q0.703125 0.40625 1.5625 0.40625q0.75 0 1.390625 -0.3125q0.65625 -0.3125 1.25 -0.921875l1.75 1.828125q-0.859375 0.921875 -2.0625 1.453125q-1.1875 0.515625 -2.453125 0.515625zm9.565369 -0.03125q-1.1875 0 -2.109375 -0.4375q-0.921875 -0.4375 -1.4375 -1.203125q-0.5 -0.765625 -0.5 -1.765625q0 -1.59375 1.203125 -2.484375q1.203125 -0.890625 3.3125 -0.890625q1.453125 0 2.734375 0.453125l0 -0.8125q0 -0.953125 -0.59375 -1.4375q-0.59375 -0.5 -1.75 -0.5q-0.703125 0 -1.515625 0.21875q-0.8125 0.21875 -1.875 0.6875l-1.0625 -2.140625q1.3125 -0.609375 2.515625 -0.90625q1.203125 -0.296875 2.421875 -0.296875q2.25 0 3.484375 1.078125q1.25 1.078125 1.25 3.046875l0 7.203125l-2.875 0l0 -0.796875q-0.6875 0.515625 -1.484375 0.75q-0.78125 0.234375 -1.71875 0.234375zm-1.28125 -3.46875q0 0.640625 0.546875 1.015625q0.5625 0.375 1.484375 0.375q0.71875 0 1.34375 -0.1875q0.625 -0.1875 1.109375 -0.546875l0 -1.625q-0.53125 -0.203125 -1.109375 -0.3125q-0.578125 -0.109375 -1.234375 -0.109375q-1.0 0 -1.578125 0.375q-0.5625 0.375 -0.5625 1.015625zm14.532776 3.453125q-1.859375 0 -2.8125 -0.84375q-0.9375 -0.84375 -0.9375 -2.46875l0 -5.546875l-2.28125 0l0 -2.421875l2.28125 0l0 -2.84375l2.921875 -0.65625l0 3.5l3.171875 0l0 2.421875l-3.171875 0l0 4.953125q0 0.765625 0.328125 1.109375q0.34375 0.328125 1.203125 0.328125q0.421875 0 0.765625 -0.046875q0.359375 -0.0625 0.796875 -0.21875l0 2.40625q-0.453125 0.15625 -1.125 0.234375q-0.671875 0.09375 -1.140625 0.09375zm3.7775269 -0.171875l0 -11.109375l2.921875 0l0 11.109375l-2.921875 0zm1.453125 -12.4375q-0.6875 0 -1.1875 -0.484375q-0.484375 -0.5 -0.484375 -1.171875q0 -0.703125 0.484375 -1.1875q0.5 -0.484375 1.1875 -0.484375q0.703125 0 1.171875 0.484375q0.484375 0.484375 0.484375 1.1875q0 0.671875 -0.484375 1.171875q-0.46875 0.484375 -1.171875 0.484375zm9.157227 12.65625q-1.65625 0 -3.0 -0.765625q-1.34375 -0.78125 -2.140625 -2.078125q-0.78125 -1.296875 -0.78125 -2.921875q0 -1.625 0.78125 -2.9375q0.78125 -1.3125 2.125 -2.078125q1.359375 -0.765625 3.015625 -0.765625q1.671875 0 3.015625 0.765625q1.359375 0.765625 2.140625 2.078125q0.78125 1.3125 0.78125 2.9375q0 1.625 -0.78125 2.921875q-0.78125 1.296875 -2.125 2.078125q-1.34375 0.765625 -3.03125 0.765625zm0 -2.546875q0.875 0 1.5625 -0.421875q0.703125 -0.421875 1.109375 -1.15625q0.421875 -0.75 0.421875 -1.640625q0 -0.921875 -0.421875 -1.640625q-0.40625 -0.71875 -1.109375 -1.15625q-0.6875 -0.4375 -1.5625 -0.4375q-0.84375 0 -1.546875 0.4375q-0.703125 0.4375 -1.109375 1.15625q-0.40625 0.71875 -0.40625 1.640625q0 0.890625 0.40625 1.640625q0.40625 0.734375 1.109375 1.15625q0.703125 0.421875 1.546875 0.421875zm7.7319336 2.328125l0 -11.109375l2.921875 0l0 0.921875q1.25 -1.140625 3.109375 -1.140625q1.296875 0 2.28125 0.578125q1.0 0.5625 1.546875 1.546875q0.5625 0.984375 0.5625 2.3125l0 6.890625l-2.921875 0l0 -6.46875q0 -1.078125 -0.625 -1.703125q-0.609375 -0.640625 -1.671875 -0.640625q-0.75 0 -1.328125 0.296875q-0.578125 0.28125 -0.953125 0.8125l0 7.703125l-2.921875 0zm16.803894 0.21875q-1.53125 0 -2.84375 -0.390625q-1.296875 -0.40625 -2.25 -1.15625l1.4375 -1.9375q0.96875 0.640625 1.84375 0.96875q0.890625 0.3125 1.765625 0.3125q0.984375 0 1.5625 -0.328125q0.59375 -0.328125 0.59375 -0.859375q0 -0.4375 -0.328125 -0.6875q-0.328125 -0.25 -1.0625 -0.359375l-2.125 -0.328125q-1.671875 -0.25 -2.53125 -1.0625q-0.84375 -0.828125 -0.84375 -2.171875q0 -1.09375 0.5625 -1.859375q0.5625 -0.78125 1.59375 -1.21875q1.046875 -0.4375 2.46875 -0.4375q1.21875 0 2.375 0.34375q1.171875 0.328125 2.1875 1.03125l-1.40625 1.90625q-0.90625 -0.578125 -1.75 -0.828125q-0.828125 -0.265625 -1.671875 -0.265625q-0.796875 0 -1.28125 0.296875q-0.46875 0.296875 -0.46875 0.796875q0 0.4375 0.328125 0.703125q0.34375 0.25 1.1875 0.359375l2.109375 0.3125q1.65625 0.234375 2.53125 1.0625q0.875 0.828125 0.875 2.125q0 1.0625 -0.640625 1.890625q-0.640625 0.8125 -1.734375 1.296875q-1.078125 0.484375 -2.484375 0.484375z" fill-rule="nonzero"/></g></svg>