<svg version="1.1" height="40" viewBox="0.0 0.0 364.8005249343832 33.6010498687664" fill="none" stroke="none" stroke-linecap="square" stroke-miterlimit="10" xmlns:xlink="http://www.w3.org/1999/xlink" xmlns="http://www.w3.org/2000/svg"><clipPath id="p.0"><path d="m0 0l364.80054 0l0 33.60105l-364.80054 0l0 -33.60105z" clip-rule="nonzero"/></clipPath><g clip-path="url(#p.0)"><path fill="#000000" fill-opacity="0.0" d="m0 0l364.80054 0l0 33.60105l-364.80054 0z" fill-rule="evenodd"/><path fill="#000000" fill-opacity="0.0" d="m0 0l364.7874 0l0 33.574802l-364.7874 0z" fill-rule="evenodd"/><path fill="#ffffff" d="m8.921875 21.867401l0 -10.265625l2.734375 0l2.8125 5.546875l2.8125 -5.546875l2.71875 0l0 10.265625l-2.0 0l0 -7.546875l-3.5625 6.8125l-3.546875 -6.84375l0 7.578125l-1.96875 0zm12.801865 0l0 -7.640625l2.0 0l0 7.640625l-2.0 0zm0.984375 -8.546875q-0.46875 0 -0.8125 -0.328125q-0.328125 -0.34375 -0.328125 -0.8125q0 -0.484375 0.328125 -0.8125q0.34375 -0.328125 0.8125 -0.328125q0.484375 0 0.8125 0.328125q0.34375 0.328125 0.34375 0.8125q0 0.46875 -0.34375 0.8125q-0.328125 0.328125 -0.8125 0.328125zm6.4198914 11.6875q-0.875 0 -1.703125 -0.1875q-0.8125 -0.1875 -1.46875 -0.515625l0.703125 -1.5625q0.625 0.3125 1.21875 0.453125q0.609375 0.15625 1.21875 0.15625q0.890625 0 1.34375 -0.390625q0.46875 -0.375 0.46875 -1.140625l0 -0.59375q-0.9375 0.6875 -2.09375 0.6875q-1.09375 0 -1.96875 -0.515625q-0.859375 -0.53125 -1.390625 -1.421875q-0.515625 -0.890625 -0.515625 -1.984375q0 -1.078125 0.515625 -1.953125q0.53125 -0.890625 1.421875 -1.40625q0.890625 -0.515625 2.0 -0.515625q0.546875 0 1.078125 0.15625q0.53125 0.15625 0.984375 0.453125l0 -0.5l1.96875 0l0 7.625q0 1.515625 -0.96875 2.328125q-0.96875 0.828125 -2.8125 0.828125zm-0.015625 -4.796875q0.5625 0 1.015625 -0.171875q0.453125 -0.1875 0.78125 -0.53125l0 -2.984375q-0.328125 -0.328125 -0.796875 -0.5q-0.453125 -0.1875 -0.984375 -0.1875q-0.625 0 -1.125 0.28125q-0.5 0.28125 -0.796875 0.78125q-0.28125 0.484375 -0.28125 1.09375q0 0.640625 0.28125 1.140625q0.28125 0.484375 0.78125 0.78125q0.515625 0.296875 1.125 0.296875zm5.376999 1.65625l0 -7.640625l2.0 0l0 0.859375q0.375 -0.5 0.875 -0.765625q0.515625 -0.265625 1.171875 -0.265625q0.546875 0.015625 0.828125 0.171875l0 1.765625q-0.21875 -0.109375 -0.484375 -0.15625q-0.265625 -0.046875 -0.546875 -0.046875q-0.578125 0 -1.0625 0.296875q-0.484375 0.28125 -0.78125 0.828125l0 4.953125l-2.0 0zm8.196304 0.125q-0.8125 0 -1.453125 -0.296875q-0.625 -0.296875 -0.984375 -0.828125q-0.34375 -0.53125 -0.34375 -1.21875q0 -1.09375 0.828125 -1.703125q0.828125 -0.609375 2.28125 -0.609375q1.0 0 1.875 0.3125l0 -0.5625q0 -0.65625 -0.40625 -0.984375q-0.40625 -0.34375 -1.203125 -0.34375q-0.484375 0 -1.046875 0.15625q-0.546875 0.15625 -1.28125 0.46875l-0.734375 -1.484375q0.90625 -0.40625 1.734375 -0.609375q0.828125 -0.203125 1.65625 -0.203125q1.546875 0 2.40625 0.75q0.859375 0.734375 0.859375 2.078125l0 4.953125l-1.984375 0l0 -0.546875q-0.46875 0.359375 -1.015625 0.515625q-0.53125 0.15625 -1.1875 0.15625zm-0.875 -2.375q0 0.4375 0.375 0.703125q0.390625 0.25 1.015625 0.25q0.5 0 0.921875 -0.125q0.421875 -0.125 0.765625 -0.375l0 -1.125q-0.359375 -0.140625 -0.765625 -0.203125q-0.390625 -0.078125 -0.84375 -0.078125q-0.6875 0 -1.078125 0.25q-0.390625 0.25 -0.390625 0.703125zm9.976746 2.375q-1.265625 0 -1.921875 -0.578125q-0.65625 -0.59375 -0.65625 -1.703125l0 -3.8125l-1.5625 0l0 -1.671875l1.5625 0l0 -1.9375l2.015625 -0.46875l0 2.40625l2.1875 0l0 1.671875l-2.1875 0l0 3.40625q0 0.53125 0.234375 0.765625q0.234375 0.21875 0.8125 0.21875q0.296875 0 0.53125 -0.03125q0.25 -0.046875 0.546875 -0.15625l0 1.65625q-0.3125 0.109375 -0.78125 0.171875q-0.453125 0.0625 -0.78125 0.0625zm2.6049042 -0.125l0 -7.640625l2.0 0l0 7.640625l-2.0 0zm0.984375 -8.546875q-0.46875 0 -0.8125 -0.328125q-0.328125 -0.34375 -0.328125 -0.8125q0 -0.484375 0.328125 -0.8125q0.34375 -0.328125 0.8125 -0.328125q0.484375 0 0.8125 0.328125q0.34375 0.328125 0.34375 0.8125q0 0.46875 -0.34375 0.8125q-0.328125 0.328125 -0.8125 0.328125zm6.3105164 8.6875q-1.140625 0 -2.0625 -0.515625q-0.921875 -0.53125 -1.46875 -1.421875q-0.546875 -0.90625 -0.546875 -2.015625q0 -1.109375 0.53125 -2.015625q0.546875 -0.90625 1.46875 -1.421875q0.9375 -0.53125 2.078125 -0.53125q1.140625 0 2.0625 0.53125q0.9375 0.515625 1.46875 1.421875q0.546875 0.90625 0.546875 2.015625q0 1.109375 -0.546875 2.015625q-0.53125 0.890625 -1.453125 1.421875q-0.921875 0.515625 -2.078125 0.515625zm0 -1.734375q0.59375 0 1.0625 -0.296875q0.484375 -0.296875 0.765625 -0.796875q0.296875 -0.5 0.296875 -1.125q0 -0.625 -0.296875 -1.125q-0.28125 -0.5 -0.765625 -0.796875q-0.46875 -0.296875 -1.0625 -0.296875q-0.59375 0 -1.078125 0.296875q-0.484375 0.296875 -0.765625 0.796875q-0.265625 0.5 -0.265625 1.125q0 0.625 0.265625 1.125q0.28125 0.5 0.765625 0.796875q0.484375 0.296875 1.078125 0.296875zm5.30954 1.59375l0 -7.640625l2.0 0l0 0.640625q0.875 -0.78125 2.140625 -0.78125q0.890625 0 1.578125 0.390625q0.6875 0.390625 1.0625 1.078125q0.375 0.671875 0.375 1.578125l0 4.734375l-2.0 0l0 -4.4375q0 -0.75 -0.4375 -1.171875q-0.421875 -0.4375 -1.140625 -0.4375q-0.515625 0 -0.921875 0.203125q-0.390625 0.1875 -0.65625 0.546875l0 5.296875l-2.0 0zm14.5589905 0l0 -8.390625l-3.453125 0l0 -1.875l9.03125 0l0 1.875l-3.453125 0l0 8.390625l-2.125 0zm8.607452 0.140625q-1.140625 0 -2.0625 -0.515625q-0.921875 -0.53125 -1.46875 -1.421875q-0.546875 -0.90625 -0.546875 -2.015625q0 -1.109375 0.53125 -2.015625q0.546875 -0.90625 1.46875 -1.421875q0.9375 -0.53125 2.078125 -0.53125q1.140625 0 2.0625 0.53125q0.9375 0.515625 1.46875 1.421875q0.546875 0.90625 0.546875 2.015625q0 1.109375 -0.546875 2.015625q-0.53125 0.890625 -1.453125 1.421875q-0.921875 0.515625 -2.078125 0.515625zm0 -1.734375q0.59375 0 1.0625 -0.296875q0.484375 -0.296875 0.765625 -0.796875q0.296875 -0.5 0.296875 -1.125q0 -0.625 -0.296875 -1.125q-0.28125 -0.5 -0.765625 -0.796875q-0.46875 -0.296875 -1.0625 -0.296875q-0.59375 0 -1.078125 0.296875q-0.484375 0.296875 -0.765625 0.796875q-0.265625 0.5 -0.265625 1.125q0 0.625 0.265625 1.125q0.28125 0.5 0.765625 0.796875q0.484375 0.296875 1.078125 0.296875zm9.02829 1.734375q-1.140625 0 -2.0625 -0.515625q-0.921875 -0.53125 -1.46875 -1.421875q-0.546875 -0.90625 -0.546875 -2.015625q0 -1.109375 0.53125 -2.015625q0.546875 -0.90625 1.46875 -1.421875q0.9375 -0.53125 2.078125 -0.53125q1.140625 0 2.0625 0.53125q0.9375 0.515625 1.46875 1.421875q0.546875 0.90625 0.546875 2.015625q0 1.109375 -0.546875 2.015625q-0.53125 0.890625 -1.453125 1.421875q-0.921875 0.515625 -2.078125 0.515625zm0 -1.734375q0.59375 0 1.0625 -0.296875q0.484375 -0.296875 0.765625 -0.796875q0.296875 -0.5 0.296875 -1.125q0 -0.625 -0.296875 -1.125q-0.28125 -0.5 -0.765625 -0.796875q-0.46875 -0.296875 -1.0625 -0.296875q-0.59375 0 -1.078125 0.296875q-0.484375 0.296875 -0.765625 0.796875q-0.265625 0.5 -0.265625 1.125q0 0.625 0.265625 1.125q0.28125 0.5 0.765625 0.796875q0.484375 0.296875 1.078125 0.296875zm5.30954 1.59375l0 -10.265625l2.0 -0.328125l0 10.59375l-2.0 0zm3.5761414 0l0 -10.265625l2.0 -0.328125l0 6.171875l3.296875 -3.21875l2.28125 0l-3.609375 3.5l3.828125 4.140625l-2.5625 0l-3.234375 -3.484375l0 3.484375l-2.0 0zm8.324783 0l0 -7.640625l2.0 0l0 7.640625l-2.0 0zm0.984375 -8.546875q-0.46875 0 -0.8125 -0.328125q-0.328125 -0.34375 -0.328125 -0.8125q0 -0.484375 0.328125 -0.8125q0.34375 -0.328125 0.8125 -0.328125q0.484375 0 0.8125 0.328125q0.34375 0.328125 0.34375 0.8125q0 0.46875 -0.34375 0.8125q-0.328125 0.328125 -0.8125 0.328125zm6.2011414 8.671875q-1.265625 0 -1.921875 -0.578125q-0.65625 -0.59375 -0.65625 -1.703125l0 -3.8125l-1.5625 0l0 -1.671875l1.5625 0l0 -1.9375l2.015625 -0.46875l0 2.40625l2.1875 0l0 1.671875l-2.1875 0l0 3.40625q0 0.53125 0.234375 0.765625q0.234375 0.21875 0.8125 0.21875q0.296875 0 0.53125 -0.03125q0.25 -0.046875 0.546875 -0.15625l0 1.65625q-0.3125 0.109375 -0.78125 0.171875q-0.453125 0.0625 -0.78125 0.0625zm6.722702 -0.125l0 -5.96875l-1.703125 0l0 -1.671875l1.703125 0l0 -0.734375q0 -1.28125 0.734375 -1.953125q0.75 -0.6875 2.15625 -0.6875q0.3125 0 0.625 0.03125q0.328125 0.015625 0.5625 0.09375l0 1.6875q-0.265625 -0.0625 -0.484375 -0.09375q-0.203125 -0.03125 -0.453125 -0.03125q-0.5625 0 -0.859375 0.25q-0.28125 0.234375 -0.28125 0.75l0 0.6875l2.078125 0l0 1.671875l-2.078125 0l0 5.96875l-2.0 0zm8.55574 0.140625q-1.140625 0 -2.0625 -0.515625q-0.921875 -0.53125 -1.46875 -1.421875q-0.546875 -0.90625 -0.546875 -2.015625q0 -1.109375 0.53125 -2.015625q0.546875 -0.90625 1.46875 -1.421875q0.9375 -0.53125 2.078125 -0.53125q1.140625 0 2.0625 0.53125q0.9375 0.515625 1.46875 1.421875q0.546875 0.90625 0.546875 2.015625q0 1.109375 -0.546875 2.015625q-0.53125 0.890625 -1.453125 1.421875q-0.921875 0.515625 -2.078125 0.515625zm0 -1.734375q0.59375 0 1.0625 -0.296875q0.484375 -0.296875 0.765625 -0.796875q0.296875 -0.5 0.296875 -1.125q0 -0.625 -0.296875 -1.125q-0.28125 -0.5 -0.765625 -0.796875q-0.46875 -0.296875 -1.0625 -0.296875q-0.59375 0 -1.078125 0.296875q-0.484375 0.296875 -0.765625 0.796875q-0.265625 0.5 -0.265625 1.125q0 0.625 0.265625 1.125q0.28125 0.5 0.765625 0.796875q0.484375 0.296875 1.078125 0.296875zm5.30954 1.59375l0 -7.640625l2.0 0l0 0.859375q0.375 -0.5 0.875 -0.765625q0.515625 -0.265625 1.171875 -0.265625q0.546875 0.015625 0.828125 0.171875l0 1.765625q-0.21875 -0.109375 -0.484375 -0.15625q-0.265625 -0.046875 -0.546875 -0.046875q-0.578125 0 -1.0625 0.296875q-0.484375 0.28125 -0.78125 0.828125l0 4.953125l-2.0 0zm9.05069 0l0 -10.265625l5.015625 0q1.03125 0 1.828125 0.40625q0.8125 0.40625 1.25 1.125q0.453125 0.71875 0.453125 1.65625q0 0.984375 -0.546875 1.734375q-0.53125 0.734375 -1.453125 1.109375l2.28125 4.234375l-2.375 0l-2.015625 -3.921875l-2.3125 0l0 3.921875l-2.125 0zm2.125 -5.671875l2.703125 0q0.71875 0 1.140625 -0.375q0.4375 -0.390625 0.4375 -1.0q0 -0.625 -0.4375 -1.0q-0.421875 -0.375 -1.140625 -0.375l-2.703125 0l0 2.75zm10.508087 5.8125q-0.875 0 -1.5625 -0.375q-0.671875 -0.390625 -1.0625 -1.078125q-0.390625 -0.703125 -0.390625 -1.59375l0 -4.734375l2.0 0l0 4.453125q0 0.71875 0.4375 1.171875q0.4375 0.4375 1.171875 0.4375q0.5 0 0.890625 -0.203125q0.40625 -0.203125 0.671875 -0.5625l0 -5.296875l2.015625 0l0 7.640625l-2.015625 0l0 -0.609375q-0.875 0.75 -2.15625 0.75zm5.7380676 -0.140625l0 -7.640625l2.0 0l0 0.640625q0.875 -0.78125 2.140625 -0.78125q0.890625 0 1.578125 0.390625q0.6875 0.390625 1.0625 1.078125q0.375 0.671875 0.375 1.578125l0 4.734375l-2.0 0l0 -4.4375q0 -0.75 -0.4375 -1.171875q-0.421875 -0.4375 -1.140625 -0.4375q-0.515625 0 -0.921875 0.203125q-0.390625 0.1875 -0.65625 0.546875l0 5.296875l-2.0 0zm12.080566 0.125q-1.265625 0 -1.921875 -0.578125q-0.65625 -0.59375 -0.65625 -1.703125l0 -3.8125l-1.5625 0l0 -1.671875l1.5625 0l0 -1.9375l2.015625 -0.46875l0 2.40625l2.1875 0l0 1.671875l-2.1875 0l0 3.40625q0 0.53125 0.234375 0.765625q0.234375 0.21875 0.8125 0.21875q0.296875 0 0.53125 -0.03125q0.25 -0.046875 0.546875 -0.15625l0 1.65625q-0.3125 0.109375 -0.78125 0.171875q-0.453125 0.0625 -0.78125 0.0625zm2.6049042 -0.125l0 -7.640625l2.0 0l0 7.640625l-2.0 0zm0.984375 -8.546875q-0.46875 0 -0.8125 -0.328125q-0.328125 -0.34375 -0.328125 -0.8125q0 -0.484375 0.328125 -0.8125q0.34375 -0.328125 0.8125 -0.328125q0.484375 0 0.8125 0.328125q0.34375 0.328125 0.34375 0.8125q0 0.46875 -0.34375 0.8125q-0.328125 0.328125 -0.8125 0.328125zm2.5917664 8.546875l0 -7.640625l2.0 0l0 0.59375q0.828125 -0.734375 2.0 -0.734375q0.75 0 1.328125 0.296875q0.59375 0.296875 0.96875 0.84375q0.46875 -0.5625 1.109375 -0.84375q0.640625 -0.296875 1.40625 -0.296875q0.875 0 1.515625 0.390625q0.65625 0.390625 1.03125 1.078125q0.375 0.671875 0.375 1.578125l0 4.734375l-2.0 0l0 -4.4375q0 -0.75 -0.390625 -1.171875q-0.390625 -0.4375 -1.046875 -0.4375q-0.46875 0 -0.84375 0.1875q-0.359375 0.1875 -0.625 0.5625q0.015625 0.140625 0.03125 0.28125q0.015625 0.125 0.015625 0.28125l0 4.734375l-2.015625 0l0 -4.4375q0 -0.75 -0.390625 -1.171875q-0.390625 -0.4375 -1.046875 -0.4375q-0.453125 0 -0.8125 0.171875q-0.359375 0.171875 -0.609375 0.53125l0 5.34375l-2.0 0zm16.998337 0.140625q-1.140625 0 -2.078125 -0.515625q-0.921875 -0.53125 -1.46875 -1.421875q-0.546875 -0.90625 -0.546875 -2.015625q0 -1.109375 0.515625 -2.0q0.53125 -0.90625 1.421875 -1.421875q0.890625 -0.53125 2.0 -0.53125q1.09375 0 1.9375 0.546875q0.859375 0.53125 1.34375 1.453125q0.5 0.921875 0.5 2.09375l0 0.53125l-5.671875 0q0.140625 0.453125 0.4375 0.828125q0.296875 0.359375 0.75 0.578125q0.453125 0.203125 0.953125 0.203125q0.515625 0 0.953125 -0.15625q0.4375 -0.171875 0.734375 -0.46875l1.328125 1.203125q-0.703125 0.578125 -1.453125 0.84375q-0.734375 0.25 -1.65625 0.25zm-2.0625 -4.71875l3.703125 0q-0.109375 -0.453125 -0.375 -0.796875q-0.265625 -0.34375 -0.640625 -0.53125q-0.375 -0.203125 -0.828125 -0.203125q-0.46875 0 -0.859375 0.1875q-0.375 0.1875 -0.640625 0.53125q-0.25 0.34375 -0.359375 0.8125zm9.849426 4.71875q-1.0625 0 -1.953125 -0.265625q-0.890625 -0.265625 -1.5625 -0.78125l1.0 -1.34375q0.65625 0.453125 1.265625 0.671875q0.609375 0.21875 1.21875 0.21875q0.671875 0 1.0625 -0.21875q0.40625 -0.234375 0.40625 -0.609375q0 -0.296875 -0.234375 -0.46875q-0.21875 -0.171875 -0.71875 -0.25l-1.453125 -0.21875q-1.15625 -0.171875 -1.75 -0.734375q-0.578125 -0.5625 -0.578125 -1.484375q0 -0.75 0.390625 -1.28125q0.390625 -0.546875 1.09375 -0.84375q0.71875 -0.296875 1.703125 -0.296875q0.828125 0 1.625 0.234375q0.8125 0.234375 1.515625 0.71875l-0.96875 1.296875q-0.640625 -0.390625 -1.21875 -0.5625q-0.5625 -0.1875 -1.140625 -0.1875q-0.546875 0 -0.875 0.21875q-0.328125 0.203125 -0.328125 0.53125q0 0.3125 0.234375 0.5q0.234375 0.171875 0.796875 0.234375l1.453125 0.21875q1.15625 0.171875 1.75 0.734375q0.59375 0.5625 0.59375 1.453125q0 0.734375 -0.4375 1.296875q-0.4375 0.5625 -1.1875 0.890625q-0.75 0.328125 -1.703125 0.328125z" fill-rule="nonzero"/><path fill="#ffffff" d="m222.05403 18.226776l0 -0.96875l5.109375 0l0 0.96875l-5.109375 0zm11.702469 3.640625l-2.203125 -10.265625l1.140625 0l1.75 8.484375l2.53125 -8.484375l1.09375 0l2.546875 8.453125l1.75 -8.453125l1.09375 0l-2.203125 10.265625l-1.140625 0l-2.59375 -8.6875l-2.609375 8.6875l-1.15625 0zm13.923111 0.125q-1.0625 0 -1.921875 -0.5q-0.859375 -0.5 -1.359375 -1.359375q-0.5 -0.875 -0.5 -1.9375q0 -1.0625 0.46875 -1.921875q0.484375 -0.859375 1.296875 -1.359375q0.828125 -0.5 1.84375 -0.5q0.984375 0 1.765625 0.5q0.78125 0.5 1.25 1.359375q0.46875 0.859375 0.46875 1.921875l0 0.328125l-6.03125 0q0.09375 0.71875 0.453125 1.296875q0.375 0.5625 0.96875 0.890625q0.609375 0.328125 1.328125 0.328125q0.578125 0 1.109375 -0.171875q0.546875 -0.171875 0.921875 -0.5l0.671875 0.71875q-0.609375 0.453125 -1.28125 0.6875q-0.671875 0.21875 -1.453125 0.21875zm-2.6875 -4.328125l4.90625 0q-0.09375 -0.65625 -0.4375 -1.171875q-0.34375 -0.53125 -0.859375 -0.828125q-0.5 -0.296875 -1.125 -0.296875q-0.625 0 -1.15625 0.296875q-0.53125 0.28125 -0.890625 0.8125q-0.34375 0.515625 -0.4375 1.1875zm7.500534 4.203125l0 -10.265625l1.09375 -0.25l0 3.953125q0.9375 -0.890625 2.359375 -0.890625q1.03125 0 1.859375 0.5q0.84375 0.5 1.328125 1.359375q0.5 0.84375 0.5 1.921875q0 1.0625 -0.5 1.921875q-0.484375 0.859375 -1.328125 1.375q-0.828125 0.5 -1.875 0.5q-0.65625 0 -1.265625 -0.21875q-0.609375 -0.234375 -1.09375 -0.640625l0 0.734375l-1.078125 0zm3.34375 -0.828125q0.78125 0 1.390625 -0.375q0.609375 -0.375 0.96875 -1.015625q0.359375 -0.640625 0.359375 -1.453125q0 -0.796875 -0.359375 -1.4375q-0.359375 -0.65625 -0.96875 -1.015625q-0.609375 -0.375 -1.390625 -0.375q-0.6875 0 -1.28125 0.265625q-0.59375 0.265625 -0.96875 0.75l0 3.640625q0.375 0.46875 0.96875 0.75q0.609375 0.265625 1.28125 0.265625zm13.501434 0.984375q-1.125 0 -2.09375 -0.390625q-0.953125 -0.40625 -1.6875 -1.125q-0.734375 -0.734375 -1.140625 -1.6875q-0.40625 -0.96875 -0.40625 -2.078125q0 -1.125 0.40625 -2.078125q0.40625 -0.953125 1.140625 -1.671875q0.734375 -0.734375 1.6875 -1.140625q0.96875 -0.40625 2.09375 -0.40625q0.796875 0 1.53125 0.203125q0.75 0.1875 1.390625 0.5625q0.640625 0.375 1.140625 0.921875l-0.75 0.796875q-0.609375 -0.6875 -1.484375 -1.0625q-0.875 -0.375 -1.828125 -0.375q-0.890625 0 -1.65625 0.328125q-0.765625 0.3125 -1.328125 0.890625q-0.5625 0.578125 -0.890625 1.359375q-0.3125 0.765625 -0.3125 1.671875q0 0.890625 0.3125 1.671875q0.328125 0.765625 0.890625 1.34375q0.578125 0.578125 1.34375 0.90625q0.765625 0.328125 1.671875 0.328125q0.953125 0 1.8125 -0.375q0.859375 -0.375 1.453125 -1.03125l0.734375 0.75q-0.515625 0.53125 -1.15625 0.921875q-0.640625 0.375 -1.375 0.578125q-0.734375 0.1875 -1.5 0.1875zm8.736877 -0.015625q-1.046875 0 -1.90625 -0.5q-0.859375 -0.5 -1.359375 -1.359375q-0.484375 -0.875 -0.484375 -1.953125q0 -1.0625 0.484375 -1.921875q0.5 -0.875 1.359375 -1.375q0.859375 -0.5 1.90625 -0.5q1.046875 0 1.890625 0.5q0.859375 0.5 1.359375 1.375q0.5 0.859375 0.5 1.921875q0 1.078125 -0.5 1.953125q-0.5 0.859375 -1.359375 1.359375q-0.84375 0.5 -1.890625 0.5zm0 -0.96875q0.734375 0 1.34375 -0.375q0.609375 -0.375 0.96875 -1.015625q0.359375 -0.65625 0.359375 -1.453125q0 -0.796875 -0.359375 -1.4375q-0.359375 -0.640625 -0.96875 -1.015625q-0.609375 -0.375 -1.34375 -0.375q-0.75 0 -1.359375 0.375q-0.609375 0.375 -0.96875 1.015625q-0.359375 0.640625 -0.359375 1.4375q0 0.796875 0.359375 1.453125q0.359375 0.640625 0.96875 1.015625q0.609375 0.375 1.359375 0.375zm5.2546387 0.828125l0 -7.34375l1.09375 0l0 0.859375q0.859375 -1.0 2.3125 -1.0q0.828125 0 1.46875 0.359375q0.640625 0.359375 1.0 1.0q0.359375 0.625 0.359375 1.484375l0 4.640625l-1.078125 0l0 -4.421875q0 -0.984375 -0.546875 -1.546875q-0.546875 -0.5625 -1.5 -0.5625q-0.65625 0 -1.171875 0.296875q-0.515625 0.28125 -0.84375 0.828125l0 5.40625l-1.09375 0zm10.390076 0.140625q-0.90625 0 -1.703125 -0.296875q-0.796875 -0.296875 -1.390625 -0.84375l0.65625 -0.703125q0.515625 0.46875 1.125 0.734375q0.625 0.25 1.265625 0.25q0.890625 0 1.4375 -0.359375q0.5625 -0.375 0.5625 -0.953125q0 -0.484375 -0.328125 -0.75q-0.328125 -0.28125 -1.03125 -0.390625l-1.28125 -0.171875q-1.09375 -0.15625 -1.640625 -0.65625q-0.53125 -0.5 -0.53125 -1.34375q0 -0.625 0.34375 -1.109375q0.359375 -0.484375 0.984375 -0.75q0.625 -0.28125 1.4375 -0.28125q0.796875 0 1.5 0.234375q0.703125 0.234375 1.375 0.734375l-0.5625 0.71875q-0.625 -0.421875 -1.203125 -0.609375q-0.578125 -0.203125 -1.171875 -0.203125q-0.765625 0 -1.234375 0.34375q-0.46875 0.328125 -0.46875 0.875q0 0.5 0.3125 0.765625q0.328125 0.25 1.046875 0.34375l1.28125 0.171875q1.09375 0.15625 1.640625 0.65625q0.5625 0.5 0.5625 1.359375q0 0.625 -0.40625 1.140625q-0.390625 0.515625 -1.0625 0.8125q-0.65625 0.28125 -1.515625 0.28125zm7.6881714 0q-1.046875 0 -1.90625 -0.5q-0.859375 -0.5 -1.359375 -1.359375q-0.484375 -0.875 -0.484375 -1.953125q0 -1.0625 0.484375 -1.921875q0.5 -0.875 1.359375 -1.375q0.859375 -0.5 1.90625 -0.5q1.046875 0 1.890625 0.5q0.859375 0.5 1.359375 1.375q0.5 0.859375 0.5 1.921875q0 1.078125 -0.5 1.953125q-0.5 0.859375 -1.359375 1.359375q-0.84375 0.5 -1.890625 0.5zm0 -0.96875q0.734375 0 1.34375 -0.375q0.609375 -0.375 0.96875 -1.015625q0.359375 -0.65625 0.359375 -1.453125q0 -0.796875 -0.359375 -1.4375q-0.359375 -0.640625 -0.96875 -1.015625q-0.609375 -0.375 -1.34375 -0.375q-0.75 0 -1.359375 0.375q-0.609375 0.375 -0.96875 1.015625q-0.359375 0.640625 -0.359375 1.4375q0 0.796875 0.359375 1.453125q0.359375 0.640625 0.96875 1.015625q0.609375 0.375 1.359375 0.375zm5.2546387 0.828125l0 -10.265625l1.09375 -0.25l0 10.515625l-1.09375 0zm6.3843994 0.125q-1.0625 0 -1.921875 -0.5q-0.859375 -0.5 -1.359375 -1.359375q-0.5 -0.875 -0.5 -1.9375q0 -1.0625 0.46875 -1.921875q0.484375 -0.859375 1.296875 -1.359375q0.828125 -0.5 1.84375 -0.5q0.984375 0 1.765625 0.5q0.78125 0.5 1.25 1.359375q0.46875 0.859375 0.46875 1.921875l0 0.328125l-6.03125 0q0.09375 0.71875 0.453125 1.296875q0.375 0.5625 0.96875 0.890625q0.609375 0.328125 1.328125 0.328125q0.578125 0 1.109375 -0.171875q0.546875 -0.171875 0.921875 -0.5l0.671875 0.71875q-0.609375 0.453125 -1.28125 0.6875q-0.671875 0.21875 -1.453125 0.21875zm-2.6875 -4.328125l4.90625 0q-0.09375 -0.65625 -0.4375 -1.171875q-0.34375 -0.53125 -0.859375 -0.828125q-0.5 -0.296875 -1.125 -0.296875q-0.625 0 -1.15625 0.296875q-0.53125 0.28125 -0.890625 0.8125q-0.34375 0.515625 -0.4375 1.1875z" fill-rule="nonzero"/></g></svg>