<svg version="1.1" viewBox="0.0 0.0 364.8005249343832 33.6010498687664" fill="none" stroke="none" stroke-linecap="square" stroke-miterlimit="10" xmlns:xlink="http://www.w3.org/1999/xlink" xmlns="http://www.w3.org/2000/svg"><clipPath id="p.0"><path d="m0 0l364.80054 0l0 33.60105l-364.80054 0l0 -33.60105z" clip-rule="nonzero"/></clipPath><g clip-path="url(#p.0)"><path fill="#000000" fill-opacity="0.0" d="m0 0l364.80054 0l0 33.60105l-364.80054 0z" fill-rule="evenodd"/><path fill="#000000" fill-opacity="0.0" d="m0 0l364.7874 0l0 33.574802l-364.7874 0z" fill-rule="evenodd"/><path fill="#ffffff" d="m8.265625 13.476776l0 -1.875l9.03125 0l0 1.875l-3.453125 0l0 8.390625l-2.125 0l0 -8.390625l-3.453125 0zm11.7747345 8.515625q-1.21875 0 -2.0 -0.640625q-0.78125 -0.65625 -0.78125 -1.703125q0 -1.078125 0.828125 -1.6875q0.84375 -0.625 2.3125 -0.625q0.46875 0 0.9375 0.078125q0.46875 0.078125 0.921875 0.21875l0 -0.546875q0 -0.65625 -0.40625 -0.984375q-0.40625 -0.34375 -1.203125 -0.34375q-0.484375 0 -1.046875 0.15625q-0.5625 0.15625 -1.28125 0.46875l-0.734375 -1.484375q0.890625 -0.40625 1.734375 -0.609375q0.84375 -0.203125 1.65625 -0.203125q1.546875 0 2.40625 0.75q0.859375 0.734375 0.859375 2.078125l0 4.953125l-1.984375 0l0 -0.53125q-0.484375 0.34375 -1.015625 0.5q-0.53125 0.15625 -1.203125 0.15625zm-0.859375 -2.375q0 0.4375 0.375 0.703125q0.390625 0.25 1.015625 0.25q0.5 0 0.921875 -0.125q0.421875 -0.125 0.765625 -0.359375l0 -1.15625q-0.359375 -0.140625 -0.765625 -0.203125q-0.40625 -0.0625 -0.84375 -0.0625q-0.6875 0 -1.078125 0.25q-0.390625 0.25 -0.390625 0.703125zm10.321747 0.640625q0.515625 0 0.953125 -0.203125q0.453125 -0.203125 0.859375 -0.65625l1.203125 1.25q-0.578125 0.640625 -1.40625 1.0q-0.828125 0.359375 -1.703125 0.359375q-0.828125 0 -1.578125 -0.296875q-0.734375 -0.3125 -1.265625 -0.84375q-0.53125 -0.53125 -0.84375 -1.25q-0.3125 -0.71875 -0.3125 -1.5625q0 -0.828125 0.3125 -1.546875q0.3125 -0.734375 0.84375 -1.265625q0.53125 -0.546875 1.265625 -0.84375q0.75 -0.3125 1.578125 -0.3125q0.90625 0 1.734375 0.359375q0.84375 0.359375 1.4375 1.0l-1.234375 1.3125q-0.40625 -0.453125 -0.875 -0.6875q-0.46875 -0.234375 -1.015625 -0.234375q-0.859375 0 -1.453125 0.640625q-0.59375 0.640625 -0.59375 1.578125q0 0.9375 0.609375 1.578125q0.609375 0.625 1.484375 0.625zm4.0627747 1.609375l0 -10.265625l2.0 -0.4375l0 6.296875l3.296875 -3.234375l2.28125 0l-3.578125 3.5l3.796875 4.140625l-2.5625 0l-3.234375 -3.484375l0 3.484375l-2.0 0zm10.324783 -10.703125l0 10.703125l-2.0 0l0 -10.265625l2.0 -0.4375zm8.419891 9.75q-0.703125 0.578125 -1.453125 0.84375q-0.734375 0.25 -1.640625 0.25q-0.875 0 -1.625 -0.296875q-0.75 -0.3125 -1.3125 -0.84375q-0.546875 -0.53125 -0.859375 -1.25q-0.3125 -0.71875 -0.3125 -1.5625q0 -0.8125 0.296875 -1.53125q0.3125 -0.734375 0.828125 -1.265625q0.53125 -0.546875 1.25 -0.84375q0.734375 -0.3125 1.5625 -0.3125q0.796875 0 1.484375 0.3125q0.703125 0.3125 1.203125 0.859375q0.515625 0.546875 0.796875 1.296875q0.296875 0.75 0.296875 1.625l0 0.53125l-5.6875 0q0.203125 0.71875 0.78125 1.171875q0.59375 0.4375 1.375 0.4375q0.5 0 0.9375 -0.15625q0.453125 -0.171875 0.75 -0.46875l1.328125 1.203125zm-3.3125 -5.15625q-0.6875 0 -1.1875 0.421875q-0.5 0.40625 -0.6875 1.109375l3.734375 0q-0.1875 -0.671875 -0.703125 -1.09375q-0.5 -0.4375 -1.15625 -0.4375zm7.1438904 6.109375l4.21875 -10.265625l2.46875 0l4.15625 10.265625l-2.296875 0l-1.03125 -2.703125l-4.25 0l-1.046875 2.703125l-2.21875 0zm3.9375 -4.390625l2.921875 0l-1.453125 -3.78125l-1.46875 3.78125zm7.650284 4.390625l0 -7.640625l2.0 0l0 0.609375q0.4375 -0.375 0.96875 -0.5625q0.546875 -0.1875 1.171875 -0.1875q1.328125 0 2.171875 0.859375q0.84375 0.84375 0.84375 2.171875l0 4.75l-2.0 0l0 -4.453125q0 -0.71875 -0.4375 -1.15625q-0.4375 -0.4375 -1.140625 -0.4375q-0.5 0 -0.90625 0.203125q-0.40625 0.1875 -0.671875 0.546875l0 5.296875l-2.0 0zm11.097443 0.125q-1.21875 0 -2.0 -0.640625q-0.78125 -0.65625 -0.78125 -1.703125q0 -1.078125 0.828125 -1.6875q0.84375 -0.625 2.3125 -0.625q0.46875 0 0.9375 0.078125q0.46875 0.078125 0.921875 0.21875l0 -0.546875q0 -0.65625 -0.40625 -0.984375q-0.40625 -0.34375 -1.203125 -0.34375q-0.484375 0 -1.046875 0.15625q-0.5625 0.15625 -1.28125 0.46875l-0.734375 -1.484375q0.890625 -0.40625 1.734375 -0.609375q0.84375 -0.203125 1.65625 -0.203125q1.546875 0 2.40625 0.75q0.859375 0.734375 0.859375 2.078125l0 4.953125l-1.984375 0l0 -0.53125q-0.484375 0.34375 -1.015625 0.5q-0.53125 0.15625 -1.203125 0.15625zm-0.859375 -2.375q0 0.4375 0.375 0.703125q0.390625 0.25 1.015625 0.25q0.5 0 0.921875 -0.125q0.421875 -0.125 0.765625 -0.359375l0 -1.15625q-0.359375 -0.140625 -0.765625 -0.203125q-0.40625 -0.0625 -0.84375 -0.0625q-0.6875 0 -1.078125 0.25q-0.390625 0.25 -0.390625 0.703125zm8.587372 -8.453125l0 10.703125l-2.0 0l0 -10.265625l2.0 -0.4375zm3.6386414 11.0625l0.109375 -0.28125l-2.96875 -7.71875l2.21875 0l1.890625 5.203125l2.15625 -5.203125l2.171875 0l-3.515625 8.234375q-0.578125 1.390625 -1.359375 1.96875q-0.78125 0.59375 -2.03125 0.59375q-0.25 0 -0.5 -0.03125q-0.234375 -0.015625 -0.390625 -0.0625l0 -1.734375q0.15625 0.03125 0.3125 0.046875q0.15625 0.015625 0.390625 0.015625q0.546875 0 0.921875 -0.265625q0.375 -0.265625 0.59375 -0.765625zm5.723282 -1.265625l1.0 -1.34375q0.671875 0.453125 1.265625 0.671875q0.609375 0.203125 1.21875 0.203125q0.671875 0 1.0625 -0.21875q0.40625 -0.21875 0.40625 -0.59375q0 -0.296875 -0.234375 -0.46875q-0.21875 -0.171875 -0.71875 -0.25l-1.453125 -0.21875q-1.140625 -0.171875 -1.734375 -0.71875q-0.59375 -0.5625 -0.59375 -1.484375q0 -1.109375 0.859375 -1.765625q0.875 -0.65625 2.328125 -0.65625q0.828125 0 1.625 0.25q0.796875 0.234375 1.515625 0.703125l-0.96875 1.28125q-0.640625 -0.359375 -1.21875 -0.546875q-0.5625 -0.1875 -1.140625 -0.1875q-0.546875 0 -0.875 0.21875q-0.328125 0.203125 -0.328125 0.53125q0 0.3125 0.234375 0.484375q0.25 0.171875 0.796875 0.234375l1.46875 0.21875q1.125 0.171875 1.71875 0.75q0.609375 0.5625 0.609375 1.4375q0 0.546875 -0.25 1.015625q-0.25 0.453125 -0.703125 0.796875q-0.4375 0.328125 -1.046875 0.515625q-0.609375 0.1875 -1.328125 0.1875q-1.046875 0 -1.953125 -0.265625q-0.90625 -0.265625 -1.5625 -0.78125zm8.836868 -7.640625q-0.46875 0 -0.8125 -0.328125q-0.328125 -0.34375 -0.328125 -0.8125q0 -0.46875 0.328125 -0.796875q0.34375 -0.34375 0.8125 -0.34375q0.46875 0 0.8125 0.34375q0.34375 0.328125 0.34375 0.796875q0 0.46875 -0.34375 0.8125q-0.34375 0.328125 -0.8125 0.328125zm1.015625 0.90625l0 7.640625l-2.0 0l0 -7.640625l2.0 0zm0.91989136 6.734375l1.0 -1.34375q0.671875 0.453125 1.265625 0.671875q0.609375 0.203125 1.21875 0.203125q0.671875 0 1.0625 -0.21875q0.40625 -0.21875 0.40625 -0.59375q0 -0.296875 -0.234375 -0.46875q-0.21875 -0.171875 -0.71875 -0.25l-1.453125 -0.21875q-1.140625 -0.171875 -1.734375 -0.71875q-0.59375 -0.5625 -0.59375 -1.484375q0 -1.109375 0.859375 -1.765625q0.875 -0.65625 2.328125 -0.65625q0.828125 0 1.625 0.25q0.796875 0.234375 1.515625 0.703125l-0.96875 1.28125q-0.640625 -0.359375 -1.21875 -0.546875q-0.5625 -0.1875 -1.140625 -0.1875q-0.546875 0 -0.875 0.21875q-0.328125 0.203125 -0.328125 0.53125q0 0.3125 0.234375 0.484375q0.25 0.171875 0.796875 0.234375l1.46875 0.21875q1.125 0.171875 1.71875 0.75q0.609375 0.5625 0.609375 1.4375q0 0.546875 -0.25 1.015625q-0.25 0.453125 -0.703125 0.796875q-0.4375 0.328125 -1.046875 0.515625q-0.609375 0.1875 -1.328125 0.1875q-1.046875 0 -1.953125 -0.265625q-0.90625 -0.265625 -1.5625 -0.78125z" fill-rule="nonzero"/><path fill="#ffffff" d="m117.61458 17.258026l5.109375 0l0 0.96875l-5.109375 0l0 -0.96875zm12.858719 4.609375l-1.15625 0l-2.203125 -10.265625l1.140625 0l1.75 8.484375l2.53125 -8.484375l1.09375 0l2.546875 8.453125l1.75 -8.453125l1.09375 0l-2.203125 10.265625l-1.140625 0l-2.59375 -8.6875l-2.609375 8.6875zm15.486572 -0.78125q-0.609375 0.453125 -1.28125 0.6875q-0.671875 0.21875 -1.453125 0.21875q-0.796875 0 -1.5 -0.28125q-0.6875 -0.296875 -1.203125 -0.8125q-0.5 -0.515625 -0.796875 -1.203125q-0.28125 -0.703125 -0.28125 -1.5q0 -0.796875 0.28125 -1.484375q0.28125 -0.6875 0.765625 -1.203125q0.484375 -0.515625 1.140625 -0.796875q0.671875 -0.296875 1.421875 -0.296875q0.734375 0 1.375 0.296875q0.640625 0.28125 1.09375 0.796875q0.46875 0.515625 0.734375 1.203125q0.28125 0.6875 0.28125 1.484375l0 0.328125l-6.03125 0q0.109375 1.09375 0.890625 1.8125q0.78125 0.703125 1.859375 0.703125q0.578125 0 1.109375 -0.171875q0.546875 -0.171875 0.921875 -0.5l0.671875 0.71875zm-2.9375 -5.71875q-0.953125 0 -1.65625 0.640625q-0.6875 0.640625 -0.828125 1.65625l4.90625 0q-0.140625 -0.96875 -0.828125 -1.625q-0.6875 -0.671875 -1.59375 -0.671875zm12.156784 2.828125q0 0.78125 -0.296875 1.484375q-0.28125 0.703125 -0.78125 1.21875q-0.484375 0.5 -1.171875 0.796875q-0.6875 0.296875 -1.453125 0.296875q-0.65625 0 -1.265625 -0.21875q-0.609375 -0.234375 -1.09375 -0.640625l0 0.734375l-1.078125 0l0 -10.265625l1.09375 -0.25l0 3.953125q0.453125 -0.4375 1.046875 -0.65625q0.609375 -0.234375 1.3125 -0.234375q0.765625 0 1.4375 0.296875q0.6875 0.28125 1.171875 0.796875q0.5 0.5 0.78125 1.203125q0.296875 0.6875 0.296875 1.484375zm-3.796875 -2.828125q-0.6875 0 -1.28125 0.265625q-0.59375 0.265625 -0.96875 0.75l0 3.640625q0.375 0.46875 0.96875 0.75q0.609375 0.265625 1.28125 0.265625q1.15625 0 1.9375 -0.8125q0.78125 -0.828125 0.78125 -2.03125q0 -0.59375 -0.21875 -1.109375q-0.203125 -0.53125 -0.578125 -0.90625q-0.359375 -0.375 -0.859375 -0.59375q-0.484375 -0.21875 -1.0625 -0.21875zm13.5327 5.625q0.953125 0 1.8125 -0.375q0.859375 -0.375 1.453125 -1.03125l0.734375 0.75q-0.765625 0.796875 -1.828125 1.25q-1.046875 0.4375 -2.203125 0.4375q-1.125 0 -2.09375 -0.40625q-0.96875 -0.40625 -1.6875 -1.109375q-0.71875 -0.71875 -1.140625 -1.6875q-0.40625 -0.984375 -0.40625 -2.078125q0 -1.109375 0.40625 -2.078125q0.421875 -0.96875 1.140625 -1.671875q0.71875 -0.71875 1.6875 -1.125q0.96875 -0.421875 2.09375 -0.421875q1.1875 0 2.25 0.453125q1.0625 0.4375 1.8125 1.234375l-0.75 0.796875q-0.609375 -0.6875 -1.5 -1.0625q-0.875 -0.375 -1.8125 -0.375q-0.890625 0 -1.65625 0.328125q-0.765625 0.328125 -1.328125 0.890625q-0.546875 0.5625 -0.875 1.34375q-0.328125 0.78125 -0.328125 1.6875q0 0.890625 0.328125 1.671875q0.328125 0.78125 0.890625 1.359375q0.5625 0.5625 1.328125 0.890625q0.765625 0.328125 1.671875 0.328125zm4.882263 -2.796875q0 -0.796875 0.28125 -1.5q0.296875 -0.703125 0.796875 -1.21875q0.515625 -0.515625 1.203125 -0.796875q0.6875 -0.296875 1.46875 -0.296875q0.765625 0 1.453125 0.296875q0.6875 0.28125 1.1875 0.796875q0.5 0.515625 0.796875 1.21875q0.296875 0.703125 0.296875 1.5q0 0.796875 -0.296875 1.5q-0.296875 0.703125 -0.796875 1.21875q-0.5 0.515625 -1.1875 0.8125q-0.6875 0.28125 -1.453125 0.28125q-0.78125 0 -1.46875 -0.28125q-0.6875 -0.296875 -1.203125 -0.8125q-0.5 -0.515625 -0.796875 -1.21875q-0.28125 -0.703125 -0.28125 -1.5zm3.75 2.84375q0.546875 0 1.03125 -0.21875q0.5 -0.21875 0.859375 -0.59375q0.359375 -0.390625 0.5625 -0.90625q0.203125 -0.53125 0.203125 -1.125q0 -0.609375 -0.203125 -1.125q-0.203125 -0.515625 -0.5625 -0.890625q-0.359375 -0.390625 -0.859375 -0.609375q-0.484375 -0.21875 -1.03125 -0.21875q-0.5625 0 -1.0625 0.21875q-0.484375 0.21875 -0.84375 0.609375q-0.359375 0.375 -0.578125 0.890625q-0.203125 0.515625 -0.203125 1.125q0 0.59375 0.203125 1.125q0.203125 0.515625 0.5625 0.90625q0.359375 0.375 0.859375 0.59375q0.5 0.21875 1.0625 0.21875zm5.2400055 0.828125l0 -7.34375l1.09375 0l0 0.859375q0.421875 -0.484375 1.0 -0.734375q0.59375 -0.265625 1.3125 -0.265625q1.234375 0 2.03125 0.796875q0.796875 0.78125 0.796875 2.046875l0 4.640625l-1.078125 0l0 -4.421875q0 -0.96875 -0.5625 -1.53125q-0.546875 -0.578125 -1.484375 -0.578125q-0.65625 0 -1.1875 0.296875q-0.515625 0.28125 -0.828125 0.828125l0 5.40625l-1.09375 0zm7.2963104 -1.015625l0.65625 -0.703125q0.5 0.46875 1.125 0.734375q0.625 0.25 1.265625 0.25q0.890625 0 1.4375 -0.359375q0.5625 -0.375 0.5625 -0.953125q0 -0.46875 -0.328125 -0.734375q-0.328125 -0.28125 -1.03125 -0.390625l-1.28125 -0.171875q-1.09375 -0.15625 -1.640625 -0.640625q-0.53125 -0.5 -0.53125 -1.328125q0 -0.9375 0.78125 -1.53125q0.78125 -0.609375 1.984375 -0.609375q0.78125 0 1.484375 0.234375q0.71875 0.234375 1.390625 0.71875l-0.5625 0.734375q-0.625 -0.40625 -1.203125 -0.609375q-0.578125 -0.203125 -1.171875 -0.203125q-0.75 0 -1.234375 0.34375q-0.46875 0.328125 -0.46875 0.875q0 0.46875 0.3125 0.734375q0.328125 0.25 1.046875 0.34375l1.28125 0.171875q1.09375 0.15625 1.640625 0.65625q0.5625 0.5 0.5625 1.34375q0 0.46875 -0.234375 0.890625q-0.21875 0.40625 -0.625 0.71875q-0.40625 0.296875 -0.953125 0.46875q-0.53125 0.15625 -1.171875 0.15625q-0.90625 0 -1.703125 -0.296875q-0.796875 -0.296875 -1.390625 -0.84375zm7.0319214 -2.65625q0 -0.796875 0.28125 -1.5q0.296875 -0.703125 0.796875 -1.21875q0.515625 -0.515625 1.203125 -0.796875q0.6875 -0.296875 1.46875 -0.296875q0.765625 0 1.453125 0.296875q0.6875 0.28125 1.1875 0.796875q0.5 0.515625 0.796875 1.21875q0.296875 0.703125 0.296875 1.5q0 0.796875 -0.296875 1.5q-0.296875 0.703125 -0.796875 1.21875q-0.5 0.515625 -1.1875 0.8125q-0.6875 0.28125 -1.453125 0.28125q-0.78125 0 -1.46875 -0.28125q-0.6875 -0.296875 -1.203125 -0.8125q-0.5 -0.515625 -0.796875 -1.21875q-0.28125 -0.703125 -0.28125 -1.5zm3.75 2.84375q0.546875 0 1.03125 -0.21875q0.5 -0.21875 0.859375 -0.59375q0.359375 -0.390625 0.5625 -0.90625q0.203125 -0.53125 0.203125 -1.125q0 -0.609375 -0.203125 -1.125q-0.203125 -0.515625 -0.5625 -0.890625q-0.359375 -0.390625 -0.859375 -0.609375q-0.484375 -0.21875 -1.03125 -0.21875q-0.5625 0 -1.0625 0.21875q-0.484375 0.21875 -0.84375 0.609375q-0.359375 0.375 -0.578125 0.890625q-0.203125 0.515625 -0.203125 1.125q0 0.59375 0.203125 1.125q0.203125 0.515625 0.5625 0.90625q0.359375 0.375 0.859375 0.59375q0.5 0.21875 1.0625 0.21875zm6.3337555 -9.6875l0 10.515625l-1.09375 0l0 -10.265625l1.09375 -0.25zm8.025009 9.734375q-0.609375 0.453125 -1.28125 0.6875q-0.671875 0.21875 -1.453125 0.21875q-0.796875 0 -1.5 -0.28125q-0.6875 -0.296875 -1.203125 -0.8125q-0.5 -0.515625 -0.796875 -1.203125q-0.28125 -0.703125 -0.28125 -1.5q0 -0.796875 0.28125 -1.484375q0.28125 -0.6875 0.765625 -1.203125q0.484375 -0.515625 1.140625 -0.796875q0.671875 -0.296875 1.421875 -0.296875q0.734375 0 1.375 0.296875q0.640625 0.28125 1.09375 0.796875q0.46875 0.515625 0.734375 1.203125q0.28125 0.6875 0.28125 1.484375l0 0.328125l-6.03125 0q0.109375 1.09375 0.890625 1.8125q0.78125 0.703125 1.859375 0.703125q0.578125 0 1.109375 -0.171875q0.546875 -0.171875 0.921875 -0.5l0.671875 0.71875zm-2.9375 -5.71875q-0.953125 0 -1.65625 0.640625q-0.6875 0.640625 -0.828125 1.65625l4.90625 0q-0.140625 -0.96875 -0.828125 -1.625q-0.6875 -0.671875 -1.59375 -0.671875z" fill-rule="nonzero"/></g></svg>