<svg version="1.1" height="33.6" width="200" viewBox="0.0 0.0 200.0 33.6010498687664" fill="none" stroke="none" stroke-linecap="square" stroke-miterlimit="10" xmlns:xlink="http://www.w3.org/1999/xlink" xmlns="http://www.w3.org/2000/svg"><clipPath id="p.0"><path d="m0 0l200.0 0l0 33.60105l-200.0 0l0 -33.60105z" clip-rule="nonzero"/></clipPath><g clip-path="url(#p.0)"><path fill="#000000" fill-opacity="0.0" d="m0 0l200.0 0l0 33.60105l-200.0 0z" fill-rule="evenodd"/><path fill="#000000" fill-opacity="0.0" d="m0 0l199.9685 0l0 33.574802l-199.9685 0z" fill-rule="evenodd"/><path fill="#ffffff" d="m13.421875 24.2674l0 -12.203125l-5.03125 0l0 -2.734375l13.125 0l0 2.734375l-5.0 0l0 12.203125l-3.09375 0zm10.846283 0.1875q-1.1875 0 -2.109375 -0.4375q-0.921875 -0.4375 -1.4375 -1.203125q-0.5 -0.765625 -0.5 -1.765625q0 -1.59375 1.203125 -2.484375q1.203125 -0.890625 3.3125 -0.890625q1.453125 0 2.734375 0.453125l0 -0.8125q0 -0.953125 -0.59375 -1.4375q-0.59375 -0.5 -1.75 -0.5q-0.703125 0 -1.515625 0.21875q-0.8125 0.21875 -1.875 0.6875l-1.0625 -2.140625q1.3125 -0.609375 2.515625 -0.90625q1.203125 -0.296875 2.421875 -0.296875q2.25 0 3.484375 1.078125q1.25 1.078125 1.25 3.046875l0 7.203125l-2.875 0l0 -0.796875q-0.6875 0.515625 -1.484375 0.75q-0.78125 0.234375 -1.71875 0.234375zm-1.28125 -3.46875q0 0.640625 0.546875 1.015625q0.5625 0.375 1.484375 0.375q0.71875 0 1.34375 -0.1875q0.625 -0.1875 1.109375 -0.546875l0 -1.625q-0.53125 -0.203125 -1.109375 -0.3125q-0.578125 -0.109375 -1.234375 -0.109375q-1.0 0 -1.578125 0.375q-0.5625 0.375 -0.5625 1.015625zm14.899658 3.5q-1.65625 0 -2.984375 -0.75q-1.3125 -0.765625 -2.078125 -2.078125q-0.765625 -1.3125 -0.765625 -2.9375q0 -1.640625 0.765625 -2.9375q0.765625 -1.3125 2.078125 -2.078125q1.328125 -0.765625 2.984375 -0.765625q1.3125 0 2.515625 0.515625q1.203125 0.515625 2.078125 1.46875l-1.78125 1.90625q-0.625 -0.6875 -1.296875 -1.015625q-0.671875 -0.328125 -1.453125 -0.328125q-0.859375 0 -1.53125 0.421875q-0.671875 0.421875 -1.0625 1.15625q-0.390625 0.71875 -0.390625 1.65625q0 0.890625 0.390625 1.640625q0.390625 0.734375 1.09375 1.15625q0.703125 0.40625 1.5625 0.40625q0.75 0 1.390625 -0.3125q0.65625 -0.3125 1.25 -0.921875l1.75 1.828125q-0.859375 0.921875 -2.0625 1.453125q-1.1875 0.515625 -2.453125 0.515625zm6.0341034 -0.21875l0 -14.9375l2.921875 -0.484375l0 8.984375l4.796875 -4.671875l3.296875 0l-5.234375 5.09375l5.5625 6.015625l-3.734375 0l-4.6875 -5.078125l0 5.078125l-2.921875 0zm12.114426 0l0 -14.9375l2.921875 -0.484375l0 15.421875l-2.921875 0zm10.641586 0.21875q-1.671875 0 -3.03125 -0.765625q-1.34375 -0.78125 -2.140625 -2.078125q-0.78125 -1.296875 -0.78125 -2.921875q0 -1.625 0.75 -2.921875q0.765625 -1.296875 2.0625 -2.0625q1.296875 -0.765625 2.90625 -0.765625q1.59375 0 2.828125 0.796875q1.234375 0.78125 1.953125 2.125q0.71875 1.34375 0.71875 3.046875l0 0.765625l-8.234375 0q0.1875 0.65625 0.625 1.1875q0.4375 0.53125 1.09375 0.84375q0.65625 0.296875 1.390625 0.296875q0.75 0 1.375 -0.234375q0.640625 -0.234375 1.078125 -0.671875l1.921875 1.75q-1.015625 0.84375 -2.09375 1.234375q-1.078125 0.375 -2.421875 0.375zm-3.015625 -6.875l5.40625 0q-0.15625 -0.65625 -0.546875 -1.15625q-0.390625 -0.5 -0.9375 -0.78125q-0.546875 -0.296875 -1.203125 -0.296875q-0.6875 0 -1.25 0.28125q-0.546875 0.265625 -0.921875 0.765625q-0.375 0.5 -0.546875 1.1875zm13.129059 6.65625l6.140625 -14.9375l3.5625 0l6.078125 14.9375l-3.359375 0l-1.515625 -3.921875l-6.15625 0l-1.53125 3.921875l-3.21875 0zm5.703125 -6.40625l4.265625 0l-2.125 -5.5l-2.140625 5.5zm11.143494 6.40625l0 -11.109375l2.921875 0l0 0.921875q1.25 -1.140625 3.109375 -1.140625q1.296875 0 2.28125 0.578125q1.0 0.5625 1.546875 1.546875q0.5625 0.984375 0.5625 2.3125l0 6.890625l-2.921875 0l0 -6.46875q0 -1.078125 -0.625 -1.703125q-0.609375 -0.640625 -1.671875 -0.640625q-0.75 0 -1.328125 0.296875q-0.578125 0.28125 -0.953125 0.8125l0 7.703125l-2.921875 0zm16.178879 0.1875q-1.1875 0 -2.109375 -0.4375q-0.921875 -0.4375 -1.4375 -1.203125q-0.5 -0.765625 -0.5 -1.765625q0 -1.59375 1.203125 -2.484375q1.203125 -0.890625 3.3125 -0.890625q1.453125 0 2.734375 0.453125l0 -0.8125q0 -0.953125 -0.59375 -1.4375q-0.59375 -0.5 -1.75 -0.5q-0.703125 0 -1.515625 0.21875q-0.8125 0.21875 -1.875 0.6875l-1.0625 -2.140625q1.3125 -0.609375 2.515625 -0.90625q1.203125 -0.296875 2.421875 -0.296875q2.25 0 3.484375 1.078125q1.25 1.078125 1.25 3.046875l0 7.203125l-2.875 0l0 -0.796875q-0.6875 0.515625 -1.484375 0.75q-0.78125 0.234375 -1.71875 0.234375zm-1.28125 -3.46875q0 0.640625 0.546875 1.015625q0.5625 0.375 1.484375 0.375q0.71875 0 1.34375 -0.1875q0.625 -0.1875 1.109375 -0.546875l0 -1.625q-0.53125 -0.203125 -1.109375 -0.3125q-0.578125 -0.109375 -1.234375 -0.109375q-1.0 0 -1.578125 0.375q-0.5625 0.375 -0.5625 1.015625zm9.587158 3.28125l0 -14.9375l2.921875 -0.484375l0 15.421875l-2.921875 0zm6.2822113 4.578125q-0.375 0 -0.734375 -0.03125q-0.34375 -0.03125 -0.578125 -0.0625l0 -2.515625q0.421875 0.078125 1.015625 0.078125q1.609375 0 2.21875 -1.515625l0.171875 -0.421875l-4.328125 -11.21875l3.21875 0l2.78125 7.5625l3.125 -7.5625l3.15625 0l-5.109375 12.0q-0.578125 1.34375 -1.265625 2.15625q-0.6875 0.8125 -1.578125 1.171875q-0.875 0.359375 -2.09375 0.359375zm15.384506 -4.359375q-1.53125 0 -2.84375 -0.390625q-1.296875 -0.40625 -2.25 -1.15625l1.4375 -1.9375q0.96875 0.640625 1.84375 0.96875q0.890625 0.3125 1.765625 0.3125q0.984375 0 1.5625 -0.328125q0.59375 -0.328125 0.59375 -0.859375q0 -0.4375 -0.328125 -0.6875q-0.328125 -0.25 -1.0625 -0.359375l-2.125 -0.328125q-1.671875 -0.25 -2.53125 -1.0625q-0.84375 -0.828125 -0.84375 -2.171875q0 -1.09375 0.5625 -1.859375q0.5625 -0.78125 1.59375 -1.21875q1.046875 -0.4375 2.46875 -0.4375q1.21875 0 2.375 0.34375q1.171875 0.328125 2.1875 1.03125l-1.40625 1.90625q-0.90625 -0.578125 -1.75 -0.828125q-0.828125 -0.265625 -1.671875 -0.265625q-0.796875 0 -1.28125 0.296875q-0.46875 0.296875 -0.46875 0.796875q0 0.4375 0.328125 0.703125q0.34375 0.25 1.1875 0.359375l2.109375 0.3125q1.65625 0.234375 2.53125 1.0625q0.875 0.828125 0.875 2.125q0 1.0625 -0.640625 1.890625q-0.640625 0.8125 -1.734375 1.296875q-1.078125 0.484375 -2.484375 0.484375zm6.3159027 -0.21875l0 -11.109375l2.921875 0l0 11.109375l-2.921875 0zm1.453125 -12.4375q-0.6875 0 -1.1875 -0.484375q-0.484375 -0.5 -0.484375 -1.171875q0 -0.703125 0.484375 -1.1875q0.5 -0.484375 1.1875 -0.484375q0.703125 0 1.171875 0.484375q0.484375 0.484375 0.484375 1.1875q0 0.671875 -0.484375 1.171875q-0.46875 0.484375 -1.171875 0.484375zm7.9072113 12.65625q-1.53125 0 -2.84375 -0.390625q-1.296875 -0.40625 -2.25 -1.15625l1.4375 -1.9375q0.96875 0.640625 1.84375 0.96875q0.890625 0.3125 1.765625 0.3125q0.984375 0 1.5625 -0.328125q0.59375 -0.328125 0.59375 -0.859375q0 -0.4375 -0.328125 -0.6875q-0.328125 -0.25 -1.0625 -0.359375l-2.125 -0.328125q-1.671875 -0.25 -2.53125 -1.0625q-0.84375 -0.828125 -0.84375 -2.171875q0 -1.09375 0.5625 -1.859375q0.5625 -0.78125 1.59375 -1.21875q1.046875 -0.4375 2.46875 -0.4375q1.21875 0 2.375 0.34375q1.171875 0.328125 2.1875 1.03125l-1.40625 1.90625q-0.90625 -0.578125 -1.75 -0.828125q-0.828125 -0.265625 -1.671875 -0.265625q-0.796875 0 -1.28125 0.296875q-0.46875 0.296875 -0.46875 0.796875q0 0.4375 0.328125 0.703125q0.34375 0.25 1.1875 0.359375l2.109375 0.3125q1.65625 0.234375 2.53125 1.0625q0.875 0.828125 0.875 2.125q0 1.0625 -0.640625 1.890625q-0.640625 0.8125 -1.734375 1.296875q-1.078125 0.484375 -2.484375 0.484375z" fill-rule="nonzero"/></g></svg>