<svg xmlns="http://www.w3.org/2000/svg" viewBox="0 0 339.01 77.56"><defs><style>.a{fill:#4c4c4c;}</style></defs><title>Logotype_RH_AMT_RGB_Gray</title><path class="a" d="M45.18,52.8l-2.74-5.66H40.56V52.8H36V36h7.51a11.15,11.15,0,0,1,2.68.3,5.7,5.7,0,0,1,2.08.95,4.23,4.23,0,0,1,1.33,1.69,6.17,6.17,0,0,1,.47,2.53,5.39,5.39,0,0,1-.82,3.1A5.16,5.16,0,0,1,47,46.39L50.4,52.8ZM45,40.3a2.09,2.09,0,0,0-1.58-.5H40.56v3.67h2.75A2.28,2.28,0,0,0,44.95,43a1.88,1.88,0,0,0,.48-1.39A1.82,1.82,0,0,0,45,40.3Z" transform="translate(-34.6 -35.88)"/><path class="a" d="M53.9,52.8V36H66.77v3.91H58.51v2.26h5V46h-5v2.88h8.42V52.8Z" transform="translate(-34.6 -35.88)"/><path class="a" d="M84.58,48.3a6.06,6.06,0,0,1-1.73,2.62A7,7,0,0,1,80,52.36a15.55,15.55,0,0,1-3.92.44H70.63V36h5.88a14.55,14.55,0,0,1,3.58.41,6.52,6.52,0,0,1,2.72,1.38,6.35,6.35,0,0,1,1.73,2.56,11.07,11.07,0,0,1,.61,4A12,12,0,0,1,84.58,48.3Zm-4.4-5.92A3.23,3.23,0,0,0,79.51,41a2.69,2.69,0,0,0-1.2-.78A5.74,5.74,0,0,0,76.49,40H75.34v8.83h1a6.54,6.54,0,0,0,1.85-.23,2.8,2.8,0,0,0,1.26-.74,3,3,0,0,0,.71-1.37,8.68,8.68,0,0,0,.22-2.1A8.54,8.54,0,0,0,80.17,42.38Z" transform="translate(-34.6 -35.88)"/><path class="a" d="M107.3,52.8V46.18h-5.23V52.8H97.32V36h4.75v6.12h5.23V36h4.75V52.8Z" transform="translate(-34.6 -35.88)"/><path class="a" d="M127,52.8l-.91-3h-5l-.91,3h-5l6.1-16.8H126l6.1,16.8ZM124.68,45q-.22-.82-.38-1.42l-.3-1.08q-.13-.48-.23-.88t-.17-.83c0,.29-.1.57-.17.84s-.14.57-.23.89l-.3,1.08L122.52,45l-.31,1.1H125Z" transform="translate(-34.6 -35.88)"/><path class="a" d="M141.58,40.06V52.8h-4.66V40.06h-4.7V36h14.06v4.06Z" transform="translate(-34.6 -35.88)"/><path class="a" d="M152.52,38.91a2.08,2.08,0,0,1-1.14,1.14,2.31,2.31,0,0,1-1.72,0,2.08,2.08,0,0,1-1.14-1.14,2.31,2.31,0,0,1,0-1.72A2.08,2.08,0,0,1,149.66,36a2.31,2.31,0,0,1,1.72,0,2.08,2.08,0,0,1,1.14,1.14,2.31,2.31,0,0,1,0,1.72Zm-.32-1.57a1.78,1.78,0,0,0-.38-.58,1.75,1.75,0,0,0-.58-.38,1.94,1.94,0,0,0-1.44,0,1.75,1.75,0,0,0-1,1,1.94,1.94,0,0,0,0,1.44,1.77,1.77,0,0,0,1,1,1.94,1.94,0,0,0,1.44,0,1.76,1.76,0,0,0,.58-.38,1.78,1.78,0,0,0,.38-.58,1.94,1.94,0,0,0,0-1.44Zm-.83.66a.7.7,0,0,1-.37.24l.49,1H151l-.46-.91h-.45v.91h-.4V36.83h1a1,1,0,0,1,.3,0,.69.69,0,0,1,.25.13.62.62,0,0,1,.17.22.76.76,0,0,1,.06.32A.71.71,0,0,1,151.36,38Zm-.37-.7a.43.43,0,0,0-.27-.08h-.62v.67h.62a.44.44,0,0,0,.27-.08.35.35,0,0,0,0-.51Z" transform="translate(-34.6 -35.88)"/><path class="a" d="M52.24,82.8l-2.16-6.41H39.67l-2.2,6.41H34.6l8.75-25.2h3.1l8.75,25.2Zm-5.8-17.24q-.22-.61-.45-1.33l-.45-1.39q-.22-.67-.38-1.26l-.27-1-.27,1q-.16.58-.38,1.26t-.47,1.42l-.47,1.39-2.77,8.21h8.68Z" transform="translate(-34.6 -35.88)"/><path class="a" d="M77.24,68.45a6.86,6.86,0,0,1-1.75,2.45,7.38,7.38,0,0,1-2.7,1.49,11.33,11.33,0,0,1-3.46.5H63.22v9.9H60.41V57.6h9.43a10.77,10.77,0,0,1,3.19.45,7,7,0,0,1,2.54,1.39,6.44,6.44,0,0,1,1.69,2.36,9.24,9.24,0,0,1,0,6.66Zm-3.55-7a5.5,5.5,0,0,0-4-1.31H63.22V70.34h6.16q5.69,0,5.69-5.11A5,5,0,0,0,73.69,61.47Z" transform="translate(-34.6 -35.88)"/><path class="a" d="M99.49,68.45a6.86,6.86,0,0,1-1.75,2.45A7.38,7.38,0,0,1,95,72.4a11.33,11.33,0,0,1-3.46.5H85.46v9.9H82.66V57.6h9.43a10.77,10.77,0,0,1,3.19.45,7,7,0,0,1,2.54,1.39,6.44,6.44,0,0,1,1.69,2.36,9.24,9.24,0,0,1,0,6.66Zm-3.55-7a5.5,5.5,0,0,0-4-1.31H85.46V70.34h6.16q5.69,0,5.69-5.11A5,5,0,0,0,95.94,61.47Z" transform="translate(-34.6 -35.88)"/><path class="a" d="M104.9,82.8V57.6h2.81V80.24h12.46V82.8Z" transform="translate(-34.6 -35.88)"/><path class="a" d="M125.78,82.8V57.6h2.81V82.8Z" transform="translate(-34.6 -35.88)"/><path class="a" d="M149.33,82a9.7,9.7,0,0,1-4.82,1.15,8.9,8.9,0,0,1-4.19-1,9.73,9.73,0,0,1-3.22-2.72,12.66,12.66,0,0,1-2.05-4.1,17.66,17.66,0,0,1-.72-5.15,17.2,17.2,0,0,1,.76-5.2,13,13,0,0,1,2.11-4.12,9.87,9.87,0,0,1,3.26-2.72,8.94,8.94,0,0,1,4.18-1,9.37,9.37,0,0,1,8,4l-2.23,1.69a8.74,8.74,0,0,0-2.52-2.41,6.58,6.58,0,0,0-3.35-.76,6,6,0,0,0-3,.77,7.23,7.23,0,0,0-2.34,2.14A10.91,10.91,0,0,0,137.68,66a15,15,0,0,0-.56,4.21,15.16,15.16,0,0,0,.56,4.23,10.58,10.58,0,0,0,1.57,3.31,7.49,7.49,0,0,0,2.38,2.16,5.89,5.89,0,0,0,3,.77,6.87,6.87,0,0,0,3.53-.86,9.51,9.51,0,0,0,2.7-2.45L152.75,79A10.62,10.62,0,0,1,149.33,82Z" transform="translate(-34.6 -35.88)"/><path class="a" d="M173.7,82.8l-2.16-6.41h-10.4l-2.2,6.41h-2.88l8.75-25.2h3.1l8.75,25.2Zm-5.8-17.24q-.22-.61-.45-1.33L167,62.84q-.22-.67-.38-1.26l-.27-1-.27,1q-.16.58-.38,1.26t-.47,1.42l-.47,1.39L162,73.84h8.68Z" transform="translate(-34.6 -35.88)"/><path class="a" d="M187.81,60.16V82.8H185V60.16h-7.42V57.6h17.64v2.56Z" transform="translate(-34.6 -35.88)"/><path class="a" d="M200.48,82.8V57.6h2.81V82.8Z" transform="translate(-34.6 -35.88)"/><path class="a" d="M229.18,75.4A12.56,12.56,0,0,1,227,79.52a9.91,9.91,0,0,1-3.33,2.7,10,10,0,0,1-8.55,0,9.58,9.58,0,0,1-3.29-2.68,12.51,12.51,0,0,1-2.11-4.1,17.52,17.52,0,0,1-.74-5.22,17.32,17.32,0,0,1,.76-5.24,12.73,12.73,0,0,1,2.12-4.12,9.72,9.72,0,0,1,3.31-2.7,10,10,0,0,1,8.55,0,9.59,9.59,0,0,1,3.29,2.68,12.78,12.78,0,0,1,2.12,4.1,17.12,17.12,0,0,1,.76,5.22A17.29,17.29,0,0,1,229.18,75.4Zm-2.65-9.47a10.72,10.72,0,0,0-1.64-3.31,7.34,7.34,0,0,0-2.45-2.12,6.48,6.48,0,0,0-3.06-.74,6.3,6.3,0,0,0-3,.74A7.2,7.2,0,0,0,214,62.59a10.39,10.39,0,0,0-1.58,3.28,15,15,0,0,0-.58,4.3,14.58,14.58,0,0,0,.59,4.3A11,11,0,0,0,214,77.78a7.16,7.16,0,0,0,2.43,2.12,6.48,6.48,0,0,0,3.06.74,6.4,6.4,0,0,0,3-.74A7.13,7.13,0,0,0,225,77.81a10.41,10.41,0,0,0,1.58-3.28,15,15,0,0,0,.58-4.3A14.58,14.58,0,0,0,226.53,65.93Z" transform="translate(-34.6 -35.88)"/><path class="a" d="M251,82.8,240,65.56q-.22-.32-.47-.77l-.5-.9-.49-.85a5.87,5.87,0,0,1-.34-.65V82.8h-2.74V57.6h2.74l10.91,17.57q.22.32.47.77l.5.9.49.85a6.17,6.17,0,0,1,.34.65V57.6h2.74V82.8Z" transform="translate(-34.6 -35.88)"/><path class="a" d="M55,112.8V93l-.27.88q-.16.52-.38,1.08L54,96.13q-.22.58-.43,1.08l-6.72,16.24L40.21,97.21q-.22-.47-.43-1.06L39.36,95q-.2-.56-.36-1.08L38.74,93V112.8H36V87.6h3.14l6,15.08q.22.58.49,1.26t.52,1.37l.47,1.28c.14.4.25.73.32,1q.11-.4.32-1l.47-1.3q.25-.68.52-1.37l.49-1.22,6-15.08h3.06v25.2Z" transform="translate(-34.6 -35.88)"/><path class="a" d="M64.55,112.8V87.6h2.81v25.2Z" transform="translate(-34.6 -35.88)"/><path class="a" d="M91.89,107.33a9,9,0,0,1-2,3.27,8,8,0,0,1-3,2,10.36,10.36,0,0,1-3.69.65,8.91,8.91,0,0,1-4.19-1,9.74,9.74,0,0,1-3.22-2.72,12.66,12.66,0,0,1-2.05-4.1,17.66,17.66,0,0,1-.72-5.15,17.2,17.2,0,0,1,.76-5.2,13,13,0,0,1,2.11-4.12,9.85,9.85,0,0,1,3.26-2.72,8.93,8.93,0,0,1,4.18-1,9.37,9.37,0,0,1,8,4l-2.23,1.69a8.74,8.74,0,0,0-2.52-2.41,6.59,6.59,0,0,0-3.35-.76,6,6,0,0,0-3,.77A7.23,7.23,0,0,0,78,92.68,10.89,10.89,0,0,0,76.45,96a15,15,0,0,0-.56,4.21,14.7,14.7,0,0,0,.58,4.23A11.11,11.11,0,0,0,78,107.71a7.32,7.32,0,0,0,2.36,2.16,5.9,5.9,0,0,0,3,.77,6.1,6.1,0,0,0,4.84-1.91,8.28,8.28,0,0,0,1.67-5.62v-.22H85.32v-2.56h7.27v2.44A13.43,13.43,0,0,1,91.89,107.33Z" transform="translate(-34.6 -35.88)"/><path class="a" d="M114.08,99.48a7.82,7.82,0,0,1-4.32,2.38l5.54,10.95h-3.24l-5.4-10.73h-6V112.8H97.88V87.6h10A10.72,10.72,0,0,1,111,88a6.85,6.85,0,0,1,2.48,1.31,6.29,6.29,0,0,1,1.66,2.21,7.53,7.53,0,0,1,.61,3.17A6.83,6.83,0,0,1,114.08,99.48Zm-2.5-8.16a5.61,5.61,0,0,0-3.83-1.17h-7.06v9.36h6.7a6.24,6.24,0,0,0,4.16-1.17,5.3,5.3,0,0,0,0-7Z" transform="translate(-34.6 -35.88)"/><path class="a" d="M137.09,112.8l-2.16-6.41h-10.4l-2.2,6.41h-2.88l8.75-25.2h3.1L140,112.8Zm-5.8-17.24q-.22-.61-.45-1.33l-.45-1.39q-.22-.67-.38-1.26l-.27-1-.27,1q-.16.58-.38,1.26t-.47,1.42l-.47,1.39-2.77,8.21h8.68Z" transform="translate(-34.6 -35.88)"/><path class="a" d="M151.2,90.16V112.8h-2.81V90.16H141V87.6h17.64v2.56Z" transform="translate(-34.6 -35.88)"/><path class="a" d="M163.87,112.8V87.6h2.81v25.2Z" transform="translate(-34.6 -35.88)"/><path class="a" d="M192.56,105.4a12.54,12.54,0,0,1-2.14,4.12,9.9,9.9,0,0,1-3.33,2.7,10,10,0,0,1-8.55,0,9.58,9.58,0,0,1-3.29-2.68,12.51,12.51,0,0,1-2.11-4.1,17.53,17.53,0,0,1-.74-5.22,17.32,17.32,0,0,1,.76-5.24,12.73,12.73,0,0,1,2.12-4.12,9.72,9.72,0,0,1,3.31-2.7,10,10,0,0,1,8.55,0,9.59,9.59,0,0,1,3.29,2.68,12.78,12.78,0,0,1,2.12,4.1,18.44,18.44,0,0,1,0,10.46Zm-2.65-9.47a10.72,10.72,0,0,0-1.64-3.31,7.34,7.34,0,0,0-2.45-2.12,6.48,6.48,0,0,0-3.06-.74,6.3,6.3,0,0,0-3,.74,7.2,7.2,0,0,0-2.39,2.09,10.39,10.39,0,0,0-1.58,3.28,15,15,0,0,0-.58,4.3,14.58,14.58,0,0,0,.59,4.3,10.93,10.93,0,0,0,1.62,3.31,7.15,7.15,0,0,0,2.43,2.12,6.48,6.48,0,0,0,3.06.74,6.4,6.4,0,0,0,3-.74,7.12,7.12,0,0,0,2.41-2.09,10.4,10.4,0,0,0,1.58-3.28,15,15,0,0,0,.58-4.3A14.58,14.58,0,0,0,189.92,95.93Z" transform="translate(-34.6 -35.88)"/><path class="a" d="M214.38,112.8l-11-17.24q-.22-.32-.47-.77l-.5-.9-.49-.85a5.87,5.87,0,0,1-.34-.65V112.8h-2.74V87.6h2.74l10.91,17.57q.22.32.47.77l.5.9.49.85a6.22,6.22,0,0,1,.34.65V87.6H217v25.2Z" transform="translate(-34.6 -35.88)"/><path class="a" d="M241.67,90.16V112.8h-2.81V90.16h-7.42V87.6h17.64v2.56Z" transform="translate(-34.6 -35.88)"/><path class="a" d="M272.23,105.4a12.54,12.54,0,0,1-2.14,4.12,9.9,9.9,0,0,1-3.33,2.7,10,10,0,0,1-8.55,0,9.58,9.58,0,0,1-3.29-2.68,12.51,12.51,0,0,1-2.11-4.1,17.53,17.53,0,0,1-.74-5.22,17.32,17.32,0,0,1,.76-5.24A12.73,12.73,0,0,1,255,90.88a9.72,9.72,0,0,1,3.31-2.7,10,10,0,0,1,8.55,0,9.59,9.59,0,0,1,3.29,2.68,12.78,12.78,0,0,1,2.12,4.1,18.44,18.44,0,0,1,0,10.46Zm-2.65-9.47a10.72,10.72,0,0,0-1.64-3.31,7.34,7.34,0,0,0-2.45-2.12,6.48,6.48,0,0,0-3.06-.74,6.3,6.3,0,0,0-3,.74A7.2,7.2,0,0,0,257,92.59a10.39,10.39,0,0,0-1.58,3.28,15,15,0,0,0-.58,4.3,14.58,14.58,0,0,0,.59,4.3,10.93,10.93,0,0,0,1.62,3.31,7.15,7.15,0,0,0,2.43,2.12,6.48,6.48,0,0,0,3.06.74,6.4,6.4,0,0,0,3-.74,7.12,7.12,0,0,0,2.41-2.09,10.4,10.4,0,0,0,1.58-3.28,15,15,0,0,0,.58-4.3A14.58,14.58,0,0,0,269.58,95.93Z" transform="translate(-34.6 -35.88)"/><path class="a" d="M297.61,105.4a12.54,12.54,0,0,1-2.14,4.12,9.9,9.9,0,0,1-3.33,2.7,10,10,0,0,1-8.55,0,9.58,9.58,0,0,1-3.29-2.68,12.51,12.51,0,0,1-2.11-4.1,17.53,17.53,0,0,1-.74-5.22,17.32,17.32,0,0,1,.76-5.24,12.73,12.73,0,0,1,2.12-4.12,9.72,9.72,0,0,1,3.31-2.7,10,10,0,0,1,8.55,0,9.59,9.59,0,0,1,3.29,2.68,12.78,12.78,0,0,1,2.12,4.1,18.44,18.44,0,0,1,0,10.46ZM295,95.93a10.72,10.72,0,0,0-1.64-3.31,7.34,7.34,0,0,0-2.45-2.12,6.48,6.48,0,0,0-3.06-.74,6.3,6.3,0,0,0-3,.74,7.2,7.2,0,0,0-2.39,2.09,10.39,10.39,0,0,0-1.58,3.28,15,15,0,0,0-.58,4.3,14.58,14.58,0,0,0,.59,4.3,10.93,10.93,0,0,0,1.62,3.31,7.15,7.15,0,0,0,2.43,2.12,6.48,6.48,0,0,0,3.06.74,6.4,6.4,0,0,0,3-.74,7.12,7.12,0,0,0,2.41-2.09,10.4,10.4,0,0,0,1.58-3.28,15,15,0,0,0,.58-4.3A14.58,14.58,0,0,0,295,95.93Z" transform="translate(-34.6 -35.88)"/><path class="a" d="M303.91,112.8V87.6h2.81v22.64h12.46v2.56Z" transform="translate(-34.6 -35.88)"/><path class="a" d="M339.66,112.8l-7.45-13.43-4.79,6.19v7.24h-2.81V87.6h2.81V102l.7-1q.45-.63,1-1.35l1.06-1.4.92-1.19,7.31-9.43h3.06l-7.38,9.47,8.78,15.73Z" transform="translate(-34.6 -35.88)"/><path class="a" d="M347.9,112.8V87.6h2.81v25.2Z" transform="translate(-34.6 -35.88)"/><path class="a" d="M366.19,90.16V112.8h-2.81V90.16H356V87.6h17.64v2.56Z" transform="translate(-34.6 -35.88)"/></svg>