<svg id="ec1d1c01-49dd-4372-afde-3ab588101ba2" data-name="Icon" xmlns="http://www.w3.org/2000/svg" viewBox="0 0 36 36">
  <defs>
    <style>
      .b84335cf-6e7a-4381-815a-1f9effe4545d {
        fill: #fff;
      }
    </style>
  </defs>
  <g>
    <path class="b84335cf-6e7a-4381-815a-1f9effe4545d" d="M29,23.38a2.62,2.62,0,0,0-2.54,2h-1.2l-1.82-1.82c-.56-.58-1.46.32-.88.88l2,2a.6.6,0,0,0,.44.18h1.46A2.62,2.62,0,1,0,29,23.38Zm0,4a1.38,1.38,0,0,1,0-2.75A1.38,1.38,0,0,1,29,27.38Z"/>
    <path class="b84335cf-6e7a-4381-815a-1f9effe4545d" d="M22.62,22V14a.61.61,0,0,0-.62-.62H14a.61.61,0,0,0-.62.62v8a.61.61,0,0,0,.62.62h8A.61.61,0,0,0,22.62,22Zm-1.24-.62H14.62V14.62h6.76Z"/>
    <path class="b84335cf-6e7a-4381-815a-1f9effe4545d" d="M31,15.38H27a.61.61,0,0,0-.62.62v1.38H24a.62.62,0,0,0,0,1.24h2.38V20a.61.61,0,0,0,.62.62h4a.61.61,0,0,0,.62-.62V16A.61.61,0,0,0,31,15.38Zm-.62,4H27.62V16.62h2.76Z"/>
    <path class="b84335cf-6e7a-4381-815a-1f9effe4545d" d="M23,12.62a.62.62,0,0,0,.44-.18l1.82-1.82h1.2a2.62,2.62,0,1,0,0-1.24H25a.6.6,0,0,0-.44.18l-2,2A.62.62,0,0,0,23,12.62Zm6-4a1.38,1.38,0,0,1,0,2.75A1.38,1.38,0,0,1,29,8.62Z"/>
    <path class="b84335cf-6e7a-4381-815a-1f9effe4545d" d="M7,12.62a2.62,2.62,0,0,0,2.54-2h1.2l1.82,1.82a.62.62,0,0,0,.88-.88l-2-2A.6.6,0,0,0,11,9.38H9.54A2.62,2.62,0,1,0,7,12.62Zm0-4a1.38,1.38,0,0,1,0,2.75A1.38,1.38,0,0,1,7,8.62Z"/>
    <path class="b84335cf-6e7a-4381-815a-1f9effe4545d" d="M5,20.62H9A.61.61,0,0,0,9.62,20V18.62H12a.62.62,0,0,0,0-1.24H9.62V16A.61.61,0,0,0,9,15.38H5a.61.61,0,0,0-.62.62v4A.61.61,0,0,0,5,20.62Zm.62-4H8.38v2.76H5.62Z"/>
    <path class="b84335cf-6e7a-4381-815a-1f9effe4545d" d="M12.56,23.56l-1.82,1.82H9.54a2.62,2.62,0,1,0,0,1.24H11a.6.6,0,0,0,.44-.18l2-2C14,23.88,13.12,23,12.56,23.56ZM7,27.38a1.38,1.38,0,0,1,0-2.75A1.38,1.38,0,0,1,7,27.38Z"/>
  </g>
</svg>
