<svg id="acd31c2b-c443-4fec-a246-0e255e9c17fa" data-name="Icon" xmlns="http://www.w3.org/2000/svg" viewBox="0 0 36 36">
  <defs>
    <style>
      .b9644e96-2bd1-4bea-acdc-02c4c5fe37bf {
        fill: #fff;
      }
    </style>
  </defs>
  <g>
    <path class="b9644e96-2bd1-4bea-acdc-02c4c5fe37bf" d="M26,7.38a.63.63,0,0,0-.62.63.63.63,0,0,0,1.25,0A.63.63,0,0,0,26,7.38Z"/>
    <path class="b9644e96-2bd1-4bea-acdc-02c4c5fe37bf" d="M28,7.38a.63.63,0,0,0-.62.63.63.63,0,0,0,1.25,0A.63.63,0,0,0,28,7.38Z"/>
    <g>
      <path class="b9644e96-2bd1-4bea-acdc-02c4c5fe37bf" d="M31,4.38H11a.61.61,0,0,0-.62.62V25a.61.61,0,0,0,.62.62H31a.61.61,0,0,0,.62-.62V5A.61.61,0,0,0,31,4.38Zm-.62,20H11.62V5.62H30.38Z"/>
      <path class="b9644e96-2bd1-4bea-acdc-02c4c5fe37bf" d="M28,27.38H8.62V8A.62.62,0,0,0,7.38,8V28a.61.61,0,0,0,.62.62H28a.62.62,0,0,0,0-1.24Z"/>
      <path class="b9644e96-2bd1-4bea-acdc-02c4c5fe37bf" d="M25,30.38H5.62V11a.62.62,0,0,0-1.24,0V31a.61.61,0,0,0,.62.62H25a.62.62,0,0,0,0-1.24Z"/>
    </g>
  </g>
</svg>
