<?xml version="1.0" encoding="utf-8"?>
<!-- Generator: Adobe Illustrator 17.1.0, SVG Export Plug-In . SVG Version: 6.00 Build 0)  -->
<!DOCTYPE svg PUBLIC "-//W3C//DTD SVG 1.1//EN" "http://www.w3.org/Graphics/SVG/1.1/DTD/svg11.dtd">
<svg version="1.1" id="Layer_1" xmlns="http://www.w3.org/2000/svg" xmlns:xlink="http://www.w3.org/1999/xlink" x="0px" y="0px"
	 viewBox="0 0 104.4 104.4" enable-background="new 0 0 104.4 104.4" xml:space="preserve">
<g>
	<path fill="#FFFFFF" d="M56.492,59.044c-0.556-0.414-1.16-0.473-1.614-0.171c-0.542,0.361-0.728,0.94-0.485,1.49l1.303,4.233
		c-9.106-0.006-16.195-2.516-21.076-7.454c-6.586-6.662-7.077-15.798-7.107-17.594c-0.002-0.11-0.002-0.22-0.002-0.331l-1.362-0.019
		c-0.002,0.057-0.007,0.275,0.003,0.631c0.107,11.993,3.406,20.877,9.809,26.412c6.162,5.329,13.574,6.17,17.64,6.17
		c0.844,0,1.54-0.037,2.054-0.077l-1.26,4.1c-0.242,0.549-0.057,1.128,0.484,1.488c0.189,0.128,0.412,0.194,0.644,0.194
		c0.32,0,0.647-0.123,0.996-0.386l10.647-8.809c0.157-0.13,0.248-0.322,0.248-0.525c0-0.203-0.091-0.396-0.248-0.525L56.492,59.044z
		 M55.774,76.58l1.483-4.824c0.061-0.199,0.027-0.417-0.092-0.589c-0.119-0.172-0.31-0.279-0.518-0.292l-0.19,0.012
		c-0.011,0.001-0.021-0.003-0.032-0.002c-0.004,0.001-0.028,0.004-0.062,0.008l-1.928,0.126c-3.595,0.088-11.378-0.434-17.596-5.819
		c-3.93-3.402-6.63-8.167-8.077-14.233c1.101,2.401,2.662,4.878,4.877,7.121c5.299,5.369,12.99,8.024,22.895,7.872
		c0.121-0.002,0.228-0.043,0.325-0.1c0.121-0.049,0.232-0.12,0.308-0.23c0.12-0.172,0.153-0.389,0.092-0.588l-1.483-4.823
		l9.887,8.179L55.774,76.58z"/>
	<path fill="#FFFFFF" d="M79.858,64.237c-0.107-11.993-3.406-20.877-9.809-26.412c-7.439-6.431-16.697-6.324-19.694-6.093
		l1.26-4.099c0.242-0.55,0.057-1.129-0.484-1.489c-0.189-0.127-0.412-0.193-0.644-0.193c-0.32,0-0.648,0.123-0.997,0.385
		l-10.646,8.809c-0.156,0.131-0.247,0.322-0.247,0.526c0,0.202,0.091,0.395,0.247,0.524l10.673,8.83
		c0.556,0.414,1.16,0.473,1.613,0.171c0.543-0.361,0.729-0.94,0.486-1.49l-1.303-4.233c9.1,0.006,16.195,2.515,21.076,7.453
		c6.586,6.662,7.076,15.796,7.107,17.593c0.001,0.111,0.001,0.221,0.001,0.332l1.362,0.018
		C79.862,64.812,79.867,64.593,79.858,64.237z M72.37,45.979c-5.299-5.369-13-8.027-22.895-7.872
		c-0.12,0.002-0.227,0.043-0.324,0.099c-0.122,0.049-0.233,0.12-0.309,0.231c-0.121,0.172-0.154,0.389-0.092,0.588l1.482,4.823
		l-9.886-8.179l9.886-8.182l-1.482,4.824c-0.062,0.199-0.027,0.417,0.092,0.588c0.119,0.172,0.311,0.28,0.519,0.292l0.191-0.012
		c0.011-0.001,0.021,0.003,0.033,0.002c0.004-0.001,0.026-0.003,0.057-0.008l1.99-0.13c3.614-0.084,11.331,0.456,17.525,5.812
		c3.936,3.403,6.64,8.172,8.089,14.244C76.146,50.698,74.585,48.223,72.37,45.979z"/>
</g>
</svg>
