<svg xmlns="http://www.w3.org/2000/svg" viewBox="0 0 108 108"><defs><style>.a{fill:#fff;}</style></defs><title>Icon_RH_Transportation_Car-Front_RGB_White</title><path class="a" d="M23.93 59.4a64.39 64.39 0 0 0 7.13.93.5.5 0 0 0 .47-.67c-.37-1-1.66-4.28-2.78-4.76a16.7 16.7 0 0 0-2.68-.58 1.26 1.26 0 0 0-1.2.46 7.71 7.71 0 0 0-1.36 4.12.5.5 0 0 0 .42.5zm1.74-4a.26.26 0 0 1 .25-.09 16 16 0 0 1 2.45.51c.42.18 1.29 1.82 2 3.47-2-.16-4.73-.61-5.77-.79a6.37 6.37 0 0 1 1.07-3.11zm51.25 4.93a64.39 64.39 0 0 0 7.13-.93.5.5 0 0 0 .41-.5 7.71 7.71 0 0 0-1.36-4.12 1.26 1.26 0 0 0-1.2-.46 16.76 16.76 0 0 0-2.68.58c-1.12.47-2.42 3.76-2.78 4.76a.5.5 0 0 0 .47.67zm2.7-4.51a16 16 0 0 1 2.45-.51h.05a.25.25 0 0 1 .2.09 6.4 6.4 0 0 1 1.12 3.1c-1 .18-3.75.64-5.77.79.67-1.66 1.54-3.29 1.96-3.47zm7.91 4a1 1 0 0 0-.53-.22c0-2-.56-6.53-4-8.3a8.47 8.47 0 0 1-2-1.44h.75c3 0 3.63-1.12 3.71-1.33 1.4-2.52.09-4.06 0-4.13a.5.5 0 0 0-.13-.11c-2.1-1.19-5.36-.46-5.9-.22a1.8 1.8 0 0 0-.7.89c-1.6-4.51-5-13.07-8.18-14.33l-.21-.06c-15.59-2.54-32.48 0-32.65 0l-.22.06c-3.31 1.32-6.88 10.59-8.38 14.9a2.71 2.71 0 0 0-1-1.51c-.55-.24-3.82-.9-5.9.33a.5.5 0 0 0-.13.11c-.06.07-1.34 1.63.08 4.06.1.26.71 1.33 3.55 1.33a14.83 14.83 0 0 0 1.68-.11 6.47 6.47 0 0 1-2.31 1.49C21.42 52.74 21 57.46 21 59.6a1 1 0 0 0-.51.23 1 1 0 0 0-.33.85l.67 6.57a4.32 4.32 0 0 0 2.17 3.4v3.56a4.21 4.21 0 0 0 4.08 4.33h3.48a4.21 4.21 0 0 0 4.08-4.33v-1.55a171.67 171.67 0 0 0 19.78 1.14 159.65 159.65 0 0 0 18.91-1.11v1.51a4.21 4.21 0 0 0 4.08 4.33h3.49a4.21 4.21 0 0 0 4.1-4.32v-3.58a4.38 4.38 0 0 0 2.22-3.4l.67-6.55a1 1 0 0 0-.35-.85zM79.84 45c.36-.17 3.19-.77 4.91.13.17.26.71 1.28-.22 3 0 0-.63 1.1-4.45.68a3.47 3.47 0 0 1-.52-1.25 1 1 0 0 0 0-.18l-.28-.83a5.32 5.32 0 0 1 .56-1.55zm-.69 5.84a10 10 0 0 0 3 2.23c2.63 1.35 2.9 5.35 2.91 6.85-3.75.75-7.48 1.34-11.14 1.77.51-.66 1-1.3 1.4-1.92h.11a.5.5 0 0 0 .47-.53.51.51 0 0 0-.08-.24 22 22 0 0 0 3.33-8.14zm-45.35 8c-.57-.85-1.06-1.66-1.47-2.43 7.17.48 14.39.73 21.61.73s14.44-.25 21.61-.73q-.62 1.15-1.48 2.44a341.82 341.82 0 0 1-40.27-.01zm39.55 1.05c-.48.66-1 1.34-1.59 2A176.48 176.48 0 0 1 36 61.8c-.54-.66-1-1.3-1.49-1.92q9.72.55 19.51.56c6.47.01 12.92-.19 19.33-.55zM38.11 32.57c1.57-.22 17.24-2.35 31.78 0 2.15 1 5.35 8.51 7.23 13.91-20.1-2.09-40.55-.51-46.24 0 1.96-5.65 5.18-12.91 7.23-13.91zm-7.8 16c4.28-.42 26.2-2.32 47.47 0v.09a15.06 15.06 0 0 1-1.72 6.73 321 321 0 0 1-44.27 0 15.92 15.92 0 0 1-1.72-6.19 5.46 5.46 0 0 0 .23-.64zM23 48.12a2.72 2.72 0 0 1-.26-2.92c1.7-.93 4.54-.38 4.87-.24a6.84 6.84 0 0 1 .86 2.16l-.05.16a1 1 0 0 0 0 .28 2.83 2.83 0 0 1-.29 1c-4.35.8-5.06-.39-5.13-.44zm2.77 5a8.43 8.43 0 0 0 3-1.95 22.35 22.35 0 0 0 3.35 7.87.51.51 0 0 0 0 .19.5.5 0 0 0 .47.53c.39.58.83 1.18 1.3 1.79C28.81 61 25 60.32 23 59.93c-.05-1.52.13-5.72 2.82-6.8zm6.85 19.54v1.54a2.22 2.22 0 0 1-2.08 2.33H27.1a2.22 2.22 0 0 1-2.1-2.32v-3c1.8.34 4.43.78 7.69 1.2a1 1 0 0 0-.02.25zM83 74.21a2.22 2.22 0 0 1-2.08 2.33h-3.51a2.22 2.22 0 0 1-2.08-2.33v-1.55a1 1 0 0 0 0-.22q3.79-.51 7.69-1.24zM85.2 67a2.27 2.27 0 0 1-1.71 2c-27.34 5.39-52.06 1.38-59 0a2.27 2.27 0 0 1-1.72-2l-.54-5.21c6.38 1.24 34.27 6 63.48 0z"/></svg>