<svg id="f857d548-0c87-48b0-9475-b5d5861821f0" data-name="Icon" xmlns="http://www.w3.org/2000/svg" viewBox="0 0 36 36"><defs><style>.a4ad3e8c-bb65-40cb-bd8b-d3e75af96ca2{fill:#fff;}</style></defs><path class="a4ad3e8c-bb65-40cb-bd8b-d3e75af96ca2" d="M28.62,15.52c-.05-9.6-12.95-12.64-17.28-4.09a7.12,7.12,0,1,0-.84,14.19H11a.62.62,0,0,0,0-1.24h-.5C2,23.92,3.15,11.59,11.59,12.73a.64.64,0,0,0,.69-.36c3.59-8,15.4-5.21,15.08,3.52V16a.63.63,0,0,0,.56.66,3.87,3.87,0,0,1-.41,7.71H27a.62.62,0,0,0,0,1.24h.5A5.12,5.12,0,0,0,28.62,15.52Z"/><path class="a4ad3e8c-bb65-40cb-bd8b-d3e75af96ca2" d="M24,24.38H22.9a4,4,0,0,0-.7-1.69l.78-.78a.63.63,0,0,0-.89-.89l-.78.78a4,4,0,0,0-1.69-.69V20a.62.62,0,0,0-1.24,0v1.11a4,4,0,0,0-1.69.69L15.91,21a.63.63,0,0,0-.89.89l.78.78a4,4,0,0,0-.7,1.69H14a.62.62,0,0,0,0,1.24h1.1a4,4,0,0,0,.7,1.69l-.78.78a.63.63,0,0,0,.89.89l.78-.78a4,4,0,0,0,1.69.69V30a.62.62,0,0,0,1.24,0V28.89a4,4,0,0,0,1.69-.69l.78.78a.63.63,0,0,0,.89-.89l-.78-.78a4,4,0,0,0,.7-1.69H24A.62.62,0,0,0,24,24.38Zm-5,3.33a2.71,2.71,0,0,1,0-5.42A2.71,2.71,0,0,1,19,27.71Z"/></svg>