<svg id="adea996e-c00f-48ca-8668-a9f638ab17e7" data-name="Icon" xmlns="http://www.w3.org/2000/svg" viewBox="0 0 36 36">
  <defs>
    <style>
      .ab52dec6-8e03-4ec4-b66c-d9a5f13cc142 {
        fill: #fff;
      }
    </style>
  </defs>
  <path class="ab52dec6-8e03-4ec4-b66c-d9a5f13cc142" d="M26.46,18.62a2.62,2.62,0,1,0,0-1.24h-4.9a3.56,3.56,0,0,0-.6-1.46l6.69-6.68A2.56,2.56,0,0,0,29,9.62,2.62,2.62,0,1,0,26.38,7a2.56,2.56,0,0,0,.38,1.35L20.08,15a3.56,3.56,0,0,0-1.46-.6V9.54a2.62,2.62,0,1,0-1.24,0v4.9a3.56,3.56,0,0,0-1.46.6L9.24,8.35A2.56,2.56,0,0,0,9.62,7,2.62,2.62,0,1,0,7,9.62a2.56,2.56,0,0,0,1.35-.38L15,15.92a3.56,3.56,0,0,0-.6,1.46H9.54a2.62,2.62,0,1,0,0,1.24h4.9a3.56,3.56,0,0,0,.6,1.46L8.35,26.76A2.56,2.56,0,0,0,7,26.38,2.62,2.62,0,1,0,9.62,29a2.56,2.56,0,0,0-.38-1.35L15.92,21a3.56,3.56,0,0,0,1.46.6v4.9a2.62,2.62,0,1,0,1.24,0v-4.9a3.56,3.56,0,0,0,1.46-.6l6.68,6.69A2.56,2.56,0,0,0,26.38,29,2.62,2.62,0,1,0,29,26.38a2.56,2.56,0,0,0-1.35.38L21,20.08a3.56,3.56,0,0,0,.6-1.46Zm2.54-2A1.38,1.38,0,1,1,27.62,18,1.38,1.38,0,0,1,29,16.62Zm0-11A1.38,1.38,0,1,1,27.62,7,1.38,1.38,0,0,1,29,5.62ZM5.62,7A1.38,1.38,0,1,1,7,8.38,1.38,1.38,0,0,1,5.62,7ZM7,19.38A1.38,1.38,0,1,1,8.38,18,1.38,1.38,0,0,1,7,19.38Zm0,11A1.38,1.38,0,1,1,8.38,29,1.38,1.38,0,0,1,7,30.38ZM30.38,29A1.38,1.38,0,1,1,29,27.62,1.38,1.38,0,0,1,30.38,29ZM16.62,7A1.38,1.38,0,1,1,18,8.38,1.38,1.38,0,0,1,16.62,7Zm2.76,22A1.38,1.38,0,1,1,18,27.62,1.38,1.38,0,0,1,19.38,29ZM18,20.38A2.38,2.38,0,1,1,20.38,18,2.39,2.39,0,0,1,18,20.38Z"/>
</svg>
