<?xml version="1.0" encoding="utf-8"?>
<!-- Generator: Adobe Illustrator 17.1.0, SVG Export Plug-In . SVG Version: 6.00 Build 0)  -->
<!DOCTYPE svg PUBLIC "-//W3C//DTD SVG 1.1//EN" "http://www.w3.org/Graphics/SVG/1.1/DTD/svg11.dtd">
<svg version="1.1" id="Layer_1" xmlns="http://www.w3.org/2000/svg" xmlns:xlink="http://www.w3.org/1999/xlink" x="0px" y="0px"
	 viewBox="0 0 216 216" enable-background="new 0 0 216 216" xml:space="preserve">
<path fill="#FFFFFF" d="M134.253,125.226c-9.698,0-17.588-7.89-17.588-17.588c0-9.699,7.89-17.59,17.588-17.59
	c9.699,0,17.59,7.891,17.59,17.59C151.843,117.336,143.952,125.226,134.253,125.226z M134.253,92.048
	c-8.595,0-15.588,6.993-15.588,15.59c0,8.595,6.993,15.588,15.588,15.588c8.597,0,15.59-6.993,15.59-15.588
	C149.843,99.041,142.85,92.048,134.253,92.048z"/>
<path fill="#FFFFFF" d="M132.464,129.255h-0.001c-0.08-0.049-0.18-0.047-0.259,0.006l-3.946,2.672
	c-0.067,0.044-0.107,0.122-0.105,0.204c0.002,0.082,0.046,0.157,0.116,0.199l1.09,0.655c-5.627,6.238-12.958,9.674-20.772,9.674
	c-0.001,0-0.002,0-0.003,0c-8.56,0-16.746-4.254-22.462-11.671c-0.251-0.326-0.722-0.391-1.052-0.136
	c-0.328,0.253-0.389,0.724-0.136,1.052c6.001,7.788,14.621,12.255,23.649,12.255c0.002,0,0.002,0,0.003,0
	c8.337,0,16.144-3.69,22.081-10.386l0.997,0.6c0.07,0.043,0.157,0.047,0.229,0.011c0.074-0.037,0.122-0.106,0.134-0.188l0.549-4.715
	C132.588,129.395,132.545,129.304,132.464,129.255z"/>
<path fill="#FFFFFF" d="M134.098,86.022c-5.945-9.337-15.483-14.912-25.514-14.913c-7.421,0-14.586,3.01-20.263,8.481l-1.044-0.903
	c-0.062-0.054-0.147-0.073-0.224-0.05c-0.08,0.024-0.139,0.084-0.164,0.162l-1.347,4.552c-0.026,0.088,0,0.186,0.072,0.248h0.001
	c0.071,0.062,0.169,0.077,0.256,0.039l4.345-1.957c0.074-0.032,0.127-0.102,0.139-0.183c0.012-0.081-0.018-0.163-0.081-0.216
	l-0.816-0.706c5.381-5.139,12.139-7.966,19.126-7.966c9.515,0.001,18.58,5.316,24.248,14.219c0.144,0.224,0.386,0.347,0.634,0.347
	c0.138,0,0.277-0.038,0.401-0.117C134.217,86.835,134.32,86.371,134.098,86.022z"/>
<g>
	<path fill="#FFFFFF" d="M102.686,108.848c2.414-1.6,4.099-4.216,4.435-7.234c0.041-0.366,0.062-0.738,0.062-1.115
		c0-4.581-3.096-8.444-7.302-9.631c-0.158-3.015-2.653-5.422-5.708-5.422c-3.156,0-5.723,2.567-5.723,5.723
		c0,1.134,0.336,2.189,0.907,3.079c-1.151,1.436-1.915,3.191-2.134,5.112c-0.439-0.814-1.069-1.51-1.83-2.027
		c1.713-0.177,3.058-1.612,3.058-3.371c0-1.879-1.528-3.407-3.407-3.407c-1.878,0-3.407,1.528-3.407,3.407
		c0,0.938,0.382,1.79,0.998,2.406c-0.15-0.012-0.299-0.023-0.452-0.023c-1.625,0-3.092,0.685-4.134,1.777
		c0.42-0.796,0.661-1.701,0.661-2.662c0-3.156-2.567-5.723-5.723-5.723c-3.155,0-5.723,2.567-5.723,5.723
		c0,2.39,1.474,4.439,3.559,5.295c-1.097,0.566-1.856,1.699-1.856,3.016c0,1.878,1.528,3.407,3.407,3.407
		c0.28,0,0.547-0.043,0.808-0.107c-0.371,0.359-0.71,0.749-1.022,1.161c-0.575-0.195-1.189-0.306-1.83-0.306
		c-3.155,0-5.723,2.567-5.723,5.723c0,2.774,1.984,5.092,4.606,5.612c-0.767,0.626-1.268,1.566-1.268,2.631
		c0,1.878,1.528,3.406,3.407,3.406c1.621,0,2.976-1.14,3.318-2.658c1.574,1.03,3.45,1.635,5.468,1.635
		c2.287,0,4.391-0.779,6.079-2.074c-0.305,0.511-0.491,1.1-0.491,1.735c0,1.878,1.528,3.406,3.407,3.406s3.407-1.528,3.407-3.406
		c0-1.879-1.528-3.407-3.407-3.407c-0.549,0-1.061,0.143-1.521,0.374c0.774-0.869,1.399-1.872,1.835-2.973
		c0.932,1.899,2.881,3.213,5.135,3.213c3.155,0,5.723-2.567,5.723-5.723c0-0.076-0.008-0.15-0.012-0.227
		c0.421,0.187,0.884,0.295,1.373,0.295c1.878,0,3.407-1.528,3.407-3.406C105.073,110.561,104.064,109.285,102.686,108.848z
		 M85.045,92.055c1.051,0,1.907,0.855,1.907,1.907c0,1.051-0.855,1.906-1.907,1.906c-1.051,0-1.907-0.855-1.907-1.906
		C83.138,92.91,83.994,92.055,85.045,92.055z M101.666,113.988c-1.051,0-1.907-0.855-1.907-1.906c0-1.052,0.855-1.907,1.907-1.907
		c1.051,0,1.907,0.855,1.907,1.907C103.573,113.133,102.718,113.988,101.666,113.988z M94.582,119.643
		c-2.329,0-4.223-1.895-4.223-4.223s1.895-4.223,4.223-4.223c2.329,0,4.223,1.894,4.223,4.223S96.911,119.643,94.582,119.643z
		 M73.259,121.892c0,1.051-0.855,1.906-1.907,1.906c-1.051,0-1.907-0.855-1.907-1.906c0-1.052,0.855-1.907,1.907-1.907
		C72.404,119.984,73.259,120.84,73.259,121.892z M66.108,113.648c0-2.328,1.894-4.223,4.223-4.223s4.223,1.895,4.223,4.223
		c0,2.329-1.895,4.224-4.223,4.224S66.108,115.978,66.108,113.648z M73.038,118.948c-0.044-0.064-0.081-0.134-0.122-0.2
		c1.859-0.946,3.138-2.874,3.138-5.1c0-1.973-1.003-3.715-2.526-4.744c1.14-1.404,2.718-2.432,4.522-2.89
		c1.043,1.092,2.509,1.776,4.134,1.776c0.946,0,1.837-0.234,2.624-0.643c2.313,1.524,3.845,4.141,3.845,7.112
		c0,4.695-3.82,8.515-8.515,8.515c-2.157,0-4.124-0.813-5.626-2.141C74.226,119.917,73.701,119.33,73.038,118.948z M82.184,97.845
		c2.329,0,4.223,1.895,4.223,4.223c0,2.329-1.894,4.223-4.223,4.223c-2.329,0-4.223-1.894-4.223-4.223
		C77.961,99.74,79.855,97.845,82.184,97.845z M86.099,106.231c0.735-0.691,1.287-1.571,1.577-2.565
		c0.938,2.803,3.081,5.054,5.814,6.139c-1.469,0.285-2.737,1.135-3.573,2.312C89.392,109.721,88.004,107.649,86.099,106.231z
		 M94.173,86.946c2.329,0,4.223,1.894,4.223,4.223c0,2.329-1.894,4.223-4.223,4.223c-2.329,0-4.223-1.895-4.223-4.223
		C89.95,88.84,91.845,86.946,94.173,86.946z M90.352,95.418c1.015,0.913,2.352,1.474,3.821,1.474c2.735,0,5.026-1.931,5.588-4.5
		c3.43,1.1,5.922,4.317,5.922,8.107c0,4.695-3.82,8.515-8.515,8.515c-4.695,0-8.515-3.82-8.515-8.515
		C88.654,98.593,89.291,96.838,90.352,95.418z M98.4,111.169c-0.281-0.253-0.587-0.477-0.914-0.671
		c0.442-0.008,0.873-0.044,1.248-0.119C98.59,110.625,98.478,110.889,98.4,111.169z M72.987,91.237c2.329,0,4.223,1.895,4.223,4.223
		c0,2.329-1.895,4.223-4.223,4.223c-2.329,0-4.223-1.894-4.223-4.223C68.765,93.132,70.659,91.237,72.987,91.237z M74.281,103.771
		c0,1.051-0.855,1.907-1.907,1.907s-1.907-0.855-1.907-1.907s0.855-1.907,1.907-1.907S74.281,102.72,74.281,103.771z
		 M74.355,101.011c1.073-0.265,2.026-0.829,2.767-1.604c-0.42,0.796-0.661,1.701-0.661,2.662c0,0.955,0.238,1.854,0.653,2.646
		c-0.638,0.203-1.247,0.468-1.822,0.788c0.303-0.509,0.489-1.097,0.489-1.731C75.781,102.633,75.215,101.63,74.355,101.011z
		 M89.132,125.842c-1.051,0-1.907-0.855-1.907-1.906c0-1.052,0.855-1.907,1.907-1.907c1.051,0,1.907,0.855,1.907,1.907
		C91.039,124.986,90.184,125.842,89.132,125.842z"/>
</g>
</svg>
