<svg id="ed1ede69-c797-4dc7-8cef-6f5b18c4ed94" data-name="Icon" xmlns="http://www.w3.org/2000/svg" viewBox="0 0 36 36">
  <defs>
    <style>
      .ba5cdca9-4e69-4e77-82bb-ec6327835732 {
        fill: #fff;
      }
    </style>
  </defs>
  <path class="ba5cdca9-4e69-4e77-82bb-ec6327835732" d="M24.21,15.52a.64.64,0,0,0-.53-.28h-4V5a.62.62,0,0,0-1.19-.25L11.74,20a.63.63,0,0,0,.58.88h4V31.07a.63.63,0,0,0,1.19.26l6.78-15.21A.67.67,0,0,0,24.21,15.52ZM17.54,28.13V20.21a.63.63,0,0,0-.63-.63H13.28L18.46,7.94v7.92a.63.63,0,0,0,.63.63h3.63Z"/>
</svg>
