<?xml version="1.0" encoding="utf-8"?>
<!-- Generator: Adobe Illustrator 17.1.0, SVG Export Plug-In . SVG Version: 6.00 Build 0)  -->
<!DOCTYPE svg PUBLIC "-//W3C//DTD SVG 1.1//EN" "http://www.w3.org/Graphics/SVG/1.1/DTD/svg11.dtd">
<svg version="1.1" id="Layer_1" xmlns="http://www.w3.org/2000/svg" xmlns:xlink="http://www.w3.org/1999/xlink" x="0px" y="0px"
	 viewBox="0 0 104.4 104.4" enable-background="new 0 0 104.4 104.4" xml:space="preserve">
<path fill="#FFFFFF" d="M31.318,40.937l7.29-1.132c0.546-0.085,0.919-0.596,0.835-1.142c-0.085-0.546-0.6-0.917-1.142-0.835
	l-7.422,1.152c-0.073,0.012-0.159,0.037-0.235,0.067c0.008-0.046,0.04-0.179,0.189-0.38l15.425-18.641L61.65,38.628
	c0.184,0.245,0.215,0.387,0.234,0.388c-0.008,0.011-0.015,0.021-0.021,0.029c-0.083-0.034-0.171-0.057-0.26-0.068l-9.422-1.152
	c-0.285-0.036-0.57,0.054-0.785,0.244c-0.215,0.19-0.393,0.463-0.393,0.749v9.667c0,0,0,0.28,0,0.441v16.527l-8.213-0.997
	c-0.883-0.349-1.768-0.039-2.346,0.836c-0.239,0.359-0.689,1.338,0.337,2.715l16.194,19.572c0.189,0.229,0.473,0.362,0.771,0.362
	c0.298,0,0.581-0.133,0.771-0.362l16.225-19.609c0.998-1.331,0.551-2.314,0.31-2.676c-0.601-0.902-1.525-1.205-2.434-0.801
	l-7.347,1.131c-0.53,0.154-0.836,0.709-0.683,1.239c0.154,0.531,0.711,0.835,1.239,0.682l7.422-1.152
	c0.032-0.009,0.072-0.024,0.11-0.039c-0.008,0.045-0.04,0.179-0.189,0.379L57.747,85.372L42.355,66.771
	c-0.184-0.245-0.215-0.387-0.234-0.388c0.008-0.011,0.015-0.021,0.021-0.029c0.083,0.034,0.171,0.057,0.26,0.068l9.422,1.152
	c0.283,0.034,0.57-0.054,0.785-0.244c0.215-0.19,0.393-0.463,0.393-0.749V53.914c0,0,0-0.28,0-0.441V39.947l8.212,0.997
	c0.882,0.348,1.768,0.038,2.346-0.836c0.239-0.359,0.689-1.338-0.337-2.715L47.029,17.821c-0.189-0.229-0.473-0.362-0.771-0.362
	c-0.298,0-0.581,0.133-0.771,0.362L29.264,37.431c-0.998,1.331-0.551,2.314-0.311,2.676C29.54,40.987,30.432,41.295,31.318,40.937z"
	/>
</svg>
