<svg id="ad88d6cd-ee5a-4fda-8e80-a7bbc0c80f24" data-name="Icon" xmlns="http://www.w3.org/2000/svg" viewBox="0 0 36 36">
  <defs>
    <style>
      .bbd7cdf8-8da4-4ad3-9c91-5c07ec2aac76 {
        fill: #fff;
      }
    </style>
  </defs>
  <path class="bbd7cdf8-8da4-4ad3-9c91-5c07ec2aac76" d="M31.62,27V9a.59.59,0,0,0-.23-.48A.52.52,0,0,0,31,8.38H5A.62.62,0,0,0,4.38,9V27a.62.62,0,0,0,.62.62H31A.62.62,0,0,0,31.62,27ZM21.56,17.56h0L18,21.12l-3.56-3.56h0L6.51,9.62h23ZM13.12,18l-7.5,7.49v-15Zm.88.88,3.56,3.56a.63.63,0,0,0,.88,0L22,18.88l7.49,7.5h-23ZM22.88,18l7.5-7.49v15Z"/>
</svg>
