<svg id="a2f144c2-5cdd-43a8-8d09-219073474fe0" data-name="Layer 1" xmlns="http://www.w3.org/2000/svg" viewBox="0 0 36 36">
  <defs>
    <style>
      .b8053ba5-34b2-4fe5-8b3a-9438d7ad8f3b {
        fill: #fff;
      }
    </style>
  </defs>
  <g>
    <path class="b8053ba5-34b2-4fe5-8b3a-9438d7ad8f3b" d="M15,9.67h4.05a.62.62,0,0,0,.62-.62V5a.61.61,0,0,0-.62-.62H15a.61.61,0,0,0-.62.62V9.05A.62.62,0,0,0,15,9.67Zm.62-4h2.8v2.8h-2.8Z"/>
    <path class="b8053ba5-34b2-4fe5-8b3a-9438d7ad8f3b" d="M21.75,9.67H25.8a.62.62,0,0,0,.62-.62V5a.61.61,0,0,0-.62-.62H21.75a.62.62,0,0,0-.63.62V9.05A.63.63,0,0,0,21.75,9.67Zm.63-4h2.79v2.8H22.38Z"/>
    <path class="b8053ba5-34b2-4fe5-8b3a-9438d7ad8f3b" d="M25,19.62c3.24,0,3.25-5.22,0-5.24h-9.4c-3.24,0-3.25,5.22,0,5.24ZM14.38,17.2a1.26,1.26,0,0,1,1.17-1.57H25c1.59,0,1.6,2.77,0,2.75h-9.4A1.17,1.17,0,0,1,14.38,17.2Z"/>
    <path class="b8053ba5-34b2-4fe5-8b3a-9438d7ad8f3b" d="M18.44,24.91a.63.63,0,0,0-.88,0l-2.83,2.82a.64.64,0,0,0,0,.89l2.83,2.82a.61.61,0,0,0,.88,0l2.83-2.82a.64.64,0,0,0,0-.89ZM18,30.12l-1.94-1.94L18,26.23l1.94,1.95Z"/>
    <path class="b8053ba5-34b2-4fe5-8b3a-9438d7ad8f3b" d="M31,16.38H29a.62.62,0,0,0,0,1.24h1.38v9.76H23.12a.62.62,0,0,0,0,1.24H31a.62.62,0,0,0,.62-.62V17A.62.62,0,0,0,31,16.38Z"/>
    <path class="b8053ba5-34b2-4fe5-8b3a-9438d7ad8f3b" d="M10.62,14.5a3.12,3.12,0,0,0-6.24,0A3.12,3.12,0,0,0,10.62,14.5Zm-5,0a1.88,1.88,0,0,1,3.75,0A1.88,1.88,0,0,1,5.62,14.5Z"/>
    <path class="b8053ba5-34b2-4fe5-8b3a-9438d7ad8f3b" d="M12.75,27.38H8.12V19a.62.62,0,0,0-1.24,0v9a.62.62,0,0,0,.62.62h5.25A.62.62,0,0,0,12.75,27.38Z"/>
    <path class="b8053ba5-34b2-4fe5-8b3a-9438d7ad8f3b" d="M16.4,11v2a.63.63,0,0,0,1.25,0V11A.63.63,0,0,0,16.4,11Z"/>
    <path class="b8053ba5-34b2-4fe5-8b3a-9438d7ad8f3b" d="M23.15,11v2a.63.63,0,0,0,1.25,0V11A.63.63,0,0,0,23.15,11Z"/>
    <path class="b8053ba5-34b2-4fe5-8b3a-9438d7ad8f3b" d="M17.38,21v2a.62.62,0,0,0,1.24,0V21A.62.62,0,0,0,17.38,21Z"/>
  </g>
</svg>
