<svg id="a8d557b6-27ec-46eb-af6e-f0e664ceaee6" data-name="Icon" xmlns="http://www.w3.org/2000/svg" viewBox="0 0 36 36">
  <defs>
    <style>
      .fa3cd5bf-ce35-4185-96b0-f4c2f448f245 {
        fill: #fff;
      }
    </style>
  </defs>
  <g>
    <path class="fa3cd5bf-ce35-4185-96b0-f4c2f448f245" d="M31,7.38H9a.8.8,0,0,0-.44.17l-4,4a.78.78,0,0,0-.18.44V28a.62.62,0,0,0,.62.62H31a.62.62,0,0,0,.62-.62V8A.62.62,0,0,0,31,7.38ZM8.38,9.51v1.87H6.51Zm22,17.87H5.62V12.62H9A.62.62,0,0,0,9.62,12V8.62H30.38Z"/>
    <path class="fa3cd5bf-ce35-4185-96b0-f4c2f448f245" d="M13.56,16.44a.61.61,0,0,0,.88,0L16,14.88l1.56,1.56a.62.62,0,0,0,.88-.88L16.88,14l1.56-1.56a.62.62,0,0,0-.88-.88L16,13.12l-1.56-1.56a.62.62,0,0,0-.88.88L15.12,14l-1.56,1.56A.61.61,0,0,0,13.56,16.44Z"/>
    <path class="fa3cd5bf-ce35-4185-96b0-f4c2f448f245" d="M8.38,22a2.62,2.62,0,0,0,5.24,0A2.62,2.62,0,0,0,8.38,22Zm4,0a1.38,1.38,0,0,1-2.75,0A1.38,1.38,0,0,1,12.38,22Z"/>
    <path class="fa3cd5bf-ce35-4185-96b0-f4c2f448f245" d="M22,21.38H16a.62.62,0,0,0,0,1.24h6A3.62,3.62,0,0,0,25.62,19V16.51l.94.93a.62.62,0,0,0,.88-.88l-2-2a.64.64,0,0,0-.88,0l-2,2c-.58.56.32,1.46.88.88l.94-.93V19A2.39,2.39,0,0,1,22,21.38Z"/>
  </g>
</svg>
