<svg id="b18c0e3d-b05d-4422-b808-96ae23efa1fc" data-name="Icon" xmlns="http://www.w3.org/2000/svg" viewBox="0 0 36 36">
  <defs>
    <style>
      .be978f5a-be80-407f-b1b6-135344a94baf {
        fill: #fff;
      }
    </style>
  </defs>
  <g>
    <path class="be978f5a-be80-407f-b1b6-135344a94baf" d="M31,4.38H5A.62.62,0,0,0,4.38,5V31a.62.62,0,0,0,.62.62H31a.62.62,0,0,0,.62-.62V5A.62.62,0,0,0,31,4.38Zm-.62,26H5.62V5.62H30.38Z"/>
    <path class="be978f5a-be80-407f-b1b6-135344a94baf" d="M8.42,27.24a.91.91,0,0,0,.11.16s0,0,0,0l0,0a.66.66,0,0,0,.17.12.67.67,0,0,0,.24,0h3a.62.62,0,0,0,0-1.24H10.51l5.93-5.94a.62.62,0,0,0-.88-.88L9.62,25.49V24a.62.62,0,0,0-1.24,0v3A.78.78,0,0,0,8.42,27.24Z"/>
    <path class="be978f5a-be80-407f-b1b6-135344a94baf" d="M20,16.62a.62.62,0,0,0,.44-.18l5.94-5.93V12a.62.62,0,1,0,1.24,0V9a.78.78,0,0,0,0-.21.91.91,0,0,0-.11-.16s0,0,0,0l0,0a.66.66,0,0,0-.17-.12.67.67,0,0,0-.24,0H24a.62.62,0,0,0,0,1.24h1.49l-5.93,5.94a.61.61,0,0,0,0,.88A.62.62,0,0,0,20,16.62Z"/>
    <path class="be978f5a-be80-407f-b1b6-135344a94baf" d="M14.49,15.38H13a.62.62,0,0,0,0,1.24h3a.67.67,0,0,0,.24,0,.66.66,0,0,0,.17-.12l0,0s0,0,0,0a.91.91,0,0,0,.11-.16.78.78,0,0,0,0-.21V13a.62.62,0,1,0-1.24,0v1.49L9.44,8.56a.62.62,0,0,0-.88.88Z"/>
    <path class="be978f5a-be80-407f-b1b6-135344a94baf" d="M20,23.62a.62.62,0,0,0,.62-.62V21.51l5.94,5.93a.63.63,0,0,0,.88,0,.61.61,0,0,0,0-.88l-5.93-5.94H23a.62.62,0,0,0,0-1.24H20a.67.67,0,0,0-.24,0,.66.66,0,0,0-.17.12l0,0s0,0,0,0a.91.91,0,0,0-.11.16.78.78,0,0,0,0,.21v3A.62.62,0,0,0,20,23.62Z"/>
  </g>
</svg>
