<?xml version="1.0" encoding="utf-8"?>
<!-- Generator: Adobe Illustrator 17.1.0, SVG Export Plug-In . SVG Version: 6.00 Build 0)  -->
<!DOCTYPE svg PUBLIC "-//W3C//DTD SVG 1.1//EN" "http://www.w3.org/Graphics/SVG/1.1/DTD/svg11.dtd">
<svg version="1.1" id="Layer_1" xmlns="http://www.w3.org/2000/svg" xmlns:xlink="http://www.w3.org/1999/xlink" x="0px" y="0px"
	 viewBox="0 0 216 216" enable-background="new 0 0 216 216" xml:space="preserve">
<g>
	<path fill="#FFFFFF" d="M143.67,112.588l-2.666-5.738c-0.054-0.114-0.167-0.186-0.293-0.186l-0.001-0.001
		c-0.125,0.002-0.238,0.075-0.288,0.189l-2.62,5.789c-0.046,0.1-0.036,0.215,0.023,0.305c0.061,0.093,0.162,0.147,0.271,0.146
		l1.742-0.015c-0.408,11.771-8.439,22.105-19.848,25.322l-3.509,0.99l2.576-2.58c3.965-3.971,8.69-11.506,8.69-24.859
		c0-22.791-13.762-28.653-14.35-28.892c-0.063-0.025-0.144-0.046-0.226-0.058l-0.442-0.062c-0.037-0.005-0.083-0.01-0.131-0.01
		c-16.107,0-29.211,13.105-29.211,29.213c0,16.105,13.104,29.209,29.211,29.209c15.799,0,28.695-12.61,29.182-28.292l1.599-0.018
		c0.11-0.001,0.211-0.057,0.27-0.147C143.708,112.802,143.715,112.686,143.67,112.588z M89.005,98.464
		c3.487-5.996,9.044-10.408,15.644-12.423l3.441-1.05l-2.471,2.616c-2.927,3.099-5.109,7.005-6.486,11.607l-0.028,0.093H88.514
		L89.005,98.464z M85.326,111.586c0.075-3.659,0.864-7.177,2.33-10.476h10.966c-0.773,3.203-1.179,6.736-1.201,10.503l-0.002,0.291
		H85.318L85.326,111.586z M85.364,113.705h12.089c0.12,3.74,0.626,7.238,1.514,10.393l0.229,0.797H88.489
		C86.636,121.404,85.587,117.641,85.364,113.705z M105.174,138.393c-6.433-1.824-11.967-5.947-15.581-11.607l-0.057-0.088h10.28
		c1.471,3.984,3.579,7.387,6.291,10.105l2.585,2.586L105.174,138.393z M111.691,138.799l-1.501-1.049
		c-2.496-1.746-5.96-5.082-8.318-11.053h9.819V138.799z M111.691,124.895h-10.469l-0.079-0.252
		c-1.04-3.271-1.632-6.951-1.767-10.938h12.315V124.895z M111.691,111.904H99.344l0.003-0.303c0.021-3.779,0.46-7.298,1.278-10.492
		h11.066V111.904z M111.691,99.308h-10.578l0.228-0.671c2.315-6.827,6.092-10.554,8.851-12.477l1.499-1.043V99.308z M113.617,85.198
		l1.506,1.073c2.709,1.93,6.417,5.643,8.699,12.365l0.229,0.672h-10.434V85.198z M113.617,101.11h10.924
		c0.816,3.193,1.255,6.713,1.279,10.494l0.005,0.301h-12.208V101.11z M113.617,113.705h12.171
		c-0.132,3.975-0.721,7.656-1.761,10.938l-0.079,0.252h-10.331V113.705z M113.617,138.732v-12.035h9.68
		c-2.315,5.875-5.719,9.199-8.172,10.957L113.617,138.732z"/>
	<path fill="#FFFFFF" d="M88.236,81.543c0.069,0.104,0.192,0.16,0.315,0.139l6.285-0.938c0.108-0.015,0.2-0.086,0.243-0.185
		c0.045-0.101,0.036-0.216-0.024-0.307l-0.832-1.263c4.085-1.754,8.51-2.693,12.997-2.693c14.789,0,27.858,9.945,31.782,24.187
		c0.122,0.443,0.524,0.734,0.963,0.734c0.088,0,0.178-0.012,0.267-0.036c0.532-0.146,0.845-0.697,0.698-1.229
		c-4.162-15.105-18.024-25.655-33.71-25.655c-4.878,0-9.69,1.043-14.115,2.996l-0.958-1.453c-0.061-0.092-0.163-0.146-0.271-0.146
		c-0.109,0.001-0.21,0.059-0.268,0.15l-3.376,5.351C88.167,81.301,88.168,81.436,88.236,81.543L88.236,81.543z"/>
	<path fill="#FFFFFF" d="M91.035,135.561c-0.06-0.093-0.163-0.145-0.271-0.143c-0.11,0.002-0.209,0.06-0.267,0.152l-0.92,1.501
		c-9.471-6.023-15.32-16.548-15.32-27.812c0-9.117,3.829-17.911,10.505-24.128c0.404-0.377,0.427-1.01,0.05-1.414
		c-0.375-0.404-1.01-0.426-1.413-0.051c-7.081,6.596-11.142,15.923-11.142,25.592c0,11.96,6.214,23.13,16.276,29.517l-0.797,1.3
		c-0.057,0.095-0.063,0.21-0.018,0.308c0.048,0.099,0.143,0.166,0.25,0.179l6.277,0.786c0.125,0.016,0.246-0.043,0.313-0.149
		l0.002-0.001c0.064-0.106,0.062-0.242-0.008-0.344L91.035,135.561z"/>
</g>
</svg>
