<svg id="a0e169a6-928a-4219-9166-c2818a58dea8" data-name="Icon" xmlns="http://www.w3.org/2000/svg" viewBox="0 0 36 36">
  <defs>
    <style>
      .bcba7dfa-fafb-47ee-980d-c0883598753e {
        fill: #fff;
      }
    </style>
  </defs>
  <g>
    <path class="bcba7dfa-fafb-47ee-980d-c0883598753e" d="M26,9.38H10a.61.61,0,0,0-.62.62V26a.61.61,0,0,0,.62.62H26a.61.61,0,0,0,.62-.62V10A.61.61,0,0,0,26,9.38Zm-.62,16H10.62V10.62H25.38Z"/>
    <path class="bcba7dfa-fafb-47ee-980d-c0883598753e" d="M29,10.62h2a.62.62,0,1,0,0-1.24H29a.62.62,0,0,0,0,1.24Z"/>
    <path class="bcba7dfa-fafb-47ee-980d-c0883598753e" d="M31,17.38H29a.62.62,0,0,0,0,1.24h2a.62.62,0,0,0,0-1.24Z"/>
    <path class="bcba7dfa-fafb-47ee-980d-c0883598753e" d="M31,13.38H29a.62.62,0,0,0,0,1.24h2a.62.62,0,1,0,0-1.24Z"/>
    <path class="bcba7dfa-fafb-47ee-980d-c0883598753e" d="M31,25.38H29a.62.62,0,0,0,0,1.24h2a.62.62,0,0,0,0-1.24Z"/>
    <path class="bcba7dfa-fafb-47ee-980d-c0883598753e" d="M31,21.38H29a.62.62,0,0,0,0,1.24h2a.62.62,0,0,0,0-1.24Z"/>
    <path class="bcba7dfa-fafb-47ee-980d-c0883598753e" d="M7,9.38H5a.62.62,0,1,0,0,1.24H7A.62.62,0,1,0,7,9.38Z"/>
    <path class="bcba7dfa-fafb-47ee-980d-c0883598753e" d="M7,17.38H5a.62.62,0,1,0,0,1.24H7a.62.62,0,0,0,0-1.24Z"/>
    <path class="bcba7dfa-fafb-47ee-980d-c0883598753e" d="M7,13.38H5a.62.62,0,1,0,0,1.24H7a.62.62,0,1,0,0-1.24Z"/>
    <path class="bcba7dfa-fafb-47ee-980d-c0883598753e" d="M7,25.38H5a.62.62,0,1,0,0,1.24H7a.62.62,0,0,0,0-1.24Z"/>
    <path class="bcba7dfa-fafb-47ee-980d-c0883598753e" d="M7,21.38H5a.62.62,0,1,0,0,1.24H7a.62.62,0,0,0,0-1.24Z"/>
    <path class="bcba7dfa-fafb-47ee-980d-c0883598753e" d="M26,28.38a.61.61,0,0,0-.62.62v2a.62.62,0,0,0,1.24,0V29A.61.61,0,0,0,26,28.38Z"/>
    <path class="bcba7dfa-fafb-47ee-980d-c0883598753e" d="M18,28.38a.61.61,0,0,0-.62.62v2a.62.62,0,0,0,1.24,0V29A.61.61,0,0,0,18,28.38Z"/>
    <path class="bcba7dfa-fafb-47ee-980d-c0883598753e" d="M22,28.38a.61.61,0,0,0-.62.62v2a.62.62,0,0,0,1.24,0V29A.61.61,0,0,0,22,28.38Z"/>
    <path class="bcba7dfa-fafb-47ee-980d-c0883598753e" d="M10,28.38a.61.61,0,0,0-.62.62v2a.62.62,0,0,0,1.24,0V29A.61.61,0,0,0,10,28.38Z"/>
    <path class="bcba7dfa-fafb-47ee-980d-c0883598753e" d="M14,28.38a.61.61,0,0,0-.62.62v2a.62.62,0,0,0,1.24,0V29A.61.61,0,0,0,14,28.38Z"/>
    <path class="bcba7dfa-fafb-47ee-980d-c0883598753e" d="M26,4.38a.61.61,0,0,0-.62.62V7a.62.62,0,0,0,1.24,0V5A.61.61,0,0,0,26,4.38Z"/>
    <path class="bcba7dfa-fafb-47ee-980d-c0883598753e" d="M18,7.62A.61.61,0,0,0,18.62,7V5a.62.62,0,0,0-1.24,0V7A.61.61,0,0,0,18,7.62Z"/>
    <path class="bcba7dfa-fafb-47ee-980d-c0883598753e" d="M22,7.62A.61.61,0,0,0,22.62,7V5a.62.62,0,0,0-1.24,0V7A.61.61,0,0,0,22,7.62Z"/>
    <path class="bcba7dfa-fafb-47ee-980d-c0883598753e" d="M10,7.62A.61.61,0,0,0,10.62,7V5A.62.62,0,0,0,9.38,5V7A.61.61,0,0,0,10,7.62Z"/>
    <path class="bcba7dfa-fafb-47ee-980d-c0883598753e" d="M14,7.62A.61.61,0,0,0,14.62,7V5a.62.62,0,1,0-1.24,0V7A.61.61,0,0,0,14,7.62Z"/>
  </g>
</svg>
