<?xml version="1.0" encoding="utf-8"?>
<!-- Generator: Adobe Illustrator 17.1.0, SVG Export Plug-In . SVG Version: 6.00 Build 0)  -->
<!DOCTYPE svg PUBLIC "-//W3C//DTD SVG 1.1//EN" "http://www.w3.org/Graphics/SVG/1.1/DTD/svg11.dtd">
<svg version="1.1" id="Layer_1" xmlns="http://www.w3.org/2000/svg" xmlns:xlink="http://www.w3.org/1999/xlink" x="0px" y="0px"
	 viewBox="0 0 144 144" enable-background="new 0 0 144 144" xml:space="preserve">
<g>
	<path fill="#FFFFFF" d="M99.697,56.303c0,0,0.001,0,0.002,0l4.423-0.01c0.385,0,0.695-0.312,0.694-0.696s-0.312-0.694-0.695-0.694
		c-0.001,0-0.001,0-0.002,0l-4.424,0.011c-0.122,0-0.235,0.032-0.336,0.088v-5.501c0.101,0.057,0.215,0.088,0.338,0.088
		c0,0,0.002,0,0.003,0l4.423-0.014c0.385-0.001,0.695-0.312,0.693-0.697c-0.001-0.384-0.312-0.692-0.695-0.692
		c-0.001,0-0.002,0-0.003,0L99.695,48.2c-0.122,0-0.236,0.032-0.336,0.088v-2.265c0-0.513-0.414-0.927-0.928-0.927h-1.99
		c0.011-0.044,0.015-0.09,0.016-0.137l0.013-4.424c0.002-0.384-0.309-0.696-0.693-0.697c-0.001,0-0.001,0-0.001,0
		c-0.383,0-0.694,0.31-0.695,0.693l-0.015,4.424c-0.001,0.048,0.005,0.094,0.015,0.141h-5.351c0.009-0.045,0.015-0.09,0.015-0.138
		l0.008-4.424c0.001-0.384-0.31-0.695-0.692-0.696c-0.001,0-0.001,0-0.001,0c-0.384,0-0.695,0.31-0.696,0.693l-0.01,4.425
		c0,0.047,0.006,0.094,0.015,0.14h-5.352c0.009-0.045,0.015-0.091,0.015-0.139l0.004-4.423c0.001-0.383-0.309-0.695-0.693-0.695
		c0,0,0,0-0.001,0c-0.383,0-0.695,0.311-0.695,0.694l-0.005,4.425c0,0.047,0.004,0.094,0.015,0.139h-5.352
		c0.01-0.045,0.015-0.091,0.015-0.139l0.002-4.424c0-0.383-0.312-0.694-0.695-0.695h-0.001c-0.383,0-0.695,0.311-0.695,0.695
		l-0.001,4.424c0,0.048,0.005,0.094,0.014,0.139h-5.352c0.01-0.045,0.014-0.091,0.014-0.139L69.6,40.533
		c0-0.384-0.311-0.695-0.695-0.695l0,0c-0.384,0-0.695,0.312-0.694,0.695l0.001,4.424c0,0.048,0.004,0.094,0.014,0.139h-5.352
		c0.01-0.045,0.014-0.092,0.014-0.139l-0.005-4.425c0-0.383-0.312-0.694-0.695-0.694c0,0-0.001,0-0.001,0
		c-0.383,0-0.694,0.312-0.694,0.695l0.006,4.423c0,0.048,0.005,0.094,0.014,0.139H56.16c0.01-0.045,0.014-0.092,0.014-0.14
		l-0.008-4.425c-0.001-0.383-0.313-0.693-0.695-0.693h-0.001c-0.384,0.001-0.695,0.312-0.694,0.696l0.01,4.424
		c0,0.047,0.004,0.093,0.013,0.138h-5.351c0.009-0.046,0.014-0.093,0.014-0.141l-0.014-4.424c-0.001-0.383-0.312-0.693-0.695-0.693
		c0,0-0.001,0-0.002,0c-0.384,0.001-0.694,0.313-0.693,0.697l0.013,4.424c0,0.047,0.005,0.092,0.014,0.137h-2.327
		c-0.511,0-0.926,0.414-0.926,0.927v2.164c-0.001,0-0.002,0-0.004,0c0,0,0,0-0.001,0L40.402,48.2c-0.384,0-0.694,0.313-0.693,0.697
		c0.001,0.383,0.312,0.692,0.695,0.692h0.002l4.424-0.014c0,0,0.001,0,0.001,0v5.328c-0.001,0-0.002,0-0.004,0c0,0,0,0,0,0
		l-4.425,0.011c-0.383,0-0.694,0.312-0.693,0.696c0,0.384,0.312,0.693,0.695,0.693h0.001l4.424-0.01c0.001,0,0.001,0,0.002,0v5.328
		c-0.001,0-0.002,0-0.004,0l0,0l-4.424,0.006c-0.383,0-0.695,0.312-0.694,0.695c0,0.384,0.311,0.694,0.695,0.694h0l4.424-0.005
		c0.001,0,0.002,0,0.003,0v5.327c-0.001,0-0.002,0-0.004,0l0,0l-4.424,0.002c-0.383,0-0.695,0.311-0.694,0.695
		c0,0.384,0.311,0.695,0.695,0.695h0l4.423-0.002c0.002,0,0.003,0,0.003,0v5.327c-0.001,0-0.002,0-0.003,0l-4.424-0.002l0,0
		c-0.384,0-0.695,0.311-0.695,0.695c0,0.384,0.311,0.696,0.694,0.696l4.424,0.001l0,0c0.002,0,0.003,0,0.004,0v5.327
		c-0.001,0-0.001,0-0.003,0l-4.423-0.007h-0.001c-0.383,0-0.695,0.311-0.695,0.695c-0.001,0.385,0.311,0.696,0.694,0.696
		l4.424,0.005l0,0c0.002,0,0.003,0,0.004,0v5.327c0,0-0.001,0-0.001,0l-4.424-0.011h-0.001c-0.383,0-0.694,0.311-0.695,0.694
		c-0.001,0.385,0.31,0.697,0.693,0.697l4.425,0.009l0,0c0.002,0,0.003,0,0.004,0v5.328c0,0-0.001,0-0.001,0l-4.424-0.014h-0.002
		c-0.383,0-0.694,0.311-0.695,0.693c-0.001,0.384,0.309,0.696,0.693,0.697l4.424,0.013c0.001,0,0.001,0,0.001,0
		c0.002,0,0.003,0,0.004,0v2.1c0,0.512,0.415,0.925,0.926,0.925h2.33c-0.019,0.066-0.03,0.136-0.03,0.206l0.013,4.425
		c0.001,0.383,0.312,0.693,0.695,0.693c0.001,0,0.002,0,0.003,0c0.383-0.002,0.694-0.314,0.692-0.698l-0.014-4.424
		c0-0.07-0.011-0.137-0.03-0.202h5.388c-0.02,0.066-0.031,0.135-0.03,0.206l0.01,4.424c0,0.383,0.311,0.694,0.695,0.694h0.001
		c0.384-0.001,0.694-0.313,0.693-0.697l-0.008-4.424c0-0.07-0.011-0.138-0.031-0.203h5.389c-0.02,0.066-0.031,0.134-0.031,0.205
		l0.006,4.424c0,0.384,0.312,0.695,0.695,0.695h0.001c0.385,0,0.695-0.312,0.694-0.697l-0.005-4.424c0-0.07-0.011-0.138-0.031-0.203
		h5.388c-0.019,0.066-0.029,0.134-0.029,0.204l0.001,4.425c0.001,0.384,0.312,0.695,0.696,0.695l0,0
		c0.384,0,0.694-0.312,0.694-0.696L69.6,99.826c0-0.07-0.01-0.138-0.03-0.204h5.388c-0.02,0.066-0.031,0.134-0.031,0.204
		l-0.001,4.424c0,0.384,0.312,0.696,0.695,0.696l0,0c0.383,0,0.695-0.311,0.695-0.695l0.002-4.425c0-0.07-0.012-0.138-0.03-0.204
		h5.388c-0.019,0.065-0.031,0.133-0.031,0.203l-0.005,4.424c-0.001,0.385,0.311,0.697,0.694,0.697l0,0
		c0.385,0,0.696-0.311,0.696-0.695l0.004-4.424c0-0.071-0.01-0.139-0.028-0.205h5.388c-0.02,0.065-0.031,0.133-0.031,0.203
		l-0.01,4.424c-0.001,0.384,0.311,0.696,0.694,0.697h0.001c0.385,0,0.696-0.311,0.696-0.694l0.008-4.424
		c0-0.071-0.009-0.14-0.029-0.206h5.389c-0.021,0.065-0.031,0.132-0.031,0.202l-0.015,4.424c-0.001,0.384,0.31,0.696,0.693,0.698
		h0.002c0.384,0,0.694-0.311,0.696-0.693l0.013-4.425c0-0.07-0.01-0.14-0.03-0.206h1.992c0.514,0,0.928-0.413,0.928-0.925v-2.2
		c0.1,0.056,0.214,0.088,0.336,0.088l4.423,0.013c0.001,0,0.002,0,0.003,0c0.383,0,0.694-0.31,0.695-0.693
		c0.002-0.382-0.309-0.695-0.693-0.696L99.7,95.194c-0.001,0-0.002,0-0.002,0c-0.124,0-0.238,0.033-0.339,0.089v-5.501
		c0.101,0.056,0.214,0.089,0.336,0.089l4.424,0.009c0.001,0,0.001,0,0.002,0c0.383,0,0.694-0.309,0.695-0.692
		s-0.31-0.696-0.694-0.697l-4.423-0.011c-0.001,0-0.001,0-0.001,0c-0.124,0-0.238,0.033-0.339,0.09v-5.501
		c0.101,0.058,0.215,0.09,0.337,0.09l4.424,0.005h0.001c0.383,0,0.695-0.31,0.695-0.694c0.001-0.383-0.311-0.695-0.694-0.695
		l-4.424-0.007h-0.001c-0.123,0-0.237,0.033-0.338,0.089v-5.5c0.101,0.057,0.215,0.09,0.337,0.09l4.425,0.001l0,0
		c0.384,0,0.695-0.311,0.695-0.695c0-0.384-0.312-0.695-0.695-0.695l-4.424-0.002l0,0c-0.123,0-0.237,0.032-0.338,0.089v-5.501
		c0.101,0.056,0.215,0.088,0.338,0.088l0,0l4.424-0.002c0.384,0,0.696-0.312,0.695-0.696c0-0.384-0.312-0.694-0.695-0.694h-0.001
		l-4.424,0.002c-0.122,0-0.236,0.032-0.337,0.088v-5.502c0.101,0.057,0.215,0.088,0.338,0.088h0.001l4.424-0.005
		c0.384,0,0.695-0.312,0.694-0.696c0-0.384-0.312-0.694-0.695-0.694h-0.001l-4.424,0.006c-0.122,0-0.236,0.032-0.337,0.087v-5.499
		C99.46,56.271,99.574,56.303,99.697,56.303z M97.505,97.77h-50.82V46.95h50.82V97.77z"/>
	<path fill="#FFFFFF" d="M65.623,74.676c-0.256,0-0.462,0.208-0.462,0.464v11.865h-3.446c-0.255,0-0.463,0.207-0.463,0.464
		c0,0.256,0.208,0.464,0.463,0.464h3.908c0.256,0,0.464-0.208,0.464-0.464V75.14C66.087,74.884,65.879,74.676,65.623,74.676z"/>
	<path fill="#FFFFFF" d="M52.562,91.581h16.452c0.383,0,0.695-0.312,0.695-0.697V54.918c0-0.384-0.312-0.694-0.695-0.694H52.562
		c-0.383,0-0.695,0.311-0.695,0.694v35.966C51.868,91.269,52.179,91.581,52.562,91.581z M53.258,55.614h15.06v34.576h-15.06V55.614z
		"/>
	<path fill="#FFFFFF" d="M82.801,57.931h-3.909c-0.256,0-0.462,0.208-0.462,0.464v6.255c0,0.257,0.206,0.463,0.462,0.463
		c0.255,0,0.464-0.206,0.464-0.463v-5.793h3.445c0.256,0,0.462-0.207,0.462-0.463C83.263,58.138,83.057,57.931,82.801,57.931z"/>
	<path fill="#FFFFFF" d="M88.562,74.676c-0.257,0-0.465,0.208-0.465,0.464v11.865h-3.442c-0.257,0-0.464,0.207-0.464,0.464
		c0,0.256,0.207,0.464,0.464,0.464h3.907c0.256,0,0.464-0.208,0.464-0.464V75.14C89.025,74.884,88.817,74.676,88.562,74.676z"/>
	<path fill="#FFFFFF" d="M75.502,91.581h16.451c0.384,0,0.694-0.312,0.694-0.697V54.918c0-0.384-0.311-0.694-0.694-0.694H75.502
		c-0.384,0-0.695,0.311-0.695,0.694v35.966C74.807,91.269,75.118,91.581,75.502,91.581z M76.196,55.614h15.061v34.576H76.196V55.614
		z"/>
</g>
</svg>
