<?xml version="1.0" encoding="utf-8"?>
<!-- Generator: Adobe Illustrator 17.1.0, SVG Export Plug-In . SVG Version: 6.00 Build 0)  -->
<!DOCTYPE svg PUBLIC "-//W3C//DTD SVG 1.1//EN" "http://www.w3.org/Graphics/SVG/1.1/DTD/svg11.dtd">
<svg version="1.1" id="Layer_1" xmlns="http://www.w3.org/2000/svg" xmlns:xlink="http://www.w3.org/1999/xlink" x="0px" y="0px"
	 viewBox="0 0 216 216" enable-background="new 0 0 216 216" xml:space="preserve">
<g>
	<g>
		<path fill="#FFFFFF" d="M137.711,77.061c0.12-0.452-0.071-0.937-0.508-1.151l-9.195-4.5c-0.137-0.066-0.287-0.102-0.438-0.102
			H89.818c-0.135,0-0.268,0.027-0.392,0.079l-10.583,4.501c-0.464,0.198-0.684,0.703-0.557,1.176
			c-0.023,0.085-0.052,0.167-0.052,0.259v16.559v16.559c0,0.023,0.011,0.043,0.014,0.066c-0.003,0.023-0.014,0.041-0.014,0.064
			v16.56v16.561c0,0.551,0.446,0.998,1,0.998h57.528c0.554,0,1.001-0.447,1.001-0.998v-16.561v-16.56
			c0-0.023-0.013-0.041-0.015-0.064c0.002-0.023,0.015-0.043,0.015-0.066V93.882V77.323
			C137.765,77.229,137.734,77.146,137.711,77.061z M90.021,73.308h37.317l6.16,3.014H82.932L90.021,73.308z M135.765,142.693h-55.53
			v-14.561h55.53V142.693z M135.765,126.135h-55.53v-14.562h55.53V126.135z M135.765,109.441h-55.53V94.882h55.53V109.441z
			 M135.765,84.479v2.981 M135.765,92.883h-55.53V78.323h55.53V92.883z"/>
		<circle fill="#FFFFFF" cx="85.291" cy="85.36" r="1.375"/>
		<circle fill="#FFFFFF" cx="90.17" cy="85.36" r="1.375"/>
		<circle fill="#FFFFFF" cx="85.291" cy="102.36" r="1.375"/>
		<circle fill="#FFFFFF" cx="90.17" cy="102.36" r="1.375"/>
		<circle fill="#FFFFFF" cx="85.291" cy="118.36" r="1.374"/>
		<circle fill="#FFFFFF" cx="90.17" cy="118.36" r="1.374"/>
		<circle fill="#FFFFFF" cx="85.291" cy="135.361" r="1.375"/>
		<circle fill="#FFFFFF" cx="90.17" cy="135.361" r="1.375"/>
		<path fill="#FFFFFF" d="M133,89.5c0,0.276-0.225,0.5-0.501,0.5h-2.998c-0.276,0-0.501-0.224-0.501-0.5v-8
			c0-0.276,0.225-0.5,0.501-0.5h2.998c0.276,0,0.501,0.224,0.501,0.5V89.5z M130,89h2v-7h-2V89z"/>
		<path fill="#FFFFFF" d="M127,89.5c0,0.276-0.224,0.5-0.5,0.5h-3c-0.276,0-0.5-0.224-0.5-0.5v-8c0-0.276,0.224-0.5,0.5-0.5h3
			c0.276,0,0.5,0.224,0.5,0.5V89.5z M124,89h2v-7h-2V89z"/>
		<path fill="#FFFFFF" d="M133,106.5c0,0.276-0.225,0.5-0.501,0.5h-2.998c-0.276,0-0.501-0.224-0.501-0.5v-8
			c0-0.276,0.225-0.5,0.501-0.5h2.998c0.276,0,0.501,0.224,0.501,0.5V106.5z M130,106h2v-7h-2V106z"/>
		<path fill="#FFFFFF" d="M127,106.5c0,0.276-0.224,0.5-0.5,0.5h-3c-0.276,0-0.5-0.224-0.5-0.5v-8c0-0.276,0.224-0.5,0.5-0.5h3
			c0.276,0,0.5,0.224,0.5,0.5V106.5z M124,106h2v-7h-2V106z"/>
		<path fill="#FFFFFF" d="M133,122.311c0,0.277-0.225,0.689-0.501,0.689h-2.998c-0.276,0-0.501-0.412-0.501-0.689v-8
			c0-0.275,0.225-0.311,0.501-0.311h2.998c0.276,0,0.501,0.035,0.501,0.311V122.311z M130,122h2v-7h-2V122z"/>
		<path fill="#FFFFFF" d="M127,122.311c0,0.277-0.224,0.689-0.5,0.689h-3c-0.276,0-0.5-0.412-0.5-0.689v-8
			c0-0.275,0.224-0.311,0.5-0.311h3c0.276,0,0.5,0.035,0.5,0.311V122.311z M124,122h2v-7h-2V122z"/>
		<path fill="#FFFFFF" d="M133,139.311c0,0.277-0.225,0.689-0.501,0.689h-2.998c-0.276,0-0.501-0.412-0.501-0.689v-8
			c0-0.275,0.225-0.311,0.501-0.311h2.998c0.276,0,0.501,0.035,0.501,0.311V139.311z M130,139h2v-7h-2V139z"/>
		<path fill="#FFFFFF" d="M127,139.311c0,0.277-0.224,0.689-0.5,0.689h-3c-0.276,0-0.5-0.412-0.5-0.689v-8
			c0-0.275,0.224-0.311,0.5-0.311h3c0.276,0,0.5,0.035,0.5,0.311V139.311z M124,139h2v-7h-2V139z"/>
	</g>
</g>
</svg>
