<?xml version="1.0" encoding="utf-8"?>
<!-- Generator: Adobe Illustrator 17.1.0, SVG Export Plug-In . SVG Version: 6.00 Build 0)  -->
<!DOCTYPE svg PUBLIC "-//W3C//DTD SVG 1.1//EN" "http://www.w3.org/Graphics/SVG/1.1/DTD/svg11.dtd">
<svg version="1.1" id="Layer_1" xmlns="http://www.w3.org/2000/svg" xmlns:xlink="http://www.w3.org/1999/xlink" x="0px" y="0px"
	 viewBox="0 0 144 144" enable-background="new 0 0 144 144" xml:space="preserve">
<g>
	<g id="Layer_1_1_">
		<g>
			<g>
				<path fill="#FFFFFF" d="M47.367,85.758h49.278c1.377,0,2.496-1.197,2.496-2.67v-28.57c0-1.471-1.119-2.67-2.496-2.67H47.367
					c-1.376,0-2.497,1.199-2.497,2.67v28.57C44.87,84.561,45.991,85.758,47.367,85.758z M46.37,54.518
					c0-0.646,0.448-1.17,0.997-1.17h49.278c0.55,0,0.996,0.524,0.996,1.17v28.57c0,0.645-0.446,1.17-0.996,1.17H47.367
					c-0.549,0-0.997-0.525-0.997-1.17V54.518z"/>
				<g>
					<path fill="#FFFFFF" d="M99.323,47.534H44.676c-2.231,0-4.047,1.816-4.047,4.049v33.949c0,2.232,1.814,4.049,4.047,4.049
						h17.759v3.373h-5.458c-0.553,0-1,0.447-1,1c0,0.554,0.447,1,1,1h5.458h19.132h5.458c0.553,0,1-0.446,1-1c0-0.553-0.447-1-1-1
						h-5.458v-3.373h17.758c2.231,0,4.047-1.815,4.047-4.049V51.583C103.37,49.352,101.556,47.534,99.323,47.534z M64.434,92.954
						v-3.008h15.132v3.008H64.434z M101.37,85.633c0,1.129-0.917,2.047-2.047,2.047H44.676c-1.129,0-2.047-0.918-2.047-2.047v-34.05
						c0-1.129,0.918-2.049,2.047-2.049h54.647c1.13,0,2.047,0.92,2.047,2.049V85.633z"/>
				</g>
			</g>
		</g>
		<g>
			<path fill="#FFFFFF" d="M68.767,77.641H53.024c-1.864,0-3.38-1.517-3.38-3.38V64.49c0-1.864,1.516-3.38,3.38-3.38h15.742
				c1.864,0,3.38,1.516,3.38,3.38v9.771C72.146,76.124,70.631,77.641,68.767,77.641z M53.024,62.11c-1.312,0-2.38,1.067-2.38,2.38
				v9.771c0,1.312,1.067,2.38,2.38,2.38h15.742c1.312,0,2.38-1.067,2.38-2.38V64.49c0-1.312-1.067-2.38-2.38-2.38H53.024z"/>
		</g>
		<g>
			<path fill="#FFFFFF" d="M94.219,65.201H75.354c-0.276,0-0.5-0.224-0.5-0.5c0-0.276,0.224-0.5,0.5-0.5h18.865
				c0.276,0,0.5,0.224,0.5,0.5C94.719,64.978,94.495,65.201,94.219,65.201z"/>
			<path fill="#FFFFFF" d="M94.219,69.875H75.354c-0.276,0-0.5-0.225-0.5-0.5c0-0.277,0.224-0.5,0.5-0.5h18.865
				c0.276,0,0.5,0.223,0.5,0.5C94.719,69.65,94.495,69.875,94.219,69.875z"/>
			<path fill="#FFFFFF" d="M94.219,74.55H75.354c-0.276,0-0.5-0.224-0.5-0.5c0-0.276,0.224-0.5,0.5-0.5h18.865
				c0.276,0,0.5,0.224,0.5,0.5C94.719,74.326,94.495,74.55,94.219,74.55z"/>
		</g>
		<path fill="#FFFFFF" d="M60.896,74.496c-2.913,0-5.282-2.369-5.282-5.281c0-2.913,2.369-5.282,5.282-5.282
			s5.282,2.369,5.282,5.282C66.178,72.127,63.809,74.496,60.896,74.496z M60.896,64.933c-2.361,0-4.282,1.921-4.282,4.282
			c0,2.359,1.921,4.281,4.282,4.281s4.282-1.922,4.282-4.281C65.178,66.854,63.257,64.933,60.896,64.933z"/>
		<path fill="#FFFFFF" d="M59.419,71.758c-0.091,0-0.181-0.023-0.261-0.072c-0.148-0.092-0.239-0.254-0.239-0.428V67.17
			c0-0.174,0.09-0.334,0.237-0.426c0.148-0.09,0.334-0.099,0.488-0.02l4.016,2.025c0.168,0.085,0.275,0.257,0.275,0.445
			c0,0.188-0.104,0.36-0.271,0.446l-4.017,2.062C59.576,71.74,59.497,71.758,59.419,71.758z M59.919,67.982v2.457l2.414-1.238
			L59.919,67.982z"/>
	</g>
	<g id="Layer_2">
	</g>
</g>
</svg>
