<?xml version="1.0" encoding="utf-8"?>
<!-- Generator: Adobe Illustrator 17.1.0, SVG Export Plug-In . SVG Version: 6.00 Build 0)  -->
<!DOCTYPE svg PUBLIC "-//W3C//DTD SVG 1.1//EN" "http://www.w3.org/Graphics/SVG/1.1/DTD/svg11.dtd">
<svg version="1.1" id="Layer_1" xmlns="http://www.w3.org/2000/svg" xmlns:xlink="http://www.w3.org/1999/xlink" x="0px" y="0px"
	 viewBox="0 0 216 216" enable-background="new 0 0 216 216" xml:space="preserve">
<path fill="#FFFFFF" d="M99.481,125.477c2.902,0.245,5.942,0.37,9.037,0.37c8.541,0,16.537-0.965,21.393-2.581
	c0.395-0.13,0.818,0.082,0.949,0.475c0.13,0.394-0.082,0.818-0.475,0.949c-5,1.664-13.174,2.657-21.867,2.657
	c-3.137,0-6.22-0.126-9.165-0.376c-0.411-0.035-0.717-0.398-0.683-0.811C98.706,125.748,99.07,125.439,99.481,125.477z
	 M93.402,124.986c-2.966-0.487-5.505-1.123-7.343-1.838c-0.258-0.102-0.547,0.027-0.648,0.284c-0.1,0.258,0.026,0.548,0.285,0.647
	c1.93,0.751,4.469,1.388,7.544,1.893c0.028,0.005,0.056,0.007,0.082,0.007c0.241,0,0.454-0.174,0.493-0.419
	C93.86,125.288,93.677,125.031,93.402,124.986z M133.07,118.706c1.429,0.856,2.276,1.864,2.276,3.045v15.243
	c0,5.207-16.348,7.097-27.334,7.097c-10.989,0-27.334-1.89-27.334-7.097v-15.243c0-1.181,0.848-2.188,2.275-3.045
	c-1.428-0.856-2.275-1.864-2.275-3.045v-15.243c0-1.195,0.87-2.215,2.332-3.078c-1.476-0.866-2.357-1.89-2.357-3.092V79.005
	c0-5.206,16.346-7.096,27.333-7.096c10.986,0,27.333,1.89,27.333,7.096v15.243c0,1.195-0.869,2.215-2.33,3.078
	c1.476,0.866,2.357,1.89,2.357,3.092v15.243C135.347,116.842,134.499,117.85,133.07,118.706z M85.317,96.271
	c0.879,0.363,1.984,0.724,3.295,1.065c4.252,1.111,10.732,2.009,19.374,2.009c8.661,0,15.149-0.901,19.401-2.015
	c1.309-0.344,2.417-0.705,3.295-1.069c1.744-0.723,2.637-1.445,2.637-2.013V79.005c0-1.778-8.7-5.096-25.333-5.096
	s-25.333,3.317-25.333,5.096v15.243C82.653,94.817,83.557,95.545,85.317,96.271z M130.8,119.773
	c-5.643,2.131-15.418,2.983-22.787,2.983c-7.372,0-17.146-0.853-22.787-2.983c-1.688,0.711-2.547,1.42-2.547,1.978v15.243
	c0,1.778,8.701,5.097,25.334,5.097s25.334-3.318,25.334-5.097v-15.243C133.347,121.193,132.486,120.484,130.8,119.773z
	 M133.347,100.418c0-0.569-0.904-1.297-2.664-2.022c-5.654,2.106-15.365,2.949-22.696,2.949c-7.319,0-17.011-0.841-22.669-2.939
	c-1.744,0.723-2.639,1.445-2.639,2.013v15.243c0,0.558,0.859,1.267,2.547,1.978c0.861,0.363,1.96,0.724,3.252,1.067
	c4.248,1.13,10.781,2.051,19.535,2.051s15.286-0.921,19.533-2.051c1.291-0.344,2.392-0.704,3.254-1.067
	c1.687-0.711,2.547-1.42,2.547-1.978V100.418z M129.911,101.933c-4.855,1.615-12.85,2.58-21.393,2.58
	c-3.108,0-6.148-0.125-9.037-0.37c-0.411-0.036-0.775,0.271-0.811,0.684c-0.034,0.413,0.271,0.775,0.683,0.811
	c2.933,0.25,6.017,0.376,9.165,0.376c8.696,0,16.869-0.993,21.867-2.656c0.393-0.131,0.605-0.556,0.475-0.949
	C130.729,102.015,130.307,101.804,129.911,101.933z M93.402,103.652c-2.962-0.485-5.501-1.121-7.343-1.838
	c-0.258-0.101-0.547,0.027-0.648,0.284c-0.1,0.258,0.026,0.548,0.285,0.647c1.934,0.753,4.473,1.39,7.544,1.893
	c0.028,0.005,0.056,0.007,0.082,0.007c0.241,0,0.454-0.174,0.493-0.419C93.86,103.954,93.677,103.696,93.402,103.652z
	 M99.329,84.225c2.943,0.25,6.027,0.376,9.164,0.376c8.692,0,16.867-0.993,21.867-2.657c0.393-0.131,0.605-0.556,0.475-0.949
	c-0.132-0.394-0.555-0.603-0.949-0.475c-4.855,1.616-12.852,2.581-21.393,2.581c-3.096,0-6.136-0.125-9.038-0.37
	c-0.402-0.031-0.774,0.271-0.81,0.684C98.61,83.827,98.917,84.19,99.329,84.225z M93.299,83.233c0.239,0,0.452-0.174,0.491-0.419
	c0.045-0.273-0.139-0.529-0.412-0.574c-2.967-0.487-5.507-1.123-7.344-1.838c-0.258-0.101-0.548,0.027-0.646,0.284
	c-0.102,0.258,0.025,0.548,0.283,0.647c1.93,0.751,4.469,1.388,7.545,1.893C93.243,83.231,93.27,83.233,93.299,83.233z"/>
</svg>
