<svg id="eb47ceca-91ca-46b8-b883-ae4f336e1e4b" data-name="Icon" xmlns="http://www.w3.org/2000/svg" viewBox="0 0 36 36">
  <defs>
    <style>
      .ba435fc1-2bbd-4436-8d5e-6be0f3fc732a {
        fill: #fff;
      }
    </style>
  </defs>
  <g>
    <path class="ba435fc1-2bbd-4436-8d5e-6be0f3fc732a" d="M26.56,20.56,18,29.12,7.51,18.63a6.45,6.45,0,0,1-1.89-4.56c.25-6.54,7.94-8.68,11.94-3.63.67.64,1.33-.55,1.81-.93a6.47,6.47,0,0,1,11,4.56.63.63,0,0,0,.63.63.62.62,0,0,0,.62-.63A7.73,7.73,0,0,0,18,9.12C10.77,1.3-.56,11.68,6.63,19.51L17.56,30.44a.61.61,0,0,0,.88,0l9-9A.62.62,0,0,0,26.56,20.56Z"/>
    <path class="ba435fc1-2bbd-4436-8d5e-6be0f3fc732a" d="M31,16.38H27a.6.6,0,0,0-.44.18L25.14,18l-3.6-6.29a.63.63,0,0,0-1.08,0l-2.81,4.7H16a.62.62,0,0,0,0,1.24h2a.63.63,0,0,0,.54-.3L21,13.24l3.47,6.07a.63.63,0,0,0,1,.13l1.82-1.82H31A.62.62,0,0,0,31,16.38Z"/>
  </g>
</svg>
