<svg id="b300e274-dd1c-4450-9d59-47689375bf2a" data-name="Icon" xmlns="http://www.w3.org/2000/svg" viewBox="0 0 36 36">
  <defs>
    <style>
      .e712be92-19b3-4586-a8f3-9c84811995bb {
        fill: #fff;
      }
    </style>
  </defs>
  <g>
    <path class="e712be92-19b3-4586-a8f3-9c84811995bb" d="M28,24.5a.64.64,0,0,0-1.08,0l-3.5,6.19a.64.64,0,0,0,0,.63.62.62,0,0,0,.54.3h7a.62.62,0,0,0,.54-.93Zm-3,5.88,2.43-4.3,2.43,4.3Z"/>
    <path class="e712be92-19b3-4586-a8f3-9c84811995bb" d="M8,4.38a3.62,3.62,0,0,0,0,7.24A3.62,3.62,0,0,0,8,4.38Zm0,6A2.38,2.38,0,0,1,8,5.63,2.38,2.38,0,0,1,8,10.38Z"/>
    <path class="e712be92-19b3-4586-a8f3-9c84811995bb" d="M11,24.38H5a.62.62,0,0,0-.62.62v6a.62.62,0,0,0,.62.62h6a.62.62,0,0,0,.62-.62V25A.62.62,0,0,0,11,24.38Zm-.62,6H5.62V25.62h4.76Z"/>
    <path class="e712be92-19b3-4586-a8f3-9c84811995bb" d="M27.56,12.44a.61.61,0,0,0,.88,0l4-4a.61.61,0,0,0,0-.88l-4-4a.61.61,0,0,0-.88,0l-4,4a.61.61,0,0,0,0,.88ZM28,4.88,31.12,8,28,11.12,24.88,8Z"/>
    <path class="e712be92-19b3-4586-a8f3-9c84811995bb" d="M23.58,5.14c.27-.84-.84-.95-1.4-1.16a14.83,14.83,0,0,0-9.4.35.63.63,0,0,0,.44,1.17,13.57,13.57,0,0,1,9.56,0A.61.61,0,0,0,23.58,5.14Z"/>
    <path class="e712be92-19b3-4586-a8f3-9c84811995bb" d="M4.76,22.6a.63.63,0,0,0,.42-.78,13.48,13.48,0,0,1,.32-8.6.62.62,0,0,0-1.16-.44A14.69,14.69,0,0,0,4,22.18.63.63,0,0,0,4.76,22.6Z"/>
    <path class="e712be92-19b3-4586-a8f3-9c84811995bb" d="M20.87,31.07a13.54,13.54,0,0,1-6.69-.25.63.63,0,0,0-.36,1.2,14.84,14.84,0,0,0,7.31.27.64.64,0,0,0,.48-.75A.61.61,0,0,0,20.87,31.07Z"/>
    <path class="e712be92-19b3-4586-a8f3-9c84811995bb" d="M30.77,12.21a.63.63,0,0,0-.35.82,13.41,13.41,0,0,1-.33,10.7.62.62,0,0,0,.29.83c1.5.67,2.34-5.49,2.25-6.56S32.18,11.67,30.77,12.21Z"/>
  </g>
</svg>
