<svg id="ab3ae539-0ae1-42f5-b482-be5ffa36dc8b" data-name="Icon" xmlns="http://www.w3.org/2000/svg" viewBox="0 0 36 36">
  <defs>
    <style>
      .b4cd98ac-ee05-4b73-9cfe-ce798eb02fbc {
        fill: #fff;
      }
    </style>
  </defs>
  <path class="b4cd98ac-ee05-4b73-9cfe-ce798eb02fbc" d="M18,9.62A.62.62,0,1,0,17.38,9,.61.61,0,0,0,18,9.62Z"/>
  <g>
    <path class="b4cd98ac-ee05-4b73-9cfe-ce798eb02fbc" d="M6,24.62H30a.62.62,0,0,0,.62-.62V9A.62.62,0,0,0,30,8.38H21a.62.62,0,1,0,0,1.24h8.38V23.38H6.62V9.62H15a.62.62,0,0,0,0-1.24H6A.62.62,0,0,0,5.38,9V24A.62.62,0,0,0,6,24.62Z"/>
    <path class="b4cd98ac-ee05-4b73-9cfe-ce798eb02fbc" d="M32,26.38H4a.62.62,0,1,0,0,1.24H32a.62.62,0,1,0,0-1.24Z"/>
    <path class="b4cd98ac-ee05-4b73-9cfe-ce798eb02fbc" d="M24.67,13.38H18.83a.62.62,0,0,0,0,1.24h5.84a.62.62,0,0,0,0-1.24Z"/>
    <path class="b4cd98ac-ee05-4b73-9cfe-ce798eb02fbc" d="M24.67,15.88H18.83a.62.62,0,0,0,0,1.24h5.84a.62.62,0,0,0,0-1.24Z"/>
    <path class="b4cd98ac-ee05-4b73-9cfe-ce798eb02fbc" d="M24.67,18.38H18.83a.62.62,0,0,0,0,1.24h5.84a.62.62,0,1,0,0-1.24Z"/>
    <path class="b4cd98ac-ee05-4b73-9cfe-ce798eb02fbc" d="M11.24,13.66a.63.63,0,0,0-.94.54v4.6a.63.63,0,0,0,.94.54L15.31,17a.62.62,0,0,0,0-1.08Zm.31,4.07V15.27l2.18,1.23Z"/>
  </g>
</svg>
