<svg id="a97420c3-ecbc-49d4-bdb4-f2893ee17e53" data-name="Icon" xmlns="http://www.w3.org/2000/svg" viewBox="0 0 36 36">
  <defs>
    <style>
      .fac47db2-2f59-409f-ba73-704dcd7d6ad2 {
        fill: #fff;
      }
    </style>
  </defs>
  <g>
    <path class="fac47db2-2f59-409f-ba73-704dcd7d6ad2" d="M28.79,14.88c-.59.57.32,1.47.88.89,6-6.44-3-15.48-9.44-9.44l-5.35,5.35a6.69,6.69,0,0,0,0,9.44.63.63,0,0,0,.89-.89,5.42,5.42,0,0,1,0-7.67l5.35-5.35C26.34,2.31,33.7,9.66,28.79,14.88Z"/>
    <path class="fac47db2-2f59-409f-ba73-704dcd7d6ad2" d="M21.12,14.88a.63.63,0,0,0-.89.89,5.42,5.42,0,0,1,0,7.67l-5.35,5.35c-5.22,4.9-12.58-2.45-7.67-7.67a.63.63,0,0,0-.88-.89c-4.21,4.1-1.09,11.5,4.72,11.39a6.65,6.65,0,0,0,4.72-1.95l5.35-5.35A6.69,6.69,0,0,0,21.12,14.88Z"/>
    <path class="fac47db2-2f59-409f-ba73-704dcd7d6ad2" d="M8.62,9.5a.62.62,0,0,0,.88-.88L7.44,6.56C6.88,6,6,6.88,6.56,7.44Z"/>
    <path class="fac47db2-2f59-409f-ba73-704dcd7d6ad2" d="M13,8.54a.63.63,0,0,0,.62-.63V5a.62.62,0,1,0-1.24,0V7.91A.63.63,0,0,0,13,8.54Z"/>
    <path class="fac47db2-2f59-409f-ba73-704dcd7d6ad2" d="M5,13.62H7.91a.62.62,0,0,0,0-1.24H5A.62.62,0,0,0,5,13.62Z"/>
    <path class="fac47db2-2f59-409f-ba73-704dcd7d6ad2" d="M27.38,26.5c-.56-.58-1.46.32-.88.88l2.06,2.06a.62.62,0,0,0,.88-.88Z"/>
    <path class="fac47db2-2f59-409f-ba73-704dcd7d6ad2" d="M23,27.46a.63.63,0,0,0-.62.63V31a.62.62,0,0,0,1.24,0V28.09A.63.63,0,0,0,23,27.46Z"/>
    <path class="fac47db2-2f59-409f-ba73-704dcd7d6ad2" d="M31,22.38H28.09a.62.62,0,0,0,0,1.24H31A.62.62,0,0,0,31,22.38Z"/>
  </g>
</svg>
