<?xml version="1.0" encoding="utf-8"?>
<!-- Generator: Adobe Illustrator 17.1.0, SVG Export Plug-In . SVG Version: 6.00 Build 0)  -->
<!DOCTYPE svg PUBLIC "-//W3C//DTD SVG 1.1//EN" "http://www.w3.org/Graphics/SVG/1.1/DTD/svg11.dtd">
<svg version="1.1" id="Layer_1" xmlns="http://www.w3.org/2000/svg" xmlns:xlink="http://www.w3.org/1999/xlink" x="0px" y="0px"
	 viewBox="0 0 612 792" enable-background="new 0 0 612 792" xml:space="preserve">
<g>
	<path fill="#FFFFFF" d="M306.423,367.637c-20.401,0-37,16.598-37.001,36.998c0,20.403,16.599,37.002,37.001,37.002h0.004
		c20.399,0,36.995-16.598,36.995-37C343.422,384.234,326.824,367.637,306.423,367.637z M335.566,385.285
		c-2.814,2.712-5.321,5.768-7.475,9.104c-0.186-0.044-0.376-0.073-0.574-0.073c-0.401,0-0.775,0.103-1.111,0.273
		c-1.863-2.59-3.382-5.25-4.516-7.883c0.672-0.449,1.114-1.214,1.114-2.08c0-0.236-0.044-0.461-0.105-0.678
		c2.53-1.784,4.692-3.713,6.434-5.738C331.713,380.277,333.814,382.654,335.566,385.285z M289.645,395.408
		c1.921-0.19,3.859-0.466,5.804-0.806c0.417,0.801,1.244,1.357,2.205,1.358c0,0,0.001,0,0.002,0c0.341,0,0.666-0.069,0.963-0.193
		c2.475,3.557,5.403,6.869,8.748,9.808c3.491,3.067,7.29,5.632,11.282,7.664c-0.047,0.192-0.079,0.39-0.079,0.596
		c0.001,0.966,0.56,1.797,1.362,2.212c-0.439,2.898-0.654,5.799-0.614,8.678c-0.48,0.114-0.913,0.34-1.285,0.642
		c-3.726-2.661-7.785-4.903-12.082-6.627c-5.163-2.07-10.493-3.364-15.856-3.89c-0.326-1.401-1.561-2.45-3.054-2.502
		c-0.396-2.514-0.606-5.091-0.606-7.711c0-2.165,0.156-4.297,0.429-6.391C288.326,398.049,289.473,396.881,289.645,395.408z
		 M288.032,392.228c0.921-3.499,2.216-6.829,3.873-9.902c1.032,3.185,2.407,6.297,4.094,9.277c-0.435,0.389-0.728,0.924-0.809,1.53
		c-1.919,0.335-3.827,0.591-5.722,0.778C289.202,393.195,288.69,392.604,288.032,392.228z M320.853,411.355
		c-0.723,0.063-1.355,0.43-1.77,0.977c-3.911-1.991-7.636-4.502-11.057-7.509c-3.281-2.884-6.155-6.132-8.583-9.619
		c0.396-0.407,0.646-0.949,0.694-1.55c6.997-1.65,13.409-4.121,18.73-7.155c0.438,0.384,1.005,0.627,1.63,0.63h0.005
		c0.163,0,0.322-0.018,0.478-0.049c1.166,2.721,2.728,5.462,4.643,8.125c-0.372,0.436-0.604,0.995-0.604,1.613
		c0.002,0.649,0.259,1.238,0.67,1.684c-1.486,2.824-2.752,5.797-3.745,8.898C321.524,408.713,321.173,410.033,320.853,411.355z
		 M320.009,372.382c2.953,1.249,5.694,2.898,8.17,4.869c-1.641,1.899-3.707,3.725-6.132,5.428c-0.426-0.338-0.958-0.549-1.544-0.55
		c-0.068,0-0.133,0.015-0.2,0.021C319.38,378.613,319.25,375.268,320.009,372.382z M306.423,369.637
		c4.462,0,8.726,0.848,12.653,2.377c-0.833,3.075-0.701,6.645,0.285,10.404c-0.802,0.418-1.356,1.246-1.356,2.213
		c0.001,0.191,0.027,0.376,0.069,0.556c-5.217,2.964-11.512,5.402-18.276,7.006c-0.437-0.73-1.228-1.228-2.143-1.232
		c-0.278,0-0.542,0.057-0.793,0.141c-1.803-3.187-3.25-6.522-4.285-9.941c2.558-4.404,5.852-8.244,9.775-11.279
		C303.688,369.726,305.045,369.637,306.423,369.637z M299.459,370.334c-2.864,2.543-5.365,5.514-7.44,8.827
		c-0.497-1.952-0.85-3.926-1.074-5.905C293.61,371.935,296.465,370.941,299.459,370.334z M289.996,373.742
		c0.272,2.22,0.715,4.428,1.318,6.609c-2.048,3.515-3.642,7.368-4.721,11.455c-0.058-0.004-0.111-0.018-0.169-0.018
		c-1.519,0-2.788,1.056-3.138,2.473c-3.535,0.042-6.919-0.195-10.054-0.716C276.095,385.008,282.157,377.928,289.996,373.742z
		 M271.422,404.635c0-3.344,0.481-6.574,1.361-9.639c3.032,0.516,6.286,0.786,9.689,0.786c0.262,0,0.533-0.018,0.797-0.022
		c0.252,1.092,1.057,1.967,2.101,2.334c-0.277,2.145-0.436,4.328-0.436,6.543c0,2.721,0.219,5.398,0.635,8.009
		c-0.811,0.378-1.431,1.082-1.711,1.944c-3.557,0.052-7.104,0.447-10.605,1.191C272.072,412.277,271.422,408.531,271.422,404.635z
		 M273.766,417.205c3.293-0.685,6.627-1.055,9.972-1.113c0.247,1.551,1.581,2.744,3.193,2.744h0.01c0.013,0,0.024-0.004,0.038-0.004
		c2.346,7.932,6.645,14.926,12.482,20.108C287.668,436.549,278.017,428.211,273.766,417.205z M306.427,439.637h-0.004
		c-1.377,0-2.733-0.089-4.069-0.244c-6.585-5.093-11.404-12.456-13.923-20.938c0.815-0.427,1.427-1.183,1.652-2.099
		c5.177,0.521,10.321,1.775,15.309,3.775c4.167,1.672,8.104,3.842,11.72,6.417c-0.184,0.407-0.292,0.855-0.292,1.331
		c0.001,1.702,1.324,3.089,2.993,3.224c0.257,1.818,0.613,3.618,1.07,5.395C316.473,438.508,311.58,439.637,306.427,439.637z
		 M322.26,435.834c-0.407-1.631-0.729-3.282-0.963-4.95c0.257-0.105,0.492-0.249,0.712-0.413c1.228,1.104,2.392,2.271,3.507,3.478
		C324.468,434.633,323.381,435.262,322.26,435.834z M326.767,433.091c-1.204-1.313-2.465-2.579-3.798-3.776
		c0.217-0.436,0.351-0.92,0.351-1.44c0-1.527-1.069-2.807-2.501-3.148c-0.041-2.794,0.167-5.611,0.593-8.427
		c0.71-0.098,1.327-0.486,1.717-1.052c4.962,1.963,10.144,3.129,15.358,3.4C335.939,424.453,331.862,429.436,326.767,433.091z
		 M338.896,417.666c-5.219-0.228-10.409-1.372-15.377-3.336c0.032-0.16,0.05-0.327,0.05-0.498c0-0.918-0.507-1.715-1.251-2.148
		c0.309-1.279,0.647-2.557,1.054-3.826c0.96-2.998,2.183-5.871,3.616-8.602c0.169,0.037,0.344,0.06,0.524,0.061h0.005
		c0.418,0,0.806-0.113,1.152-0.295c0.848,0.963,1.727,1.912,2.666,2.83c3.033,2.963,6.32,5.449,9.767,7.445
		C340.712,412.215,339.963,415.02,338.896,417.666z M332.035,401.137c-0.912-0.891-1.767-1.812-2.591-2.746
		c0.354-0.432,0.575-0.976,0.575-1.576c0-0.635-0.247-1.21-0.641-1.651c2.029-3.138,4.383-6.016,7.014-8.584
		c3.19,5.275,5.029,11.456,5.029,18.058c0,1.207-0.062,2.4-0.182,3.576C337.999,406.295,334.902,403.935,332.035,401.137z"/>
</g>
</svg>
