<svg id="af403748-7e34-4f6b-a47e-4042c8214a1e" data-name="Icon" xmlns="http://www.w3.org/2000/svg" viewBox="0 0 36 36">
  <defs>
    <style>
      .e3fe25fa-d6c8-40bf-a352-c97ef842b95f {
        fill: #fff;
      }
    </style>
  </defs>
  <path class="e3fe25fa-d6c8-40bf-a352-c97ef842b95f" d="M31.58,18.24a.63.63,0,0,0-.14-.68l-3-3c-.56-.58-1.46.32-.88.88l1.93,1.93h-10A8.59,8.59,0,0,0,23.62,10V8.51l1.94,1.93a.62.62,0,0,0,.88-.88l-3-3a.63.63,0,0,0-.68-.14,1.43,1.43,0,0,0-.2.14l-3,3c-.58.56.32,1.47.88.88l1.94-1.93c.46,4.7-2.47,8.76-7.36,8.86H11.56a3.62,3.62,0,1,0,0,1.25H15c4.9.09,7.84,4.17,7.38,8.87l-1.94-1.93c-.56-.58-1.46.32-.88.88l3,3a.63.63,0,0,0,.88,0l3-3c.58-.56-.32-1.47-.88-.88l-1.94,1.93V26a8.62,8.62,0,0,0-4.17-7.38h10l-1.93,1.94a.62.62,0,0,0,.88.88l3-3A.72.72,0,0,0,31.58,18.24ZM8,20.38a2.38,2.38,0,0,1,0-4.75A2.38,2.38,0,0,1,8,20.38Z"/>
</svg>
