<svg id="af7acfb8-6e00-44ff-9453-370b5569bfe9" data-name="Icon" xmlns="http://www.w3.org/2000/svg" viewBox="0 0 36 36">
  <defs>
    <style>
      .e3420ecc-9955-4ba2-9ef9-7b60fad5f683 {
        fill: #fff;
      }
    </style>
  </defs>
  <g>
    <path class="e3420ecc-9955-4ba2-9ef9-7b60fad5f683" d="M13.18,14.32a.63.63,0,0,0-.77.43A14.79,14.79,0,0,0,12,21.16a.63.63,0,0,0,.72.52.64.64,0,0,0,.52-.72,13.35,13.35,0,0,1,.35-5.86A.63.63,0,0,0,13.18,14.32Z"/>
    <path class="e3420ecc-9955-4ba2-9ef9-7b60fad5f683" d="M23.83,4.6l0,0C15.49.73,5.07,6.39,3.64,15.28v0a14,14,0,0,0,0,5,.75.75,0,0,0,0,.26c2,11.35,16.32,16,24.53,7.89l.12-.11A14.6,14.6,0,0,0,23.83,4.6Zm-19,11a13.67,13.67,0,0,1,3-2.15,13.36,13.36,0,0,1,15.49,2.21.63.63,0,0,0,.89,0,.62.62,0,0,0,0-.88A14.58,14.58,0,0,0,7.27,12.36a14,14,0,0,0-1.85,1.15A13.38,13.38,0,0,1,18,4.62a13.23,13.23,0,0,1,3.41.46,15.06,15.06,0,0,0-1.74.77A14.36,14.36,0,0,0,17,7.65a.62.62,0,0,0-.07.88.63.63,0,0,0,.88.07A13.18,13.18,0,0,1,20.25,7a13.46,13.46,0,0,1,3.17-1.18,13.43,13.43,0,0,1,4.09,2.83,13.37,13.37,0,0,1-22.7,11.5A12.6,12.6,0,0,1,4.85,15.61Zm23.43,6.24a.63.63,0,1,0-1.22.3,13.17,13.17,0,0,1,.16,5.52A13.43,13.43,0,0,1,21,31a13.41,13.41,0,0,1-4.56-3.32.63.63,0,0,0-.94.83,14.61,14.61,0,0,0,3.41,2.8A13.37,13.37,0,0,1,5.31,22.21,14.61,14.61,0,0,0,28.92,10.3a13.44,13.44,0,0,1-.26,15.75A14.53,14.53,0,0,0,28.28,21.85Z"/>
  </g>
</svg>
