<?xml version="1.0" encoding="utf-8"?>
<!-- Generator: Adobe Illustrator 17.1.0, SVG Export Plug-In . SVG Version: 6.00 Build 0)  -->
<!DOCTYPE svg PUBLIC "-//W3C//DTD SVG 1.1//EN" "http://www.w3.org/Graphics/SVG/1.1/DTD/svg11.dtd">
<svg version="1.1" id="Layer_1" xmlns="http://www.w3.org/2000/svg" xmlns:xlink="http://www.w3.org/1999/xlink" x="0px" y="0px"
	 viewBox="0 0 104.4 104.398" enable-background="new 0 0 104.4 104.398" xml:space="preserve">
<g id="Layer_2">
</g>
<g>
	<path fill="#FFFFFF" d="M58.065,55.459H32.37c-0.414,0-0.75-0.336-0.75-0.75c0-0.414,0.336-0.75,0.75-0.75h25.695
		c0.414,0,0.75,0.336,0.75,0.75C58.815,55.123,58.479,55.459,58.065,55.459z"/>
	<path fill="#FFFFFF" d="M58.192,61.098H32.37c-0.414,0-0.75-0.336-0.75-0.75c0-0.414,0.336-0.75,0.75-0.75h25.822
		c0.414,0,0.75,0.336,0.75,0.75C58.942,60.762,58.606,61.098,58.192,61.098z"/>
	<g>
		<path fill="#FFFFFF" d="M34.807,30.134c0.277,0.104,0.566,0.157,0.853,0.157c0.337,0,0.674-0.072,0.99-0.216
			c0.585-0.264,1.032-0.741,1.259-1.343c0.227-0.603,0.206-1.258-0.06-1.843c-0.157-0.347-0.399-0.651-0.722-0.903
			c-0.218-0.171-0.531-0.133-0.702,0.086c-0.17,0.217-0.132,0.532,0.085,0.702c0.194,0.152,0.338,0.329,0.428,0.528
			c0.155,0.343,0.168,0.726,0.035,1.078c-0.133,0.351-0.394,0.63-0.736,0.785c-0.342,0.156-0.724,0.167-1.076,0.035
			c-0.352-0.133-0.631-0.395-0.784-0.737c-0.092-0.203-0.131-0.428-0.116-0.667c0.017-0.276-0.192-0.513-0.469-0.53
			c-0.276-0.013-0.512,0.193-0.529,0.468c-0.024,0.404,0.043,0.788,0.202,1.14C33.728,29.458,34.205,29.906,34.807,30.134z"/>
		<path fill="#FFFFFF" d="M59.632,30.134c0.277,0.104,0.564,0.156,0.852,0.156c0.338,0,0.675-0.072,0.991-0.215
			c0.585-0.265,1.032-0.743,1.259-1.345c0.227-0.603,0.205-1.257-0.06-1.841c-0.157-0.348-0.4-0.652-0.724-0.904
			c-0.219-0.17-0.532-0.132-0.702,0.087c-0.17,0.218-0.131,0.532,0.087,0.702c0.194,0.151,0.338,0.328,0.428,0.527
			c0.155,0.342,0.167,0.725,0.035,1.077c-0.133,0.353-0.394,0.632-0.735,0.786c-0.344,0.156-0.725,0.167-1.077,0.035
			c-0.353-0.133-0.631-0.395-0.785-0.737c-0.092-0.203-0.131-0.428-0.116-0.667c0.017-0.276-0.192-0.513-0.469-0.53
			c-0.279-0.013-0.513,0.193-0.529,0.468c-0.024,0.404,0.043,0.788,0.202,1.14C58.552,29.459,59.029,29.906,59.632,30.134z"/>
		<path fill="#FFFFFF" d="M76.714,25.578l-5.282-2.273c-0.12-0.051-0.26-0.054-0.383-0.005c-0.123,0.049-0.222,0.145-0.273,0.267
			l-0.778,1.809l-1.459-1.459c-0.069-0.069-0.152-0.124-0.244-0.162c-0.091-0.038-0.188-0.058-0.286-0.058h-5.423
			c-0.121-0.443-0.405-1.161-1.038-1.535c-0.417-0.246-0.911-0.292-1.385-0.132c-0.736,0.248-1.266,0.748-1.531,1.445
			c-0.027,0.071-0.031,0.149-0.053,0.222H37.76c-0.121-0.443-0.405-1.161-1.038-1.535c-0.417-0.246-0.91-0.292-1.385-0.132
			c-0.736,0.248-1.266,0.748-1.531,1.445c-0.027,0.071-0.031,0.149-0.053,0.222h-5.62c-0.414,0-0.75,0.336-0.75,0.75v55.038
			c0,0.002,0.001,0.004,0.001,0.006c0.001,0.096,0.02,0.191,0.057,0.281c0.038,0.092,0.093,0.174,0.162,0.243l2.225,2.227
			c0.141,0.141,0.331,0.22,0.53,0.22h39.874c0.098,0,0.194-0.02,0.286-0.058c0.077-0.032,0.144-0.081,0.205-0.136
			c0.012-0.01,0.027-0.014,0.039-0.025c0.01-0.01,0.013-0.022,0.022-0.032c0.057-0.063,0.107-0.132,0.141-0.212
			c0.037-0.092,0.058-0.189,0.058-0.287l0,0V40.169l5.993-13.933C77.085,25.982,76.968,25.688,76.714,25.578z M62.111,43.709H32.37
			c-0.414,0-0.75,0.336-0.75,0.75c0,0.414,0.336,0.75,0.75,0.75h29.097l-1.523,3.542c-0.067-0.02-0.135-0.042-0.208-0.042H32.37
			c-0.414,0-0.75,0.336-0.75,0.75c0,0.414,0.336,0.75,0.75,0.75h26.945l-1.777,4.133c-0.03,0.069-0.04,0.142-0.037,0.214
			c0,0.004-0.003,0.008-0.003,0.014l0.354,6.059c0.011,0.185,0.123,0.349,0.291,0.426c0.066,0.03,0.138,0.045,0.208,0.045
			c0.108,0,0.216-0.035,0.305-0.104l4.928-3.787c0.007-0.004,0.009-0.014,0.015-0.019c0.059-0.05,0.109-0.108,0.14-0.18l0.002-0.004
			c0-0.001,0.001-0.001,0.001-0.003l3.517-8.175v24.159c-0.091,0.127-0.199,0.245-0.344,0.346c-0.932,0.654-2.875,0.668-4.62,0.031
			c-0.152-0.056-0.322-0.033-0.458,0.061c-0.133,0.094-0.213,0.246-0.213,0.409c0,2.019-1.565,4.317-3.733,4.901H28.884V32.318
			h38.128L62.111,43.709z M58.544,55.319l3.457,1.486l0.298,0.129l-1.41,1.084l-2.176,0.191L58.544,55.319z M67.258,75.27v3.465
			h-5.57L67.258,75.27z M60.792,78.114c0.971-1.002,1.618-2.31,1.787-3.609c1.213,0.342,2.618,0.457,3.772,0.152L60.792,78.114z
			 M68.758,26.258l0.602,0.602l-0.602,1.399V26.258z M33.667,25.197c0.18,1.429,0.92,2.825,1.121,3.179
			c0.185,0.324,0.523,0.505,0.87,0.505c0.168,0,0.338-0.042,0.494-0.131c0.479-0.273,0.647-0.884,0.374-1.364
			c-0.324-0.569-0.693-1.448-0.843-2.189h22.808c0.18,1.429,0.92,2.825,1.121,3.179c0.185,0.324,0.522,0.505,0.87,0.505
			c0.168,0,0.338-0.042,0.494-0.131c0.479-0.273,0.647-0.884,0.374-1.364c-0.324-0.569-0.693-1.448-0.843-2.189h6.75v5.621H28.884
			v-5.621H33.667z M29.943,80.235h37.754l0.726,0.727H30.669L29.943,80.235z M69.482,79.9l-0.725-0.726V45.341l0.725-1.685V79.9z
			 M63.017,56.155l-2.647-1.139l-1.716-0.738l3.995-9.288c0.129-0.128,0.205-0.305,0.214-0.498l7.891-18.345l0.009-0.005
			l-0.004-0.004l0.737-1.715l4.363,1.877L63.017,56.155z"/>
	</g>
</g>
</svg>
