<?xml version="1.0" encoding="utf-8"?>
<!-- Generator: Adobe Illustrator 17.1.0, SVG Export Plug-In . SVG Version: 6.00 Build 0)  -->
<!DOCTYPE svg PUBLIC "-//W3C//DTD SVG 1.1//EN" "http://www.w3.org/Graphics/SVG/1.1/DTD/svg11.dtd">
<svg version="1.1" id="Layer_1" xmlns="http://www.w3.org/2000/svg" xmlns:xlink="http://www.w3.org/1999/xlink" x="0px" y="0px"
	 viewBox="0 0 612 792" enable-background="new 0 0 612 792" xml:space="preserve">
<g>
	<path fill="#FFFFFF" d="M293.862,386.851c3.113,0,5.646-2.533,5.646-5.647c0-3.113-2.533-5.646-5.646-5.646
		c-3.114,0-5.647,2.533-5.647,5.646C288.215,384.317,290.748,386.851,293.862,386.851z M293.862,377.557
		c2.011,0,3.646,1.636,3.646,3.646c0,2.011-1.636,3.647-3.646,3.647c-2.011,0-3.647-1.636-3.647-3.647
		C290.215,379.192,291.851,377.557,293.862,377.557z"/>
	<path fill="#FFFFFF" d="M329.628,374.331c-3.096,0.33-5.347,3.118-5.017,6.213c0.307,2.878,2.719,5.049,5.609,5.049
		c0.2,0,0.402-0.011,0.605-0.033c3.096-0.331,5.346-3.118,5.015-6.214C335.514,376.27,332.767,373.992,329.628,374.331z
		 M330.613,383.572c-2.024,0.212-3.802-1.251-4.014-3.24c-0.213-2,1.241-3.799,3.241-4.013c0.132-0.014,0.263-0.021,0.393-0.021
		c1.865,0,3.421,1.401,3.619,3.26C334.065,381.558,332.613,383.358,330.613,383.572z"/>
	<path fill="#FFFFFF" d="M346.598,376.994c-0.063-0.484-0.466-0.852-0.953-0.871l-4.935-0.192c-0.276-0.731-0.619-1.417-1.022-2.046
		c-0.404-0.63-0.884-1.228-1.431-1.785l1.89-4.56c0.187-0.451,0.021-0.971-0.394-1.23c-1.24-0.777-2.552-1.456-3.896-2.018
		c-0.451-0.188-0.971-0.025-1.231,0.39l-2.632,4.173c-1.509-0.24-3.063-0.166-4.545,0.215l-3.01-3.918
		c-0.298-0.386-0.83-0.503-1.264-0.273c-1.29,0.688-2.531,1.483-3.688,2.364c-0.389,0.296-0.507,0.83-0.279,1.262l2.302,4.367
		c-0.766,0.942-1.366,2.002-1.791,3.131c-0.255-1.278-0.585-2.534-1.015-3.728c-0.166-0.459-0.642-0.732-1.117-0.646l-4.82,0.861
		c-0.527-1.136-1.17-2.238-1.918-3.292l3.16-3.752c0.314-0.373,0.313-0.918-0.002-1.291c-0.942-1.112-1.985-2.155-3.102-3.1
		c-0.373-0.315-0.918-0.315-1.291-0.001l-3.75,3.16c-1.052-0.747-2.154-1.389-3.292-1.917l0.861-4.821
		c0.086-0.48-0.187-0.952-0.646-1.117c-1.358-0.489-2.785-0.869-4.241-1.129c-0.487-0.088-0.951,0.187-1.117,0.645l-1.667,4.612
		c-1.381-0.139-2.423-0.139-3.806,0l-1.667-4.612c-0.166-0.458-0.639-0.732-1.117-0.645c-1.446,0.259-2.873,0.639-4.239,1.129
		c-0.459,0.165-0.732,0.637-0.646,1.117l0.86,4.821c-1.138,0.529-2.24,1.172-3.29,1.92l-3.751-3.163
		c-0.373-0.314-0.919-0.314-1.291,0.002c-1.118,0.947-2.162,1.992-3.103,3.103c-0.315,0.373-0.315,0.918-0.001,1.291l3.162,3.749
		c-0.748,1.053-1.391,2.155-1.918,3.291l-4.821-0.861c-0.479-0.087-0.952,0.188-1.117,0.646c-0.487,1.355-0.867,2.782-1.129,4.241
		c-0.086,0.479,0.186,0.952,0.645,1.117l4.611,1.667c-0.068,0.679-0.102,1.307-0.102,1.903c0,0.603,0.033,1.221,0.101,1.904
		l-4.611,1.666c-0.458,0.166-0.73,0.638-0.645,1.117c0.262,1.456,0.641,2.882,1.128,4.24c0.165,0.459,0.637,0.734,1.117,0.647
		l4.822-0.862c0.528,1.137,1.17,2.238,1.918,3.291l-3.162,3.751c-0.314,0.373-0.313,0.919,0.002,1.291
		c0.942,1.111,1.985,2.154,3.101,3.101c0.372,0.315,0.917,0.317,1.292,0.002l3.752-3.161c1.053,0.748,2.155,1.391,3.29,1.918
		l-0.86,4.82c-0.085,0.479,0.187,0.951,0.646,1.116c1.355,0.489,2.782,0.869,4.24,1.13c0.06,0.011,0.119,0.016,0.177,0.016
		c0.077,0,0.151-0.018,0.224-0.035c-0.163,0.346-0.128,0.762,0.129,1.066l3.148,3.735c-0.832,1.354-1.438,2.818-1.808,4.373
		l-4.87,0.416c-0.486,0.041-0.872,0.428-0.912,0.914c-0.121,1.455-0.121,2.931,0,4.386c0.04,0.486,0.425,0.873,0.912,0.914
		l4.87,0.416c0.369,1.553,0.974,3.019,1.806,4.373l-3.146,3.734c-0.314,0.373-0.313,0.919,0.002,1.291
		c0.949,1.119,1.992,2.162,3.101,3.102c0.372,0.316,0.917,0.316,1.291,0.002l3.734-3.146c1.353,0.831,2.818,1.437,4.375,1.807
		l0.415,4.871c0.042,0.486,0.428,0.872,0.915,0.912c0.726,0.06,1.463,0.089,2.192,0.089c0.729,0,1.467-0.029,2.194-0.089
		c0.486-0.04,0.873-0.426,0.914-0.912l0.416-4.871c1.556-0.37,3.021-0.976,4.373-1.807l3.735,3.146
		c0.373,0.314,0.918,0.313,1.291-0.001c1.109-0.94,2.153-1.983,3.103-3.103c0.315-0.372,0.316-0.918,0.002-1.291l-3.148-3.734
		c0.831-1.354,1.437-2.818,1.806-4.373l4.872-0.417c0.486-0.041,0.871-0.428,0.912-0.913c0.119-1.448,0.119-2.924,0-4.387
		c-0.04-0.486-0.426-0.873-0.912-0.914l-4.872-0.415c-0.37-1.555-0.976-3.02-1.808-4.373l3.147-3.736
		c0.314-0.373,0.313-0.918-0.001-1.29c-0.934-1.104-1.978-2.148-3.103-3.103c-0.373-0.315-0.918-0.317-1.291-0.002l-3.734,3.148
		c-1.352-0.83-2.817-1.436-4.373-1.806l-0.381-4.445l0.745,0.628c0.373,0.314,0.917,0.313,1.29-0.001
		c1.111-0.94,2.155-1.983,3.103-3.102c0.315-0.372,0.316-0.918,0.002-1.291l-3.16-3.752c0.748-1.052,1.391-2.154,1.919-3.291
		l4.82,0.862c0.475,0.086,0.952-0.187,1.117-0.647c0.486-1.357,0.866-2.784,1.128-4.24c0.086-0.479-0.187-0.952-0.645-1.117
		l-2.587-0.935l3.142,0.123c0.275,0.726,0.618,1.411,1.023,2.045c0.408,0.635,0.887,1.232,1.429,1.784l-1.887,4.562
		c-0.187,0.45-0.021,0.969,0.392,1.229c1.225,0.77,2.535,1.449,3.897,2.017c0.125,0.052,0.256,0.077,0.385,0.077
		c0.335,0,0.658-0.168,0.846-0.467l2.629-4.17c1.511,0.24,3.064,0.165,4.547-0.215l3.009,3.917c0.297,0.387,0.83,0.503,1.262,0.274
		c1.295-0.688,2.537-1.484,3.692-2.367c0.388-0.296,0.505-0.829,0.277-1.26l-2.301-4.37c0.967-1.191,1.681-2.567,2.096-4.041
		l4.89-0.647c0.483-0.064,0.851-0.467,0.868-0.955C346.853,379.917,346.785,378.443,346.598,376.994z M290.432,406.143l1.527-4.224
		c1.398,0.138,2.453,0.137,3.806,0.001l1.667,4.609c0.028,0.078,0.075,0.141,0.119,0.207l-3.451-2.909
		c-0.373-0.315-0.919-0.313-1.291,0.002C291.969,404.54,291.183,405.326,290.432,406.143z M302.574,400.108
		c0.038-0.018,0.074-0.041,0.112-0.058c-0.029,0.08-0.059,0.159-0.066,0.247l-0.004,0.045L302.574,400.108z M313.135,409.041
		c0.369,0.253,0.865,0.23,1.211-0.06l3.645-3.072c0.589,0.535,1.151,1.097,1.68,1.679l-3.071,3.646
		c-0.29,0.345-0.314,0.84-0.06,1.211c1.034,1.506,1.729,3.188,2.066,5c0.083,0.442,0.45,0.775,0.898,0.813l4.754,0.405
		c0.038,0.793,0.038,1.587,0.001,2.375l-4.755,0.406c-0.448,0.038-0.816,0.371-0.898,0.813c-0.336,1.812-1.031,3.495-2.065,5
		c-0.255,0.371-0.23,0.867,0.06,1.211l3.072,3.645c-0.533,0.587-1.096,1.148-1.68,1.68l-3.646-3.071
		c-0.345-0.291-0.841-0.313-1.211-0.06c-1.503,1.034-3.186,1.729-5,2.066c-0.442,0.083-0.775,0.45-0.813,0.898l-0.406,4.753
		c-0.793,0.039-1.583,0.039-2.375,0l-0.405-4.753c-0.039-0.448-0.372-0.816-0.814-0.898c-1.814-0.337-3.497-1.032-5.001-2.066
		c-0.372-0.254-0.867-0.23-1.211,0.06l-3.644,3.071c-0.584-0.531-1.146-1.093-1.679-1.681l3.07-3.644
		c0.29-0.344,0.314-0.839,0.06-1.21c-1.035-1.509-1.729-3.19-2.065-5.001c-0.083-0.442-0.45-0.775-0.898-0.813l-4.753-0.405
		c-0.038-0.791-0.038-1.585,0-2.376l4.753-0.405c0.448-0.038,0.816-0.371,0.898-0.813c0.337-1.812,1.033-3.494,2.068-5
		c0.255-0.371,0.23-0.866-0.06-1.211l-3.071-3.645c0.533-0.587,1.095-1.148,1.679-1.68l3.643,3.071
		c0.344,0.29,0.839,0.315,1.21,0.06c1.506-1.033,3.189-1.729,5.001-2.065c0.442-0.083,0.775-0.45,0.813-0.898l0.403-4.753
		c0.797-0.039,1.586-0.037,2.375-0.001l0.407,4.754c0.038,0.448,0.371,0.815,0.813,0.898
		C309.949,407.312,311.632,408.008,313.135,409.041z M303.994,399.366c0.636-0.359,1.263-0.744,1.871-1.177l1.385,1.168
		C306.17,399.296,305.081,399.296,303.994,399.366z M317.094,388.656l-4.748-0.849c-0.466-0.084-0.92,0.168-1.1,0.601
		c-0.614,1.478-1.442,2.9-2.463,4.229c-0.286,0.373-0.274,0.894,0.028,1.253l3.115,3.699c-0.533,0.587-1.095,1.148-1.68,1.679
		l-3.696-3.116c-0.359-0.304-0.88-0.314-1.253-0.029c-1.336,1.026-2.759,1.854-4.229,2.462c-0.434,0.18-0.685,0.637-0.602,1.1
		l0.848,4.749c-0.747,0.238-1.514,0.442-2.293,0.609l-1.644-4.547c-0.145-0.4-0.523-0.66-0.94-0.66
		c-0.042,0-0.086,0.003-0.129,0.009c-1.834,0.237-2.976,0.244-4.895-0.001c-0.468-0.058-0.908,0.212-1.066,0.652l-1.644,4.547
		c-0.78-0.167-1.546-0.371-2.293-0.609l0.847-4.749c0.083-0.462-0.167-0.919-0.601-1.1c-1.474-0.612-2.896-1.44-4.228-2.462
		c-0.372-0.286-0.894-0.274-1.253,0.029l-3.698,3.115c-0.586-0.532-1.148-1.094-1.68-1.679l3.117-3.697
		c0.303-0.359,0.314-0.881,0.028-1.253c-1.021-1.33-1.849-2.752-2.462-4.229c-0.18-0.434-0.634-0.688-1.099-0.601l-4.75,0.849
		c-0.238-0.748-0.442-1.515-0.609-2.294l4.548-1.643c0.441-0.159,0.712-0.604,0.652-1.07c-0.121-0.927-0.177-1.705-0.177-2.446
		c0-0.747,0.057-1.523,0.178-2.443c0.062-0.466-0.209-0.912-0.651-1.071l-4.549-1.645c0.167-0.78,0.371-1.548,0.609-2.294
		l4.75,0.849c0.458,0.083,0.919-0.167,1.099-0.601c0.613-1.476,1.441-2.899,2.463-4.229c0.286-0.373,0.274-0.895-0.029-1.253
		l-3.117-3.696c0.531-0.585,1.093-1.146,1.68-1.68l3.698,3.118c0.361,0.303,0.882,0.315,1.254,0.028
		c1.325-1.02,2.747-1.849,4.228-2.465c0.433-0.18,0.683-0.637,0.6-1.099l-0.847-4.748c0.75-0.24,1.517-0.443,2.293-0.61l1.644,4.549
		c0.159,0.44,0.604,0.71,1.067,0.652c1.89-0.242,3.011-0.242,4.895,0c0.466,0.061,0.909-0.211,1.068-0.652l1.644-4.549
		c0.779,0.167,1.546,0.371,2.293,0.61l-0.848,4.749c-0.083,0.462,0.167,0.919,0.601,1.099c1.478,0.615,2.901,1.443,4.23,2.463
		c0.374,0.287,0.894,0.275,1.253-0.029l3.696-3.115c0.586,0.532,1.148,1.093,1.68,1.678l-3.115,3.698
		c-0.303,0.359-0.314,0.88-0.028,1.253c1.021,1.331,1.85,2.754,2.462,4.229c0.18,0.433,0.635,0.686,1.1,0.601l4.748-0.849
		c0.238,0.747,0.442,1.514,0.61,2.294l-4.549,1.643c-0.441,0.16-0.713,0.605-0.651,1.071c0.121,0.922,0.178,1.7,0.178,2.446
		c0,0.745-0.057,1.521-0.177,2.445c-0.062,0.466,0.21,0.911,0.651,1.07l4.548,1.643
		C317.535,387.141,317.332,387.909,317.094,388.656z M340.104,381.082c-0.42,0.055-0.759,0.369-0.847,0.782
		c-0.346,1.616-1.123,3.115-2.249,4.335c-0.288,0.311-0.348,0.77-0.15,1.144l2.219,4.213c-0.644,0.457-1.312,0.886-1.999,1.281
		l-2.9-3.776c-0.258-0.336-0.702-0.472-1.102-0.342c-1.579,0.512-3.276,0.593-4.879,0.231c-0.412-0.094-0.84,0.084-1.065,0.442
		l-2.534,4.02c-0.724-0.331-1.43-0.696-2.11-1.091l1.82-4.4c0.162-0.392,0.06-0.842-0.255-1.125c-0.625-0.563-1.164-1.193-1.6-1.87
		c-0.432-0.676-0.778-1.429-1.032-2.237c-0.126-0.403-0.492-0.684-0.915-0.7l-4.757-0.187c-0.073-0.788-0.11-1.582-0.109-2.374
		l4.713-0.623c0.42-0.055,0.76-0.369,0.848-0.784c0.342-1.614,1.12-3.113,2.249-4.334c0.288-0.311,0.348-0.77,0.15-1.145
		l-2.219-4.21c0.644-0.457,1.312-0.885,1.998-1.281l2.901,3.776c0.258,0.336,0.7,0.471,1.102,0.342
		c1.575-0.513,3.272-0.594,4.875-0.23c0.415,0.092,0.841-0.083,1.066-0.442l2.536-4.022c0.719,0.33,1.425,0.695,2.111,1.093
		l-1.821,4.396c-0.162,0.391-0.061,0.84,0.253,1.124c0.632,0.573,1.172,1.204,1.603,1.875c0.429,0.668,0.775,1.421,1.03,2.237
		c0.126,0.404,0.492,0.685,0.915,0.701l4.759,0.186c0.074,0.788,0.11,1.58,0.108,2.37L340.104,381.082z"/>
	<path fill="#FFFFFF" d="M300.083,419.853c0,3.113,2.533,5.646,5.646,5.646c3.114,0,5.647-2.533,5.647-5.646
		c0-3.114-2.533-5.647-5.647-5.647C302.616,414.205,300.083,416.738,300.083,419.853z M309.377,419.853
		c0,2.011-1.637,3.646-3.647,3.646s-3.646-1.636-3.646-3.646s1.636-3.647,3.646-3.647S309.377,417.842,309.377,419.853z"/>
	<path fill="#FFFFFF" d="M293.863,371.589c-1.244,0-2.455,0.234-3.599,0.697c-0.256,0.103-0.379,0.395-0.276,0.651
		c0.103,0.256,0.396,0.38,0.651,0.276c1.024-0.414,2.109-0.624,3.224-0.624c4.75,0,8.613,3.864,8.613,8.613
		c0,4.75-3.864,8.614-8.613,8.614c-4.75,0-8.614-3.864-8.614-8.614c0-1.684,0.486-3.314,1.405-4.716
		c0.151-0.231,0.087-0.541-0.144-0.692c-0.23-0.151-0.541-0.086-0.692,0.144c-1.027,1.565-1.569,3.386-1.569,5.265
		c0,5.301,4.313,9.614,9.614,9.614c5.301,0,9.613-4.313,9.613-9.614C303.477,375.901,299.164,371.589,293.863,371.589z"/>
	<path fill="#FFFFFF" d="M296.117,419.851c0,5.302,4.313,9.614,9.614,9.614c2.709,0,5.307-1.152,7.127-3.161
		c0.186-0.205,0.17-0.521-0.034-0.706c-0.203-0.185-0.521-0.17-0.706,0.034c-1.632,1.801-3.959,2.833-6.387,2.833
		c-4.75,0-8.614-3.864-8.614-8.614c0-4.749,3.864-8.613,8.614-8.613c4.749,0,8.613,3.864,8.613,8.613
		c0,0.582-0.059,1.164-0.174,1.73c-0.055,0.271,0.12,0.534,0.391,0.59c0.267,0.056,0.534-0.119,0.59-0.391
		c0.128-0.632,0.193-1.281,0.193-1.93c0-5.301-4.312-9.613-9.613-9.613C300.43,410.237,296.117,414.55,296.117,419.851z"/>
</g>
</svg>
