<?xml version="1.0" encoding="utf-8"?>
<!-- Generator: Adobe Illustrator 17.1.0, SVG Export Plug-In . SVG Version: 6.00 Build 0)  -->
<!DOCTYPE svg PUBLIC "-//W3C//DTD SVG 1.1//EN" "http://www.w3.org/Graphics/SVG/1.1/DTD/svg11.dtd">
<svg version="1.1" id="Layer_1" xmlns="http://www.w3.org/2000/svg" xmlns:xlink="http://www.w3.org/1999/xlink" x="0px" y="0px"
	 viewBox="0 0 108 108" enable-background="new 0 0 108 108" xml:space="preserve">
<g>
	<path fill="#FFFFFF" d="M17.417,33.668v47.344H89.75V33.668H17.417z M18.917,35.293c7.928,5.949,18.923,13.909,26.459,18.75
		c-7.742,6.469-18.938,17.044-26.459,24.415V35.293z M46.044,54.786c2.087,1.191,3.577,1.957,4.667,2.452
		c1.723,0.907,2.407,1.056,2.776,1.056c0.397,0,1.126-0.155,2.929-1.104c1.26-0.57,2.847-1.402,4.793-2.518
		c7.716,6.427,18.946,16.949,26.483,24.261c-0.352,0.194-0.758,0.298-1.184,0.298H20.422c-0.257,0-0.509-0.039-0.748-0.115
		C27.19,71.753,38.347,61.215,46.044,54.786z M61.121,53.206c-0.451,0.292-0.888,0.567-1.312,0.833
		c-1.699,1.066-2.955,1.79-3.883,2.279c-1.355,0.61-2.071,0.79-2.439,0.79c-0.297,0-0.96-0.144-2.419-0.81
		c-0.878-0.469-2.051-1.148-3.629-2.132l-0.157-0.098c-0.377-0.237-0.768-0.482-1.169-0.739
		c-7.239-4.635-17.795-12.254-25.694-18.16h66.05C78.729,41.01,68.352,48.558,61.121,53.206z M61.862,53.917
		c7.579-4.889,18.488-12.853,26.265-18.749h0.123v42.914C80.705,70.766,69.557,60.327,61.862,53.917z"/>
</g>
</svg>
