<?xml version="1.0" encoding="utf-8"?>
<!-- Generator: Adobe Illustrator 17.1.0, SVG Export Plug-In . SVG Version: 6.00 Build 0)  -->
<!DOCTYPE svg PUBLIC "-//W3C//DTD SVG 1.1//EN" "http://www.w3.org/Graphics/SVG/1.1/DTD/svg11.dtd">
<svg version="1.1" id="Layer_1" xmlns="http://www.w3.org/2000/svg" xmlns:xlink="http://www.w3.org/1999/xlink" x="0px" y="0px"
	 viewBox="0 0 216 216" enable-background="new 0 0 216 216" xml:space="preserve">
<g>
	<path fill="#FFFFFF" d="M67.005,132.004v-10.18c0-0.008,0.003-0.014,0.004-0.021c-0.003,0.007-0.007,0.014-0.007,0.021v10.18
		c0,2.141,1.74,3.881,3.88,3.881h0.003C68.744,135.885,67.005,134.145,67.005,132.004z"/>
	<path fill="#FFFFFF" d="M148.992,121.804v-0.009c0-0.044-0.02-0.086-0.028-0.131c0.007,0.046,0.026,0.089,0.027,0.135
		C148.991,121.8,148.992,121.802,148.992,121.804z"/>
	<rect x="120.662" y="77.607" fill="#FFFFFF" width="0.005" height="3.005"/>
	<path fill="#FFFFFF" d="M113.928,77.432c-0.02-0.016-0.046-0.025-0.065-0.044C113.881,77.406,113.907,77.415,113.928,77.432z"/>
	<path fill="#FFFFFF" d="M113.643,69.107c0-0.102,0.021-0.2,0.058-0.288c-0.038,0.089-0.059,0.186-0.059,0.287v7.75
		c0,0.176,0.07,0.329,0.169,0.456c-0.099-0.127-0.168-0.28-0.168-0.454V69.107z"/>
	<path fill="#FFFFFF" d="M133.279,68.357c0.414,0,0.75,0.335,0.75,0.75v7.75c0,0.413-0.334,0.748-0.747,0.749h0
		c0.41,0,0.75-0.331,0.75-0.751v-7.75c0-0.409-0.34-0.75-0.75-0.75h-18.891c-0.103,0-0.201,0.022-0.291,0.06
		c0.09-0.038,0.188-0.059,0.292-0.059H133.279z"/>
	<path fill="#FFFFFF" d="M138.987,84.492v22.803l9.826,13.953c0.007,0.01,0.011,0.021,0.017,0.032
		c-0.006-0.012-0.01-0.023-0.018-0.036l-9.821-13.947V84.495c0-1.338-0.681-2.52-1.714-3.218
		C138.308,81.976,138.987,83.156,138.987,84.492z"/>
	<path fill="#FFFFFF" d="M77.013,84.492c0-0.534,0.109-1.043,0.305-1.506c-0.197,0.464-0.306,0.974-0.306,1.509v22.801l0.001-0.001
		V84.492z"/>
	<path fill="#FFFFFF" d="M67.187,121.248l9.388-13.331l-9.393,13.327c-0.029,0.051-0.04,0.09-0.069,0.141
		c-0.004,0.011-0.007,0.02-0.011,0.029c0.005-0.009,0.01-0.019,0.015-0.029C67.14,121.34,67.156,121.291,67.187,121.248z"/>
	<path fill="#FFFFFF" d="M67.082,121.465c0.006-0.02,0.013-0.035,0.019-0.051c-0.008,0.015-0.017,0.03-0.024,0.047
		c-0.042,0.107-0.064,0.223-0.067,0.338c0,0.002-0.001,0.003-0.001,0.005c0.001-0.003,0.003-0.006,0.003-0.009
		C67.012,121.684,67.032,121.564,67.082,121.465z"/>
	<path fill="#FFFFFF" d="M113.863,77.388c-0.022-0.022-0.033-0.052-0.052-0.076C113.83,77.336,113.841,77.366,113.863,77.388z"/>
	<rect x="98.384" y="80.612" fill="#FFFFFF" width="22.278" height="0.003"/>
	<polygon fill="#FFFFFF" points="77.012,107.296 76.575,107.917 77.012,107.297 	"/>
	<path fill="#FFFFFF" d="M80.892,80.615h1.805v-0.003h-1.804c-1.606,0-2.986,0.981-3.575,2.374
		C77.907,81.594,79.287,80.615,80.892,80.615z"/>
	<path fill="#FFFFFF" d="M148.922,121.465c0.024,0.06,0.03,0.131,0.042,0.199c-0.011-0.068-0.015-0.138-0.04-0.203
		c-0.012-0.027-0.026-0.051-0.039-0.076c-0.018-0.034-0.035-0.07-0.055-0.105c0.019,0.034,0.037,0.067,0.052,0.105
		C148.902,121.414,148.912,121.434,148.922,121.465z"/>
	<path fill="#FFFFFF" d="M148.992,121.804v10.2c0,2.141-1.74,3.881-3.881,3.881h0.004c2.141,0,3.881-1.74,3.881-3.881v-10.18
		C148.996,121.816,148.993,121.81,148.992,121.804z"/>
	<path fill="#FFFFFF" d="M127.002,80.615h8.11c0.801,0,1.547,0.244,2.165,0.662c-0.62-0.42-1.367-0.666-2.17-0.666h-8.102v-3.005
		h6.273c0.001,0,0.002-0.001,0.003-0.001h-6.28V80.615z"/>
	<path fill="#FFFFFF" d="M114.101,68.416c-0.181,0.076-0.325,0.222-0.4,0.403C113.777,68.639,113.921,68.493,114.101,68.416z"/>
	<path fill="#FFFFFF" d="M114.392,77.606c-0.177,0-0.335-0.071-0.464-0.175C114.056,77.536,114.214,77.607,114.392,77.606
		l6.271,0.001v-0.001H114.392z"/>
	<path fill="#FFFFFF" d="M148.992,132.004v-10.2c0-0.002-0.001-0.003-0.001-0.005c-0.001-0.046-0.02-0.09-0.027-0.135
		c-0.013-0.068-0.018-0.139-0.042-0.199c-0.01-0.031-0.02-0.051-0.04-0.08c-0.014-0.038-0.033-0.07-0.052-0.105
		c-0.006-0.011-0.01-0.022-0.017-0.032l-9.826-13.953V84.492c0-1.336-0.679-2.516-1.71-3.215c-0.619-0.418-1.364-0.662-2.165-0.662
		h-8.11v-3.009h6.28c0.413-0.002,0.747-0.336,0.747-0.749v-7.75c0-0.415-0.336-0.75-0.75-0.75h-18.887
		c-0.104,0-0.202,0.021-0.292,0.059c-0.179,0.077-0.324,0.223-0.4,0.403c-0.037,0.089-0.058,0.186-0.058,0.288v7.75
		c0,0.174,0.069,0.327,0.168,0.454c0.019,0.024,0.03,0.055,0.052,0.076c0.018,0.018,0.045,0.027,0.065,0.044
		c0.129,0.104,0.287,0.175,0.464,0.175h6.271v0.001h0.005v3.005h-0.005v0.003H98.384v1.997h36.724c1.036,0,1.88,0.844,1.88,1.88
		v22.119H79.013V84.492c0-1.036,0.843-1.88,1.88-1.88h1.804v-1.997h-1.805c-1.604,0-2.984,0.979-3.574,2.371
		c-0.196,0.463-0.305,0.972-0.305,1.506v22.803l-0.001,0.001v0l-0.437,0.62l-9.388,13.331c-0.03,0.043-0.047,0.092-0.07,0.137
		c-0.005,0.01-0.01,0.02-0.015,0.029c-0.006,0.016-0.013,0.031-0.019,0.051c-0.05,0.1-0.07,0.219-0.07,0.33
		c0,0.003-0.002,0.006-0.003,0.009c-0.001,0.007-0.004,0.013-0.004,0.021v10.18c0,2.141,1.739,3.881,3.88,3.881h74.227
		C147.252,135.885,148.992,134.145,148.992,132.004z M125.506,80.612h-3.339v-3.006h3.339V80.612z M121.417,76.107h-6.274v-6.25
		h17.387v6.25h-6.273H121.417z M78.53,108.611h58.939l8.599,12.213H69.932L78.53,108.611z M146.996,132.004
		c0,1.037-0.844,1.881-1.881,1.881h-74.23c-1.036,0-1.88-0.844-1.88-1.881v-9.18h77.991V132.004z"/>
	<path fill="#FFFFFF" d="M78.982,112.967h3.658c0.186,0,0.354-0.102,0.442-0.264l0.883-1.654c0.083-0.154,0.08-0.34-0.011-0.492
		c-0.09-0.15-0.253-0.242-0.43-0.242h-3.53c-0.174,0-0.336,0.09-0.428,0.238l-1.012,1.652c-0.093,0.154-0.097,0.348-0.01,0.506
		C78.635,112.869,78.802,112.967,78.982,112.967z M80.274,111.314h2.416l-0.35,0.652h-2.465L80.274,111.314z"/>
	<path fill="#FFFFFF" d="M83.995,112.73c0.091,0.146,0.252,0.236,0.425,0.236h3.658c0.202,0,0.383-0.121,0.461-0.305l0.695-1.656
		c0.064-0.154,0.047-0.33-0.045-0.469c-0.094-0.139-0.249-0.223-0.416-0.223h-3.531c-0.19,0-0.363,0.106-0.447,0.275l-0.822,1.654
		C83.896,112.4,83.904,112.584,83.995,112.73z M85.552,111.314h2.47l-0.275,0.652h-2.519L85.552,111.314z"/>
	<path fill="#FFFFFF" d="M94.021,110.314h-3.529c-0.207,0-0.393,0.127-0.467,0.32l-0.634,1.652
		c-0.058,0.154-0.038,0.326,0.056,0.463c0.094,0.137,0.247,0.217,0.412,0.217h3.657c0.221,0,0.414-0.145,0.479-0.353l0.505-1.654
		c0.045-0.15,0.017-0.314-0.077-0.443C94.329,110.389,94.179,110.314,94.021,110.314z M93.146,111.967h-2.562l0.25-0.652h2.511
		L93.146,111.967z"/>
	<path fill="#FFFFFF" d="M117.685,112.967c0.007,0,0.016,0,0.021,0c0.275,0,0.5-0.223,0.5-0.5c0-0.084-0.021-0.164-0.058-0.232
		l-0.311-1.521c-0.047-0.232-0.252-0.398-0.49-0.398h-3.531c-0.143,0-0.279,0.061-0.375,0.17c-0.095,0.105-0.139,0.25-0.12,0.393
		l0.21,1.654c0.031,0.248,0.243,0.436,0.495,0.436H117.685z M116.938,111.314l0.135,0.652h-2.607l-0.083-0.652H116.938z"/>
	<path fill="#FFFFFF" d="M124.13,112.967c0.008,0,0.016,0,0.018,0c0.277,0,0.5-0.223,0.5-0.5c0-0.105-0.032-0.203-0.087-0.285
		l-0.522-1.529c-0.068-0.201-0.26-0.338-0.474-0.338h-3.531c-0.154,0-0.302,0.07-0.395,0.193c-0.095,0.123-0.128,0.283-0.088,0.434
		l0.434,1.652c0.059,0.221,0.256,0.373,0.484,0.373H124.13z M123.208,111.314l0.224,0.652h-2.576l-0.171-0.652H123.208z"/>
	<path fill="#FFFFFF" d="M130.593,112.967c0.275,0,0.5-0.225,0.5-0.5c0-0.125-0.047-0.238-0.121-0.326l-0.734-1.541
		c-0.082-0.174-0.257-0.285-0.451-0.285h-3.531c-0.166,0-0.32,0.082-0.413,0.219c-0.094,0.137-0.111,0.312-0.052,0.465l0.659,1.654
		c0.076,0.19,0.26,0.315,0.465,0.315h3.658C130.579,112.969,130.587,112.967,130.593,112.967z M127.253,111.967l-0.261-0.652h2.479
		l0.31,0.652H127.253z"/>
	<path fill="#FFFFFF" d="M132.917,112.703c0.088,0.162,0.257,0.264,0.442,0.264h3.657c0.008,0,0.016,0,0.021,0
		c0.276,0,0.5-0.223,0.5-0.5c0-0.143-0.06-0.271-0.156-0.361l-0.949-1.553c-0.091-0.148-0.253-0.238-0.427-0.238h-3.53
		c-0.176,0-0.339,0.092-0.429,0.242c-0.091,0.15-0.094,0.338-0.012,0.492L132.917,112.703z M135.725,111.314l0.399,0.652h-2.465
		l-0.351-0.652H135.725z"/>
	<path fill="#FFFFFF" d="M77.101,116.045h3.896c0.184,0,0.354-0.102,0.441-0.264l0.884-1.656c0.082-0.154,0.078-0.34-0.014-0.492
		c-0.09-0.15-0.253-0.242-0.429-0.242h-3.767c-0.174,0-0.336,0.092-0.427,0.238l-1.013,1.656c-0.093,0.154-0.097,0.346-0.01,0.504
		C76.753,115.947,76.92,116.045,77.101,116.045z M78.393,114.391h2.653l-0.349,0.654h-2.704L78.393,114.391z"/>
	<path fill="#FFFFFF" d="M87.247,115.738l0.694-1.654c0.065-0.154,0.048-0.33-0.045-0.471c-0.092-0.139-0.249-0.223-0.416-0.223
		h-3.768c-0.191,0-0.363,0.107-0.448,0.279l-0.822,1.652c-0.076,0.156-0.066,0.338,0.024,0.486c0.091,0.147,0.252,0.236,0.425,0.236
		h3.894C86.987,116.045,87.171,115.924,87.247,115.738z M86.454,115.045h-2.757l0.324-0.654h2.707L86.454,115.045z"/>
	<path fill="#FFFFFF" d="M93.081,113.391h-3.769c-0.207,0-0.393,0.129-0.466,0.322l-0.632,1.652
		c-0.06,0.156-0.038,0.328,0.054,0.463c0.094,0.137,0.249,0.217,0.413,0.217h3.895c0.221,0,0.414-0.145,0.48-0.354l0.505-1.654
		c0.045-0.152,0.017-0.316-0.077-0.443C93.39,113.467,93.239,113.391,93.081,113.391z M92.206,115.045h-2.799l0.25-0.654h2.748
		L92.206,115.045z"/>
	<path fill="#FFFFFF" d="M118.312,116.045c0.009,0,0.016,0,0.021,0c0.275,0,0.5-0.223,0.5-0.5c0-0.084-0.021-0.164-0.058-0.232
		l-0.311-1.523c-0.047-0.23-0.252-0.398-0.49-0.398h-3.767c-0.145,0-0.281,0.062-0.375,0.17c-0.095,0.107-0.14,0.252-0.121,0.393
		l0.209,1.654c0.033,0.25,0.245,0.438,0.497,0.438H118.312z M117.566,114.391l0.135,0.654h-2.844l-0.083-0.654H117.566z"/>
	<path fill="#FFFFFF" d="M125.176,116.045c0.008,0,0.016,0,0.018,0c0.277,0,0.5-0.223,0.5-0.5c0-0.106-0.032-0.203-0.087-0.283
		l-0.522-1.531c-0.068-0.203-0.26-0.34-0.474-0.34h-3.767c-0.155,0-0.302,0.072-0.396,0.193c-0.094,0.123-0.128,0.283-0.088,0.434
		l0.435,1.654c0.059,0.221,0.257,0.373,0.483,0.373H125.176z M124.254,114.391l0.224,0.654h-2.812l-0.172-0.654H124.254z"/>
	<path fill="#FFFFFF" d="M132.057,116.045c0.277,0,0.5-0.225,0.5-0.5c0-0.125-0.046-0.238-0.121-0.326l-0.733-1.543
		c-0.082-0.174-0.259-0.285-0.451-0.285h-3.77c-0.166,0-0.32,0.082-0.414,0.219c-0.093,0.139-0.11,0.312-0.05,0.467l0.659,1.654
		c0.076,0.19,0.26,0.315,0.465,0.315h3.896C132.045,116.047,132.052,116.047,132.057,116.045z M128.48,115.045l-0.261-0.654h2.715
		l0.312,0.654H128.48z"/>
	<path fill="#FFFFFF" d="M138.918,116.045c0.277,0,0.5-0.225,0.5-0.5c0-0.143-0.059-0.271-0.155-0.361l-0.948-1.553
		c-0.092-0.148-0.253-0.24-0.428-0.24h-3.768c-0.175,0-0.338,0.092-0.428,0.244c-0.091,0.148-0.096,0.336-0.014,0.492l0.885,1.652
		c0.087,0.164,0.257,0.266,0.44,0.266h3.897C138.906,116.047,138.913,116.047,138.918,116.045z M135.303,115.045l-0.35-0.654h2.654
		l0.399,0.654H135.303z"/>
	<path fill="#FFFFFF" d="M80.236,116.469H76.23c-0.174,0-0.336,0.092-0.427,0.24l-1.013,1.65c-0.094,0.156-0.097,0.35-0.01,0.506
		c0.089,0.158,0.256,0.258,0.436,0.258h4.134c0.184,0,0.352-0.103,0.439-0.266l0.885-1.652c0.083-0.154,0.079-0.342-0.012-0.492
		C80.574,116.56,80.411,116.469,80.236,116.469z M79.051,118.123h-2.94l0.398-0.654h2.892L79.051,118.123z"/>
	<path fill="#FFFFFF" d="M86.188,116.469h-4.005c-0.19,0-0.364,0.107-0.449,0.277l-0.821,1.652c-0.075,0.156-0.067,0.34,0.023,0.488
		c0.091,0.144,0.252,0.236,0.425,0.236h4.133c0.201,0,0.384-0.121,0.461-0.309l0.694-1.65c0.065-0.154,0.048-0.332-0.044-0.473
		C86.514,116.553,86.356,116.469,86.188,116.469z M85.162,118.123h-2.993l0.323-0.654h2.944L85.162,118.123z"/>
	<path fill="#FFFFFF" d="M92.142,116.469h-4.006c-0.207,0-0.392,0.129-0.467,0.322l-0.631,1.652
		c-0.059,0.154-0.039,0.326,0.054,0.461c0.095,0.137,0.247,0.219,0.412,0.219h4.133c0.221,0,0.414-0.144,0.479-0.355l0.505-1.652
		c0.045-0.152,0.017-0.316-0.077-0.443C92.45,116.545,92.3,116.469,92.142,116.469z M91.267,118.123h-3.035l0.249-0.654h2.985
		L91.267,118.123z"/>
	<path fill="#FFFFFF" d="M119.095,116.869c-0.048-0.232-0.253-0.4-0.491-0.4h-4.005c-0.144,0-0.281,0.061-0.375,0.17
		c-0.095,0.107-0.14,0.252-0.121,0.393l0.209,1.654c0.033,0.248,0.245,0.438,0.497,0.438h4.132c0.008,0,0.016,0,0.02,0
		c0.276,0,0.5-0.225,0.5-0.5c0-0.084-0.021-0.164-0.057-0.232L119.095,116.869z M115.248,118.123l-0.083-0.654h3.03l0.133,0.654
		H115.248z"/>
	<path fill="#FFFFFF" d="M126.133,116.809c-0.068-0.203-0.26-0.34-0.473-0.34h-4.006c-0.156,0-0.303,0.072-0.396,0.195
		c-0.095,0.123-0.128,0.281-0.088,0.432l0.436,1.654c0.057,0.219,0.256,0.373,0.482,0.373h4.133c0.009,0,0.017,0,0.021,0
		c0.275,0,0.5-0.225,0.5-0.5c0-0.105-0.033-0.203-0.088-0.285L126.133,116.809z M122.474,118.123l-0.172-0.654h2.999l0.223,0.654
		H122.474z"/>
	<path fill="#FFFFFF" d="M133.165,116.754c-0.083-0.174-0.259-0.285-0.45-0.285h-4.006c-0.166,0-0.32,0.082-0.413,0.219
		c-0.094,0.137-0.111,0.312-0.052,0.467l0.659,1.654c0.076,0.189,0.26,0.314,0.465,0.314h4.133c0.009,0,0.017,0,0.02,0
		c0.277,0,0.5-0.225,0.5-0.5c0-0.125-0.045-0.24-0.121-0.328L133.165,116.754z M129.707,118.123l-0.261-0.654h2.952l0.311,0.654
		H129.707z"/>
	<path fill="#FFFFFF" d="M141.146,118.26l-0.949-1.551c-0.091-0.148-0.253-0.24-0.427-0.24h-4.005c-0.175,0-0.338,0.092-0.428,0.244
		c-0.091,0.148-0.096,0.338-0.013,0.492l0.885,1.652c0.087,0.162,0.256,0.266,0.439,0.266h4.133c0.009,0,0.017,0,0.021,0
		c0.276,0,0.5-0.225,0.5-0.5C141.302,118.478,141.241,118.351,141.146,118.26z M136.948,118.123l-0.35-0.654h2.891l0.399,0.654
		H136.948z"/>
	<path fill="#FFFFFF" d="M108,131.935c1.977,0,3.582-1.605,3.582-3.582s-1.605-3.582-3.582-3.582c-1.976,0-3.582,1.605-3.582,3.582
		S106.024,131.935,108,131.935z M108,126.271c1.148,0,2.082,0.934,2.082,2.082s-0.934,2.082-2.082,2.082
		c-1.148,0-2.082-0.934-2.082-2.082S106.852,126.271,108,126.271z"/>
	<path fill="#FFFFFF" d="M103.068,103.322h29.881c0.414,0,0.75-0.336,0.75-0.75v-15.92c0-0.414-0.336-0.75-0.75-0.75h-29.881
		c-0.414,0-0.75,0.336-0.75,0.75v15.92C102.318,102.986,102.654,103.322,103.068,103.322z M103.818,87.402h28.381v14.42h-28.381
		V87.402z"/>
	<path fill="#FFFFFF" d="M109.777,93.824c-1.121-0.262-1.425-0.404-1.425-0.849c0-0.313,0.252-0.585,1.011-0.585
		c0.646,0,1.15,0.262,1.604,0.727l1.022-0.989c-0.517-0.535-1.102-0.899-1.85-1.04v-1.02h-1.413v1.01
		c-1.061,0.202-1.839,0.899-1.839,1.959c0,1.393,0.91,1.808,2.212,2.109c1.333,0.305,1.576,0.506,1.576,0.961
		c0,0.534-0.394,0.717-1.232,0.717c-0.678,0-1.313-0.232-1.809-0.809l-1.019,0.908c0.434,0.646,1.202,1.09,2.11,1.232v1h1.413v-1
		c1.385-0.213,2-1,2-2.15C112.14,94.471,110.898,94.087,109.777,93.824z"/>
	<path fill="#FFFFFF" d="M97.632,72.975v7.64h0.003v-7.638c0-0.27-0.149-0.52-0.39-0.65l0,0
		C97.483,72.458,97.632,72.707,97.632,72.975z"/>
	<path fill="#FFFFFF" d="M96.485,72.348l-1.19,0.75l-1.18-0.75c-0.25-0.15-0.56-0.15-0.8,0l-1.19,0.75l-1.18-0.75
		c-0.25-0.15-0.561-0.15-0.8,0l-1.19,0.75l-1.19-0.75c-0.239-0.15-0.55-0.15-0.8,0l-1.18,0.75l-1.191-0.75
		c-0.229-0.15-0.519-0.15-0.76-0.02c-0.24,0.13-0.39,0.38-0.39,0.65v29.095h-1.812c-0.275,0-0.5,0.223-0.5,0.5
		c0,0.275,0.225,0.5,0.5,0.5h17.812c0.275,0,0.5-0.225,0.5-0.5c0-0.277-0.225-0.5-0.5-0.5h-1.812V80.615h-0.003v-7.64
		c0-0.268-0.149-0.517-0.387-0.648C97.005,72.198,96.715,72.198,96.485,72.348z M96.135,102.072H84.945V74.337l0.439,0.28
		c0.24,0.15,0.55,0.15,0.8,0l1.181-0.75l1.19,0.75c0.24,0.15,0.56,0.15,0.801,0l1.189-0.75l1.18,0.75c0.24,0.15,0.561,0.15,0.801,0
		l1.189-0.75l1.181,0.75c0.25,0.15,0.56,0.15,0.8,0l0.439-0.28V102.072z"/>
	<path fill="#FFFFFF" d="M129.592,90.315l-5.45,5.451c-0.195,0.194-0.195,0.512,0,0.707c0.097,0.099,0.225,0.147,0.352,0.147
		c0.128,0,0.256-0.049,0.354-0.147l5.45-5.451c0.195-0.195,0.195-0.512,0-0.707C130.104,90.121,129.787,90.121,129.592,90.315z"/>
	<path fill="#FFFFFF" d="M127.519,95.472l-3.742,3.743c-0.195,0.195-0.195,0.512,0,0.707c0.097,0.098,0.225,0.148,0.353,0.148
		c0.128,0,0.256-0.051,0.354-0.148l3.742-3.743c0.195-0.194,0.195-0.513,0-0.707C128.031,95.277,127.714,95.277,127.519,95.472z"/>
	<path fill="#FFFFFF" d="M93.935,81.112h-7.035c-0.276,0-0.5,0.224-0.5,0.5s0.224,0.5,0.5,0.5h7.035c0.276,0,0.5-0.224,0.5-0.5
		S94.211,81.112,93.935,81.112z"/>
	<path fill="#FFFFFF" d="M93.935,85.02h-7.035c-0.276,0-0.5,0.224-0.5,0.5c0,0.276,0.224,0.5,0.5,0.5h7.035
		c0.276,0,0.5-0.224,0.5-0.5C94.435,85.244,94.211,85.02,93.935,85.02z"/>
	<path fill="#FFFFFF" d="M93.935,88.928h-7.035c-0.276,0-0.5,0.224-0.5,0.5c0,0.276,0.224,0.5,0.5,0.5h7.035
		c0.276,0,0.5-0.224,0.5-0.5C94.435,89.152,94.211,88.928,93.935,88.928z"/>
	<path fill="#FFFFFF" d="M93.935,92.835h-7.035c-0.276,0-0.5,0.224-0.5,0.5c0,0.276,0.224,0.5,0.5,0.5h7.035
		c0.276,0,0.5-0.224,0.5-0.5C94.435,93.059,94.211,92.835,93.935,92.835z"/>
	<path fill="#FFFFFF" d="M93.935,96.742h-7.035c-0.276,0-0.5,0.225-0.5,0.5c0,0.275,0.224,0.5,0.5,0.5h7.035
		c0.276,0,0.5-0.225,0.5-0.5C94.435,96.967,94.211,96.742,93.935,96.742z"/>
</g>
</svg>
