<?xml version="1.0" encoding="utf-8"?>
<!-- Generator: Adobe Illustrator 17.1.0, SVG Export Plug-In . SVG Version: 6.00 Build 0)  -->
<!DOCTYPE svg PUBLIC "-//W3C//DTD SVG 1.1//EN" "http://www.w3.org/Graphics/SVG/1.1/DTD/svg11.dtd">
<svg version="1.1" id="Layer_1" xmlns="http://www.w3.org/2000/svg" xmlns:xlink="http://www.w3.org/1999/xlink" x="0px" y="0px"
	 viewBox="0 0 216 216" enable-background="new 0 0 216 216" xml:space="preserve">
<g>
	<path fill="#FFFFFF" d="M103.338,123.746c-0.115-0.084-1.213-0.809-4.234-0.809H77.745c-0.237,0-0.43,0.193-0.43,0.43
		c0,0.238,0.192,0.43,0.43,0.43h21.359c2.719,0,3.71,0.631,3.738,0.65c0.075,0.051,0.161,0.076,0.246,0.076
		c0.134,0,0.266-0.062,0.349-0.18C103.576,124.152,103.532,123.883,103.338,123.746z"/>
	<path fill="#FFFFFF" d="M77.745,119.25h21.359c2.718,0,3.709,0.633,3.737,0.652c0.075,0.053,0.161,0.078,0.247,0.078
		c0.134,0,0.265-0.062,0.349-0.18c0.139-0.193,0.096-0.461-0.098-0.6c-0.116-0.084-1.213-0.812-4.235-0.812H77.745
		c-0.238,0-0.431,0.193-0.431,0.43C77.314,119.057,77.506,119.25,77.745,119.25z"/>
	<path fill="#FFFFFF" d="M77.745,114.703h21.359c2.717,0,3.707,0.635,3.735,0.654c0.076,0.053,0.163,0.078,0.249,0.078
		c0.133,0,0.265-0.062,0.349-0.178c0.14-0.193,0.097-0.463-0.096-0.602c-0.115-0.084-1.214-0.816-4.237-0.816H77.745
		c-0.238,0-0.432,0.193-0.432,0.432C77.313,114.51,77.506,114.703,77.745,114.703z"/>
	<path fill="#FFFFFF" d="M77.745,110.156h21.359c2.717,0,3.706,0.637,3.734,0.656c0.076,0.053,0.164,0.08,0.25,0.08
		c0.134,0,0.266-0.062,0.35-0.18c0.14-0.193,0.098-0.463-0.096-0.604c-0.115-0.084-1.215-0.818-4.238-0.818H77.745
		c-0.238,0-0.433,0.193-0.433,0.432C77.312,109.961,77.506,110.156,77.745,110.156z"/>
	<path fill="#FFFFFF" d="M77.745,105.608h21.359c2.715,0,3.705,0.641,3.732,0.66c0.077,0.054,0.165,0.08,0.252,0.08
		c0.133,0,0.266-0.062,0.35-0.178c0.142-0.193,0.1-0.465-0.094-0.605c-0.115-0.084-1.215-0.824-4.24-0.824H77.745
		c-0.239,0-0.434,0.194-0.434,0.434C77.311,105.414,77.505,105.608,77.745,105.608z"/>
	<path fill="#FFFFFF" d="M77.745,101.06h21.359c2.715,0,3.703,0.644,3.731,0.663c0.077,0.054,0.165,0.081,0.253,0.081
		c0.133,0,0.265-0.061,0.35-0.178c0.142-0.192,0.101-0.465-0.093-0.607c-0.115-0.084-1.216-0.829-4.241-0.829H77.745
		c-0.24,0-0.435,0.195-0.435,0.435C77.31,100.866,77.504,101.06,77.745,101.06z"/>
	<path fill="#FFFFFF" d="M77.745,96.513h21.359c2.713,0,3.702,0.646,3.73,0.666c0.077,0.054,0.166,0.081,0.254,0.081
		c0.133,0,0.266-0.062,0.351-0.178c0.142-0.193,0.101-0.466-0.093-0.608c-0.115-0.085-1.216-0.832-4.242-0.832H77.745
		c-0.24,0-0.436,0.195-0.436,0.436C77.309,96.318,77.504,96.513,77.745,96.513z"/>
	<path fill="#FFFFFF" d="M77.745,91.966h21.359c2.713,0,3.701,0.648,3.729,0.668c0.078,0.056,0.167,0.082,0.256,0.082
		c0.133,0,0.265-0.062,0.351-0.177c0.143-0.193,0.102-0.467-0.091-0.61c-0.115-0.085-1.217-0.836-4.244-0.836H77.745
		c-0.241,0-0.437,0.195-0.437,0.437C77.308,91.77,77.503,91.966,77.745,91.966z"/>
	<path fill="#FFFFFF" d="M77.745,87.419h21.359c2.712,0,3.699,0.651,3.728,0.671c0.078,0.056,0.168,0.083,0.257,0.083
		c0.133,0,0.265-0.062,0.351-0.177c0.144-0.193,0.104-0.468-0.09-0.611c-0.115-0.086-1.217-0.841-4.245-0.841H77.745
		c-0.241,0-0.438,0.196-0.438,0.438C77.307,87.222,77.503,87.419,77.745,87.419z"/>
	<path fill="#FFFFFF" d="M112.422,110.875c0.084,0,0.166-0.025,0.242-0.074c0.01-0.006,0.994-0.648,3.74-0.648h21.357
		c0.238,0,0.43-0.193,0.43-0.43c0-0.238-0.191-0.43-0.43-0.43h-21.357c-3.021,0-4.121,0.725-4.236,0.807
		c-0.189,0.137-0.234,0.4-0.1,0.592C112.15,110.812,112.285,110.875,112.422,110.875z"/>
	<path fill="#FFFFFF" d="M112.422,106.328c0.084,0,0.168-0.023,0.242-0.074c0.01-0.007,0.994-0.649,3.74-0.649h21.357
		c0.238,0,0.43-0.192,0.43-0.43s-0.191-0.43-0.43-0.43h-21.357c-3.021,0-4.121,0.725-4.236,0.807c-0.189,0.137-0.234,0.4-0.1,0.593
		C112.15,106.264,112.285,106.328,112.422,106.328z"/>
	<path fill="#FFFFFF" d="M112.422,101.78c0.084,0,0.17-0.021,0.242-0.074c0.01-0.008,0.994-0.65,3.74-0.65h21.357
		c0.238,0,0.43-0.191,0.43-0.43c0-0.236-0.191-0.43-0.43-0.43h-21.357c-3.021,0-4.121,0.725-4.236,0.807
		c-0.189,0.137-0.234,0.401-0.1,0.594C112.15,101.716,112.285,101.78,112.422,101.78z"/>
	<path fill="#FFFFFF" d="M112.422,97.231c0.084,0,0.168-0.023,0.242-0.074c0.01-0.007,0.994-0.649,3.74-0.649h21.357
		c0.238,0,0.43-0.192,0.43-0.43c0-0.237-0.191-0.43-0.43-0.43h-21.357c-3.021,0-4.121,0.725-4.236,0.807
		c-0.189,0.137-0.234,0.4-0.1,0.593C112.15,97.168,112.285,97.231,112.422,97.231z"/>
	<path fill="#FFFFFF" d="M112.422,92.682c0.084,0,0.166-0.026,0.242-0.074c0.01-0.006,0.994-0.648,3.74-0.648h21.357
		c0.238,0,0.43-0.192,0.43-0.43c0-0.238-0.191-0.43-0.43-0.43h-21.357c-3.021,0-4.121,0.725-4.236,0.807
		c-0.189,0.137-0.234,0.4-0.1,0.592C112.15,92.619,112.285,92.682,112.422,92.682z"/>
	<path fill="#FFFFFF" d="M112.422,88.134c0.084,0,0.168-0.024,0.242-0.074c0.01-0.007,0.994-0.649,3.74-0.649h21.357
		c0.238,0,0.43-0.192,0.43-0.43s-0.191-0.43-0.43-0.43h-21.357c-3.021,0-4.121,0.725-4.236,0.807c-0.189,0.137-0.234,0.4-0.1,0.593
		C112.15,88.071,112.285,88.134,112.422,88.134z"/>
	<path fill="#FFFFFF" d="M145.123,82.863h-1.172V81.03c0-0.516-0.418-0.934-0.934-0.934h-30.549c-2.404,0-3.775,0.905-4.542,1.777
		c-0.768-0.872-2.138-1.777-4.542-1.777H72.836c-0.516,0-0.934,0.418-0.934,0.934v1.833h-1.172c-1.592,0-2.886,1.644-2.886,3.665
		v44.001c0,2.023,1.645,3.668,3.667,3.668h31.023c0.689,0.521,2.562,1.707,5.404,1.707c2.839,0,4.695-1.184,5.38-1.707h31.168
		c2.021,0,3.666-1.645,3.666-3.668V86.528C148.154,84.506,146.795,82.863,145.123,82.863z M141.001,112.165
		c0.028-0.021,0.059-0.04,0.089-0.062c0.377-0.287,0.697-0.599,0.994-0.92v17.56h-20.426c0.465-0.322,0.909-0.673,1.311-1.085
		L141.001,112.165z M127.587,115.124c2.268,0.343,5.614,0.152,8.682-0.729l-10.588,9.095
		C126.881,120.747,127.441,117.655,127.587,115.124z M108.639,84.272c0.016-0.017,0.025-0.035,0.039-0.054
		c0.043-0.06,0.072-0.123,0.1-0.191c0.014-0.034,0.039-0.061,0.051-0.098c0.021-0.08,0.604-1.966,3.641-1.966h29.615v26.786
		c-0.29,0.661-0.744,1.279-1.365,1.848c-0.029,0.018-0.062,0.026-0.086,0.048l-0.51,0.437c-3.533,2.64-10.05,3.27-13.034,2.535
		c-0.21-0.052-0.426-0.009-0.596,0.119c-0.038,0.028-0.06,0.071-0.091,0.106h-9.998c-3.021,0-4.121,0.725-4.236,0.807
		c-0.189,0.137-0.234,0.4-0.1,0.592c0.082,0.121,0.217,0.184,0.354,0.184c0.084,0,0.168-0.023,0.242-0.074
		c0.01-0.006,0.994-0.648,3.74-0.648h9.792c-0.014,0.251-0.037,0.593-0.078,1.015l-0.132,1.137c-0.064,0.469-0.155,0.993-0.26,1.536
		h-9.322c-3.021,0-4.121,0.725-4.236,0.807c-0.189,0.137-0.233,0.4-0.1,0.594c0.084,0.121,0.217,0.184,0.354,0.184
		c0.084,0,0.168-0.023,0.242-0.074c0.01-0.008,0.994-0.65,3.74-0.65h9.146c-0.2,0.88-0.46,1.81-0.798,2.733l-0.385,0.956h-7.964
		c-3.021,0-4.121,0.725-4.236,0.807c-0.189,0.137-0.234,0.4-0.1,0.594c0.082,0.119,0.217,0.184,0.354,0.184
		c0.084,0,0.168-0.025,0.242-0.074c0.01-0.008,0.994-0.65,3.74-0.65h7.561c-0.525,1.044-1.167,2.027-1.967,2.854l-0.464,0.398
		c-0.048,0.044-0.082,0.098-0.115,0.151c-0.805,0.691-1.749,1.225-2.848,1.542h-6.103c-1.816,0-3.031,0.535-3.83,1.129V84.272z
		 M73.77,123.588V81.963h29.614c3.021,0,3.612,1.866,3.641,1.965c0.012,0.043,0.04,0.076,0.058,0.116
		c0.023,0.05,0.042,0.099,0.072,0.145c0.019,0.03,0.035,0.062,0.059,0.09v45.592c-0.8-0.596-2.016-1.129-3.829-1.129H73.77V123.588z
		 M146.293,130.529c0,0.996-0.811,1.807-1.805,1.807h-31.436c-0.008,0-0.014,0.004-0.021,0.004c-0.238-0.01-0.48,0.07-0.67,0.242
		c-0.064,0.061-1.631,1.461-4.421,1.461c-2.364,0-3.854-0.998-4.302-1.344c-0.17-0.217-0.423-0.363-0.72-0.363H71.512
		c-0.995,0-1.806-0.811-1.806-1.807V86.528c0-1.032,0.541-1.804,1.025-1.804h1.172v38.864v6.088c0,0.516,0.418,0.934,0.934,0.934
		h30.548c1.363,0,2.4,0.363,3.084,1.08c0.187,0.221,0.608,0.555,1.458,0.555c0.847,0,1.281-0.354,1.46-0.557
		c0.684-0.715,1.721-1.078,3.082-1.078h30.549c0.516,0,0.934-0.418,0.934-0.934V84.724h1.172c0.553,0,1.17,0.741,1.17,1.804V130.529
		z"/>
</g>
</svg>
