<svg id="Layer_1" data-name="Layer 1" xmlns="http://www.w3.org/2000/svg" viewBox="0 0 68.42 68.59"><defs><style>.cls-1{fill:#231f20;}.cls-2{fill:#fff;}</style></defs><title>Icon_RH_Office_Enclave_RGB_White</title><path class="cls-1" d="M34.3 24.47a9.56 9.56 0 0 0 0 19.11 9.56 9.56 0 0 0 0-19.11zm6.06 15.6a8.5 8.5 0 0 1-6 2.51 8.56 8.56 0 1 1 6.05-2.51zM34.08 14.91l15 5a.5.5 0 0 0 .63-.31l3.63-10.79a5.12 5.12 0 0 0-3.22-6.49L43.88.29a5.13 5.13 0 0 0-6.49 3.22l-3.62 10.78a.51.51 0 0 0 0 .16.5.5 0 0 0 .31.46zm2.85-.1l2.36-7a3.49 3.49 0 0 1 1.69-2 3.17 3.17 0 0 1 2.5-.21l3.79 1.31a3.35 3.35 0 0 1 2 4.29l-2.35 7zm1.41-11a4.13 4.13 0 0 1 5.22-2.59l6.22 2.07a4.12 4.12 0 0 1 2.59 5.22L48.9 18.84l-1-.35 2.35-7a4.36 4.36 0 0 0-2.63-5.56l-3.79-1.31a4.16 4.16 0 0 0-3.28.27 4.49 4.49 0 0 0-2.17 2.56l-2.36 7-1.11-.37zM34.33 53.67l-15-5a.5.5 0 0 0-.63.31l-3.61 10.76a5.12 5.12 0 0 0 3.22 6.49l6.22 2.06a5.13 5.13 0 0 0 6.49-3.22l3.63-10.78a.51.51 0 0 0 0-.16.5.5 0 0 0-.32-.46zm-2.85.1l-2.36 7a3.49 3.49 0 0 1-1.69 2 3.17 3.17 0 0 1-2.5.21l-3.79-1.31a3.35 3.35 0 0 1-2-4.29l2.35-7zm-1.41 11a4.13 4.13 0 0 1-5.22 2.59l-6.22-2.07a4.12 4.12 0 0 1-2.59-5.22l3.47-10.33 1 .35-2.35 7a4.36 4.36 0 0 0 2.63 5.56l3.79 1.31a4.16 4.16 0 0 0 3.28-.27 4.49 4.49 0 0 0 2.17-2.56l2.36-7 1.11.37zM19.96 19.24a.5.5 0 0 0-.31-.63l-10.8-3.64a5.12 5.12 0 0 0-6.49 3.22L.27 24.41a5.13 5.13 0 0 0 3.22 6.49l10.79 3.63h.16a.5.5 0 0 0 .47-.34zm-5.14 12.13l-7-2.36a3.49 3.49 0 0 1-2-1.69 3.17 3.17 0 0 1-.21-2.5l1.31-3.79a3.35 3.35 0 0 1 4.29-2l7 2.35zm-.69 2.06L3.81 29.96a4.13 4.13 0 0 1-2.6-5.23l2.09-6.22a4.12 4.12 0 0 1 5.22-2.59l10.33 3.47-.35 1-7-2.35a4.36 4.36 0 0 0-5.56 2.63l-1.31 3.79a4.16 4.16 0 0 0 .27 3.28 4.49 4.49 0 0 0 2.56 2.17l7 2.36zM64.93 37.39l-10.8-3.63h-.16a.5.5 0 0 0-.47.34l-5 15a.5.5 0 0 0 .31.63l10.76 3.56a5.12 5.12 0 0 0 6.49-3.22l2.09-6.22a5.13 5.13 0 0 0-3.22-6.46zm-11.33-.47l7 2.36a3.49 3.49 0 0 1 2 1.69 3.17 3.17 0 0 1 .21 2.5l-1.3 3.82a3.35 3.35 0 0 1-4.3 2l-7-2.35zm13.61 6.64l-2.1 6.22a4.12 4.12 0 0 1-5.22 2.59L49.57 48.9l.35-1 7 2.35a4.36 4.36 0 0 0 5.56-2.63l1.31-3.79a4.16 4.16 0 0 0-.27-3.28 4.49 4.49 0 0 0-2.59-2.26l-7-2.36.37-1.11 10.31 3.52a4.13 4.13 0 0 1 2.6 5.22z"/><path class="cls-2" d="M34.08 14.91l15 5a.5.5 0 0 0 .63-.31l3.63-10.79a5.12 5.12 0 0 0-3.22-6.49L43.88.29a5.13 5.13 0 0 0-6.49 3.22l-3.62 10.78a.51.51 0 0 0 0 .16.5.5 0 0 0 .31.46zm2.85-.1l2.36-7a3.49 3.49 0 0 1 1.69-2 3.17 3.17 0 0 1 2.5-.21l3.79 1.31a3.35 3.35 0 0 1 2 4.29l-2.35 7zm1.41-11a4.13 4.13 0 0 1 5.22-2.59l6.22 2.07a4.12 4.12 0 0 1 2.59 5.22L48.9 18.84l-1-.35 2.35-7a4.36 4.36 0 0 0-2.63-5.56l-3.79-1.31a4.16 4.16 0 0 0-3.28.27 4.49 4.49 0 0 0-2.17 2.56l-2.36 7-1.11-.37zm-4 49.86l-15-5a.5.5 0 0 0-.63.31l-3.62 10.76a5.12 5.12 0 0 0 3.22 6.49l6.22 2.06a5.13 5.13 0 0 0 6.49-3.22l3.63-10.78a.51.51 0 0 0 0-.16.5.5 0 0 0-.31-.46zm-2.85.1l-2.36 7a3.49 3.49 0 0 1-1.69 2 3.17 3.17 0 0 1-2.5.21l-3.79-1.31a3.35 3.35 0 0 1-2-4.29l2.35-7zm-1.41 11a4.13 4.13 0 0 1-5.22 2.59l-6.23-2.07a4.12 4.12 0 0 1-2.59-5.22l3.47-10.33 1 .35-2.35 7a4.36 4.36 0 0 0 2.63 5.56l3.79 1.31a4.16 4.16 0 0 0 3.28-.27 4.49 4.49 0 0 0 2.17-2.56l2.36-7 1.11.37zm34.85-27.38l-10.8-3.63h-.16a.5.5 0 0 0-.47.34l-5 15a.5.5 0 0 0 .31.63l10.76 3.56a5.12 5.12 0 0 0 6.49-3.22l2.09-6.22a5.13 5.13 0 0 0-3.22-6.46zm-11.33-.47l7 2.36a3.49 3.49 0 0 1 2 1.69 3.17 3.17 0 0 1 .21 2.5l-1.3 3.82a3.35 3.35 0 0 1-4.3 2l-7-2.35zm13.61 6.64l-2.1 6.22a4.12 4.12 0 0 1-5.22 2.59L49.57 48.9l.35-1 7 2.35a4.36 4.36 0 0 0 5.56-2.63l1.31-3.79a4.16 4.16 0 0 0-.27-3.28 4.49 4.49 0 0 0-2.59-2.26l-7-2.36.37-1.11 10.31 3.52a4.13 4.13 0 0 1 2.6 5.22zM34.3 24.47a9.56 9.56 0 0 0 0 19.11 9.56 9.56 0 0 0 0-19.11zm6.06 15.6a8.5 8.5 0 0 1-6 2.51 8.56 8.56 0 1 1 6.05-2.51zm-20.4-20.83a.5.5 0 0 0-.31-.63l-10.8-3.64a5.12 5.12 0 0 0-6.49 3.22L.27 24.41a5.13 5.13 0 0 0 3.22 6.49l10.79 3.63h.16a.5.5 0 0 0 .47-.34zm-5.83 14.19L3.81 29.96a4.13 4.13 0 0 1-2.6-5.23l2.09-6.22a4.12 4.12 0 0 1 5.22-2.59l10.33 3.47-.35 1-7-2.35a4.36 4.36 0 0 0-5.56 2.63l-1.31 3.79a4.16 4.16 0 0 0 .27 3.28 4.49 4.49 0 0 0 2.56 2.17l7 2.36zm-6.32-4.42a3.49 3.49 0 0 1-2-1.69 3.17 3.17 0 0 1-.21-2.5l1.31-3.79a3.35 3.35 0 0 1 4.29-2l7 2.35-3.36 10z"/></svg>