<svg id="Layer_1" data-name="Layer 1" xmlns="http://www.w3.org/2000/svg" viewBox="0 0 66.83 30.43"><defs><style>.cls-1{fill:#fff;}</style></defs><title>Icon_RH_Office_SnackBasket_RGB_White</title><path class="cls-1" d="M19.57 8.21l-11.81-.5a.51.51 0 0 0-.52.48.5.5 0 0 0 .48.52l11.81.5a.5.5 0 0 0 0-1zm-7.27-4l11.81-.5a.5.5 0 0 0 .48-.52.51.51 0 0 0-.52-.48l-11.79.5a.5.5 0 0 0 0 1zm54.34 13.7a1 1 0 0 0-.8-.4h-.82V5.94a1 1 0 0 0-1.16-1l-1.56.27V1.94a1 1 0 0 0-.35-.76 1 1 0 0 0-.81-.23l-3.05.49h-5.22l-3.21-.5a1 1 0 0 0-1.15 1l.39 15.59h-.85v-6.4a.9.9 0 0 0 0-.27l-.49-1.49.46-1a.87.87 0 0 0 .08-.35v-1.3a.88.88 0 0 0-.87-.87h-4.4l.34-.77a.87.87 0 0 0 .08-.35V3.47a.88.88 0 0 0-.87-.87h-7.2a.88.88 0 0 0-.87.88v1.27l.25 1.84-.08.26h-4.45a.87.87 0 0 0-.64.29 1 1 0 0 0 0-.17v-1a1 1 0 0 0-1-1l1-2.9a1 1 0 0 0 .05-.32V.97a1 1 0 0 0-1-1H3.42a1 1 0 0 0-1 1v1a1 1 0 0 0 .07.37L3.56 5h-.14a1 1 0 0 0-1 1v.78a1 1 0 0 0 .05.32l1.7 5.06v5.39H1a1 1 0 0 0-1 1.27L3 29.7a1 1 0 0 0 1 .73h58.79a1 1 0 0 0 1-.73l3-10.87a1 1 0 0 0-.16-.89zm-3.62-10.8v10.44h-9.48l-.29-10.44 2.18.33h5.53zm-10.3-3.67h5.53l2.05-.32v2.33h-4.71l-3.17-.5a1 1 0 0 0-1.15 1l.31 11.59h-.63l-.41-14.43zM46.3 7.6v.19l-.52 1.17a.88.88 0 0 0 0 .63l.55 1.68v6.28H40.7v-6.13l.4-1.25a.86.86 0 0 0 0-.39l-.27-1.91v-.28zM36.06 4.35h5.44v.19l-.52 1.18a.87.87 0 0 0 0 .13h-1a.88.88 0 0 0-.87.88V8l.31 1.83-.38 1.19a.87.87 0 0 0 0 .27v6.26h-.86v-5.42a.9.9 0 0 0 0-.27l-.49-1.49.46-1a.87.87 0 0 0 .08-.35v-1.3a.88.88 0 0 0-.87-.87h-.91a.86.86 0 0 0 0-.31l-.27-1.91zm-5.31 8.07l.4-1.25a.88.88 0 0 0 0-.39l-.27-1.91v-.28h5.44v.19l-.52 1.17a.88.88 0 0 0 0 .63l.55 1.68v5.28h-5.6zm-1.59-4.59V9l.26 1.83-.38 1.19a.86.86 0 0 0 0 .27v5.26h-1.21l.18-4.95a1 1 0 0 0-.18-.62l-.22-.31zm-4.33 3.38l1.18 1.66-.17 4.69H6.18V12a1 1 0 0 0-.05-.32L4.56 7h22.77L26.2 9.8a1 1 0 0 0-1.14 0 1 1 0 0 0-.23 1.41zm2.47-9.2l-1 3H5.72l-1.21-3zm34.73 26.41H4.81l-2.49-8.87h62.2z"/></svg>