<svg id="bc24564c-a7ad-4c70-85d8-9b9676b8239d" data-name="Icon" xmlns="http://www.w3.org/2000/svg" viewBox="0 0 36 36">
  <defs>
    <style>
      .aeef839e-aaf1-4015-9849-6950cf0bf703 {
        fill: #fff;
      }
    </style>
  </defs>
  <g>
    <path class="aeef839e-aaf1-4015-9849-6950cf0bf703" d="M16,11.62h6a.61.61,0,0,0,.62-.62V5A.61.61,0,0,0,22,4.38H16a.61.61,0,0,0-.62.62v6A.61.61,0,0,0,16,11.62Zm.62-6h4.76v4.76H16.62Z"/>
    <path class="aeef839e-aaf1-4015-9849-6950cf0bf703" d="M28.44,20.56a.62.62,0,0,0-.88,0l-2,2a.61.61,0,0,0,0,.88.67.67,0,0,0,.88,0l.94-.93V24A3.39,3.39,0,0,1,24,27.38H14a.62.62,0,1,0,0,1.24H24A4.62,4.62,0,0,0,28.62,24V22.51l.94.93a.62.62,0,0,0,.88-.88Z"/>
    <path class="aeef839e-aaf1-4015-9849-6950cf0bf703" d="M13.62,8A.61.61,0,0,0,13,7.38H12A4.62,4.62,0,0,0,7.38,12v8.49l-.94-.93a.62.62,0,0,0-.88.88l2,2a.61.61,0,0,0,.86,0l2-2a.62.62,0,1,0-.88-.88l-.94.93V12A3.39,3.39,0,0,1,12,8.62h1A.61.61,0,0,0,13.62,8Z"/>
    <path class="aeef839e-aaf1-4015-9849-6950cf0bf703" d="M31,4.38H25a.61.61,0,0,0-.62.62v6a.61.61,0,0,0,.62.62h6a.61.61,0,0,0,.62-.62V5A.61.61,0,0,0,31,4.38Zm-.62,6H25.62V5.62h4.76Z"/>
    <rect class="aeef839e-aaf1-4015-9849-6950cf0bf703" x="15.38" y="13.38" width="7.25" height="7.25" rx="0.63"/>
    <rect class="aeef839e-aaf1-4015-9849-6950cf0bf703" x="4.38" y="24.38" width="7.25" height="7.25" rx="0.63"/>
  </g>
</svg>
