<?xml version="1.0" encoding="utf-8"?>
<!-- Generator: Adobe Illustrator 17.1.0, SVG Export Plug-In . SVG Version: 6.00 Build 0)  -->
<!DOCTYPE svg PUBLIC "-//W3C//DTD SVG 1.1//EN" "http://www.w3.org/Graphics/SVG/1.1/DTD/svg11.dtd">
<svg version="1.1" id="Layer_1" xmlns="http://www.w3.org/2000/svg" xmlns:xlink="http://www.w3.org/1999/xlink" x="0px" y="0px"
	 viewBox="0 0 216 216" enable-background="new 0 0 216 216" xml:space="preserve">
<g>
	<g>
		<path fill="#FFFFFF" d="M107.533,142.739c-0.093,0-0.188-0.025-0.271-0.079l-12.847-8.214c-0.235-0.151-0.305-0.464-0.153-0.699
			c0.15-0.235,0.462-0.305,0.698-0.154l12.847,8.214c0.236,0.151,0.305,0.464,0.154,0.699
			C107.863,142.657,107.701,142.739,107.533,142.739z"/>
		<path fill="#FFFFFF" d="M107.717,128.928c-0.1,0-0.202-0.03-0.289-0.092l-9.97-6.66c-0.228-0.161-0.283-0.476-0.122-0.704
			c0.16-0.228,0.474-0.284,0.703-0.123l9.97,6.66c0.229,0.161,0.283,0.476,0.123,0.704
			C108.033,128.853,107.877,128.928,107.717,128.928z"/>
		<path fill="#FFFFFF" d="M107.901,115.116c-0.107,0-0.216-0.035-0.307-0.106l-7.094-5.107c-0.221-0.17-0.262-0.487-0.092-0.708
			c0.169-0.22,0.485-0.262,0.708-0.092l7.094,5.107c0.221,0.17,0.262,0.487,0.092,0.708
			C108.203,115.048,108.054,115.116,107.901,115.116z"/>
		<path fill="#FFFFFF" d="M108.085,101.305c-0.114,0-0.23-0.039-0.325-0.119l-4.218-3.554c-0.214-0.18-0.24-0.499-0.061-0.713
			c0.179-0.213,0.497-0.241,0.713-0.061l4.218,3.554c0.214,0.18,0.241,0.499,0.062,0.713
			C108.373,101.244,108.23,101.305,108.085,101.305z"/>
	</g>
	<g>
		<path fill="#FFFFFF" d="M124.035,140.9c-0.078,0-0.154-0.018-0.229-0.055l-15-7.667c-0.246-0.126-0.344-0.427-0.218-0.673
			c0.126-0.245,0.427-0.342,0.673-0.218l15,7.667c0.246,0.126,0.344,0.427,0.219,0.673C124.391,140.801,124.217,140.9,124.035,140.9
			z"/>
		<path fill="#FFFFFF" d="M121.249,130.172c-0.085,0-0.167-0.021-0.246-0.065l-12.214-6.459c-0.24-0.136-0.325-0.439-0.19-0.679
			c0.135-0.24,0.44-0.324,0.68-0.19l12.214,6.459c0.24,0.136,0.325,0.439,0.19,0.679
			C121.592,130.079,121.423,130.172,121.249,130.172z"/>
		<path fill="#FFFFFF" d="M118.463,119.443c-0.091,0-0.181-0.024-0.263-0.076l-9.428-5.251c-0.234-0.145-0.307-0.452-0.163-0.686
			c0.145-0.234,0.452-0.306,0.687-0.163l9.429,5.251c0.233,0.145,0.307,0.452,0.162,0.686
			C118.793,119.358,118.63,119.443,118.463,119.443z"/>
		<path fill="#FFFFFF" d="M115.677,108.714c-0.097,0-0.194-0.028-0.28-0.086l-6.642-4.043c-0.229-0.155-0.289-0.464-0.135-0.693
			c0.155-0.228,0.465-0.288,0.693-0.135l6.643,4.043c0.227,0.155,0.287,0.464,0.134,0.693
			C115.994,108.636,115.836,108.714,115.677,108.714z"/>
		<path fill="#FFFFFF" d="M112.891,97.985c-0.104,0-0.207-0.031-0.297-0.097l-3.856-2.835c-0.223-0.164-0.271-0.477-0.107-0.699
			c0.164-0.223,0.477-0.271,0.7-0.107l3.857,2.835c0.221,0.164,0.27,0.477,0.105,0.699
			C113.195,97.915,113.043,97.985,112.891,97.985z"/>
	</g>
	<g>
		<path fill="#FFFFFF" d="M95.273,87.764c0.127,0.085,0.271,0.125,0.414,0.125c0.242,0,0.481-0.118,0.625-0.336
			c0.229-0.345,0.135-0.81-0.211-1.039c-3.418-2.268-5.459-6.052-5.459-10.124c0-4.046,2.02-7.815,5.402-10.082
			c0.344-0.23,0.436-0.696,0.205-1.041c-0.231-0.345-0.697-0.437-1.041-0.205c-3.799,2.546-6.066,6.78-6.066,11.328
			C89.142,80.966,91.433,85.218,95.273,87.764z"/>
		<path fill="#FFFFFF" d="M94.103,76.398c0,2.87,1.441,5.532,3.846,7.134c0.127,0.085,0.271,0.125,0.414,0.125
			c0.242,0,0.48-0.118,0.625-0.336c0.229-0.345,0.135-0.811-0.211-1.039c-1.987-1.318-3.174-3.518-3.174-5.884
			c0-2.351,1.174-4.542,3.141-5.859c0.344-0.231,0.436-0.696,0.205-1.041c-0.231-0.345-0.697-0.437-1.041-0.205
			C95.525,70.89,94.103,73.546,94.103,76.398z"/>
		<path fill="#FFFFFF" d="M100.624,79.301c0.127,0.085,0.272,0.125,0.414,0.125c0.242,0,0.48-0.118,0.625-0.336
			c0.229-0.345,0.135-0.811-0.211-1.039c-0.557-0.369-0.889-0.983-0.889-1.644c0-0.655,0.328-1.268,0.879-1.637
			c0.344-0.231,0.436-0.697,0.205-1.041c-0.23-0.345-0.697-0.436-1.041-0.205c-0.967,0.648-1.543,1.727-1.543,2.883
			C99.064,77.571,99.648,78.653,100.624,79.301z"/>
		<path fill="#FFFFFF" d="M125.73,76.39c0,4.072-2.041,7.856-5.459,10.124c-0.346,0.229-0.439,0.694-0.211,1.039
			c0.145,0.218,0.383,0.336,0.625,0.336c0.143,0,0.287-0.04,0.414-0.125c3.838-2.546,6.131-6.798,6.131-11.374
			c0-4.548-2.268-8.782-6.066-11.328c-0.344-0.23-0.811-0.139-1.041,0.205c-0.23,0.345-0.139,0.811,0.205,1.041
			C123.711,68.574,125.73,72.344,125.73,76.39z"/>
		<path fill="#FFFFFF" d="M120.77,76.398c0,2.366-1.188,4.565-3.174,5.884c-0.346,0.228-0.439,0.694-0.211,1.039
			c0.145,0.218,0.383,0.336,0.625,0.336c0.143,0,0.287-0.04,0.414-0.125c2.404-1.602,3.846-4.264,3.846-7.134
			c0-2.853-1.422-5.509-3.805-7.105c-0.344-0.23-0.811-0.14-1.041,0.205c-0.23,0.345-0.139,0.81,0.205,1.041
			C119.596,71.856,120.77,74.048,120.77,76.398z"/>
		<path fill="#FFFFFF" d="M114.92,78.051c-0.346,0.229-0.439,0.694-0.211,1.039c0.145,0.218,0.383,0.336,0.625,0.336
			c0.143,0,0.287-0.04,0.414-0.125c0.977-0.647,1.561-1.729,1.561-2.894c0-1.156-0.576-2.234-1.543-2.883
			c-0.344-0.23-0.811-0.14-1.041,0.205c-0.23,0.344-0.139,0.81,0.205,1.041c0.551,0.369,0.879,0.981,0.879,1.637
			C115.809,77.067,115.477,77.682,114.92,78.051z"/>
		<path fill="#FFFFFF" d="M109.887,79.183c0.988-0.537,1.666-1.571,1.666-2.771c0-1.746-1.42-3.166-3.165-3.166
			c-1.746,0-3.167,1.42-3.167,3.166c0,1.2,0.68,2.234,1.666,2.771l-16.329,66.084c-0.133,0.536,0.194,1.078,0.731,1.211
			c0.08,0.02,0.16,0.029,0.24,0.029c0.449,0,0.857-0.305,0.97-0.76l1.312-5.307l13.576-6.938v17.322c0,0.553,0.447,1,1,1
			c0.553,0,1-0.447,1-1v-8.109c0.051-0.011,0.104-0.013,0.152-0.04l12.273-6.893l2.463,9.965c0.111,0.455,0.52,0.76,0.969,0.76
			c0.08,0,0.16-0.01,0.242-0.029c0.535-0.133,0.863-0.675,0.73-1.211L109.887,79.183z M104.345,97.804l3.041-2.235v8.266
			l-5.333,3.246L104.345,97.804z M101.714,108.453l5.672-3.453v8.348l-7.98,4.443L101.714,108.453z M99.08,119.112l8.307-4.625
			v8.375l-10.621,5.617L99.08,119.112z M115.361,109.672l-5.975,4.02v-12.777l3.154-2.657L115.361,109.672z M109.387,114.905
			l6.23-4.193l2.842,11.5l-9.072,5.453V114.905z M112.27,97.162l-2.883,2.429V85.493L112.27,97.162z M108.387,75.245
			c0.644,0,1.165,0.523,1.165,1.166c0,0.293-0.117,0.553-0.295,0.758c-0.025,0.028-0.047,0.06-0.074,0.086
			c-0.023,0.021-0.053,0.033-0.078,0.053c-0.2,0.16-0.443,0.271-0.718,0.271c-0.276,0-0.519-0.11-0.719-0.271
			c-0.024-0.021-0.056-0.031-0.079-0.054c-0.027-0.026-0.048-0.057-0.072-0.085c-0.179-0.205-0.297-0.465-0.297-0.758
			C107.22,75.769,107.744,75.245,108.387,75.245z M107.386,85.497v8.83l-2.666,1.961L107.386,85.497z M94.127,139.155l2.317-9.379
			l10.941-5.786v8.388L94.127,139.155z M109.387,141.6v-12.759l9.326-5.606l2.848,11.528L109.387,141.6z"/>
	</g>
</g>
</svg>
