<svg id="be7eae11-0219-484a-af88-27d6c93637d3" data-name="Icon" xmlns="http://www.w3.org/2000/svg" viewBox="0 0 36 36">
  <defs>
    <style>
      .b24d3b49-a2ac-4701-a280-ad363b4a7be9 {
        fill: #fff;
      }
    </style>
  </defs>
  <g>
    <path class="b24d3b49-a2ac-4701-a280-ad363b4a7be9" d="M31.33,21.67l-11-11a.59.59,0,0,0-.44-.18H15.54a.59.59,0,0,0-.44.18L10.71,15.1a.59.59,0,0,0-.18.44v4.38a.63.63,0,0,0,.18.45l11,11a.64.64,0,0,0,.89,0l8.77-8.77a.64.64,0,0,0,0-.89ZM22.12,30,11.78,19.66V15.8l4-4h3.86L30,22.12Z"/>
    <path class="b24d3b49-a2ac-4701-a280-ad363b4a7be9" d="M12.33,12.33a.64.64,0,0,0,0-.89,2.76,2.76,0,0,0-3.81,0l-.73.73c-.37.38-1-.2-.58-.57L11.6,7.21A1.66,1.66,0,0,0,9.25,4.87L7.06,7.06c-.58.56.32,1.46.88.88l2.19-2.19c.37-.38,1,.21.58.58L6.33,10.71a1.63,1.63,0,0,0-.49,1.17,1.67,1.67,0,0,0,2.83,1.18l.73-.73a1.47,1.47,0,0,1,2,0A.64.64,0,0,0,12.33,12.33Z"/>
    <path class="b24d3b49-a2ac-4701-a280-ad363b4a7be9" d="M15,14.37a.63.63,0,1,0,.63.63A.63.63,0,0,0,15,14.37Z"/>
  </g>
</svg>
