<svg id="b4b419c9-be0d-4e2c-9250-14636adc0fe9" data-name="Icon" xmlns="http://www.w3.org/2000/svg" viewBox="0 0 36 36">
  <defs>
    <style>
      .e3e6c483-87bb-4bc9-9ca1-61f6dd2b5c98 {
        fill: #fff;
      }
    </style>
  </defs>
  <g>
    <path class="e3e6c483-87bb-4bc9-9ca1-61f6dd2b5c98" d="M31,19.38a.62.62,0,0,0-.62.62v3.38H19.62V12.62H27a.62.62,0,1,0,0-1.24H19a.62.62,0,0,0-.62.62V24a.62.62,0,0,0,.62.62H31a.62.62,0,0,0,.62-.62V20A.62.62,0,0,0,31,19.38Z"/>
    <path class="e3e6c483-87bb-4bc9-9ca1-61f6dd2b5c98" d="M23.44,17.56c-.56-.58-1.47.32-.88.88l2,2a.61.61,0,0,0,.88,0l6-6c.58-.56-.31-1.47-.88-.88L25,19.12Z"/>
    <path class="e3e6c483-87bb-4bc9-9ca1-61f6dd2b5c98" d="M17.58,17.76c.11,0-2.1-2.14-2.14-2.2-.56-.58-1.46.32-.88.88l.93.94H11.62V15a.62.62,0,0,0-.62-.62H5a.62.62,0,0,0-.62.62v6a.62.62,0,0,0,.62.62h6a.62.62,0,0,0,.62-.62V18.62h3.87l-.93.94a.62.62,0,0,0,.88.88l2-2A.68.68,0,0,0,17.58,17.76Zm-7.2,2.62H5.62V15.62h4.76Z"/>
  </g>
</svg>
