<svg id="b26a797f-c318-4f3a-bcf3-803776314489" data-name="Icon" xmlns="http://www.w3.org/2000/svg" viewBox="0 0 36 36">
  <defs>
    <style>
      .bb633ff7-a8f3-4411-b0e1-91f3b3490766 {
        fill: #fff;
      }
    </style>
  </defs>
  <g>
    <path class="bb633ff7-a8f3-4411-b0e1-91f3b3490766" d="M8.38,17V27a.62.62,0,0,0,.62.62H27a.62.62,0,0,0,.62-.62V17a.62.62,0,0,0-.62-.62H9A.62.62,0,0,0,8.38,17Zm1.24.62H26.38v8.76H9.62Z"/>
    <path class="bb633ff7-a8f3-4411-b0e1-91f3b3490766" d="M31.44,9.56l-5-5c-.19-.33-1.88-.14-2.44-.19a.64.64,0,0,0-.62.63v7.38H12.62V5A.62.62,0,0,0,12,4.38H5A.62.62,0,0,0,4.38,5V31a.62.62,0,0,0,.62.62H31a.62.62,0,0,0,.62-.62V10A.59.59,0,0,0,31.44,9.56ZM30.38,30.38H5.62V5.62h5.76V13a.62.62,0,0,0,.62.62H24a.62.62,0,0,0,.62-.62V5.62h1.12l4.64,4.64Z"/>
    <path class="bb633ff7-a8f3-4411-b0e1-91f3b3490766" d="M21,8.62A.62.62,0,0,0,21.62,8V5a.62.62,0,0,0-1.24,0V8A.62.62,0,0,0,21,8.62Z"/>
  </g>
</svg>
