<svg id="ICON" xmlns="http://www.w3.org/2000/svg" viewBox="0 0 108 108"><defs><style>.cls-1{fill:#fff;}</style></defs><title>Icon_RH_science_brain_RGB_White</title><path class="cls-1" d="M46.27 14.46c-2.67-.45-5.19 1.1-6.48 3.91a5.81 5.81 0 0 0-4.68 1.19C34 20.5 32.7 22.37 32.72 26a6.85 6.85 0 0 0-3.91 2.83 9 9 0 0 0-1.43 6.62A7.6 7.6 0 0 0 22.74 40a11.69 11.69 0 0 0 .26 9.33A6.85 6.85 0 0 0 20.32 53a7.58 7.58 0 0 0 1.1 6A7.73 7.73 0 0 0 19 64.12a10.11 10.11 0 0 0 2.67 7.53 12.52 12.52 0 0 0 2 9.25 11.07 11.07 0 0 0 7.13 4.47A7.17 7.17 0 0 0 33.77 90a6.21 6.21 0 0 0 5.25.36A7.49 7.49 0 0 0 46 94.17c5.56 0 6.27-7.48 6.27-14v-56c-.05-6.42-3.27-9.25-6-9.71zM26.84 38.09a.85.85 0 0 1 .09-.25 5 5 0 0 1 1.81-.69 1 1 0 0 0 .79-1.27 7 7 0 0 1 .92-5.88 4.61 4.61 0 0 1 3.36-2.13 1 1 0 0 0 .93-1.06c-.16-2.64.43-4.66 1.66-5.69a4.26 4.26 0 0 1 3.77-.62 2.88 2.88 0 0 0 .06.73A2.66 2.66 0 0 0 41.54 23a5.22 5.22 0 0 0 2 .46c.8.08 1.48.15 1.86.63a1.1 1.1 0 0 1 .17.92 2 2 0 0 1-1 1.29 5.92 5.92 0 0 1-3.2.32 4.45 4.45 0 0 0-3.39.7 3 3 0 0 0-.13 4.09 5.09 5.09 0 0 0 3.69 1.66h.81c1.27 0 2.58.09 3.13 1a1.52 1.52 0 0 1 .16 1.17 2.45 2.45 0 0 1-1.06 1.47 5.71 5.71 0 0 1-3.47.5 7.58 7.58 0 0 1-3.47-1 9.27 9.27 0 0 1-1-.81 8.33 8.33 0 0 0-1.38-1.06 2.63 2.63 0 0 0-3.38.36 3.22 3.22 0 0 0-.42 2.3 6.19 6.19 0 0 1 0 1 2.4 2.4 0 0 1-4.25 1.32 1.55 1.55 0 0 1-.37-1.23zM21 64.28A5.69 5.69 0 0 1 23.32 60a1 1 0 0 0 .25-1.37c-1.28-1.9-1.73-3.6-1.33-5.05a5.24 5.24 0 0 1 2.59-3 1 1 0 0 0 .33-.25 3.81 3.81 0 0 0 2.63.24l.28-.06a3.57 3.57 0 0 1 2.36 0 1.47 1.47 0 0 1 .68 1 2.29 2.29 0 0 1-.32 1.76 4.62 4.62 0 0 1-3 1.68h-.19a4.28 4.28 0 0 0-1.35.43A2.79 2.79 0 0 0 25 58.3a3.86 3.86 0 0 0 1.77 2.51 4.92 4.92 0 0 0 3.2.76 9.21 9.21 0 0 0 1.36-.29 8 8 0 0 1 1.23-.28 3.93 3.93 0 0 1 4.11 3.81 1.8 1.8 0 0 1-.21.91c-.34.57-1.13.74-2 .93A3.73 3.73 0 0 0 31.91 68a1.07 1.07 0 0 0-.17.91 1.15 1.15 0 0 0 .48.59 10.08 10.08 0 0 0 1.41.79 3.79 3.79 0 0 1 2 1.6 2.27 2.27 0 0 1-.88 2.52 5.3 5.3 0 0 1-3 .89 5.45 5.45 0 0 1-2.62-.37 2.31 2.31 0 0 1-1.4-1.79 3.94 3.94 0 0 1 .13-1.06 6.46 6.46 0 0 0 .15-.95 2.52 2.52 0 0 0-.63-1.93 2.35 2.35 0 0 0-1.74-.71A2.91 2.91 0 0 0 23 70.17a8.07 8.07 0 0 1-2-5.89zm25 27.89c-4.38 0-5.37-3.18-5.41-3.31a1 1 0 0 0-.19-.36c.85-1.94 4.08-3.66 6.32-3.66a4.69 4.69 0 0 1 3.18 1.47c-.9 5.85-3.03 5.86-3.9 5.86zm4.27-12A48.21 48.21 0 0 1 50 85.1a5.6 5.6 0 0 0-3.33-1.27c-2.37 0-6.22 1.79-7.26 4.33a1 1 0 0 0-.2 0c-1.83.73-3.31.78-4.38.12-1.82-1.1-2.12-3.89-2.12-3.91a1 1 0 0 0-.1-.34c-.25-1.84-.32-2.93.7-3.67 1.53-1.11 3.91-.64 5.65-.29a10 10 0 0 1 1.2.35 11.2 11.2 0 0 0 1.29.37 3.13 3.13 0 0 0 2.9-.65c.87-.87 1-2.3.19-4.21-.45-1.12-.91-2.27-.44-3.18s1.94-1.2 3.11-1.06c.34 0 .68.1 1 .15a11.69 11.69 0 0 0 2 .21zm0-14.66c-1.73.49-4.3.75-5.4 0a3 3 0 0 1-1.19-3.79 6.15 6.15 0 0 1 2.42-2 6.41 6.41 0 0 0 2.86-2.63 3.46 3.46 0 0 0-.87-4l-.34-.39c-.8-.92-1.79-2.07-3.07-2.07-1.74 0-1.93 2-2.09 3.7-.2 2.16-.42 3.47-1.75 3.47s-3.32-.44-4-1.41c-.46-.66-.16-1.66.17-2.73.38-1.25.77-2.54 0-3.59a5 5 0 0 0-1.61-1.34l-.25-.16c-.87-.55-2.22-1.79-1.75-3a1.35 1.35 0 0 1 .92-.79 3.36 3.36 0 0 1 2.67.49 5.71 5.71 0 0 1 1.21 1.39c.8 1.13 1.71 2.4 3.41 2.4 1.21 0 4-1.18 4-3.46 0-1.11-.86-1.59-1.54-2s-1.33-.79-1.33-1.69c0-.53.54-.84 1-1 1.76-.65 5-.22 6.47 1.17zm0-24.66A8.65 8.65 0 0 0 43.4 40a2.15 2.15 0 0 0-1.65 2 2.83 2.83 0 0 0 1.84 2.56c.68.38 1 .6 1 1.1 0 1.59-2.28 2.46-3 2.46-1.18 0-1.87-1-2.59-2a6.34 6.34 0 0 0-1.46-1.64 4.38 4.38 0 0 0-3.54-.64 2.33 2.33 0 0 0-1.55 1.38c-.67 1.68.74 3.3 2.15 4.19l.26.16a4.18 4.18 0 0 1 1.31 1.05c.46.66.15 1.67-.18 2.73-.38 1.25-.77 2.55 0 3.6 1 1.36 3.2 1.84 4.82 1.84 2.34 0 2.56-2.43 2.74-4.38.16-1.74.31-2.79 1.09-2.79s1.65 1 2.32 1.72l.35.4c.93 1 1.16 2 .71 2.91a5.57 5.57 0 0 1-2.47 2.2 7 7 0 0 0-2.78 2.41 4 4 0 0 0 1.53 5.13 5 5 0 0 0 2.64.58 14.2 14.2 0 0 0 3.3-.44v4.55a10.82 10.82 0 0 1-1.83-.19c-.36-.06-.72-.12-1.08-.16-1.94-.22-3.48.37-4.12 1.6s-.08 2.81.43 4.08c.4 1 .72 2.34 0 3.06a2.2 2.2 0 0 1-2 .38 10.07 10.07 0 0 1-1.18-.34 10.92 10.92 0 0 0-1.33-.38c-1.92-.38-4.55-.9-6.43.47-1.32 1-1.36 2.35-1.19 3.86a9 9 0 0 1-6.18-3.71 10.5 10.5 0 0 1-1.62-8.2.48.48 0 0 0 0-.13 1.92 1.92 0 0 1 1.88-1.87 1.35 1.35 0 0 1 1 .4 1.55 1.55 0 0 1 .41 1.13 5.56 5.56 0 0 1-.13.8 4.74 4.74 0 0 0-.14 1.34 3.32 3.32 0 0 0 2 2.63 6 6 0 0 0 2.52.48h.58a6.22 6.22 0 0 0 3.61-1.1 3.24 3.24 0 0 0 1.19-3.7 4.55 4.55 0 0 0-2.52-2.11 9.35 9.35 0 0 1-1.27-.71l-.09-.06v-.09c.35-.56 1.13-.73 2-.92a3.66 3.66 0 0 0 2.6-1.39 2.76 2.76 0 0 0 .36-1.41A4.93 4.93 0 0 0 32.46 60a9 9 0 0 0-1.41.29 8.44 8.44 0 0 1-1.21.26 4 4 0 0 1-2.54-.6 2.86 2.86 0 0 1-1.3-1.82 1.8 1.8 0 0 1 .77-1.85 3.46 3.46 0 0 1 1-.32h.2a5.55 5.55 0 0 0 3.64-2.09 3.32 3.32 0 0 0 .46-2.55 2.45 2.45 0 0 0-1.16-1.62 4.32 4.32 0 0 0-3-.12l-.27.05c-.65.13-1.82.24-2.31-.43l-.06-.06c-1.47-2-1.74-5.62-.63-8.32a6.84 6.84 0 0 1 1.29-2.06 2.74 2.74 0 0 0 .58 1.22 3.48 3.48 0 0 0 2.67 1.24 3.27 3.27 0 0 0 1-.15 3.47 3.47 0 0 0 2.38-3 7 7 0 0 0 0-1.13 2.4 2.4 0 0 1 .21-1.64c.42-.56 1.41-.48 2.09-.09a7.46 7.46 0 0 1 1.21.94 10.17 10.17 0 0 0 1.11.9A8.49 8.49 0 0 0 41 38.21a6.59 6.59 0 0 0 4.09-.65 3.43 3.43 0 0 0 1.51-2.1 2.52 2.52 0 0 0-.28-1.92c-.84-1.34-2.49-1.4-3.95-1.45h-.78a4.25 4.25 0 0 1-3-1.3 2.07 2.07 0 0 1 0-2.71 3.61 3.61 0 0 1 2.65-.45 6.75 6.75 0 0 0 3.76-.46 3 3 0 0 0 1.48-2 2.08 2.08 0 0 0-.36-1.74 3.39 3.39 0 0 0-2.54-1A4.41 4.41 0 0 1 42 22.1a1.66 1.66 0 0 1-.8-1.1 1.77 1.77 0 0 1 0-1 1 1 0 0 0 .1-.17c0-.07.05-.12.08-.19a.49.49 0 0 0 .09-.21c.9-2.12 2.58-3.29 4.41-3 2 .34 4.28 2.56 4.28 7.74zm39 23.28a7.73 7.73 0 0 0-2.44-5.17 7.58 7.58 0 0 0 1.1-6 6.85 6.85 0 0 0-2.71-3.67 11.68 11.68 0 0 0 .2-9.29 7.6 7.6 0 0 0-4.64-4.57 9 9 0 0 0-1.43-6.62A6.85 6.85 0 0 0 75.44 26c0-3.62-1.27-5.49-2.4-6.43a5.81 5.81 0 0 0-4.68-1.19c-1.3-2.81-3.82-4.36-6.48-3.91s-5.95 3.29-5.95 9.71v56c0 6.52.71 14 6.27 14a7.49 7.49 0 0 0 6.93-3.78 6.22 6.22 0 0 0 5.26-.4 7.17 7.17 0 0 0 2.94-4.64 11.07 11.07 0 0 0 7.13-4.47 12.51 12.51 0 0 0 2-9.25 10.11 10.11 0 0 0 2.71-7.52zm-9.76-27a5.52 5.52 0 0 1 4.15 3.61c1.11 2.7.84 6.28-.63 8.32a1 1 0 0 0 .39 1.49 5.26 5.26 0 0 1 2.58 3c.41 1.46 0 3.16-1.33 5.07a1 1 0 0 0-.11.26.48.48 0 0 0-.14.28c-.27 2.33-3 4.83-5.19 4.75a2 2 0 0 1-1.86-.91c-.34-.77.35-1.75 1.18-2.28.3-.19.62-.36.93-.53a6.29 6.29 0 0 0 2.08-1.51 3.46 3.46 0 0 0 .44-3.4 4.14 4.14 0 0 0-3-2.65 5.2 5.2 0 0 0-5.62 4.15 13.89 13.89 0 0 0-.22 1.59c-.12 1.23-.24 2.4-1.07 3a1.84 1.84 0 0 1-1.69.21 3 3 0 0 1-1.89-1.86c-.41-1.34-.06-2.95 1.09-5a4 4 0 0 0 .76-2.83c-.4-1.63-2.22-2-3.69-2.27l-.69-.14A4.92 4.92 0 0 1 62 45c0-1.72.88-1.72 1.17-1.72s.55.33.92 1a3.33 3.33 0 0 0 1.27 1.54 4.86 4.86 0 0 0 2.81.1 8.69 8.69 0 0 1 1.17-.13c.79 0 1.42.92 2.1 1.9S73 50 74.35 50.17A5.3 5.3 0 0 0 78.28 49a3.84 3.84 0 0 0 1.42-2.75 2 2 0 0 0-.66-1.7A2.42 2.42 0 0 0 78 44.1l-4.61-.84a5.37 5.37 0 0 1-2.46-.88 1.49 1.49 0 0 1-.46-1.88c.43-.57 1.25-.51 2.46-.36.3 0 .59.08.87.09a6.83 6.83 0 0 0 5.51-3.14 1 1 0 0 0 .11.06zm-21.48-13c0-5.17 2.31-7.4 4.28-7.74a3.51 3.51 0 0 1 .58 0c1.71 0 3.24 1.3 4 3.45a1 1 0 0 0 1.18.64 4.26 4.26 0 0 1 3.78.62c1.22 1 1.81 3 1.66 5.69a1 1 0 0 0 0 .33 5.48 5.48 0 0 1-1.73.33 2.42 2.42 0 0 1-2.29-1.34 3.86 3.86 0 0 1-.15-.69 4.76 4.76 0 0 0-.19-.85A2.72 2.72 0 0 0 67.5 23a3.2 3.2 0 0 0-2.58.06 4 4 0 0 0-2 4 6 6 0 0 0 2.21 3.86c.31.26.64.51 1 .75a10.73 10.73 0 0 1 1.24 1c1 1 1.6 2 1.52 2.47-.11.73-.35 2.23-2.79 2.23a1.82 1.82 0 0 1-1.71-1.2 6.87 6.87 0 0 1-.3-1.61 11.89 11.89 0 0 0-.17-1.19 5.15 5.15 0 0 0-2.46-3.11 6.33 6.33 0 0 0-3.46-1zm0 56v-26.4a.49.49 0 0 0 .32-.14 2.84 2.84 0 0 1 4.8 2.58 6.3 6.3 0 0 1-1.75 2.71c-.23.26-.46.51-.68.77a7.57 7.57 0 0 0-2 5.33 4.61 4.61 0 0 0 3.73 4.25 7 7 0 0 0 3.4-.75 12.09 12.09 0 0 1 1.66-.59 1.55 1.55 0 0 1 .71 0c.86.22.73 1.87.69 2.2C68.64 71.87 69 73 70 73.4a2.24 2.24 0 0 0 1.45 0c1.72-.47 2.68-2 3.6-3.42a18 18 0 0 1 1.1-1.6c.14-.17.34-.4.53-.42a1.06 1.06 0 0 1 .58.22 9.11 9.11 0 0 1 3.63 3.67 5 5 0 0 1-.09 4.79c-1.44 2.23-4.74 2.44-7.25 1.51a22.86 22.86 0 0 1-4.44-2.46c-1-.63-2-1.29-3-1.83a6.22 6.22 0 0 0-4.3-.83 3.35 3.35 0 0 0-2.11 1.73 2.42 2.42 0 0 0-.1 2c.46 1.08 1.93 1.55 3.48 2 2.25.72 3.84 1.34 3.84 2.86a4.49 4.49 0 0 1-4.19 3.81c-1.48 0-3.43-1.1-4.71-1.94-.02-.9-.08-2.04-.08-3.32zm26.5-8.62a10.5 10.5 0 0 1-1.61 8.2 9 9 0 0 1-6.49 3.76 1 1 0 0 0-.88.9s-.3 2.81-2.12 3.92c-1.08.65-2.55.61-4.38-.12a1 1 0 0 0-1.33.65c0 .14-1 3.32-5.41 3.32-1 0-3.37 0-4.07-7.3a9.8 9.8 0 0 0 4.61 1.7 5.51 5.51 0 0 0 5.19-4.81c0-2.36-2.51-3.17-4.54-3.81-1.27-.41-2.58-.83-2.87-1.49a1.44 1.44 0 0 1 .08-1.21A2.36 2.36 0 0 1 62.07 74a5.09 5.09 0 0 1 3.59.75c1 .52 2 1.17 2.94 1.78a24 24 0 0 0 4.64 2.56c2.88 1.08 6.71.77 8.44-1.9a5.93 5.93 0 0 0 .15-5.77 10.07 10.07 0 0 0-4-4.09A2 2 0 0 0 76.6 67a1.87 1.87 0 0 0-1.19.78 18.55 18.55 0 0 0-1.17 1.69c-.86 1.35-1.67 2.62-3 3a1.32 1.32 0 0 1-.81 0c-.53-.21-.73-1-.6-2.32.18-1.76-.35-3-1.44-3.27a2.43 2.43 0 0 0-1.2 0 13 13 0 0 0-1.79.63 6.06 6.06 0 0 1-2.9.68 3.59 3.59 0 0 1-2.85-3.34 6.6 6.6 0 0 1 1.76-4.61c.21-.25.43-.5.66-.74a7.12 7.12 0 0 0 2-3.17 3.83 3.83 0 0 0-6.1-3.83V30.21a5.31 5.31 0 0 1 2.93.86 4.23 4.23 0 0 1 2 2.47 11 11 0 0 1 .1 1.09 7.74 7.74 0 0 0 .35 1.85A2.82 2.82 0 0 0 66 38.34c3.29 0 3.66-2.32 3.78-3.08.17-1.11-.88-2.42-1.8-3.33a11.72 11.72 0 0 0-1.35-1.1c-.31-.23-.62-.45-.91-.7a5 5 0 0 1-1.87-3.2 3 3 0 0 1 1.48-3 2.2 2.2 0 0 1 1.76 0 1.74 1.74 0 0 1 1 1 3.91 3.91 0 0 1 .15.68 4.71 4.71 0 0 0 .2.87 3.38 3.38 0 0 0 3.23 2 7.35 7.35 0 0 0 2.67-.6A4.63 4.63 0 0 1 77.71 30a7 7 0 0 1 .92 5.92 1 1 0 0 0 0 .23c-.51 1.75-3.28 3.24-4.78 3.12-.26 0-.54-.05-.81-.09-1.21-.15-2.58-.33-3.38.75a2.48 2.48 0 0 0 .62 3.25 6.21 6.21 0 0 0 2.92 1.09l4.61.84a1.62 1.62 0 0 1 .66.21 1.05 1.05 0 0 1 .27.87 2.84 2.84 0 0 1-1.07 2 4.25 4.25 0 0 1-3.17 1c-.87-.1-1.55-1.09-2.21-2.05-.79-1.15-1.61-2.33-2.92-2.33a9.34 9.34 0 0 0-1.32.14 4.32 4.32 0 0 1-2.2 0 2.61 2.61 0 0 1-.85-1.14c-.37-.7-.82-1.56-1.8-1.56-1.36 0-2.17 1-2.17 2.72a5.94 5.94 0 0 0 4.72 5.55l.71.15c1.31.26 2.66.52 2.91 1.53a3.28 3.28 0 0 1-.69 2.16C67.39 56.57 67 58.43 67.5 60a4 4 0 0 0 2.5 2.57 2.77 2.77 0 0 0 2.6-.37c1.17-.89 1.31-2.33 1.45-3.72A12.88 12.88 0 0 1 74.3 57a4.24 4.24 0 0 1 4.47-3.38 3.12 3.12 0 0 1 2.27 2 2.44 2.44 0 0 1-.26 2.45A5.47 5.47 0 0 1 79 59.33c-.34.18-.69.36-1 .57-1.21.78-2.12 2.24-1.55 3.53a2.84 2.84 0 0 0 2.66 1.47h.11c2.41 0 5.09-2.22 5.89-4.7a5.72 5.72 0 0 1 2.06 4.07 8.12 8.12 0 0 1-2.46 6.34 1 1 0 0 0-.27.94z"/></svg>