<svg id="Layer_1" data-name="Layer 1" xmlns="http://www.w3.org/2000/svg" viewBox="0 0 68.89 66.69"><defs><style>.cls-1{fill:#fff;}</style></defs><title>Icon_RH_Science_BigBangExplosion_RGB_White</title><path class="cls-1" d="M10.75 44.64a.46.46 0 0 0 .35 0 .49.49 0 0 0 .19-.74.5.5 0 1 0-.89.45.51.51 0 0 0 .35.29zm-2.08 1a.49.49 0 0 0 0-.37.52.52 0 0 0-.67-.23l-4.56 2.3a.51.51 0 0 0-.26.29.54.54 0 0 0 0 .38.52.52 0 0 0 .31.26.53.53 0 0 0 .36 0l4.57-2.37a.47.47 0 0 0 .25-.25zm5.36 4.14l-7.35 6.78a.51.51 0 0 0-.17.35.54.54 0 0 0 .14.36.5.5 0 0 0 .36.16.52.52 0 0 0 .34-.13l7.36-6.78a.502.502 0 0 0-.68-.74zm14.26 3.2a.49.49 0 0 0-.6.38l-2.57 11.31a.5.5 0 0 0 .38.6h.11a.5.5 0 0 0 .48-.37l2.57-11.31a.5.5 0 0 0-.37-.61zm6.62 10.64a.51.51 0 0 0 .34-.17.48.48 0 0 0 .12-.36.5.5 0 0 0-.53-.47.52.52 0 0 0-.47.54.5.5 0 0 0 .5.46zM16.23 47.76a.5.5 0 0 0 0 .7.48.48 0 0 0 .37.16.47.47 0 0 0 .34-.13.49.49 0 0 0 0-.7.51.51 0 0 0-.71-.03zm-11-26a.5.5 0 0 0 .27-.26.51.51 0 0 0-.26-.66L.7 18.9a.5.5 0 0 0-.41 0 .53.53 0 0 0-.27.27.52.52 0 0 0 .26.66l4.59 1.91a.46.46 0 0 0 .42 0zm46.61 10.4a.52.52 0 0 0-.49.51.5.5 0 0 0 .5.49l10-.27a.48.48 0 0 0 .36-.15.51.51 0 0 0 .13-.36.5.5 0 0 0-.51-.48zM7.52 22.9a.48.48 0 0 0 .65-.26.5.5 0 0 0-.88-.44.51.51 0 0 0 0 .4.46.46 0 0 0 .23.3zM42.9 11.4a.5.5 0 0 0 .4 0 .46.46 0 0 0 .25-.25.49.49 0 0 0-.24-.66.5.5 0 1 0-.42.91zm-7.86 54.22a.51.51 0 0 0-.47.53v.07a.5.5 0 0 0 .5.47.5.5 0 0 0 .46-.53v-.08a.5.5 0 0 0-.49-.46zM44.47 7.9a.5.5 0 0 0 .4 0 .47.47 0 0 0 .25-.25l2.09-4.51a.52.52 0 0 0 0-.38.5.5 0 0 0-.26-.28.51.51 0 0 0-.67.24l-2.09 4.51a.5.5 0 0 0 .25.66zm-18.07.17a.48.48 0 0 0 .62.32.523.523 0 0 0-.31-1 .51.51 0 0 0-.3.27.46.46 0 0 0-.01.44zM10.21 23.98l4.58 1.92a.51.51 0 0 0 .38 0 .5.5 0 0 0 .27-.27.51.51 0 0 0-.27-.66l-4.57-1.92a.49.49 0 0 0-.37 0 .49.49 0 0 0-.28.27.51.51 0 0 0 0 .4.46.46 0 0 0 .26.26zm15.33-18.6a.46.46 0 0 0 .25.29.5.5 0 0 0 .37 0 .51.51 0 0 0 .33-.63L24.96.32a.5.5 0 0 0-.25-.3.53.53 0 0 0-.38 0 .52.52 0 0 0-.33.63zm25.13 20.87a.5.5 0 0 0 .65.29l11.6-4.5a.5.5 0 0 0-.36-.93l-11.6 4.5a.5.5 0 0 0-.29.64zm-6.38 9.65a.5.5 0 0 0-.42.57 4.35 4.35 0 0 1-.52 3.4 3.71 3.71 0 0 1-2.8 1.12.5.5 0 0 0 0 1 4.61 4.61 0 0 0 3.51-1.49 5.18 5.18 0 0 0 .73-4.18.5.5 0 0 0-.5-.42zm3.3-6.64a3.82 3.82 0 0 0 .28-2.8.75.75 0 0 0-1.44.41 2.32 2.32 0 0 1-.14 1.7c-.09.16-.18.22-.21.23a.75.75 0 0 0-.24 1.33 3.7 3.7 0 0 1 1.53 3 2.09 2.09 0 0 1-.3 1.27.75.75 0 0 0 .08 1.5c.67 0 1.24-.53 1.53-1.41a5.21 5.21 0 0 0-1.23-4.95 2.39 2.39 0 0 0 .14-.23zm-6.81 17.22a.5.5 0 0 0-.66.26 5.14 5.14 0 0 1-2.35 2.58.5.5 0 0 0 .22.95.5.5 0 0 0 .22-.05 6.13 6.13 0 0 0 2.82-3.08.5.5 0 0 0-.25-.66zm23.68.87l-13.1-6.87a5.92 5.92 0 0 0-.56-2.92 3.76 3.76 0 0 0 1.07-2.78 3.83 3.83 0 0 0-1.09-2.3c2-3.54-.72-7.48-1.39-8.35a5.68 5.68 0 0 0-1.59-3.33l7.2-6.25a.503.503 0 0 0-.66-.76l-7.37 6.41a4.49 4.49 0 0 0-2.51-.48 3 3 0 0 0-1-1.8 4.17 4.17 0 0 0-2.67-.89l1.18-2.52a.46.46 0 0 0 0-.38.5.5 0 0 0-.25-.27.51.51 0 0 0-.67.24l-1.18 2.53a7.41 7.41 0 0 0-2.77-1.85l2.71-13a.51.51 0 0 0-1-.21l-2.64 12.97a3.92 3.92 0 0 0-1 0 4 4 0 0 0-1.92.83 6.68 6.68 0 0 0-3.78-.93l-1.18-3.87a.49.49 0 0 0-.24-.29.5.5 0 0 0-.39 0 .51.51 0 0 0-.3.27.46.46 0 0 0-.07.35l1.21 3.75a6.33 6.33 0 0 0-3.44 2.71 6.07 6.07 0 0 0-2.33.43l-6.2-7.52a.5.5 0 0 0-.77.64l6.06 7.36a4.27 4.27 0 0 0-1.33 1.47 4.41 4.41 0 0 0-2.42 1.1l-6.15-4a.502.502 0 1 0-.55.84l6.11 4a3.81 3.81 0 0 0-.37 2.22 3.32 3.32 0 0 0-1.39 3.17 10.49 10.49 0 0 0-1.69 1.78l-9.19-1.74a.51.51 0 1 0-.19 1l8.81 1.66a4.84 4.84 0 0 0-.59 2.37 4.62 4.62 0 0 0 .74 2.35l-11 .67a.5.5 0 0 0 0 1l11.21-.68a.49.49 0 0 0 .37-.21l.3.31a4.08 4.08 0 0 0-.2 3.32 3.7 3.7 0 0 0 1.82 1.8v.29l-2.82 1.38a.5.5 0 0 0 .1.93.47.47 0 0 0 .35 0l2.27-1.14a4.76 4.76 0 0 0 .92 2.69 4.25 4.25 0 0 0 1.36 1.05.45.45 0 0 0 0 .12.48.48 0 0 0 .13.36.51.51 0 0 0 .37.16.55.55 0 0 0 .34-.13l.13-.12.28.08a5.06 5.06 0 0 0 2.21 3.72 3.91 3.91 0 0 0 1.68.51l-3.14 6.38a.5.5 0 0 0 .23.67h.15a.5.5 0 0 0 .52-.28l3.34-6.81.38-.07c1 1.5 3 1.53 4.24 1.25 1.25 1.24 3.26 1.08 4.46.83l.53 7.55a.48.48 0 0 0 .49.46.51.51 0 0 0 .34-.17.49.49 0 0 0 .12-.37l-.53-7.61a13.49 13.49 0 0 0 3.3.46 6.92 6.92 0 0 0 4-1.12l3.6 6.92a.5.5 0 0 0 .44.27.52.52 0 0 0 .29-.06.5.5 0 0 0 .21-.68l-3.7-7.1a6.65 6.65 0 0 0 1.79-3.45c.19-.07.36-.15.53-.23l4.77 5.28a.5.5 0 0 0 .37.17.51.51 0 0 0 .5-.48.49.49 0 0 0-.13-.36l-4.6-5.09a6.44 6.44 0 0 0 2.61-3.18 4.16 4.16 0 0 0 2.58-2.33l12.87 6.75a.5.5 0 1 0 .46-.88zM49.38 36.9a.75.75 0 0 0-.12.93 5.37 5.37 0 0 1 .62 1.89l-1.17-.61a.5.5 0 0 0-.46.88l1.54.81v.13a2.93 2.93 0 0 1-2 1.61.75.75 0 0 0-.5.55 4.79 4.79 0 0 1-2.3 2.8l-1.08-1.2a.52.52 0 0 0-.71 0 .44.44 0 0 0-.16.34.49.49 0 0 0 .13.36l.87 1-.36.12a.76.76 0 0 0-.53.67 5.46 5.46 0 0 1-1.1 2.65l-.17-.33a.5.5 0 0 0-.89.46l.31.6-.09.08c-1.48 1-3.68 1.17-6.52.37h-.09l-.06-.79a.5.5 0 0 0-1 .07l.06.92c-1 .21-2.75.45-3.48-.6a.75.75 0 0 0-.84-.28c-.1 0-2.55.79-3.2-.85a.75.75 0 0 0-1-.42 3.24 3.24 0 0 1-2.54-.12c-.83-.49-1.36-1.55-1.56-3.15a.74.74 0 0 0-.37-.55l.59-.54a4.31 4.31 0 0 0 3.09 1.28.5.5 0 0 0 0-1 3.31 3.31 0 0 1-2.41-1.08l.51-.47a.48.48 0 0 0 .16-.35.49.49 0 0 0-.13-.36.51.51 0 0 0-.7 0l-.44.41a4.34 4.34 0 0 1-.55-2.12.5.5 0 1 0-1 0 5.32 5.32 0 0 0 .8 2.82l-1.1 1a2.9 2.9 0 0 1-1.26-.93 3.68 3.68 0 0 1-.62-2.52l.83-.42a.48.48 0 0 0 .23-.66.51.51 0 0 0-.67-.23l-.26.13a.74.74 0 0 0-.54-.69 2.46 2.46 0 0 1-1.47-1.2 3 3 0 0 1 .44-2.6.75.75 0 0 0-.22-1 3.87 3.87 0 0 1-1.5-2.71 3.61 3.61 0 0 1 .64-2l1.52.29h.13a.5.5 0 0 0 .06-1l-1-.19a10.82 10.82 0 0 1 1.25-1.2.75.75 0 0 0 .27-.72c0-.07-.31-1.84.92-2.19a.75.75 0 0 0 .5-1 2.47 2.47 0 0 1 .16-1.88 2.83 2.83 0 0 1 2.22-1 .76.76 0 0 0 .63-.51c0-.08.71-2 3.75-1.78a.76.76 0 0 0 .72-.42 5 5 0 0 1 2.75-2.36 4.57 4.57 0 0 1 3.3.44 7.45 7.45 0 0 0-.71 1.23.75.75 0 1 0 1.36.63 5.26 5.26 0 0 1 1-1.51l.06-.06A2.68 2.68 0 0 1 35.4 16a2.41 2.41 0 0 1 .45 0v.08a.5.5 0 0 0 .39.59h.05a.5.5 0 0 0 .49-.4v-.07a6.85 6.85 0 0 1 2.4 1.84l-.26.56a.51.51 0 0 0 0 .39.54.54 0 0 0 .26.28.52.52 0 0 0 .4 0 .54.54 0 0 0 .27-.24l.23-.5a3.41 3.41 0 0 1 2.36.49 1.84 1.84 0 0 1 .52 1.53.75.75 0 0 0 1 .74 3.53 3.53 0 0 1 1.71 0l-.86.75a.5.5 0 0 0-.13.58.5.5 0 0 0 .79.18l1.16-1a4.22 4.22 0 0 1 1.28 2.76.75.75 0 0 0 .16.37s3.35 4.14 1.1 7.25a.75.75 0 0 0-.13.56.74.74 0 0 0 .3.49 2.64 2.64 0 0 1 1 1.68 2.61 2.61 0 0 1-.96 1.99zm2.46 17.39a.51.51 0 0 0-.17.35.54.54 0 0 0 .13.36.53.53 0 0 0 .37.16.47.47 0 0 0 .34-.13.49.49 0 0 0 .16-.34.47.47 0 0 0-.13-.36.5.5 0 0 0-.71-.05zM64.89 31.8a.5.5 0 0 0 0 1 .5.5 0 0 0 0-1zM38.63 42.52a.5.5 0 0 0-.91-.41 2.2 2.2 0 0 1-1.2 1.3 3.08 3.08 0 0 1-2.33-.44.5.5 0 0 0-.65.17 2.31 2.31 0 0 1-2.61 1.29 2.24 2.24 0 0 1-1.64-1.86v-.12a.5.5 0 0 0-.23-.42.5.5 0 0 0-.48 0 2.69 2.69 0 0 1-2.74-.21 2.09 2.09 0 0 1-.9-1.87.503.503 0 1 0-1-.11 3.09 3.09 0 0 0 1.35 2.74 3.62 3.62 0 0 0 3.11.54 3.36 3.36 0 0 0 2.27 2.26 3 3 0 0 0 .84.12 3.26 3.26 0 0 0 2.64-1.46 3.64 3.64 0 0 0 2.72.3 3.16 3.16 0 0 0 1.76-1.82zm29.76-10.81h-.51a.46.46 0 0 0-.35.16.43.43 0 0 0-.14.35.5.5 0 0 0 .5.49h.52a.5.5 0 0 0 0-1zm-29.46-6.54a.5.5 0 0 0 .45.55 4.06 4.06 0 0 1 3.15 1.52 3.11 3.11 0 0 1 .18 2.7.5.5 0 0 0 .16.54c.83.68 1 1.76.59 3.19a.5.5 0 0 0 .33.63h.15a.5.5 0 0 0 .48-.36 3.82 3.82 0 0 0-.66-4 4 4 0 0 0-.38-3.24c-.5-.77-1.57-1.74-3.88-2a.5.5 0 0 0-.57.47zm15.62 31.37a.52.52 0 0 0-.71 0 .51.51 0 0 0-.17.34.51.51 0 0 0 .13.36l1.49 1.6a.52.52 0 0 0 .37.16.49.49 0 0 0 .34-.13.49.49 0 0 0 .16-.34.48.48 0 0 0-.13-.36zm-21.77-35.1a.5.5 0 0 0 .68-.19 3.1 3.1 0 0 1 2.09-.92 1.75 1.75 0 0 1 1.59 1 .5.5 0 0 0 .64.2 1.77 1.77 0 0 1 1.75.13 2.62 2.62 0 0 1 1.16 2.14.5.5 0 0 0 1 0 3.61 3.61 0 0 0-1.63-3 2.78 2.78 0 0 0-2.3-.35 2.68 2.68 0 0 0-2.23-1.13 3.91 3.91 0 0 0-3 1.43.5.5 0 0 0 .25.69zM20.12 23.9a.75.75 0 0 0 1-.23 3.81 3.81 0 0 1 3.29-1.57.75.75 0 0 0 .71-.52c.23-.7 2.3-1.92 3.64-1.74a.752.752 0 0 0 .2-1.49 6.06 6.06 0 0 0-5 2.26 5.24 5.24 0 0 0-4.09 2.25.75.75 0 0 0 .25 1.04zm3.12 13a1.12 1.12 0 0 1-1-.46 2.25 2.25 0 0 1-.39-2.44.5.5 0 0 0-.33-.68 1.64 1.64 0 0 1-1-.81 2 2 0 0 1 0-1.66.5.5 0 1 0-.94-.34 3 3 0 0 0 .09 2.47 2.68 2.68 0 0 0 1.13 1.12 3.24 3.24 0 0 0 .74 3 2.26 2.26 0 0 0 1.61.8 1.49 1.49 0 0 0 .47-.07.5.5 0 1 0-.31-.95zm3.82-12.45c-1.85-.22-3.26.13-4.09 1s-1 2.27-.62 4.09a.5.5 0 0 0 .49.39h.11a.5.5 0 0 0 .37-.6c-.34-1.47-.22-2.54.38-3.18.82-.88 2.42-.84 3.62-.65a.49.49 0 0 0 .56-.36 2.86 2.86 0 0 1 2.18-2 3.37 3.37 0 0 1 3.33 1.35.5.5 0 1 0 .77-.63 4.33 4.33 0 0 0-4.31-1.69 3.91 3.91 0 0 0-2.79 2.28zm6.33 22.6c-1.35.81-3.62.89-4.63-.2a.75.75 0 1 0-1.1 1 4.5 4.5 0 0 0 3.36 1.31 6.27 6.27 0 0 0 3.15-.84.75.75 0 1 0-.77-1.29z"/></svg>