<?xml version="1.0" encoding="utf-8"?>
<!-- Generator: Adobe Illustrator 17.1.0, SVG Export Plug-In . SVG Version: 6.00 Build 0)  -->
<!DOCTYPE svg PUBLIC "-//W3C//DTD SVG 1.1//EN" "http://www.w3.org/Graphics/SVG/1.1/DTD/svg11.dtd">
<svg version="1.1" id="Layer_1" xmlns="http://www.w3.org/2000/svg" xmlns:xlink="http://www.w3.org/1999/xlink" x="0px" y="0px"
	 viewBox="0 0 144 144" enable-background="new 0 0 144 144" xml:space="preserve">
<g>
	<path fill="#FFFFFF" d="M102.934,104.984c-3.276,0-5.942-2.666-5.942-5.942c0-3.277,2.666-5.943,5.942-5.943
		c3.277,0,5.944,2.666,5.944,5.943C108.878,102.318,106.211,104.984,102.934,104.984 M38.991,42.042
		c0-3.277,2.666-5.944,5.944-5.944c3.276,0,5.942,2.667,5.942,5.944c0,3.277-2.666,5.942-5.942,5.942
		C41.657,47.984,38.991,45.319,38.991,42.042 M64.991,42.042c0-3.277,2.666-5.944,5.944-5.944c3.276,0,5.942,2.667,5.942,5.944
		c0,3.277-2.666,5.942-5.942,5.942C67.657,47.984,64.991,45.319,64.991,42.042 M102.934,68.099c3.277,0,5.944,2.666,5.944,5.943
		c0,3.276-2.667,5.942-5.944,5.942c-3.276,0-5.942-2.666-5.942-5.942C96.991,70.765,99.657,68.099,102.934,68.099 M102.934,91.099
		c-4.186,0-7.618,3.259-7.913,7.372l-22.688,0.002c-0.127-0.048-0.428-0.521-0.428-1.086V75.471h23.223
		c0.676,3.698,3.914,6.514,7.806,6.514c4.381,0,7.944-3.562,7.944-7.942c0-4.381-3.563-7.943-7.944-7.943
		c-4.186,0-7.617,3.259-7.913,7.372H71.905V49.918c3.923-0.48,6.973-3.826,6.973-7.876c0-4.381-3.562-7.944-7.942-7.944
		c-4.38,0-7.944,3.563-7.944,7.944c0,4.03,3.021,7.36,6.914,7.868v23.56H48.101c-0.706,0-1.816-0.267-2.195-0.511V49.918
		c3.923-0.48,6.973-3.826,6.973-7.876c0-4.381-3.562-7.944-7.942-7.944c-4.38,0-7.944,3.563-7.944,7.944
		c0,4.03,3.021,7.36,6.914,7.868v23.256c0,1.912,3.31,2.304,4.195,2.304h21.805v21.916c0,1.483,0.923,3.084,2.414,3.084h22.809
		c0.676,3.698,3.914,6.514,7.806,6.514c4.381,0,7.944-3.562,7.944-7.942C110.878,94.661,107.314,91.099,102.934,91.099"/>
</g>
</svg>
