<svg id="bf1f556e-7ffc-4a7c-9880-b10aae413f3b" data-name="Icon" xmlns="http://www.w3.org/2000/svg" viewBox="0 0 36 36">
  <defs>
    <style>
      .ec4bd2c5-d6f9-4fdd-a32b-ed95be13af60 {
        fill: #fff;
      }
    </style>
  </defs>
  <path class="ec4bd2c5-d6f9-4fdd-a32b-ed95be13af60" d="M29.13,6.73l-11-2.34a.57.57,0,0,0-.26,0l-11,2.34a.61.61,0,0,0-.49.61V20a11.62,11.62,0,0,0,23.24,0V7.34A.61.61,0,0,0,29.13,6.73ZM18,5.64l10.38,2.2v5.61L7.62,17.86v-10Zm0,24.74A10.4,10.4,0,0,1,7.62,20v-.86l20.76-4.41V20A10.4,10.4,0,0,1,18,30.38Z"/>
</svg>
