<svg id="Layer_1" data-name="Layer 1" xmlns="http://www.w3.org/2000/svg" viewBox="0 0 57.7 57.7"><defs><style>.cls-1{fill:#fff;}</style></defs><title>Icon_RH_Software_Application-Window_RGB_White</title><path class="cls-1" d="M4.67 54.46h12.61a.5.5 0 0 0 0-1H4.67a.5.5 0 0 0 0 1zM54.12 0H3.58A3.58 3.58 0 0 0 0 3.58v50.54a3.58 3.58 0 0 0 3.58 3.58h50.54a3.58 3.58 0 0 0 3.58-3.58V3.58A3.58 3.58 0 0 0 54.12 0zm1.79 54.13a1.79 1.79 0 0 1-1.79 1.79H3.58a1.79 1.79 0 0 1-1.79-1.79v-2.28h54.12zm0-3.78H1.79V11h54.12zm0-40.85H1.79V3.58a1.79 1.79 0 0 1 1.79-1.79h50.54a1.79 1.79 0 0 1 1.79 1.79zM42.46 4.35a1.44 1.44 0 1 0 1.44 1.44 1.44 1.44 0 0 0-1.44-1.44zm9.46 0a1.44 1.44 0 1 0 1.43 1.42 1.44 1.44 0 0 0-1.44-1.42zm-4.73 0a1.44 1.44 0 1 0 1.44 1.44 1.44 1.44 0 0 0-1.44-1.44z"/></svg>