<?xml version="1.0" encoding="utf-8"?>
<!-- Generator: Adobe Illustrator 17.1.0, SVG Export Plug-In . SVG Version: 6.00 Build 0)  -->
<!DOCTYPE svg PUBLIC "-//W3C//DTD SVG 1.1//EN" "http://www.w3.org/Graphics/SVG/1.1/DTD/svg11.dtd">
<svg version="1.1" id="Layer_1" xmlns="http://www.w3.org/2000/svg" xmlns:xlink="http://www.w3.org/1999/xlink" x="0px" y="0px"
	 viewBox="0 0 612 792" enable-background="new 0 0 612 792" xml:space="preserve">
<g>
	<g>
		<path fill="#FFFFFF" d="M287.73,420.33h-8.891c-1.228,0-2.352-0.193-3.34-0.573c-1.002-0.386-1.874-0.944-2.592-1.662
			c-0.722-0.721-1.275-1.608-1.646-2.637c-0.359-0.997-0.542-2.121-0.542-3.343v-7.916c0-0.89-0.109-1.639-0.325-2.226
			c-0.2-0.542-0.482-0.98-0.841-1.303c-0.37-0.334-0.812-0.569-1.351-0.721c-0.599-0.17-1.281-0.263-2.03-0.277l-0.98-0.02v-6.649
			l0.962-0.037c0.767-0.029,1.46-0.133,2.06-0.31c0.541-0.159,0.98-0.398,1.345-0.731c0.354-0.324,0.634-0.764,0.835-1.309
			c0.215-0.586,0.325-1.335,0.325-2.225v-7.915c0-2.618,0.739-4.666,2.197-6.086c1.45-1.413,3.442-2.13,5.922-2.13h8.891v6.585
			h-5.537c-1.148,0-1.929,0.284-2.385,0.87c-0.508,0.653-0.766,1.721-0.766,3.174v7.264c0,0.941-0.157,1.822-0.466,2.619
			c-0.305,0.788-0.727,1.493-1.254,2.094c-0.488,0.558-1.064,1.036-1.713,1.422c0.661,0.39,1.247,0.879,1.743,1.453
			c0.525,0.61,0.941,1.31,1.237,2.08c0.301,0.78,0.453,1.652,0.453,2.592v7.264c0,1.468,0.257,2.538,0.764,3.183
			c0.456,0.579,1.237,0.861,2.387,0.861h5.537V420.33z M267.194,397.733c0.55,0.058,1.069,0.155,1.553,0.292
			c0.828,0.232,1.551,0.623,2.147,1.159c0.603,0.543,1.066,1.249,1.379,2.099c0.297,0.809,0.448,1.79,0.448,2.916v7.916
			c0,0.989,0.143,1.886,0.423,2.665c0.27,0.749,0.666,1.389,1.178,1.9c0.518,0.518,1.156,0.925,1.895,1.209
			c0.759,0.292,1.641,0.441,2.622,0.441h6.891v-2.608h-3.537c-1.779,0-3.111-0.547-3.959-1.625c-0.802-1.02-1.191-2.465-1.191-4.419
			v-7.264c0-0.692-0.108-1.323-0.319-1.873c-0.214-0.556-0.513-1.059-0.887-1.493c-0.372-0.433-0.819-0.798-1.327-1.085
			c-0.525-0.297-1.094-0.519-1.689-0.656l-0.774-0.18v-1.603l0.79-0.266c0.574-0.124,1.129-0.335,1.648-0.629
			c0.51-0.289,0.959-0.652,1.333-1.08c0.372-0.425,0.673-0.93,0.893-1.501c0.22-0.565,0.331-1.203,0.331-1.895v-7.264
			c0-1.936,0.389-3.376,1.188-4.403c0.848-1.089,2.182-1.641,3.962-1.641h3.537v-2.585h-6.891c-1.968,0-3.448,0.511-4.526,1.562
			c-1.072,1.044-1.593,2.566-1.593,4.653v7.915c0,1.127-0.15,2.108-0.448,2.915c-0.312,0.848-0.77,1.553-1.362,2.094
			c-0.585,0.537-1.303,0.932-2.13,1.175c-0.489,0.144-1.021,0.25-1.587,0.316V397.733z"/>
	</g>
	<g>
		<path fill="#FFFFFF" d="M310.149,421.055h-8.323v-48.793h8.323V421.055z M303.827,419.055h4.323v-44.793h-4.323V419.055z"/>
	</g>
	<g>
		<path fill="#FFFFFF" d="M333.162,420.33h-8.892v-6.608h5.537c1.15,0,1.931-0.282,2.387-0.861c0.507-0.644,0.764-1.715,0.764-3.183
			v-7.264c0-0.94,0.152-1.812,0.454-2.593c0.296-0.77,0.713-1.471,1.236-2.079c0.496-0.575,1.082-1.063,1.742-1.453
			c-0.648-0.386-1.225-0.864-1.713-1.422c-0.524-0.598-0.946-1.303-1.254-2.094c-0.309-0.796-0.466-1.677-0.466-2.618v-7.264
			c0-1.454-0.258-2.522-0.767-3.174c-0.456-0.585-1.235-0.87-2.384-0.87h-5.537v-6.585h8.892c2.479,0,4.472,0.717,5.923,2.13
			c1.457,1.42,2.196,3.468,2.196,6.086v7.915c0,0.893,0.109,1.641,0.324,2.225c0.2,0.546,0.48,0.986,0.834,1.309
			c0.365,0.334,0.805,0.573,1.345,0.731c0.601,0.177,1.294,0.281,2.062,0.31l0.962,0.037v6.649l-0.98,0.02
			c-0.749,0.015-1.432,0.107-2.028,0.276c-0.54,0.152-0.982,0.388-1.353,0.722c-0.364,0.327-0.639,0.753-0.841,1.303
			c-0.215,0.585-0.324,1.333-0.324,2.226v7.916c0,1.221-0.183,2.346-0.543,3.344c-0.369,1.026-0.923,1.914-1.645,2.636
			c-0.719,0.718-1.591,1.276-2.592,1.662C335.513,420.137,334.39,420.33,333.162,420.33z M326.27,418.33h6.892
			c0.98,0,1.862-0.148,2.621-0.441c0.739-0.284,1.378-0.691,1.896-1.21c0.512-0.511,0.908-1.15,1.177-1.898
			c0.282-0.781,0.425-1.678,0.425-2.666v-7.916c0-1.129,0.15-2.109,0.447-2.916c0.312-0.851,0.777-1.557,1.38-2.1
			c0.595-0.535,1.317-0.926,2.147-1.159c0.481-0.136,1.001-0.233,1.552-0.291v-2.84c-0.566-0.066-1.098-0.172-1.588-0.317
			c-0.826-0.242-1.544-0.638-2.131-1.175c-0.591-0.541-1.049-1.246-1.36-2.094c-0.297-0.805-0.447-1.786-0.447-2.915v-7.915
			c0-2.058-0.536-3.623-1.593-4.653c-1.079-1.051-2.56-1.562-4.526-1.562h-6.892v2.585h3.537c1.78,0,3.113,0.552,3.962,1.64
			c0.8,1.026,1.189,2.467,1.189,4.404v7.264c0,0.692,0.111,1.33,0.33,1.894c0.223,0.573,0.523,1.078,0.895,1.501
			c0.375,0.429,0.822,0.792,1.332,1.08c0.52,0.294,1.074,0.506,1.648,0.629l0.79,0.169v1.603l-0.773,0.276
			c-0.595,0.138-1.163,0.359-1.688,0.656c-0.509,0.287-0.955,0.651-1.328,1.085c-0.374,0.434-0.672,0.935-0.886,1.493
			c-0.213,0.55-0.32,1.18-0.32,1.873v7.264c0,1.954-0.39,3.4-1.191,4.419c-0.849,1.078-2.181,1.625-3.959,1.625h-3.537V418.33z"/>
	</g>
</g>
</svg>
