<svg id="a3de9765-418a-4a08-99d7-140032520353" data-name="Icon" xmlns="http://www.w3.org/2000/svg" viewBox="0 0 36 36">
  <defs>
    <style>
      .ba0a5b97-81f5-4b35-9221-a63bfb761800 {
        fill: #fff;
      }
    </style>
  </defs>
  <path class="ba0a5b97-81f5-4b35-9221-a63bfb761800" d="M18,7.35C10.35,7.35,4.35,10.71,4.35,15v6c0,4.29,6,7.65,13.65,7.65S31.65,25.29,31.65,21V15C31.65,10.71,25.65,7.35,18,7.35Zm0,1.3c6.7,0,12.35,2.91,12.35,6.35S24.7,21.35,18,21.35,5.65,18.44,5.65,15,11.3,8.65,18,8.65Zm0,18.7c-6.7,0-12.35-2.91-12.35-6.35V18.29c2.16,2.6,6.81,4.36,12.35,4.36s10.19-1.76,12.35-4.36V21C30.35,24.44,24.7,27.35,18,27.35Z"/>
</svg>
