<svg id="ee912013-337a-4e42-afd8-4684598a8603" data-name="Icon" xmlns="http://www.w3.org/2000/svg" viewBox="0 0 36 36">
  <defs>
    <style>
      .aacbab88-00c3-4198-9f74-7ed23935a773 {
        fill: #fff;
      }
    </style>
  </defs>
  <g>
    <path class="aacbab88-00c3-4198-9f74-7ed23935a773" d="M19.59,13.11l0,0a2.61,2.61,0,1,0-3.18,0L9.94,30.79a.62.62,0,1,0,1.17.42L12.28,28,18,23.72,23.66,28l1.18,3.24A.63.63,0,1,0,26,30.79ZM18,9.62a1.38,1.38,0,0,1,0,2.75A1.38,1.38,0,0,1,18,9.62Zm0,4a3,3,0,0,0,.43,0l2.36,6.49L18,22.16,15.18,20l2.35-6.46A2.42,2.42,0,0,0,18,13.62ZM13.06,25.87l1.67-4.6L17,22.94Zm6-2.93,2.2-1.65,1.64,4.53Z"/>
    <path class="aacbab88-00c3-4198-9f74-7ed23935a773" d="M13.32,15.68a.62.62,0,0,0,.88-.88,5.39,5.39,0,0,1,0-7.6c.58-.57-.32-1.47-.88-.88A6.65,6.65,0,0,0,13.32,15.68Z"/>
    <path class="aacbab88-00c3-4198-9f74-7ed23935a773" d="M21.8,15.68a.61.61,0,0,0,.88,0,6.65,6.65,0,0,0,0-9.36c-.56-.59-1.46.31-.88.88a5.39,5.39,0,0,1,0,7.6A.63.63,0,0,0,21.8,15.68Z"/>
    <path class="aacbab88-00c3-4198-9f74-7ed23935a773" d="M11.64,18a.62.62,0,0,0,.44-.18.64.64,0,0,0,0-.89,8.37,8.37,0,0,1,0-11.84.63.63,0,1,0-.89-.89,9.65,9.65,0,0,0,0,13.62A.66.66,0,0,0,11.64,18Z"/>
    <path class="aacbab88-00c3-4198-9f74-7ed23935a773" d="M23.92,16.92a.63.63,0,0,0,.89.89,9.65,9.65,0,0,0,0-13.62.63.63,0,0,0-.89.89A8.37,8.37,0,0,1,23.92,16.92Z"/>
  </g>
</svg>
