<svg id="bd16e87c-e82b-4863-b67a-664dbf1461b1" data-name="Icon" xmlns="http://www.w3.org/2000/svg" viewBox="0 0 36 36">
  <defs>
    <style>
      .ac094b2b-1a04-4ba7-b383-a79d57c4f53f {
        fill: #fff;
      }
    </style>
  </defs>
  <g>
    <path class="ac094b2b-1a04-4ba7-b383-a79d57c4f53f" d="M10,21.37a.63.63,0,0,0-.62.64.63.63,0,0,0,1.25,0A.64.64,0,0,0,10,21.37Z"/>
    <path class="ac094b2b-1a04-4ba7-b383-a79d57c4f53f" d="M8,21.37a.63.63,0,0,0-.62.64.63.63,0,0,0,1.25,0A.64.64,0,0,0,8,21.37Z"/>
    <g>
      <path class="ac094b2b-1a04-4ba7-b383-a79d57c4f53f" d="M22,18.38H5a.62.62,0,0,0-.62.62V31a.62.62,0,0,0,.62.62H22a.62.62,0,0,0,.62-.62V19A.62.62,0,0,0,22,18.38Zm-.62,12H5.62V19.62H21.38Z"/>
      <path class="ac094b2b-1a04-4ba7-b383-a79d57c4f53f" d="M14,22.62h5a.62.62,0,0,0,0-1.24H14a.62.62,0,1,0,0,1.24Z"/>
      <path class="ac094b2b-1a04-4ba7-b383-a79d57c4f53f" d="M19,9.62h6A.62.62,0,0,0,25.62,9V5A.62.62,0,0,0,25,4.38H19a.62.62,0,0,0-.62.62V9A.62.62,0,0,0,19,9.62Zm.62-4h4.76V8.38H19.62Z"/>
      <path class="ac094b2b-1a04-4ba7-b383-a79d57c4f53f" d="M31,14.38H25a.62.62,0,0,0-.62.62v4a.62.62,0,0,0,.62.62h6a.62.62,0,0,0,.62-.62V15A.62.62,0,0,0,31,14.38Zm-.62,4H25.62V15.62h4.76Z"/>
      <path class="ac094b2b-1a04-4ba7-b383-a79d57c4f53f" d="M6,14.62h6a.62.62,0,0,0,.62-.62V10A.62.62,0,0,0,12,9.38H6a.62.62,0,0,0-.62.62v4A.62.62,0,0,0,6,14.62Zm.62-4h4.76v2.76H6.62Z"/>
      <path class="ac094b2b-1a04-4ba7-b383-a79d57c4f53f" d="M27.42,20.43a.61.61,0,0,0-.82.32,9.41,9.41,0,0,1-3,3.75.63.63,0,0,0-.12.88.62.62,0,0,0,.5.24.68.68,0,0,0,.38-.12,10.67,10.67,0,0,0,3.36-4.25A.62.62,0,0,0,27.42,20.43Z"/>
      <path class="ac094b2b-1a04-4ba7-b383-a79d57c4f53f" d="M25.5,11.38a9.47,9.47,0,0,1,1.1,1.87.61.61,0,0,0,.57.37.56.56,0,0,0,.25,0,.62.62,0,0,0,.32-.82,11.07,11.07,0,0,0-1.24-2.13.63.63,0,0,0-1,.76Z"/>
      <path class="ac094b2b-1a04-4ba7-b383-a79d57c4f53f" d="M13,9a.58.58,0,0,0,.31-.08,9.23,9.23,0,0,1,.83-.42l.23-.1c.22-.09.44-.18.67-.25a10.17,10.17,0,0,1,1.08-.3c.31-.06.62-.11.94-.14a.62.62,0,1,0-.12-1.24,9,9,0,0,0-1.06.16,9.34,9.34,0,0,0-1,.27h0l-.17.07a7.61,7.61,0,0,0-.75.28l-.27.11c-.31.14-.61.29-.91.46l0,0a.61.61,0,0,0-.31.62A.63.63,0,0,0,13,9Z"/>
      <path class="ac094b2b-1a04-4ba7-b383-a79d57c4f53f" d="M7.43,15.94a9.29,9.29,0,0,0,0,1.06.62.62,0,0,0,1.24,0c0-.32,0-.63.05-.94a.62.62,0,1,0-1.24-.12Z"/>
    </g>
  </g>
</svg>
