<svg id="a7eb8e17-1d53-483a-b752-b18348c4a8ae" data-name="Icon" xmlns="http://www.w3.org/2000/svg" viewBox="0 0 36 36">
  <defs>
    <style>
      .bc71e12e-2fe4-47de-ae2a-4fe41cb72ae0 {
        fill: #fff;
      }
    </style>
  </defs>
  <g>
    <path class="bc71e12e-2fe4-47de-ae2a-4fe41cb72ae0" d="M19.44,13.56c-.56-.58-1.46.32-.88.88l3,3a.62.62,0,0,0,.88-.88Z"/>
    <path class="bc71e12e-2fe4-47de-ae2a-4fe41cb72ae0" d="M31.61,10.05a.69.69,0,0,0-.17-.49l-2-2a.61.61,0,0,0-.88,0L23,13.12,18.14,8.25,21.92,5.8l1.7,1.7L21.56,9.56a.62.62,0,0,0,.88.88l2.5-2.5a.61.61,0,0,0,0-.88l-2.5-2.5a.66.66,0,0,0-.73-.11c-.05,0-4.85,3.16-4.9,3.17a.66.66,0,0,0-.18.87s.69.72.75.77a6.61,6.61,0,0,0-1.58,7.06L5.06,27.06a2.74,2.74,0,0,0,3.88,3.88L19.68,20.2a6.29,6.29,0,0,0,5.89-.69l5.95-9.17A.75.75,0,0,0,31.61,10.05ZM19.79,18.9a.67.67,0,0,0-.7.13l-11,11a1.5,1.5,0,0,1-2.12-2.12l11-11a.65.65,0,0,0,.17-.34.74.74,0,0,0,0-.36,5.39,5.39,0,0,1,1.16-6.07l4.3,4.3a.61.61,0,0,0,.88,0L29,8.88l1.2,1.2-5.59,8.61A5.42,5.42,0,0,1,19.79,18.9Z"/>
    <path class="bc71e12e-2fe4-47de-ae2a-4fe41cb72ae0" d="M7,28.38a.63.63,0,1,0,.62.63A.63.63,0,0,0,7,28.38Z"/>
  </g>
</svg>
