<?xml version="1.0" encoding="utf-8"?>
<!-- Generator: Adobe Illustrator 16.0.4, SVG Export Plug-In . SVG Version: 6.00 Build 0)  -->
<!DOCTYPE svg PUBLIC "-//W3C//DTD SVG 1.1 Tiny//EN" "http://www.w3.org/Graphics/SVG/1.1/DTD/svg11-tiny.dtd">
<svg version="1.1" baseProfile="tiny" id="logo" xmlns="http://www.w3.org/2000/svg" xmlns:xlink="http://www.w3.org/1999/xlink"
	 x="0px" y="0px" width="500px" height="168px" viewBox="0 0 500 168" xml:space="preserve">
<g>
	<path d="M45.18,52.8l-2.743-5.664H40.56V52.8H36V36h7.512c0.976,0,1.868,0.1,2.676,0.3c0.808,0.2,1.5,0.516,2.076,0.948
		c0.576,0.432,1.02,0.996,1.332,1.692c0.312,0.696,0.468,1.54,0.468,2.532c0,1.264-0.273,2.296-0.818,3.096
		c-0.545,0.8-1.283,1.408-2.213,1.824L50.4,52.8H45.18z M44.961,40.296c-0.313-0.336-0.84-0.504-1.58-0.504H40.56v3.672h2.75
		c0.771,0,1.318-0.16,1.64-0.48c0.322-0.32,0.483-0.784,0.483-1.392C45.432,41.064,45.275,40.632,44.961,40.296z"/>
	<path d="M53.904,52.8V36h12.864v3.912h-8.256v2.256h4.968v3.84h-4.968v2.88h8.424V52.8H53.904z"/>
	<path d="M84.575,48.3c-0.384,1.08-0.96,1.952-1.728,2.616s-1.716,1.144-2.844,1.44S77.567,52.8,76.079,52.8h-5.448V36h5.88
		c1.312,0,2.504,0.136,3.576,0.408c1.072,0.272,1.98,0.732,2.724,1.38c0.744,0.648,1.32,1.5,1.728,2.556
		c0.408,1.056,0.612,2.376,0.612,3.96S84.959,47.22,84.575,48.3z M80.171,42.384c-0.136-0.56-0.356-1.016-0.66-1.368
		c-0.304-0.352-0.704-0.612-1.2-0.78s-1.104-0.252-1.824-0.252h-1.152v8.832h1.008c0.72,0,1.336-0.076,1.848-0.228
		c0.512-0.152,0.932-0.4,1.26-0.744c0.328-0.344,0.564-0.8,0.708-1.368c0.144-0.567,0.216-1.268,0.216-2.1
		C80.375,43.608,80.307,42.944,80.171,42.384z"/>
	<path d="M107.303,52.8v-6.624h-5.232V52.8h-4.752V36h4.752v6.12h5.232V36h4.752v16.8H107.303z"/>
	<path d="M127.03,52.8l-0.912-2.952h-5.04l-0.911,2.952h-4.992l6.096-16.8h4.704l6.096,16.8H127.03z M124.679,45.048
		c-0.145-0.544-0.272-1.016-0.384-1.416c-0.112-0.4-0.213-0.76-0.301-1.08c-0.088-0.32-0.164-0.612-0.228-0.876
		c-0.064-0.264-0.12-0.54-0.168-0.828c-0.048,0.288-0.104,0.568-0.168,0.84c-0.064,0.272-0.141,0.568-0.229,0.888
		c-0.088,0.32-0.188,0.68-0.3,1.08c-0.112,0.4-0.24,0.864-0.384,1.392l-0.312,1.104h2.784L124.679,45.048z"/>
	<path d="M141.575,40.056V52.8h-4.656V40.056h-4.704V36h14.064v4.056H141.575z"/>
	<path d="M152.516,38.908c-0.109,0.264-0.262,0.493-0.456,0.687c-0.193,0.194-0.423,0.346-0.687,0.456
		c-0.265,0.11-0.55,0.165-0.858,0.165c-0.308,0-0.594-0.055-0.857-0.165c-0.265-0.11-0.493-0.262-0.688-0.456
		c-0.194-0.194-0.346-0.423-0.456-0.687c-0.11-0.264-0.165-0.55-0.165-0.858s0.055-0.594,0.165-0.858s0.262-0.493,0.456-0.687
		s0.423-0.346,0.688-0.456c0.264-0.11,0.55-0.165,0.857-0.165c0.309,0,0.594,0.055,0.858,0.165c0.264,0.11,0.493,0.262,0.687,0.456
		c0.194,0.194,0.347,0.423,0.456,0.687c0.11,0.264,0.165,0.55,0.165,0.858S152.626,38.645,152.516,38.908z M152.195,37.333
		c-0.093-0.222-0.221-0.415-0.385-0.579s-0.356-0.292-0.579-0.384c-0.222-0.092-0.461-0.138-0.717-0.138
		c-0.26,0-0.5,0.046-0.72,0.138c-0.22,0.092-0.412,0.22-0.576,0.384s-0.292,0.357-0.384,0.579c-0.092,0.222-0.138,0.461-0.138,0.717
		c0,0.26,0.046,0.5,0.138,0.72c0.092,0.22,0.22,0.412,0.384,0.576c0.164,0.164,0.356,0.292,0.576,0.384
		c0.22,0.092,0.46,0.138,0.72,0.138c0.256,0,0.495-0.046,0.717-0.138c0.223-0.092,0.415-0.22,0.579-0.384
		c0.164-0.164,0.292-0.356,0.385-0.576c0.092-0.22,0.138-0.46,0.138-0.72C152.333,37.794,152.287,37.555,152.195,37.333z
		 M151.361,37.997c-0.092,0.116-0.214,0.196-0.366,0.24l0.486,0.954h-0.473l-0.46-0.912h-0.454v0.912h-0.402v-2.364h1.035
		c0.104,0,0.202,0.014,0.296,0.042c0.094,0.028,0.176,0.071,0.245,0.129s0.126,0.132,0.167,0.222
		c0.042,0.09,0.063,0.197,0.063,0.321C151.499,37.729,151.453,37.88,151.361,37.997z M150.989,37.3
		c-0.072-0.056-0.162-0.084-0.271-0.084h-0.624v0.672h0.624c0.108,0,0.198-0.027,0.271-0.081c0.071-0.054,0.107-0.139,0.107-0.255
		C151.097,37.44,151.061,37.356,150.989,37.3z"/>
	<path d="M172.499,48.924c-0.288,0.872-0.725,1.616-1.308,2.232c-0.585,0.616-1.32,1.088-2.208,1.416
		c-0.889,0.328-1.925,0.492-3.108,0.492c-1.12,0-2.088-0.136-2.904-0.408c-0.815-0.272-1.516-0.66-2.1-1.164
		s-1.064-1.116-1.44-1.836c-0.376-0.72-0.668-1.52-0.876-2.4l4.561-1.2c0.288,0.96,0.632,1.684,1.031,2.172
		c0.4,0.488,1,0.732,1.801,0.732c0.752,0,1.312-0.236,1.68-0.708c0.368-0.472,0.552-1.116,0.552-1.932V36h4.752v9.96
		C172.931,47.064,172.787,48.052,172.499,48.924z"/>
	<path d="M189.802,51.387c-1.04,0.942-2.624,1.414-4.752,1.414h-8.063V36h8.112c2.079,0,3.579,0.376,4.5,1.13
		c0.92,0.754,1.38,1.836,1.38,3.247c0,0.914-0.196,1.611-0.588,2.092c-0.393,0.48-0.868,0.881-1.429,1.202
		c0.769,0.319,1.36,0.779,1.776,1.377c0.416,0.6,0.624,1.378,0.624,2.336C191.362,49.11,190.842,50.444,189.802,51.387z
		 M186.106,40.06c-0.208-0.258-0.593-0.388-1.152-0.388h-3.504v2.664h3.504c0.544,0,0.924-0.121,1.14-0.363
		c0.217-0.242,0.324-0.565,0.324-0.969C186.418,40.633,186.314,40.318,186.106,40.06z M186.395,46.296
		c-0.272-0.288-0.688-0.432-1.248-0.432h-3.696v3.264h3.672c0.576,0,1-0.156,1.272-0.468c0.271-0.312,0.407-0.708,0.407-1.188
		C186.802,46.977,186.666,46.584,186.395,46.296z"/>
	<path d="M209.026,48.084c-0.385,1.08-0.921,1.988-1.608,2.724c-0.688,0.736-1.512,1.296-2.472,1.68s-2.009,0.576-3.145,0.576
		s-2.18-0.188-3.132-0.564c-0.952-0.376-1.772-0.928-2.46-1.656c-0.688-0.728-1.221-1.632-1.596-2.712
		c-0.376-1.08-0.564-2.316-0.564-3.708s0.192-2.628,0.576-3.708s0.92-1.988,1.608-2.724c0.688-0.736,1.512-1.296,2.472-1.68
		c0.96-0.384,2.008-0.576,3.144-0.576c1.137,0,2.181,0.188,3.133,0.564c0.951,0.376,1.768,0.928,2.447,1.656
		c0.681,0.729,1.212,1.632,1.597,2.712c0.384,1.08,0.575,2.316,0.575,3.708C209.602,45.768,209.41,47.004,209.026,48.084z
		 M203.998,40.968c-0.521-0.784-1.252-1.176-2.196-1.176s-1.668,0.384-2.172,1.152s-0.756,1.912-0.756,3.432s0.26,2.672,0.78,3.456
		c0.52,0.784,1.251,1.176,2.195,1.176s1.668-0.384,2.173-1.152c0.504-0.768,0.756-1.912,0.756-3.432S204.518,41.752,203.998,40.968z
		"/>
	<path d="M225.525,50.112c-0.344,0.688-0.824,1.248-1.439,1.68c-0.616,0.432-1.349,0.752-2.196,0.96
		c-0.849,0.208-1.776,0.312-2.784,0.312c-1.36,0-2.66-0.196-3.899-0.588c-1.24-0.392-2.301-0.876-3.181-1.452l2.256-3.648
		c0.305,0.208,0.66,0.412,1.068,0.612c0.408,0.2,0.832,0.38,1.272,0.54c0.439,0.16,0.884,0.288,1.332,0.384
		c0.447,0.096,0.863,0.144,1.248,0.144c0.831,0,1.403-0.08,1.716-0.24c0.312-0.16,0.468-0.44,0.468-0.84
		c0-0.16-0.044-0.304-0.132-0.432s-0.24-0.252-0.456-0.372s-0.508-0.24-0.876-0.36c-0.368-0.12-0.832-0.244-1.393-0.372
		c-1.008-0.24-1.888-0.496-2.64-0.768s-1.376-0.612-1.872-1.02c-0.496-0.408-0.868-0.9-1.116-1.476s-0.372-1.288-0.372-2.136
		c0-0.784,0.156-1.504,0.469-2.16c0.312-0.656,0.756-1.216,1.332-1.68c0.575-0.464,1.271-0.824,2.088-1.08
		c0.815-0.255,1.728-0.384,2.735-0.384c1.44,0,2.692,0.168,3.757,0.504c1.063,0.336,2.043,0.816,2.939,1.44l-2.256,3.648
		c-0.752-0.512-1.504-0.904-2.256-1.176s-1.561-0.408-2.424-0.408c-0.704,0-1.169,0.096-1.393,0.288s-0.336,0.44-0.336,0.744
		c0,0.16,0.044,0.3,0.132,0.42s0.236,0.232,0.444,0.336c0.208,0.104,0.488,0.208,0.84,0.312c0.352,0.104,0.8,0.22,1.344,0.348
		c1.057,0.256,1.969,0.536,2.736,0.84c0.769,0.304,1.4,0.664,1.896,1.08c0.495,0.416,0.863,0.912,1.104,1.488
		c0.24,0.576,0.36,1.256,0.36,2.04C226.042,48.6,225.869,49.424,225.525,50.112z"/>
	<path d="M242.182,50.112c-0.344,0.688-0.824,1.248-1.439,1.68c-0.616,0.432-1.349,0.752-2.196,0.96
		c-0.849,0.208-1.776,0.312-2.784,0.312c-1.36,0-2.66-0.196-3.899-0.588c-1.24-0.392-2.301-0.876-3.181-1.452l2.256-3.648
		c0.305,0.208,0.66,0.412,1.068,0.612c0.408,0.2,0.832,0.38,1.272,0.54c0.439,0.16,0.884,0.288,1.332,0.384
		c0.447,0.096,0.863,0.144,1.248,0.144c0.831,0,1.403-0.08,1.716-0.24c0.312-0.16,0.468-0.44,0.468-0.84
		c0-0.16-0.044-0.304-0.132-0.432s-0.24-0.252-0.456-0.372s-0.508-0.24-0.876-0.36c-0.368-0.12-0.832-0.244-1.393-0.372
		c-1.008-0.24-1.888-0.496-2.64-0.768s-1.376-0.612-1.872-1.02c-0.496-0.408-0.868-0.9-1.116-1.476s-0.372-1.288-0.372-2.136
		c0-0.784,0.156-1.504,0.469-2.16c0.312-0.656,0.756-1.216,1.332-1.68c0.575-0.464,1.271-0.824,2.088-1.08
		c0.815-0.255,1.728-0.384,2.735-0.384c1.44,0,2.692,0.168,3.757,0.504c1.063,0.336,2.043,0.816,2.939,1.44l-2.256,3.648
		c-0.752-0.512-1.504-0.904-2.256-1.176s-1.561-0.408-2.424-0.408c-0.704,0-1.169,0.096-1.393,0.288s-0.336,0.44-0.336,0.744
		c0,0.16,0.044,0.3,0.132,0.42s0.236,0.232,0.444,0.336c0.208,0.104,0.488,0.208,0.84,0.312c0.352,0.104,0.8,0.22,1.344,0.348
		c1.057,0.256,1.969,0.536,2.736,0.84c0.769,0.304,1.4,0.664,1.896,1.08c0.495,0.416,0.863,0.912,1.104,1.488
		c0.24,0.576,0.36,1.256,0.36,2.04C242.698,48.6,242.525,49.424,242.182,50.112z"/>
	<path d="M249.15,38.908c-0.109,0.264-0.262,0.493-0.456,0.687c-0.193,0.194-0.423,0.346-0.687,0.456
		c-0.265,0.11-0.55,0.165-0.858,0.165c-0.308,0-0.594-0.055-0.857-0.165c-0.265-0.11-0.493-0.262-0.688-0.456
		c-0.194-0.194-0.346-0.423-0.456-0.687c-0.11-0.264-0.165-0.55-0.165-0.858s0.055-0.594,0.165-0.858s0.262-0.493,0.456-0.687
		s0.423-0.346,0.688-0.456c0.264-0.11,0.55-0.165,0.857-0.165c0.309,0,0.594,0.055,0.858,0.165c0.264,0.11,0.493,0.262,0.687,0.456
		c0.194,0.194,0.347,0.423,0.456,0.687c0.11,0.264,0.165,0.55,0.165,0.858S249.261,38.645,249.15,38.908z M248.83,37.333
		c-0.093-0.222-0.221-0.415-0.385-0.579s-0.356-0.292-0.579-0.384c-0.222-0.092-0.461-0.138-0.717-0.138
		c-0.26,0-0.5,0.046-0.72,0.138c-0.22,0.092-0.412,0.22-0.576,0.384s-0.292,0.357-0.384,0.579c-0.092,0.222-0.138,0.461-0.138,0.717
		c0,0.26,0.046,0.5,0.138,0.72c0.092,0.22,0.22,0.412,0.384,0.576c0.164,0.164,0.356,0.292,0.576,0.384
		c0.22,0.092,0.46,0.138,0.72,0.138c0.256,0,0.495-0.046,0.717-0.138c0.223-0.092,0.415-0.22,0.579-0.384
		c0.164-0.164,0.292-0.356,0.385-0.576c0.092-0.22,0.138-0.46,0.138-0.72C248.968,37.794,248.922,37.555,248.83,37.333z
		 M247.996,37.997c-0.092,0.116-0.214,0.196-0.366,0.24l0.486,0.954h-0.473l-0.46-0.912h-0.454v0.912h-0.402v-2.364h1.035
		c0.104,0,0.202,0.014,0.296,0.042c0.094,0.028,0.176,0.071,0.245,0.129s0.126,0.132,0.167,0.222
		c0.042,0.09,0.063,0.197,0.063,0.321C248.134,37.729,248.088,37.88,247.996,37.997z M247.624,37.3
		c-0.072-0.056-0.162-0.084-0.271-0.084h-0.624v0.672h0.624c0.108,0,0.198-0.027,0.271-0.081c0.071-0.054,0.107-0.139,0.107-0.255
		C247.731,37.44,247.695,37.356,247.624,37.3z"/>
	<path d="M55.044,82.8V65.736v-2.7c-0.072,0.24-0.162,0.535-0.27,0.882c-0.108,0.348-0.233,0.708-0.377,1.08
		s-0.287,0.75-0.431,1.134c-0.144,0.384-0.288,0.744-0.431,1.08l-6.717,16.236l-6.609-16.236c-0.144-0.312-0.287-0.666-0.431-1.062
		c-0.144-0.396-0.282-0.78-0.414-1.152c-0.131-0.372-0.251-0.732-0.359-1.08c-0.108-0.348-0.197-0.642-0.27-0.882v2.7V82.8H36V57.6
		h3.137l5.95,15.084c0.144,0.384,0.306,0.805,0.486,1.26c0.18,0.456,0.354,0.912,0.522,1.368c0.168,0.456,0.325,0.882,0.469,1.278
		c0.144,0.396,0.252,0.726,0.325,0.99c0.072-0.264,0.18-0.6,0.324-1.008c0.144-0.408,0.301-0.84,0.469-1.296
		c0.168-0.456,0.343-0.912,0.523-1.368c0.18-0.456,0.343-0.864,0.487-1.224L54.715,57.6h3.065v25.2H55.044z"/>
	<path d="M64.548,82.8V57.6h2.808v25.2H64.548z"/>
	<path d="M91.889,77.327c-0.468,1.304-1.122,2.394-1.962,3.267c-0.84,0.874-1.831,1.525-2.97,1.956
		c-1.14,0.431-2.37,0.646-3.69,0.646c-1.536,0-2.934-0.33-4.194-0.99c-1.26-0.66-2.334-1.566-3.222-2.718
		c-0.888-1.152-1.572-2.52-2.052-4.104c-0.48-1.584-0.72-3.3-0.72-5.148c0-1.872,0.252-3.605,0.756-5.202
		c0.504-1.596,1.206-2.97,2.106-4.122c0.9-1.152,1.985-2.058,3.258-2.718c1.272-0.66,2.664-0.99,4.176-0.99
		c3.408,0,6.084,1.345,8.028,4.032l-2.232,1.692c-0.816-1.104-1.656-1.908-2.52-2.412c-0.864-0.504-1.98-0.756-3.348-0.756
		c-1.08,0-2.076,0.258-2.988,0.774c-0.912,0.517-1.692,1.23-2.34,2.142c-0.648,0.913-1.158,2.004-1.53,3.276
		c-0.373,1.272-0.558,2.677-0.558,4.212c0,1.537,0.192,2.947,0.576,4.23c0.383,1.284,0.905,2.388,1.566,3.312
		c0.66,0.924,1.445,1.645,2.358,2.16c0.912,0.517,1.896,0.774,2.952,0.774c2.111,0,3.726-0.635,4.842-1.908
		c1.116-1.272,1.674-3.144,1.674-5.616V72.9h-4.536v-2.556h7.272v2.441C92.591,74.509,92.357,76.023,91.889,77.327z"/>
	<path d="M114.083,69.478c-1.08,1.2-2.52,1.992-4.319,2.375l5.544,10.947h-3.24l-5.4-10.728h-5.976V82.8h-2.808V57.6h9.972
		c1.104,0,2.136,0.144,3.096,0.432s1.788,0.726,2.484,1.314c0.695,0.588,1.247,1.326,1.655,2.213s0.612,1.943,0.612,3.167
		C115.703,66.694,115.163,68.278,114.083,69.478z M111.581,61.322c-0.876-0.777-2.154-1.166-3.834-1.166h-7.056v9.36h6.696
		c1.872,0,3.258-0.388,4.157-1.166c0.9-0.776,1.351-1.954,1.351-3.532C112.896,63.265,112.457,62.099,111.581,61.322z"/>
	<path d="M137.087,82.8l-2.16-6.408h-10.403l-2.196,6.408h-2.88l8.748-25.2h3.096l8.748,25.2H137.087z M131.291,65.556
		c-0.144-0.408-0.294-0.852-0.45-1.332c-0.156-0.479-0.306-0.941-0.45-1.386c-0.144-0.444-0.27-0.864-0.378-1.26
		c-0.107-0.396-0.197-0.726-0.27-0.99c-0.072,0.264-0.162,0.588-0.271,0.972c-0.107,0.384-0.233,0.805-0.378,1.26
		c-0.144,0.456-0.3,0.93-0.468,1.422c-0.168,0.492-0.324,0.954-0.468,1.386l-2.772,8.208h8.677L131.291,65.556z"/>
	<path d="M151.199,60.156V82.8h-2.809V60.156h-7.416V57.6h17.641v2.556H151.199z"/>
	<path d="M163.871,82.8V57.6h2.808v25.2H163.871z"/>
	<path d="M192.562,75.402c-0.504,1.596-1.218,2.97-2.142,4.122c-0.924,1.152-2.034,2.052-3.33,2.7s-2.724,0.972-4.284,0.972
		s-2.982-0.318-4.266-0.954c-1.284-0.636-2.382-1.53-3.294-2.682c-0.912-1.152-1.614-2.52-2.106-4.104
		c-0.492-1.584-0.737-3.324-0.737-5.22c0-1.896,0.252-3.642,0.756-5.238s1.211-2.97,2.124-4.122c0.911-1.152,2.016-2.052,3.312-2.7
		s2.724-0.972,4.284-0.972c1.56,0,2.981,0.318,4.266,0.954c1.284,0.636,2.382,1.53,3.294,2.682s1.62,2.52,2.124,4.104
		c0.505,1.584,0.757,3.324,0.757,5.22C193.319,72.061,193.067,73.807,192.562,75.402z M189.917,65.934
		c-0.396-1.283-0.942-2.388-1.638-3.312c-0.696-0.923-1.513-1.631-2.448-2.124c-0.937-0.492-1.956-0.738-3.061-0.738
		c-1.08,0-2.082,0.247-3.006,0.738c-0.924,0.492-1.722,1.188-2.394,2.088c-0.673,0.9-1.2,1.992-1.584,3.276
		c-0.385,1.284-0.576,2.718-0.576,4.302c0,1.584,0.198,3.019,0.594,4.302c0.396,1.284,0.937,2.388,1.62,3.312
		c0.685,0.924,1.494,1.632,2.43,2.124c0.937,0.492,1.956,0.738,3.061,0.738c1.08,0,2.088-0.246,3.023-0.738
		c0.937-0.492,1.74-1.188,2.412-2.088c0.672-0.9,1.2-1.992,1.584-3.276c0.384-1.283,0.576-2.718,0.576-4.302
		S190.312,67.218,189.917,65.934z"/>
	<path d="M214.379,82.8l-10.985-17.244c-0.144-0.216-0.299-0.474-0.467-0.774c-0.168-0.3-0.335-0.6-0.502-0.9
		c-0.168-0.3-0.33-0.582-0.485-0.846c-0.155-0.264-0.27-0.479-0.341-0.648v1.728V82.8h-2.736V57.6h2.736l10.908,17.568
		c0.144,0.216,0.3,0.474,0.468,0.774c0.168,0.3,0.336,0.6,0.504,0.9c0.168,0.3,0.33,0.582,0.486,0.846
		c0.155,0.264,0.27,0.48,0.342,0.648v-1.728V57.6h2.736v25.2H214.379z"/>
	<path d="M241.666,60.156V82.8h-2.809V60.156h-7.416V57.6h17.641v2.556H241.666z"/>
	<path d="M272.229,75.402c-0.504,1.596-1.218,2.97-2.142,4.122c-0.924,1.152-2.034,2.052-3.33,2.7s-2.724,0.972-4.284,0.972
		s-2.982-0.318-4.266-0.954c-1.284-0.636-2.382-1.53-3.294-2.682c-0.912-1.152-1.614-2.52-2.106-4.104
		c-0.492-1.584-0.737-3.324-0.737-5.22c0-1.896,0.252-3.642,0.756-5.238s1.211-2.97,2.124-4.122c0.911-1.152,2.016-2.052,3.312-2.7
		s2.724-0.972,4.284-0.972c1.56,0,2.981,0.318,4.266,0.954c1.284,0.636,2.382,1.53,3.294,2.682s1.62,2.52,2.124,4.104
		c0.505,1.584,0.757,3.324,0.757,5.22C272.986,72.061,272.734,73.807,272.229,75.402z M269.584,65.934
		c-0.396-1.283-0.942-2.388-1.638-3.312c-0.696-0.923-1.513-1.631-2.448-2.124c-0.937-0.492-1.956-0.738-3.061-0.738
		c-1.08,0-2.082,0.247-3.006,0.738c-0.924,0.492-1.722,1.188-2.394,2.088c-0.673,0.9-1.2,1.992-1.584,3.276
		c-0.385,1.284-0.576,2.718-0.576,4.302c0,1.584,0.198,3.019,0.594,4.302c0.396,1.284,0.937,2.388,1.62,3.312
		c0.685,0.924,1.494,1.632,2.43,2.124c0.937,0.492,1.956,0.738,3.061,0.738c1.08,0,2.088-0.246,3.023-0.738
		c0.937-0.492,1.74-1.188,2.412-2.088c0.672-0.9,1.2-1.992,1.584-3.276c0.384-1.283,0.576-2.718,0.576-4.302
		S269.979,67.218,269.584,65.934z"/>
	<path d="M297.608,75.402c-0.504,1.596-1.218,2.97-2.142,4.122c-0.924,1.152-2.034,2.052-3.33,2.7s-2.724,0.972-4.284,0.972
		s-2.982-0.318-4.266-0.954c-1.284-0.636-2.382-1.53-3.294-2.682c-0.912-1.152-1.614-2.52-2.106-4.104
		c-0.492-1.584-0.737-3.324-0.737-5.22c0-1.896,0.252-3.642,0.756-5.238s1.211-2.97,2.124-4.122c0.911-1.152,2.016-2.052,3.312-2.7
		s2.724-0.972,4.284-0.972c1.56,0,2.981,0.318,4.266,0.954c1.284,0.636,2.382,1.53,3.294,2.682s1.62,2.52,2.124,4.104
		c0.505,1.584,0.757,3.324,0.757,5.22C298.365,72.061,298.113,73.807,297.608,75.402z M294.963,65.934
		c-0.396-1.283-0.942-2.388-1.638-3.312c-0.696-0.923-1.513-1.631-2.448-2.124c-0.937-0.492-1.956-0.738-3.061-0.738
		c-1.08,0-2.082,0.247-3.006,0.738c-0.924,0.492-1.722,1.188-2.394,2.088c-0.673,0.9-1.2,1.992-1.584,3.276
		c-0.385,1.284-0.576,2.718-0.576,4.302c0,1.584,0.198,3.019,0.594,4.302c0.396,1.284,0.937,2.388,1.62,3.312
		c0.685,0.924,1.494,1.632,2.43,2.124c0.937,0.492,1.956,0.738,3.061,0.738c1.08,0,2.088-0.246,3.023-0.738
		c0.937-0.492,1.74-1.188,2.412-2.088c0.672-0.9,1.2-1.992,1.584-3.276c0.384-1.283,0.576-2.718,0.576-4.302
		S295.358,67.218,294.963,65.934z"/>
	<path d="M303.908,82.8V57.6h2.809v22.644h12.456V82.8H303.908z"/>
	<path d="M339.657,82.8l-7.452-13.428l-4.788,6.192V82.8h-2.809V57.6h2.809v10.98v3.384c0.168-0.24,0.401-0.57,0.702-0.99
		c0.3-0.419,0.63-0.87,0.989-1.35c0.36-0.48,0.714-0.948,1.062-1.404c0.348-0.456,0.653-0.852,0.918-1.188l7.308-9.432h3.061
		l-7.38,9.468l8.784,15.732H339.657z"/>
	<path d="M347.9,82.8V57.6h2.808v25.2H347.9z"/>
	<path d="M366.188,60.156V82.8h-2.809V60.156h-7.416V57.6h17.641v2.556H366.188z"/>
</g>
</svg>
