<?xml version="1.0" encoding="utf-8"?>
<!-- Generator: Adobe Illustrator 16.0.0, SVG Export Plug-In . SVG Version: 6.00 Build 0)  -->
<!DOCTYPE svg PUBLIC "-//W3C//DTD SVG 1.1//EN" "http://www.w3.org/Graphics/SVG/1.1/DTD/svg11.dtd">
<svg version="1.1" id="Layer_1" xmlns="http://www.w3.org/2000/svg" xmlns:xlink="http://www.w3.org/1999/xlink" x="0px" y="0px"
	 width="16px" height="16px" viewBox="0 0 16 16" enable-background="new 0 0 16 16" xml:space="preserve">
<g>
	<g>
		
			<radialGradient id="SVGID_1_" cx="-17.5073" cy="1420.8965" r="53.5476" gradientTransform="matrix(2.3908 0 0 0.3615 -151.2579 -532.0146)" gradientUnits="userSpaceOnUse">
			<stop  offset="0" style="stop-color:#4A5D75"/>
			<stop  offset="0.1143" style="stop-color:#50637A;stop-opacity:0.8857"/>
			<stop  offset="0.2708" style="stop-color:#627287;stop-opacity:0.7292"/>
			<stop  offset="0.4518" style="stop-color:#7F8C9D;stop-opacity:0.5482"/>
			<stop  offset="0.6511" style="stop-color:#A7B0BC;stop-opacity:0.3489"/>
			<stop  offset="0.8629" style="stop-color:#DADEE3;stop-opacity:0.1371"/>
			<stop  offset="1" style="stop-color:#FFFFFF;stop-opacity:0"/>
		</radialGradient>
		<path opacity="0.41" fill="url(#SVGID_1_)" d="M-65.112-18.348C-65.112-7.68-122.431,1-193.112,1c-70.696,0-128-8.68-128-19.348
			c0-10.696,57.304-19.374,128-19.374C-122.431-37.722-65.112-29.04-65.112-18.348z"/>
	</g>
	<g>
		<path fill="#FFFFFF" d="M-128.437-30.357c-14.719-18.24-20.052-29.771-23.076-36.537c-1.963-4.393-2.868-7.305-3.28-9.014
			c4.297-2.891,8.146-6.213,11.45-9.887c18.397-20.454,19.827-54.452,19.392-66.081l41.734-19.108l-37.774-11.9
			c-1.728-1.194-3.425-3.119-5.377-5.317c-5.395-6.075-12.774-14.405-28.115-14.405c-6.675,0-14.175,1.529-22.901,4.68
			c-16.091,5.814-21.061,15.02-30.095,31.724c-7.42,13.737-18.64,34.498-42.341,65.078l-52.093,53.254
			c0,0,27.083,24.553,73.781,24.553c16.096,0,25.167-3.273,25.167-3.273l9.252-37.762c0.726-0.01,1.456-0.025,2.174-0.059
			c0.89,7.596,4.126,22.148,15.39,42.729c-1.3,0.51-2.911,1.355-4.714,2.816c-3.321,2.678,3.354,0.594,7.604-0.312
			c4.604,0.498,20.827,7.982,15.092,2.4c-1.129-1.088-2.198-1.945-3.224-2.699c5.544,1.883,10.944,3.697,7.254,0.111
			c-4.833-4.701-9-6.016-10.581-6.365c-13.366-21.029-16.167-33.824-16.585-39.828c5.622-1.047,10.974-2.746,15.933-5.008
			c2.409,7.66,7.545,19.592,24.282,43.262c-1.401,0.363-3.609,1.223-6.176,3.297c-3.326,2.689,3.362,0.604,7.614-0.301
			c4.615,0.5,20.81,7.973,15.081,2.4c-1.122-1.092-2.194-1.949-3.227-2.701c5.547,1.885,10.946,3.691,7.255,0.111
			C-123.142-28.004-126.361-29.611-128.437-30.357z"/>
		<g>
			<path fill="#0B1F2C" d="M-163.443-174.711c0,4.709,3.818,8.531,8.527,8.531c4.708,0,8.525-3.822,8.525-8.531
				c0-4.715-3.817-8.53-8.525-8.53C-159.625-183.241-163.443-179.426-163.443-174.711z"/>
			<path fill="#FFFFFF" d="M-152.84-180.128c0.503,0,1.003,0.055,1.484,0.139c-1.084-0.842-2.443-1.35-3.922-1.35
				c-3.531,0-6.4,2.862-6.4,6.389c0,0.931,0.205,1.812,0.57,2.611C-160.852-176.681-157.253-180.128-152.84-180.128z"/>
			<path fill="#D9272E" d="M-209.598-145.203l-9.84-5.523l1.115-1.775c0-0.004,0.111-0.173,0.268-0.451
				c2.918-5.206,0.692-7.193-0.396-7.805c-10.374-5.82-14.976-18.145-10.947-29.302l0.295-0.815
				c4.928-10.12,1.11-22.356-8.697-27.856c-10.232-5.743-23.233-2.093-28.979,8.139c-1.835,3.275-2.772,6.985-2.702,10.729
				c0.063,3.592,1.04,7.136,2.824,10.266l0.006,0.039c0.005,0.028,0.027,0.172,0.312,0.557c0.792,1.083,0.88,2.533,0.228,3.705
				c-0.422,0.749-1.121,1.306-1.975,1.568c-0.067,0.017-0.133,0.04-0.201,0.05c-0.149,0.033-0.307,0.072-0.447,0.112
				c-0.496,0.083-0.702,0.211-0.769,0.256c-3.554,1.228-6.516,3.689-8.335,6.941c-1.82,3.235-2.377,7.029-1.59,10.684
				c-0.017,0.044-0.084,0.313,0.206,0.965c0.436,0.994,0.38,2.104-0.155,3.046c-0.58,1.049-1.68,1.696-2.923,1.718
				c-0.099,0-0.206,0-0.312,0c-0.083,0.006-0.168,0.011-0.251,0.011c-0.173-0.011-0.274,0-0.306,0.012
				c-3.65,0.078-7.22,1.093-10.355,2.924c-3.236,1.896-5.916,4.63-7.756,7.906l0,0c-2.778,4.948-3.46,10.695-1.919,16.174
				c1.54,5.479,5.111,10.025,10.064,12.81c9.798,5.495,22.239,2.382,28.303-7.085l0.547-0.691
				c7.426-9.244,20.348-11.734,30.714-5.926c0.491,0.279,1.507,0.691,2.757,0.318c1.472-0.436,2.855-1.791,4.116-4.039
				c0.152-0.279,0.241-0.464,0.241-0.464l0.931-1.875l9.413,5.288L-209.598-145.203z M-273.53-133.525
				c-2.846,5.083-9.273,6.884-14.351,4.034c-5.082-2.851-6.891-9.28-4.039-14.356c2.845-5.083,9.277-6.891,14.36-4.033
				C-272.481-145.035-270.673-138.609-273.53-133.525z M-239.023-195.013c-2.846,5.077-9.277,6.885-14.354,4.039
				c-5.078-2.857-6.886-9.283-4.041-14.361c2.857-5.077,9.279-6.885,14.361-4.034C-237.98-206.519-236.172-200.091-239.023-195.013z
				"/>
			<path fill="#0B1F2C" d="M-128.437-30.357c-14.719-18.24-20.052-29.771-23.076-36.537c-1.963-4.393-2.868-7.305-3.28-9.014
				c4.297-2.891,8.146-6.213,11.45-9.887c18.397-20.454,19.226-50.881,18.791-62.51c0,0-4.486,34.681-24.763,57.199
				c-9.937,11.024-24.179,16.628-42.347,16.628h-0.011c0,0-11.393,0.488-20.944-2.689c0,0-1.953,9.508,12.118,11.369l-16.815,34.029
				c-2.488,0.439-3.437,0.457-9.82,0.457c-14.126,0-35.188-3.176-57.059-17.865l37.688-42.509
				c35.784,5.251,77.827-2.791,88.213-42.988c-13.52,33.393-47.909,38.145-78.639,31.133c20.33-27.132,30.541-46.013,37.488-58.856
				c8.883-16.431,12.559-23.232,25.768-28.003c7.74-2.794,14.541-4.212,20.191-4.212c11.746,0,17.023,5.953,22.135,11.717
				c2.4,2.707,4.662,5.266,7.488,7.041l0.439,0.279l-23.539,12.331l23.009,11.37l41.734-19.108l-37.774-11.9
				c-1.728-1.194-3.425-3.119-5.377-5.317c-5.395-6.075-12.774-14.405-28.115-14.405c-6.675,0-14.175,1.529-22.901,4.68
				c-16.091,5.814-21.061,15.02-30.095,31.724c-7.42,13.737-18.64,34.498-42.341,65.078l-52.093,53.254
				c0,0,27.083,24.553,73.781,24.553c16.096,0,25.167-3.273,25.167-3.273l9.252-37.762c0.726-0.01,1.456-0.025,2.174-0.059
				c0.89,7.596,4.126,22.148,15.39,42.729c-1.3,0.51-2.911,1.355-4.714,2.816c-3.321,2.678,3.354,0.594,7.604-0.312
				c4.604,0.498,20.827,7.982,15.092,2.4c-1.129-1.088-2.198-1.945-3.224-2.699c5.544,1.883,10.944,3.697,7.254,0.111
				c-4.833-4.701-9-6.016-10.581-6.365c-13.366-21.029-16.167-33.824-16.585-39.828c5.622-1.047,10.974-2.746,15.933-5.008
				c2.409,7.66,7.545,19.592,24.282,43.262c-1.401,0.363-3.609,1.223-6.176,3.297c-3.326,2.689,3.362,0.604,7.614-0.301
				c4.615,0.5,20.81,7.973,15.081,2.4c-1.122-1.092-2.194-1.949-3.227-2.701c5.547,1.885,10.946,3.691,7.255,0.111
				C-123.142-28.004-126.361-29.611-128.437-30.357z"/>
			<g>
				<path fill="#5D7E95" d="M-152.404-94.799c-9.641,10.708-23.473,16.135-41.104,16.135c-0.006,0-0.006,0-0.012,0
					c0,0-11.057,0.48-20.324-2.607c0,0-0.558,2.748,1.143,5.537c-0.027-0.877,0.084-1.434,0.084-1.434
					c9.552,3.178,20.944,2.689,20.944,2.689h0.011c18.168,0,32.41-5.604,42.347-16.628c19.45-21.597,24.36-54.369,24.74-57.021
					l0.623-3.749l-3.828-1.896l-0.59,3.447C-128.369-150.325-132.716-116.661-152.404-94.799z"/>
				<path fill="#5D7E95" d="M-227.937-36.752c-13.234,0-32.738-2.881-53.175-15.902l-3.081,3.477
					c21.871,14.689,42.933,17.865,57.059,17.865c6.383,0,7.332-0.018,9.82-0.457l16.815-34.029c-1.271-0.166-2.41-0.4-3.437-0.68
					l-14.473,29.281C-220.83-36.775-221.744-36.752-227.937-36.752z"/>
			</g>
		</g>
	</g>
</g>
<g>
	<g>
		
			<radialGradient id="SVGID_2_" cx="69.9805" cy="1112.7686" r="26.7739" gradientTransform="matrix(2.3908 0 0 0.3615 -151.2579 -532.0146)" gradientUnits="userSpaceOnUse">
			<stop  offset="0" style="stop-color:#4A5D75"/>
			<stop  offset="0.1143" style="stop-color:#50637A;stop-opacity:0.8857"/>
			<stop  offset="0.2708" style="stop-color:#627287;stop-opacity:0.7292"/>
			<stop  offset="0.4518" style="stop-color:#7F8C9D;stop-opacity:0.5482"/>
			<stop  offset="0.6511" style="stop-color:#A7B0BC;stop-opacity:0.3489"/>
			<stop  offset="0.8629" style="stop-color:#DADEE3;stop-opacity:0.1371"/>
			<stop  offset="1" style="stop-color:#FFFFFF;stop-opacity:0"/>
		</radialGradient>
		<path opacity="0.41" fill="url(#SVGID_2_)" d="M80.055-129.743c0,5.334-28.66,9.674-64,9.674c-35.349,0-64-4.34-64-9.674
			c0-5.348,28.652-9.687,64-9.687C51.395-139.429,80.055-135.088,80.055-129.743z"/>
	</g>
	<g>
		<path fill="#FFFFFF" d="M48.393-135.748c-7.359-9.12-10.026-14.886-11.539-18.269c-0.98-2.196-1.434-3.652-1.64-4.507
			c2.148-1.445,4.073-3.106,5.726-4.943c9.198-10.227,9.913-27.226,9.695-33.04l20.867-9.554l-18.887-5.95
			c-0.864-0.598-1.713-1.56-2.689-2.659c-2.697-3.037-6.387-7.202-14.057-7.202c-3.338,0-7.088,0.764-11.451,2.34
			c-8.045,2.907-10.53,7.51-15.047,15.861c-3.711,6.869-9.32,17.249-21.171,32.539l-26.047,26.627c0,0,13.541,12.276,36.891,12.276
			c8.048,0,12.583-1.637,12.583-1.637l4.626-18.881c0.362-0.005,0.728-0.013,1.087-0.029c0.445,3.798,2.062,11.074,7.695,21.364
			c-0.65,0.255-1.456,0.678-2.357,1.408c-1.66,1.339,1.677,0.297,3.802-0.156c2.302,0.249,10.413,3.991,7.546,1.2
			c-0.564-0.544-1.1-0.973-1.611-1.35c2.771,0.941,5.472,1.849,3.627,0.056c-2.417-2.351-4.5-3.008-5.291-3.183
			c-6.684-10.515-8.084-16.912-8.293-19.914c2.812-0.523,5.487-1.373,7.967-2.504c1.205,3.83,3.772,9.796,12.141,21.631
			c-0.7,0.182-1.805,0.611-3.088,1.648c-1.662,1.345,1.682,0.302,3.808-0.15c2.308,0.25,10.405,3.986,7.54,1.2
			c-0.561-0.546-1.097-0.975-1.613-1.351c2.773,0.942,5.474,1.846,3.628,0.056C51.039-134.571,49.43-135.375,48.393-135.748z"/>
		<g>
			<circle fill="#0B1F2C" cx="35.152" cy="-207.924" r="4.263"/>
			<path fill="#FFFFFF" d="M36.19-210.632c0.251,0,0.501,0.027,0.742,0.069c-0.542-0.421-1.222-0.675-1.961-0.675
				c-1.766,0-3.2,1.431-3.2,3.194c0,0.466,0.103,0.906,0.285,1.306C32.185-208.909,33.984-210.632,36.19-210.632z"/>
			<path fill="#D9272E" d="M7.812-193.169l-4.921-2.762l0.558-0.888c0-0.002,0.056-0.087,0.134-0.226
				c1.459-2.603,0.347-3.597-0.197-3.902c-5.188-2.91-7.488-9.072-5.474-14.651l0.147-0.407c2.464-5.061,0.556-11.178-4.349-13.928
				c-5.116-2.872-11.616-1.047-14.489,4.069c-0.918,1.637-1.387,3.492-1.351,5.364c0.032,1.796,0.52,3.568,1.412,5.133l0.003,0.02
				c0.002,0.014,0.014,0.086,0.156,0.278c0.396,0.542,0.44,1.267,0.113,1.853c-0.211,0.375-0.561,0.653-0.987,0.784
				c-0.033,0.009-0.066,0.02-0.1,0.025c-0.075,0.017-0.153,0.036-0.224,0.056c-0.248,0.042-0.351,0.105-0.384,0.128
				c-1.777,0.614-3.258,1.845-4.168,3.471c-0.91,1.618-1.188,3.515-0.795,5.342c-0.009,0.022-0.042,0.156,0.103,0.482
				c0.218,0.497,0.19,1.052-0.077,1.523c-0.29,0.524-0.84,0.848-1.462,0.859c-0.05,0-0.103,0-0.156,0
				c-0.042,0.003-0.084,0.005-0.125,0.005c-0.086-0.005-0.137,0-0.153,0.006c-1.825,0.039-3.61,0.547-5.178,1.462
				c-1.618,0.948-2.958,2.315-3.878,3.953l0,0c-1.389,2.475-1.73,5.348-0.96,8.087s2.556,5.013,5.032,6.405
				c4.899,2.747,11.12,1.19,14.152-3.543l0.274-0.346c3.713-4.622,10.174-5.867,15.356-2.963c0.246,0.14,0.754,0.346,1.379,0.159
				c0.736-0.218,1.428-0.896,2.058-2.02c0.076-0.14,0.12-0.231,0.12-0.231l0.466-0.938l4.706,2.645L7.812-193.169z M-24.154-187.331
				c-1.423,2.541-4.637,3.441-7.176,2.017c-2.541-1.425-3.445-4.64-2.019-7.178c1.422-2.542,4.638-3.445,7.18-2.017
				C-23.63-193.085-22.727-189.873-24.154-187.331z M-6.901-218.075c-1.423,2.538-4.639,3.442-7.177,2.019
				c-2.539-1.428-3.443-4.642-2.021-7.18c1.429-2.539,4.64-3.442,7.181-2.018C-6.38-223.828-5.476-220.614-6.901-218.075z"/>
			<path fill="#0B1F2C" d="M48.393-135.748c-7.359-9.12-10.026-14.886-11.539-18.269c-0.98-2.196-1.434-3.652-1.64-4.507
				c2.148-1.445,4.073-3.106,5.726-4.943c9.198-10.227,9.612-25.44,9.395-31.255c0,0-2.242,17.341-12.381,28.6
				c-4.969,5.512-12.09,8.313-21.174,8.313h-0.005c0,0-5.696,0.244-10.472-1.345c0,0-0.977,4.754,6.059,5.685l-8.408,17.015
				c-1.244,0.22-1.718,0.229-4.909,0.229c-7.063,0-17.594-1.588-28.53-8.933l18.844-21.254c17.892,2.625,38.913-1.396,44.106-21.494
				c-6.76,16.696-23.955,19.072-39.319,15.566c10.165-13.565,15.271-23.007,18.743-29.428c4.441-8.216,6.279-11.616,12.885-14.002
				c3.869-1.396,7.27-2.105,10.096-2.105c5.873,0,8.512,2.977,11.066,5.858c1.201,1.354,2.332,2.633,3.744,3.521l0.221,0.139
				l-11.77,6.166l11.504,5.685l20.867-9.554l-18.887-5.95c-0.864-0.598-1.713-1.56-2.689-2.659
				c-2.697-3.037-6.387-7.202-14.057-7.202c-3.338,0-7.088,0.764-11.451,2.34c-8.045,2.907-10.53,7.51-15.047,15.861
				c-3.711,6.869-9.32,17.249-21.171,32.539l-26.047,26.627c0,0,13.541,12.276,36.891,12.276c8.048,0,12.583-1.637,12.583-1.637
				l4.626-18.881c0.362-0.005,0.728-0.013,1.087-0.029c0.445,3.798,2.062,11.074,7.695,21.364c-0.65,0.255-1.456,0.678-2.357,1.408
				c-1.66,1.339,1.677,0.297,3.802-0.156c2.302,0.249,10.413,3.991,7.546,1.2c-0.564-0.544-1.1-0.973-1.611-1.35
				c2.771,0.941,5.472,1.849,3.627,0.056c-2.417-2.351-4.5-3.008-5.291-3.183c-6.684-10.515-8.084-16.912-8.293-19.914
				c2.812-0.523,5.487-1.373,7.967-2.504c1.205,3.83,3.772,9.796,12.141,21.631c-0.7,0.182-1.805,0.611-3.088,1.648
				c-1.662,1.345,1.682,0.302,3.808-0.15c2.308,0.25,10.405,3.986,7.54,1.2c-0.561-0.546-1.097-0.975-1.613-1.351
				c2.773,0.942,5.474,1.846,3.628,0.056C51.039-134.571,49.43-135.375,48.393-135.748z"/>
			<g>
				<path fill="#5D7E95" d="M36.408-167.968c-4.82,5.354-11.736,8.067-20.552,8.067c-0.003,0-0.003,0-0.006,0
					c0,0-5.528,0.24-10.162-1.304c0,0-0.278,1.374,0.571,2.769c-0.014-0.438,0.043-0.717,0.043-0.717
					c4.775,1.589,10.472,1.345,10.472,1.345h0.005c9.084,0,16.205-2.802,21.174-8.313c9.725-10.799,12.18-27.185,12.37-28.511
					l0.312-1.874l-1.914-0.948l-0.295,1.724C48.426-195.731,46.252-178.899,36.408-167.968z"/>
				<path fill="#5D7E95" d="M-1.357-138.945c-6.617,0-16.37-1.44-26.588-7.951l-1.541,1.738c10.936,7.345,21.466,8.933,28.53,8.933
					c3.191,0,3.665-0.009,4.909-0.229l8.408-17.015c-0.636-0.083-1.205-0.2-1.719-0.34l-7.236,14.641
					C2.195-138.957,1.738-138.945-1.357-138.945z"/>
			</g>
		</g>
	</g>
</g>
<g>
	<g>
		
			<radialGradient id="SVGID_3_" cx="56.5967" cy="1357.5703" r="13.3867" gradientTransform="matrix(2.3908 0 0 0.3615 -151.2579 -532.0146)" gradientUnits="userSpaceOnUse">
			<stop  offset="0" style="stop-color:#4A5D75"/>
			<stop  offset="0.1143" style="stop-color:#50637A;stop-opacity:0.8857"/>
			<stop  offset="0.2708" style="stop-color:#627287;stop-opacity:0.7292"/>
			<stop  offset="0.4518" style="stop-color:#7F8C9D;stop-opacity:0.5482"/>
			<stop  offset="0.6511" style="stop-color:#A7B0BC;stop-opacity:0.3489"/>
			<stop  offset="0.8629" style="stop-color:#DADEE3;stop-opacity:0.1371"/>
			<stop  offset="1" style="stop-color:#FFFFFF;stop-opacity:0"/>
		</radialGradient>
		<path opacity="0.41" fill="url(#SVGID_3_)" d="M16.055-41.25c0,2.667-14.33,4.837-32,4.837c-17.675,0-32.001-2.17-32.001-4.837
			c0-2.674,14.326-4.843,32.001-4.843C1.725-46.093,16.055-43.923,16.055-41.25z"/>
	</g>
	<g>
		<path fill="#FFFFFF" d="M0.225-44.253c-3.68-4.56-5.014-7.442-5.77-9.134c-0.49-1.099-0.717-1.826-0.82-2.253
			c1.074-0.723,2.037-1.554,2.863-2.473c4.598-5.113,4.955-13.612,4.848-16.52l10.434-4.777l-9.443-2.975
			c-0.434-0.299-0.857-0.779-1.346-1.33c-1.348-1.518-3.193-3.601-7.027-3.601c-1.67,0-3.545,0.382-5.727,1.17
			c-4.022,1.454-5.265,3.755-7.523,7.931c-1.855,3.435-4.66,8.625-10.586,16.27l-13.023,13.313c0,0,6.771,6.138,18.445,6.138
			c4.024,0,6.292-0.818,6.292-0.818l2.312-9.439c0.182-0.003,0.364-0.007,0.544-0.016c0.223,1.899,1.031,5.537,3.847,10.683
			c-0.324,0.128-0.729,0.339-1.178,0.704c-0.83,0.67,0.838,0.148,1.9-0.078c1.15,0.125,5.207,1.996,3.773,0.6
			c-0.283-0.271-0.551-0.486-0.807-0.674c1.387,0.471,2.736,0.924,1.814,0.027c-1.209-1.176-2.25-1.504-2.646-1.592
			c-3.342-5.257-4.041-8.455-4.146-9.957c1.406-0.262,2.744-0.686,3.984-1.252c0.602,1.916,1.885,4.898,6.07,10.816
			c-0.352,0.09-0.902,0.305-1.545,0.824c-0.83,0.672,0.842,0.15,1.904-0.076c1.154,0.125,5.203,1.994,3.77,0.601
			c-0.279-0.272-0.549-0.487-0.807-0.675c1.387,0.471,2.736,0.922,1.814,0.027C1.547-43.664,0.742-44.065,0.225-44.253z"/>
		<g>
			<circle fill="#0B1F2C" cx="-6.396" cy="-80.341" r="2.131"/>
			<path fill="#FFFFFF" d="M-5.877-81.694c0.125,0,0.25,0.014,0.371,0.034c-0.271-0.21-0.611-0.337-0.98-0.337
				c-0.883,0-1.6,0.715-1.6,1.597c0,0.233,0.051,0.453,0.143,0.653C-7.881-80.833-6.98-81.694-5.877-81.694z"/>
			<path fill="#D9272E" d="M-20.067-72.964l-2.46-1.381l0.278-0.443c0-0.001,0.028-0.043,0.067-0.113
				c0.729-1.301,0.173-1.798-0.099-1.951c-2.594-1.455-3.744-4.535-2.737-7.325l0.074-0.204c1.231-2.529,0.277-5.588-2.175-6.963
				c-2.558-1.436-5.808-0.523-7.244,2.035c-0.459,0.818-0.693,1.746-0.676,2.683c0.016,0.897,0.26,1.783,0.706,2.566l0.002,0.01
				c0.001,0.006,0.007,0.043,0.078,0.139c0.197,0.271,0.22,0.633,0.057,0.926c-0.105,0.188-0.28,0.327-0.494,0.393
				c-0.017,0.004-0.033,0.01-0.05,0.013c-0.037,0.009-0.077,0.019-0.112,0.028c-0.124,0.021-0.175,0.053-0.191,0.063
				c-0.889,0.308-1.63,0.923-2.084,1.735c-0.455,0.809-0.595,1.758-0.397,2.671c-0.005,0.011-0.021,0.078,0.051,0.241
				c0.109,0.248,0.096,0.525-0.038,0.762c-0.146,0.262-0.421,0.424-0.731,0.43c-0.024,0-0.051,0-0.078,0
				c-0.021,0.002-0.042,0.002-0.062,0.002c-0.043-0.002-0.068,0-0.076,0.004c-0.913,0.02-1.806,0.273-2.589,0.73
				c-0.81,0.475-1.479,1.158-1.939,1.977l0,0c-0.694,1.237-0.865,2.674-0.479,4.043c0.385,1.37,1.277,2.507,2.516,3.203
				c2.45,1.373,5.56,0.596,7.076-1.771l0.137-0.173c1.856-2.312,5.087-2.934,7.679-1.481c0.123,0.07,0.377,0.173,0.689,0.08
				c0.368-0.109,0.714-0.448,1.028-1.01c0.038-0.07,0.061-0.116,0.061-0.116l0.232-0.47l2.354,1.322L-20.067-72.964z
				 M-36.049-70.044c-0.712,1.271-2.318,1.721-3.588,1.008c-1.271-0.712-1.723-2.319-1.01-3.588c0.711-1.271,2.319-1.723,3.59-1.009
				C-35.788-72.921-35.335-71.315-36.049-70.044z M-27.423-85.416c-0.711,1.269-2.319,1.722-3.588,1.009
				c-1.27-0.713-1.722-2.32-1.011-3.589c0.715-1.27,2.32-1.721,3.591-1.009C-27.163-88.292-26.71-86.686-27.423-85.416z"/>
			<path fill="#0B1F2C" d="M0.225-44.253c-3.68-4.56-5.014-7.442-5.77-9.134c-0.49-1.099-0.717-1.826-0.82-2.253
				c1.074-0.723,2.037-1.554,2.863-2.473c4.598-5.113,4.805-12.72,4.697-15.627c0,0-1.121,8.67-6.191,14.3
				c-2.484,2.756-6.045,4.157-10.586,4.157h-0.003c0,0-2.848,0.121-5.235-0.673c0,0-0.488,2.377,3.029,2.843l-4.204,8.507
				c-0.622,0.11-0.859,0.114-2.455,0.114c-3.531,0-8.797-0.794-14.265-4.467l9.422-10.627c8.946,1.312,19.458-0.697,22.053-10.746
				c-3.379,8.348-11.977,9.535-19.66,7.783c5.083-6.783,7.636-11.504,9.372-14.715c2.221-4.107,3.139-5.808,6.442-7
				c1.936-0.699,3.635-1.053,5.049-1.053c2.936,0,4.256,1.488,5.533,2.929c0.6,0.677,1.166,1.316,1.871,1.761l0.111,0.068
				l-5.885,3.084l5.752,2.842l10.434-4.777l-9.443-2.975c-0.434-0.299-0.857-0.779-1.346-1.33c-1.348-1.518-3.193-3.601-7.027-3.601
				c-1.67,0-3.545,0.382-5.727,1.17c-4.022,1.454-5.265,3.755-7.523,7.931c-1.855,3.435-4.66,8.625-10.586,16.27l-13.023,13.313
				c0,0,6.771,6.138,18.445,6.138c4.024,0,6.292-0.818,6.292-0.818l2.312-9.439c0.182-0.003,0.364-0.007,0.544-0.016
				c0.223,1.899,1.031,5.537,3.847,10.683c-0.324,0.128-0.729,0.339-1.178,0.704c-0.83,0.67,0.838,0.148,1.9-0.078
				c1.15,0.125,5.207,1.996,3.773,0.6c-0.283-0.271-0.551-0.486-0.807-0.674c1.387,0.471,2.736,0.924,1.814,0.027
				c-1.209-1.176-2.25-1.504-2.646-1.592c-3.342-5.257-4.041-8.455-4.146-9.957c1.406-0.262,2.744-0.686,3.984-1.252
				c0.602,1.916,1.885,4.898,6.07,10.816c-0.352,0.09-0.902,0.305-1.545,0.824c-0.83,0.672,0.842,0.15,1.904-0.076
				c1.154,0.125,5.203,1.994,3.77,0.601c-0.279-0.272-0.549-0.487-0.807-0.675c1.387,0.471,2.736,0.922,1.814,0.027
				C1.547-43.664,0.742-44.065,0.225-44.253z"/>
			<g>
				<path fill="#5D7E95" d="M-5.768-60.362c-2.41,2.676-5.869,4.033-10.277,4.033c-0.001,0-0.001,0-0.003,0
					c0,0-2.764,0.12-5.081-0.652c0,0-0.139,0.688,0.286,1.385c-0.007-0.219,0.021-0.358,0.021-0.358
					c2.388,0.794,5.235,0.673,5.235,0.673h0.003c4.542,0,8.102-1.401,10.586-4.157c4.863-5.399,6.09-13.593,6.186-14.255
					l0.156-0.938l-0.957-0.475L0.24-74.244C0.24-74.244-0.846-65.828-5.768-60.362z"/>
				<path fill="#5D7E95" d="M-24.651-45.851c-3.309,0-8.186-0.721-13.294-3.977l-0.771,0.869c5.468,3.673,10.733,4.467,14.265,4.467
					c1.596,0,1.833-0.004,2.455-0.114l4.204-8.507c-0.318-0.042-0.603-0.101-0.859-0.17l-3.618,7.32
					C-22.875-45.856-23.103-45.851-24.651-45.851z"/>
			</g>
		</g>
	</g>
</g>
<g>
	<g>
		
			<radialGradient id="SVGID_4_" cx="86.7119" cy="1364.7207" r="10.0396" gradientTransform="matrix(2.3908 0 0 0.3615 -151.2579 -532.0146)" gradientUnits="userSpaceOnUse">
			<stop  offset="0" style="stop-color:#4A5D75"/>
			<stop  offset="0.1143" style="stop-color:#50637A;stop-opacity:0.8857"/>
			<stop  offset="0.2708" style="stop-color:#627287;stop-opacity:0.7292"/>
			<stop  offset="0.4518" style="stop-color:#7F8C9D;stop-opacity:0.5482"/>
			<stop  offset="0.6511" style="stop-color:#A7B0BC;stop-opacity:0.3489"/>
			<stop  offset="0.8629" style="stop-color:#DADEE3;stop-opacity:0.1371"/>
			<stop  offset="1" style="stop-color:#FFFFFF;stop-opacity:0"/>
		</radialGradient>
		<path opacity="0.41" fill="url(#SVGID_4_)" d="M80.055-38.665c0,2-10.748,3.627-24,3.627c-13.255,0-24-1.627-24-3.627
			c0-2.006,10.745-3.633,24-3.633C69.307-42.298,80.055-40.67,80.055-38.665z"/>
	</g>
	<g>
		<path fill="#FFFFFF" d="M68.182-40.918c-2.76-3.419-3.76-5.581-4.327-6.85c-0.367-0.824-0.537-1.37-0.615-1.689
			c0.806-0.543,1.528-1.166,2.147-1.854c3.448-3.835,3.717-10.21,3.636-12.39l7.825-3.583l-7.082-2.231
			c-0.325-0.224-0.644-0.584-1.01-0.997c-1.011-1.139-2.395-2.7-5.271-2.7c-1.252,0-2.658,0.286-4.295,0.877
			c-3.016,1.091-3.948,2.816-5.642,5.948c-1.392,2.575-3.495,6.469-7.939,12.202l-9.768,9.984c0,0,5.078,4.604,13.834,4.604
			c3.019,0,4.72-0.614,4.72-0.614l1.733-7.079c0.137-0.002,0.273-0.005,0.408-0.012c0.166,1.425,0.773,4.152,2.885,8.012
			c-0.243,0.096-0.546,0.254-0.883,0.528c-0.623,0.502,0.628,0.111,1.425-0.059c0.863,0.094,3.905,1.497,2.83,0.449
			c-0.212-0.203-0.413-0.364-0.604-0.505c1.04,0.353,2.052,0.692,1.36,0.021c-0.906-0.882-1.688-1.128-1.984-1.194
			c-2.507-3.942-3.031-6.341-3.11-7.467c1.055-0.197,2.059-0.515,2.988-0.939c0.451,1.437,1.414,3.674,4.553,8.112
			c-0.264,0.067-0.677,0.229-1.158,0.618c-0.623,0.504,0.631,0.112,1.428-0.058c0.866,0.094,3.902,1.496,2.827,0.451
			c-0.209-0.205-0.411-0.366-0.604-0.507c1.04,0.354,2.052,0.691,1.36,0.021C69.174-40.476,68.57-40.777,68.182-40.918z"/>
		<g>
			<circle fill="#0B1F2C" cx="63.216" cy="-67.983" r="1.598"/>
			<path fill="#FFFFFF" d="M63.605-68.998c0.094,0,0.188,0.01,0.278,0.025c-0.203-0.157-0.458-0.253-0.735-0.253
				c-0.662,0-1.199,0.536-1.199,1.198c0,0.175,0.038,0.34,0.106,0.489C62.103-68.353,62.778-68.998,63.605-68.998z"/>
			<path fill="#D9272E" d="M52.964-62.45l-1.846-1.036l0.21-0.332c0-0.001,0.021-0.032,0.05-0.085
				c0.548-0.976,0.13-1.349-0.073-1.464c-1.945-1.091-2.809-3.401-2.054-5.493l0.056-0.153c0.924-1.897,0.208-4.191-1.631-5.223
				c-1.919-1.077-4.356-0.393-5.434,1.526c-0.344,0.613-0.52,1.31-0.507,2.012c0.012,0.673,0.195,1.337,0.53,1.925l0.001,0.007
				c0.001,0.005,0.005,0.032,0.059,0.104c0.147,0.203,0.165,0.475,0.042,0.694c-0.078,0.141-0.21,0.245-0.37,0.294
				c-0.013,0.003-0.024,0.008-0.037,0.01c-0.028,0.007-0.058,0.014-0.084,0.021c-0.094,0.016-0.132,0.039-0.144,0.048
				c-0.667,0.23-1.223,0.691-1.563,1.301c-0.341,0.606-0.446,1.318-0.298,2.004c-0.004,0.008-0.017,0.059,0.038,0.181
				c0.082,0.186,0.071,0.394-0.028,0.571c-0.109,0.196-0.316,0.317-0.549,0.322c-0.019,0-0.038,0-0.059,0
				c-0.016,0.001-0.031,0.001-0.047,0.001c-0.032-0.001-0.052,0-0.058,0.003c-0.685,0.015-1.354,0.205-1.941,0.548
				c-0.606,0.356-1.109,0.869-1.454,1.482l0,0c-0.521,0.928-0.649,2.006-0.359,3.032c0.288,1.027,0.957,1.88,1.887,2.402
				c1.837,1.03,4.169,0.447,5.307-1.328l0.103-0.13c1.392-1.733,3.814-2.2,5.759-1.111c0.092,0.053,0.282,0.13,0.517,0.061
				c0.277-0.082,0.536-0.337,0.772-0.758c0.027-0.053,0.045-0.087,0.045-0.087l0.175-0.353l1.765,0.992L52.964-62.45z
				 M40.977-60.261c-0.533,0.953-1.738,1.291-2.69,0.756c-0.953-0.534-1.292-1.739-0.757-2.69c0.532-0.954,1.739-1.292,2.691-0.757
				C41.173-62.418,41.513-61.214,40.977-60.261z M47.446-71.789c-0.533,0.951-1.739,1.291-2.691,0.756
				c-0.952-0.534-1.29-1.74-0.757-2.691c0.536-0.952,1.74-1.291,2.692-0.757S47.98-72.741,47.446-71.789z"/>
			<path fill="#0B1F2C" d="M68.182-40.918c-2.76-3.419-3.76-5.581-4.327-6.85c-0.367-0.824-0.537-1.37-0.615-1.689
				c0.806-0.543,1.528-1.166,2.147-1.854c3.448-3.835,3.604-9.54,3.523-11.721c0,0-0.841,6.503-4.644,10.725
				c-1.863,2.067-4.534,3.118-7.939,3.118h-0.003c0,0-2.136,0.091-3.926-0.505c0,0-0.366,1.783,2.272,2.132l-3.154,6.381
				c-0.466,0.082-0.645,0.085-1.841,0.085c-2.648,0-6.598-0.595-10.698-3.35l7.066-7.97c6.709,0.984,14.593-0.523,16.539-8.06
				c-2.534,6.261-8.981,7.151-14.744,5.837c3.812-5.087,5.728-8.628,7.029-11.036c1.665-3.08,2.354-4.355,4.831-5.25
				c1.451-0.524,2.726-0.789,3.786-0.789c2.202,0,3.192,1.116,4.15,2.196c0.449,0.508,0.874,0.987,1.403,1.32l0.083,0.052
				l-4.413,2.312l4.313,2.132l7.825-3.583l-7.082-2.231c-0.325-0.224-0.644-0.584-1.01-0.997c-1.011-1.139-2.395-2.7-5.271-2.7
				c-1.252,0-2.658,0.286-4.295,0.877c-3.016,1.091-3.948,2.816-5.642,5.948c-1.392,2.575-3.495,6.469-7.939,12.202l-9.768,9.984
				c0,0,5.078,4.604,13.834,4.604c3.019,0,4.72-0.614,4.72-0.614l1.733-7.079c0.137-0.002,0.273-0.005,0.408-0.012
				c0.166,1.425,0.773,4.152,2.885,8.012c-0.243,0.096-0.546,0.254-0.883,0.528c-0.623,0.502,0.628,0.111,1.425-0.059
				c0.863,0.094,3.905,1.497,2.83,0.449c-0.212-0.203-0.413-0.364-0.604-0.505c1.04,0.353,2.052,0.692,1.36,0.021
				c-0.906-0.882-1.688-1.128-1.984-1.194c-2.507-3.942-3.031-6.341-3.11-7.467c1.055-0.197,2.059-0.515,2.988-0.939
				c0.451,1.437,1.414,3.674,4.553,8.112c-0.264,0.067-0.677,0.229-1.158,0.618c-0.623,0.504,0.631,0.112,1.428-0.058
				c0.866,0.094,3.902,1.496,2.827,0.451c-0.209-0.205-0.411-0.366-0.604-0.507c1.04,0.354,2.052,0.691,1.36,0.021
				C69.174-40.476,68.57-40.777,68.182-40.918z"/>
			<g>
				<path fill="#5D7E95" d="M63.688-52.999c-1.808,2.007-4.401,3.024-7.707,3.024c0,0,0,0-0.002,0c0,0-2.072,0.09-3.812-0.489
					c0,0-0.104,0.516,0.216,1.038c-0.006-0.164,0.016-0.269,0.016-0.269c1.79,0.596,3.926,0.505,3.926,0.505h0.003
					c3.405,0,6.076-1.051,7.939-3.118c3.647-4.049,4.567-10.194,4.639-10.69l0.117-0.703l-0.718-0.356l-0.111,0.647
					C68.193-63.41,67.379-57.099,63.688-52.999z"/>
				<path fill="#5D7E95" d="M49.526-42.116c-2.481,0-6.14-0.54-9.971-2.982l-0.578,0.652c4.101,2.755,8.05,3.35,10.698,3.35
					c1.196,0,1.375-0.003,1.841-0.085l3.154-6.381c-0.239-0.031-0.453-0.075-0.645-0.127l-2.715,5.49
					C50.857-42.12,50.687-42.116,49.526-42.116z"/>
			</g>
		</g>
	</g>
</g>
<g>
	<g>
		
			<radialGradient id="SVGID_5_" cx="49.9043" cy="1503.4521" r="6.6934" gradientTransform="matrix(2.3908 0 0 0.3615 -151.2579 -532.0146)" gradientUnits="userSpaceOnUse">
			<stop  offset="0" style="stop-color:#4A5D75"/>
			<stop  offset="0.1143" style="stop-color:#50637A;stop-opacity:0.8857"/>
			<stop  offset="0.2708" style="stop-color:#627287;stop-opacity:0.7292"/>
			<stop  offset="0.4518" style="stop-color:#7F8C9D;stop-opacity:0.5482"/>
			<stop  offset="0.6511" style="stop-color:#A7B0BC;stop-opacity:0.3489"/>
			<stop  offset="0.8629" style="stop-color:#DADEE3;stop-opacity:0.1371"/>
			<stop  offset="1" style="stop-color:#FFFFFF;stop-opacity:0"/>
		</radialGradient>
		<ellipse opacity="0.41" fill="url(#SVGID_5_)" cx="-31.945" cy="11.485" rx="16" ry="2.418"/>
	</g>
	<g>
		<path fill="#FFFFFF" d="M-23.86,9.983c-1.84-2.279-2.507-3.721-2.885-4.566c-0.245-0.55-0.358-0.914-0.41-1.127
			c0.537-0.361,1.019-0.777,1.432-1.236c2.299-2.557,2.478-6.807,2.424-8.26l5.217-2.389l-4.722-1.487
			c-0.217-0.149-0.429-0.39-0.673-0.665c-0.674-0.759-1.597-1.8-3.514-1.8c-0.835,0-1.772,0.19-2.863,0.585
			c-2.011,0.727-2.633,1.877-3.762,3.965c-0.928,1.717-2.33,4.312-5.293,8.135l-6.512,6.656c0,0,3.386,3.069,9.223,3.069
			c2.013,0,3.146-0.409,3.146-0.409l1.156-4.72c0.091-0.001,0.182-0.003,0.271-0.008c0.111,0.95,0.516,2.769,1.924,5.341
			c-0.162,0.064-0.364,0.17-0.589,0.353c-0.415,0.335,0.419,0.074,0.95-0.039c0.575,0.062,2.604,0.998,1.887,0.3
			c-0.142-0.136-0.275-0.243-0.403-0.337c0.693,0.235,1.368,0.462,0.907,0.014c-0.604-0.588-1.125-0.752-1.323-0.796
			c-1.671-2.629-2.021-4.228-2.073-4.979c0.703-0.131,1.372-0.343,1.992-0.626c0.301,0.958,0.942,2.449,3.035,5.408
			c-0.176,0.045-0.451,0.152-0.772,0.412c-0.415,0.336,0.421,0.075,0.952-0.038c0.577,0.062,2.602,0.997,1.885,0.301
			c-0.14-0.137-0.274-0.244-0.403-0.338c0.693,0.235,1.368,0.461,0.907,0.014C-23.199,10.278-23.602,10.077-23.86,9.983z"/>
		<g>
			<circle fill="#0B1F2C" cx="-27.171" cy="-8.061" r="1.065"/>
			<path fill="#FFFFFF" d="M-26.911-8.737c0.062,0,0.125,0.007,0.186,0.018c-0.136-0.105-0.306-0.169-0.49-0.169
				c-0.441,0-0.8,0.357-0.8,0.799c0,0.116,0.025,0.227,0.071,0.326C-27.913-8.307-27.463-8.737-26.911-8.737z"/>
			<path fill="#D9272E" d="M-34.006-4.372l-1.23-0.69l0.14-0.222c0,0,0.014-0.021,0.033-0.057c0.365-0.65,0.087-0.898-0.049-0.976
				c-1.297-0.728-1.872-2.268-1.369-3.662l0.037-0.103c0.616-1.265,0.139-2.794-1.087-3.481c-1.279-0.718-2.904-0.262-3.622,1.018
				c-0.229,0.409-0.347,0.873-0.338,1.341c0.008,0.449,0.13,0.892,0.354,1.283v0.005c0.001,0.003,0.004,0.021,0.039,0.069
				C-41-9.711-40.988-9.53-41.07-9.384c-0.052,0.094-0.14,0.164-0.247,0.196c-0.008,0.002-0.016,0.005-0.024,0.007
				c-0.019,0.004-0.038,0.009-0.056,0.014c-0.062,0.011-0.088,0.026-0.096,0.032c-0.445,0.153-0.815,0.461-1.043,0.867
				c-0.227,0.404-0.297,0.879-0.198,1.336c-0.003,0.005-0.011,0.039,0.025,0.12c0.055,0.124,0.048,0.263-0.019,0.381
				c-0.073,0.131-0.211,0.212-0.366,0.215c-0.013,0-0.025,0-0.039,0c-0.011,0.001-0.021,0.001-0.031,0.001
				c-0.021-0.001-0.034,0-0.038,0.002c-0.457,0.01-0.902,0.137-1.295,0.365c-0.404,0.237-0.739,0.579-0.969,0.988l0,0
				c-0.348,0.618-0.434,1.337-0.24,2.021c0.192,0.685,0.639,1.253,1.258,1.602c1.225,0.687,2.779,0.298,3.538-0.886l0.068-0.086
				c0.928-1.156,2.543-1.467,3.839-0.741c0.062,0.035,0.188,0.087,0.345,0.04c0.185-0.055,0.357-0.225,0.515-0.505
				c0.019-0.035,0.03-0.058,0.03-0.058l0.116-0.235l1.177,0.661L-34.006-4.372z M-41.997-2.912c-0.355,0.636-1.159,0.86-1.794,0.504
				c-0.636-0.356-0.861-1.159-0.505-1.794c0.355-0.636,1.16-0.861,1.795-0.504C-41.866-4.351-41.64-3.548-41.997-2.912z
				 M-37.685-10.598c-0.355,0.634-1.159,0.86-1.794,0.504s-0.86-1.16-0.505-1.794c0.357-0.635,1.16-0.861,1.795-0.505
				S-37.328-11.232-37.685-10.598z"/>
			<path fill="#0B1F2C" d="M-23.86,9.983c-1.84-2.279-2.507-3.721-2.885-4.566c-0.245-0.55-0.358-0.914-0.41-1.127
				c0.537-0.361,1.019-0.777,1.432-1.236c2.299-2.557,2.402-6.359,2.349-7.813c0,0-0.561,4.335-3.096,7.149
				c-1.242,1.379-3.022,2.079-5.293,2.079h-0.002c0,0-1.424,0.061-2.617-0.337c0,0-0.244,1.189,1.515,1.422l-2.103,4.254
				c-0.311,0.055-0.43,0.057-1.228,0.057c-1.766,0-4.398-0.396-7.132-2.233l4.711-5.313c4.473,0.656,9.729-0.349,11.026-5.373
				c-1.689,4.174-5.988,4.768-9.83,3.892c2.542-3.392,3.818-5.752,4.687-7.357c1.11-2.054,1.569-2.903,3.221-3.5
				c0.968-0.35,1.817-0.526,2.524-0.526c1.468,0,2.128,0.744,2.767,1.465c0.3,0.338,0.583,0.658,0.936,0.88l0.056,0.034
				l-2.942,1.542l2.876,1.421l5.217-2.389l-4.722-1.487c-0.217-0.149-0.429-0.39-0.673-0.665c-0.674-0.759-1.597-1.8-3.514-1.8
				c-0.835,0-1.772,0.19-2.863,0.585c-2.011,0.727-2.633,1.877-3.762,3.965c-0.928,1.717-2.33,4.312-5.293,8.135l-6.512,6.656
				c0,0,3.386,3.069,9.223,3.069c2.013,0,3.146-0.409,3.146-0.409l1.156-4.72c0.091-0.001,0.182-0.003,0.271-0.008
				c0.111,0.95,0.516,2.769,1.924,5.341c-0.162,0.064-0.364,0.17-0.589,0.353c-0.415,0.335,0.419,0.074,0.95-0.039
				c0.575,0.062,2.604,0.998,1.887,0.3c-0.142-0.136-0.275-0.243-0.403-0.337c0.693,0.235,1.368,0.462,0.907,0.014
				c-0.604-0.588-1.125-0.752-1.323-0.796c-1.671-2.629-2.021-4.228-2.073-4.979c0.703-0.131,1.372-0.343,1.992-0.626
				c0.301,0.958,0.942,2.449,3.035,5.408c-0.176,0.045-0.451,0.152-0.772,0.412c-0.415,0.336,0.421,0.075,0.952-0.038
				c0.577,0.062,2.602,0.997,1.885,0.301c-0.14-0.137-0.274-0.244-0.403-0.338c0.693,0.235,1.368,0.461,0.907,0.014
				C-23.199,10.278-23.602,10.077-23.86,9.983z"/>
			<g>
				<path fill="#5D7E95" d="M-26.856,1.929c-1.205,1.338-2.935,2.017-5.139,2.017c0,0,0,0-0.001,0c0,0-1.382,0.06-2.541-0.326
					c0,0-0.069,0.344,0.144,0.692c-0.004-0.109,0.011-0.18,0.011-0.18c1.193,0.397,2.617,0.337,2.617,0.337h0.002
					c2.271,0,4.051-0.7,5.293-2.079c2.432-2.699,3.045-6.796,3.093-7.127l0.078-0.469l-0.479-0.237l-0.074,0.432
					C-23.853-5.012-24.396-0.804-26.856,1.929z"/>
				<path fill="#5D7E95" d="M-36.298,9.185c-1.654,0-4.093-0.36-6.646-1.988l-0.386,0.435c2.733,1.837,5.366,2.233,7.132,2.233
					c0.798,0,0.917-0.002,1.228-0.057l2.103-4.254c-0.159-0.021-0.302-0.051-0.43-0.085l-1.81,3.66
					C-35.41,9.182-35.524,9.185-36.298,9.185z"/>
			</g>
		</g>
	</g>
</g>
<g>
	<g>
		
			<radialGradient id="SVGID_6_" cx="66.6123" cy="1509.6982" r="3.3467" gradientTransform="matrix(2.3908 0 0 0.3615 -151.2579 -532.0146)" gradientUnits="userSpaceOnUse">
			<stop  offset="0" style="stop-color:#4A5D75"/>
			<stop  offset="0.1143" style="stop-color:#50637A;stop-opacity:0.8857"/>
			<stop  offset="0.2708" style="stop-color:#627287;stop-opacity:0.7292"/>
			<stop  offset="0.4518" style="stop-color:#7F8C9D;stop-opacity:0.5482"/>
			<stop  offset="0.6511" style="stop-color:#A7B0BC;stop-opacity:0.3489"/>
			<stop  offset="0.8629" style="stop-color:#DADEE3;stop-opacity:0.1371"/>
			<stop  offset="1" style="stop-color:#FFFFFF;stop-opacity:0"/>
		</radialGradient>
		<ellipse opacity="0.41" fill="url(#SVGID_6_)" cx="8" cy="13.742" rx="8" ry="1.209"/>
	</g>
	<g>
		<path fill="#FFFFFF" d="M12.043,12.991c-0.92-1.14-1.254-1.86-1.443-2.283c-0.122-0.275-0.179-0.457-0.205-0.563
			c0.27-0.181,0.51-0.389,0.717-0.618c1.148-1.278,1.238-3.403,1.211-4.13l2.609-1.194L12.57,3.458
			c-0.108-0.074-0.215-0.194-0.336-0.332c-0.338-0.38-0.799-0.9-1.758-0.9c-0.417,0-0.886,0.096-1.432,0.293
			C8.04,2.882,7.729,3.457,7.164,4.501C6.701,5.359,6,6.657,4.518,8.568l-3.256,3.328c0,0,1.693,1.534,4.611,1.534
			c1.007,0,1.574-0.204,1.574-0.204l0.578-2.36c0.045,0,0.09-0.001,0.135-0.004c0.057,0.476,0.258,1.385,0.963,2.671
			c-0.082,0.032-0.183,0.085-0.295,0.176c-0.207,0.168,0.209,0.037,0.475-0.02c0.288,0.031,1.303,0.499,0.943,0.15
			c-0.07-0.068-0.137-0.122-0.201-0.169c0.347,0.118,0.684,0.231,0.453,0.007c-0.302-0.294-0.562-0.376-0.661-0.397
			c-0.835-1.314-1.011-2.114-1.036-2.489c0.352-0.065,0.686-0.172,0.996-0.313c0.15,0.479,0.471,1.225,1.518,2.704
			c-0.088,0.022-0.227,0.076-0.387,0.206c-0.207,0.168,0.211,0.038,0.477-0.019c0.288,0.031,1.301,0.498,0.941,0.15
			c-0.069-0.068-0.137-0.122-0.201-0.169c0.347,0.117,0.684,0.23,0.453,0.007C12.373,13.139,12.172,13.038,12.043,12.991z"/>
		<g>
			<circle fill="#0B1F2C" cx="10.387" cy="3.969" r="0.533"/>
			<path fill="#FFFFFF" d="M10.518,3.631c0.031,0,0.062,0.003,0.092,0.009c-0.067-0.053-0.152-0.085-0.244-0.085
				c-0.221,0-0.4,0.179-0.4,0.399c0,0.059,0.013,0.113,0.035,0.163C10.016,3.846,10.241,3.631,10.518,3.631z"/>
			<path fill="#D9272E" d="M6.97,5.813L6.354,5.468l0.069-0.11c0,0,0.008-0.011,0.018-0.028C6.623,5.004,6.484,4.88,6.416,4.841
				C5.768,4.478,5.48,3.707,5.732,3.01L5.75,2.959c0.309-0.633,0.07-1.397-0.543-1.741c-0.64-0.358-1.452-0.131-1.811,0.509
				c-0.115,0.205-0.174,0.437-0.17,0.671C3.23,2.622,3.292,2.843,3.404,3.039v0.002c0,0.002,0.002,0.011,0.02,0.035
				c0.049,0.067,0.055,0.158,0.014,0.231C3.412,3.354,3.367,3.39,3.314,3.405C3.311,3.406,3.307,3.408,3.302,3.409
				C3.293,3.411,3.283,3.413,3.273,3.416C3.242,3.421,3.23,3.429,3.227,3.432c-0.223,0.077-0.408,0.23-0.521,0.434
				c-0.113,0.202-0.148,0.439-0.1,0.668C2.604,4.536,2.6,4.553,2.618,4.594c0.027,0.062,0.024,0.131-0.009,0.19
				C2.572,4.85,2.504,4.89,2.426,4.892c-0.006,0-0.013,0-0.02,0c-0.006,0-0.01,0-0.016,0c-0.011,0-0.018,0-0.02,0.001
				C2.143,4.897,1.92,4.961,1.725,5.075c-0.203,0.119-0.37,0.29-0.484,0.494l0,0C1.066,5.879,1.023,6.238,1.119,6.58
				c0.097,0.343,0.32,0.627,0.629,0.801c0.613,0.344,1.391,0.149,1.77-0.442l0.034-0.043c0.464-0.578,1.271-0.733,1.919-0.371
				c0.031,0.018,0.095,0.044,0.173,0.021C5.736,6.518,5.822,6.433,5.9,6.292c0.01-0.018,0.016-0.028,0.016-0.028l0.059-0.118
				l0.588,0.331L6.97,5.813z M2.975,6.543c-0.178,0.318-0.58,0.431-0.897,0.252C1.76,6.617,1.646,6.216,1.824,5.898
				c0.178-0.318,0.58-0.431,0.898-0.252C3.039,5.824,3.152,6.226,2.975,6.543z M5.131,2.7c-0.178,0.317-0.58,0.431-0.897,0.252
				C3.916,2.774,3.803,2.372,3.98,2.056c0.18-0.317,0.58-0.431,0.898-0.253C5.195,1.981,5.309,2.383,5.131,2.7z"/>
			<path fill="#0B1F2C" d="M12.043,12.991c-0.92-1.14-1.254-1.86-1.443-2.283c-0.122-0.275-0.179-0.457-0.205-0.563
				c0.27-0.181,0.51-0.389,0.717-0.618c1.148-1.278,1.201-3.18,1.174-3.907c0,0-0.28,2.168-1.548,3.575
				c-0.621,0.689-1.511,1.039-2.646,1.039H8.09c0,0-0.712,0.03-1.309-0.168c0,0-0.122,0.595,0.758,0.711l-1.052,2.127
				c-0.155,0.027-0.215,0.028-0.614,0.028c-0.883,0-2.199-0.198-3.565-1.117l2.355-2.656c2.236,0.328,4.864-0.175,5.513-2.687
				C9.332,8.559,7.182,8.855,5.262,8.417C6.532,6.722,7.17,5.541,7.604,4.738c0.556-1.026,0.784-1.451,1.61-1.75
				c0.484-0.175,0.908-0.263,1.262-0.263c0.734,0,1.064,0.372,1.384,0.732c0.149,0.169,0.292,0.329,0.468,0.439l0.027,0.018
				l-1.471,0.771l1.438,0.711l2.609-1.194L12.57,3.458c-0.108-0.074-0.215-0.194-0.336-0.332c-0.338-0.38-0.799-0.9-1.758-0.9
				c-0.417,0-0.886,0.096-1.432,0.293C8.04,2.882,7.729,3.457,7.164,4.501C6.701,5.359,6,6.657,4.518,8.568l-3.256,3.328
				c0,0,1.693,1.534,4.611,1.534c1.007,0,1.574-0.204,1.574-0.204l0.578-2.36c0.045,0,0.09-0.001,0.135-0.004
				c0.057,0.476,0.258,1.385,0.963,2.671c-0.082,0.032-0.183,0.085-0.295,0.176c-0.207,0.168,0.209,0.037,0.475-0.02
				c0.288,0.031,1.303,0.499,0.943,0.15c-0.07-0.068-0.137-0.122-0.201-0.169c0.347,0.118,0.684,0.231,0.453,0.007
				c-0.302-0.294-0.562-0.376-0.661-0.397c-0.835-1.314-1.011-2.114-1.036-2.489c0.352-0.065,0.686-0.172,0.996-0.313
				c0.15,0.479,0.471,1.225,1.518,2.704c-0.088,0.022-0.227,0.076-0.387,0.206c-0.207,0.168,0.211,0.038,0.477-0.019
				c0.288,0.031,1.301,0.498,0.941,0.15c-0.069-0.068-0.137-0.122-0.201-0.169c0.347,0.117,0.684,0.23,0.453,0.007
				C12.373,13.139,12.172,13.038,12.043,12.991z"/>
			<g>
				<path fill="#5D7E95" d="M10.545,8.964c-0.604,0.669-1.468,1.008-2.57,1.008l0,0c0,0-0.691,0.03-1.271-0.163
					c0,0-0.034,0.172,0.071,0.347c-0.002-0.055,0.006-0.09,0.006-0.09c0.597,0.198,1.309,0.168,1.309,0.168h0.001
					c1.136,0,2.025-0.35,2.646-1.039c1.216-1.35,1.522-3.398,1.546-3.563l0.039-0.234l-0.238-0.119l-0.037,0.216
					C12.047,5.493,11.775,7.598,10.545,8.964z"/>
				<path fill="#5D7E95" d="M5.824,12.592c-0.828,0-2.047-0.181-3.324-0.994l-0.192,0.217c1.366,0.919,2.683,1.117,3.565,1.117
					c0.399,0,0.459-0.001,0.614-0.028l1.052-2.127c-0.08-0.011-0.151-0.025-0.215-0.043l-0.905,1.83
					C6.268,12.59,6.211,12.592,5.824,12.592z"/>
			</g>
		</g>
	</g>
</g>
</svg>
