<?xml version="1.0" encoding="utf-8"?>
<!-- Generator: Adobe Illustrator 16.0.0, SVG Export Plug-In . SVG Version: 6.00 Build 0)  -->
<!DOCTYPE svg PUBLIC "-//W3C//DTD SVG 1.1//EN" "http://www.w3.org/Graphics/SVG/1.1/DTD/svg11.dtd">
<svg version="1.1" id="Layer_1" xmlns="http://www.w3.org/2000/svg" xmlns:xlink="http://www.w3.org/1999/xlink" x="0px" y="0px"
	 width="600px" height="217.106px" viewBox="0 0 600 217.106" enable-background="new 0 0 600 217.106" xml:space="preserve">
<g>
	<path fill="#FFFFFF" d="M184.386,200.686c-15.457-19.158-21.059-31.266-24.235-38.371c-2.06-4.614-3.012-7.672-3.445-9.468
		c4.515-3.035,8.558-6.525,12.027-10.383c11.156-12.402,16.154-28.292,18.304-41.863c2.066-11.657,2.268-22.007,2.06-27.536
		l43.832-20.068l-39.67-12.495c-1.817-1.253-3.598-3.275-5.648-5.587c-5.666-6.377-13.416-15.125-29.526-15.125
		c-7.011,0-14.886,1.605-24.053,4.913c-16.898,6.105-22.116,15.773-31.605,33.316c-2.754,5.098-6.009,11.121-10.16,18.19
		l-3.448-1.934l1.169-1.866c0-0.003,0.117-0.182,0.281-0.472c3.064-5.47,0.729-7.556-0.413-8.197
		c-10.896-6.114-15.729-19.058-11.499-30.773l0.311-0.859c5.177-10.625,1.166-23.475-9.132-29.252
		c-10.746-6.032-24.4-2.197-30.436,8.546c-1.928,3.439-2.912,7.335-2.836,11.271c0.067,3.77,1.09,7.493,2.965,10.781l0.008,0.041
		c0.006,0.026,0.027,0.178,0.328,0.583c0.83,1.137,0.923,2.66,0.238,3.891c-0.443,0.789-1.178,1.371-2.074,1.646
		c-0.07,0.021-0.141,0.044-0.211,0.053c-0.156,0.035-0.322,0.076-0.469,0.121c-0.521,0.084-0.738,0.219-0.809,0.266
		c-3.732,1.289-6.844,3.876-8.754,7.292c-1.911,3.396-2.497,7.38-1.67,11.218c-0.018,0.047-0.088,0.328,0.217,1.014
		c0.457,1.046,0.398,2.212-0.165,3.202c-0.609,1.102-1.764,1.778-3.07,1.802c-0.103,0-0.214,0-0.326,0
		c-0.088,0.009-0.178,0.012-0.266,0.012c-0.182-0.012-0.287,0-0.32,0.015c-3.834,0.082-7.584,1.146-10.875,3.07
		c-3.398,1.99-6.214,4.861-8.145,8.303c-2.918,5.194-3.636,11.232-2.018,16.983c1.62,5.754,5.37,10.529,10.57,13.453
		c10.289,5.771,23.355,2.502,29.725-7.441l0.574-0.724c7.802-9.708,21.368-12.325,32.256-6.225c0.519,0.296,1.585,0.727,2.897,0.336
		c1.544-0.459,2.998-1.88,4.322-4.242c0.161-0.293,0.252-0.489,0.252-0.489l0.978-1.969l3.045,1.711
		c-6.876,10.893-15.721,23.783-27.507,38.991L3.25,182.293c0,0,28.441,25.784,77.484,25.784c16.904,0,26.431-3.436,26.431-3.436
		l9.715-39.656c0.762-0.012,1.529-0.029,2.285-0.064c0.935,7.977,4.333,23.262,16.163,44.874c-1.368,0.536-3.059,1.423-4.951,2.958
		c-3.489,2.812,3.521,0.625,7.983-0.328c4.837,0.521,21.873,8.382,15.85,2.52c-1.184-1.143-2.309-2.042-3.384-2.833
		c5.821,1.977,11.493,3.881,7.617,0.117c-5.074-4.939-9.451-6.32-11.112-6.686c-14.036-22.084-16.978-35.523-17.417-41.828
		c5.903-1.098,11.525-2.885,16.731-5.258c2.531,8.045,7.925,20.576,25.503,45.434c-1.473,0.381-3.791,1.283-6.486,3.459
		c-3.496,2.828,3.531,0.636,7.996-0.313c4.848,0.524,21.855,8.373,15.838,2.52c-1.178-1.146-2.303-2.048-3.387-2.836
		c5.824,1.977,11.496,3.875,7.617,0.117C189.947,203.158,186.566,201.471,184.386,200.686z M32.009,92.34
		c-2.99,5.338-9.74,7.228-15.072,4.236c-5.335-2.994-7.236-9.747-4.24-15.079c2.989-5.338,9.742-7.236,15.08-4.233
		C33.109,80.252,35.01,87,32.009,92.34z M68.247,27.765c-2.988,5.331-9.741,7.23-15.073,4.239c-5.335-3-7.233-9.748-4.245-15.082
		c3-5.332,9.744-7.23,15.082-4.233C69.343,15.68,71.241,22.429,68.247,27.765z"/>
	<path fill="#FFFFFF" d="M281.408,113.791c-1.418,0-2.789,0.498-4.12,1.465c-1.329,0.979-1.991,2.35-1.991,4.125
		c0,1.951-0.27,5.537-0.803,10.77c-0.527,5.227-1.195,10.676-1.992,16.342c-0.797,5.678-1.816,10.682-3.059,15.023
		c-1.242,4.342-2.66,6.516-4.253,6.516s-3.1-1.599-4.518-4.787c-1.424-3.188-2.525-7.178-3.322-11.965s-1.242-10.008-1.33-15.686
		c-0.088-5.672,0.568-10.986,1.992-15.955c0.357-1.594-0.486-2.695-2.525-3.316s-4.389-0.75-7.043-0.398
		c-2.66,0.352-5.18,1.324-7.576,2.924c-2.396,1.594-3.768,3.896-4.119,6.908c-1.424,11.344-1.16,21.896,0.797,31.635
		c-1.424,4.971-2.836,9.225-4.254,12.77c-1.418,3.545-2.836,5.309-4.254,5.309c-1.594,0-2.924-2.256-3.984-6.773
		c-1.066-4.523-1.828-9.972-2.268-16.35c-0.439-6.387-0.486-13.031-0.123-19.936c0.346-6.914,1.148-12.771,2.391-17.552
		c0.527-1.594-0.234-2.739-2.268-3.457c-2.033-0.703-4.382-0.879-7.037-0.524c-2.666,0.352-5.232,1.321-7.711,2.918
		c-2.484,1.6-3.902,3.908-4.254,6.914c-0.891,6.914-1.242,14.487-1.066,22.731c0.176,8.238,0.973,15.824,2.396,22.725
		c1.412,6.914,3.627,12.68,6.645,17.285c3.012,4.605,6.996,6.82,11.965,6.645c4.072-0.357,7.705-2.127,10.893-5.314
		c3.199-3.193,6.029-7.266,8.508-12.229c1.951,3.363,4.301,5.977,7.049,7.84c2.748,1.864,5.982,2.613,9.703,2.262
		c3.896-0.176,7.266-1.729,10.101-4.652c2.83-2.924,5.224-6.516,7.181-10.77c1.942-4.254,3.536-8.94,4.784-14.085
		c1.236-5.139,2.209-10.014,2.927-14.625c0.7-4.605,1.198-8.684,1.459-12.229c0.264-3.545,0.483-5.851,0.668-6.908
		c0.17-1.775-0.357-3.146-1.603-4.125C284.15,114.289,282.826,113.791,281.408,113.791z"/>
	<path fill="#FFFFFF" d="M307.985,107.68c2.297-0.357,4.518-0.973,6.645-1.863c2.127-0.879,3.984-1.992,5.584-3.322
		c1.594-1.324,2.795-2.83,3.592-4.518c0.797-1.682,1.02-3.498,0.668-5.449c-0.539-3.72-2.842-6.421-6.92-8.109
		c-4.078-1.682-8.684-2.08-13.822-1.195c-5.145,0.891-9.264,2.707-12.363,5.449c-3.105,2.748-4.3,6.07-3.585,9.966
		c0.527,3.727,2.917,6.299,7.171,7.711C299.214,107.768,303.544,108.213,307.985,107.68z"/>
	<path fill="#FFFFFF" d="M598.824,130.01c-1.242-5.133-3.422-9.568-6.527-13.289c-3.093-3.727-7.395-5.754-12.891-6.117
		c-3.19-0.176-6.154,0.445-8.906,1.863c-2.742,1.418-5.006,3.012-6.775,4.781c0.352-4.072,0.668-7.711,0.926-10.898
		c0.27-3.188,0.574-5.754,0.938-7.711c0.352-2.297-0.492-3.762-2.531-4.383s-4.383-0.533-7.043,0.27
		c-2.66,0.797-5.145,2.25-7.441,4.383c-2.307,2.121-3.455,4.875-3.455,8.238c0,1.594-0.047,4.652-0.129,9.176
		c-0.094,4.523-0.188,9.879-0.27,16.084c-0.023,1.588-0.046,3.205-0.082,4.857c-0.012,0.07-0.035,0.123-0.059,0.193
		c-0.352,1.951-1.148,4.787-2.391,8.502c-1.242,3.727-2.566,7.441-3.984,11.168c-1.418,3.727-2.883,6.956-4.383,9.703
		c-1.512,2.754-2.789,4.119-3.855,4.119c-1.594,0-2.62-1.593-3.059-4.787c-0.445-3.188-0.574-6.996-0.397-11.426
		c0.175-4.432,0.573-9.041,1.199-13.822c0.616-4.787,1.272-8.771,1.987-11.965c0.176-1.602-0.668-3.102-2.52-4.52
		c-1.863-1.418-4.031-2.482-6.515-3.191c-2.489-0.709-4.829-0.75-7.043-0.135c-2.226,0.619-3.418,2.262-3.594,4.922
		c-0.708,1.951-1.509,4.518-2.396,7.711c-0.891,3.188-1.852,6.557-2.918,10.102c-1.061,3.54-2.18,7.09-3.328,10.629
		c-1.148,3.551-2.262,6.738-3.316,9.574c-1.062,2.836-2.128,5.098-3.198,6.773c-1.056,1.693-2.04,2.356-2.918,1.998
		c-1.067-0.352-1.513-2.344-1.337-5.982c0.188-3.627,0.621-8.109,1.337-13.43c0.702-5.311,1.417-11.068,2.125-17.273
		c0.71-6.205,1.237-12.141,1.594-17.812c0.176-1.951-0.801-3.41-2.923-4.383c-2.133-0.973-4.523-1.336-7.184-1.066
		c-2.655,0.27-5.098,1.154-7.301,2.66c-2.227,1.506-3.327,3.762-3.327,6.773c-0.177,4.963-0.493,10.02-0.927,15.158
		c-0.035,0.328-0.047,0.645-0.082,0.973c-0.41,1.764-1.09,4.219-2.051,7.406c-1.155,3.809-2.52,7.706-4.113,11.689
		c-1.601,3.99-3.241,7.488-4.922,10.506c-1.683,3.012-3.323,4.518-4.917,4.518c-1.774,0-2.97-2.262-3.591-6.785
		c-0.621-4.518-0.926-10.318-0.926-17.408c0-7.084,0.27-14.795,0.79-23.127c0.531-8.332,1.202-16.395,1.999-24.199
		c0.797-7.793,1.547-14.66,2.262-20.601c0.703-5.93,1.235-9.967,1.594-12.094c0.532-2.83-0.223-5.139-2.262-6.914
		c-2.039-1.772-4.383-2.742-7.043-2.924c-2.66-0.17-5.147,0.58-7.447,2.268c-2.303,1.682-3.451,4.646-3.451,8.9
		c0,4.436-0.452,10.986-1.336,19.67c-0.879,8.689-1.688,18.082-2.391,28.183c-2.66-3.188-5.754-5.051-9.308-5.584
		c-6.562-1.061-12.141-0.217-16.746,2.525c-4.612,2.748-8.285,6.604-11.033,11.566c-1.992,3.598-3.486,7.527-4.506,11.775
		c-0.703,2.229-1.77,4.816-3.199,7.76c-1.512,3.103-3.152,6.033-4.922,8.775c-1.77,2.75-3.551,5.1-5.32,7.045
		c-1.77,1.957-3.188,2.93-4.254,2.93c-0.885,0-1.5-1.289-1.857-3.855s-0.533-5.59-0.533-9.047c0-3.451,0.223-6.861,0.668-10.23
		c0.439-3.363,0.933-5.848,1.462-7.441c0.885-2.303,0.621-4.078-0.8-5.32c-1.412-1.236-3.281-1.898-5.577-1.992
		c-2.315-0.088-4.699,0.352-7.179,1.324c-2.484,0.979-4.436,2.355-5.854,4.125c-1.951,2.66-3.85,5.895-5.713,9.703
		s-3.504,8.109-4.916,12.891c-0.182-1.764-0.135-4.025,0.129-6.773s0.662-5.672,1.195-8.771c0.533-3.105,1.107-6.205,1.729-9.311
		c0.621-3.094,1.107-5.883,1.465-8.373c0.352-2.654-0.445-4.611-2.391-5.848c-1.957-1.236-4.219-1.775-6.779-1.6
		c-2.578,0.176-5.104,1.16-7.582,2.93c-2.484,1.775-3.99,4.43-4.518,7.975c-0.715,3.545-1.066,7.535-1.066,11.959
		c0,0.258,0.012,0.527,0.012,0.785c-0.006,0-0.006,0.012-0.012,0.018c-0.352,1.951-1.148,4.787-2.391,8.502
		c-1.242,3.727-2.566,7.441-3.984,11.168c-1.424,3.73-2.883,6.958-4.389,9.706c-1.506,2.754-2.795,4.119-3.855,4.119
		c-1.594,0-2.613-1.594-3.053-4.787c-0.445-3.188-0.58-6.995-0.398-11.428c0.176-4.429,0.574-9.041,1.195-13.822
		c0.616-4.787,1.283-8.771,1.992-11.965c0.527-2.83-0.176-5.221-2.127-7.178c-1.951-1.945-4.254-3.1-6.908-3.457
		c-2.66-0.352-5.104,0.27-7.312,1.863c-2.221,1.594-3.328,4.518-3.328,8.771c0,5.672-0.223,11.479-0.662,17.408
		c-0.439,5.941-0.486,11.438-0.135,16.488c0.363,5.051,1.547,9.48,3.592,13.289c2.033,3.814,5.449,6.434,10.236,7.852
		c3.188,0.879,6.111,0.527,8.771-1.066c2.654-1.6,5.092-3.853,7.307-6.785c2.215-2.924,4.166-6.285,5.854-10.102
		c0.152-0.34,0.287-0.674,0.439-1.014c0.129,3.709,0.117,6.943-0.041,9.656c-0.182,2.654,0.703,4.611,2.654,5.848
		c1.951,1.242,4.125,1.863,6.516,1.863s4.605-0.574,6.645-1.729c2.033-1.154,3.234-2.883,3.586-5.191
		c0.182-2.121,0.621-4.734,1.336-7.84c0.703-3.094,1.5-6.064,2.391-8.906c0.888-2.835,1.816-5.32,2.789-7.441
		c0.976-2.127,1.904-3.363,2.789-3.721c0.357,0.885,0.445,2.971,0.275,6.246c-0.182,3.281,0.082,6.65,0.791,10.107
		c0.709,3.451,2.168,6.557,4.383,9.299c2.215,2.754,5.897,4.119,11.039,4.119c3.015,0,6.12-1.547,9.308-4.652
		c3.188-3.094,6.111-6.68,8.771-10.764c0.381-0.58,0.729-1.166,1.096-1.752c0.035,0.188,0.064,0.375,0.1,0.551
		c1.154,5.766,3.229,10.816,6.246,15.158c3.012,4.348,7.09,7.131,12.229,8.379c2.836,1.061,6.205,0.885,10.102-0.539
		c3.548-1.236,6.518-3.188,8.906-5.848c2.396-2.66,4.294-5.666,5.712-9.041c1.249,5.32,2.974,9.622,5.188,12.896
		c2.215,3.275,5.367,4.916,9.443,4.916c5.484,0,10.231-2.121,14.217-6.381c2.555-2.719,4.795-5.678,6.727-8.877
		c0.136,1.617,0.328,3.082,0.586,4.356c0.527,2.66,1.636,5.013,3.316,7.052c1.688,2.03,3.633,3.586,5.854,4.643
		c2.214,1.066,4.517,1.465,6.907,1.201c2.402-0.264,4.477-1.377,6.252-3.322c2.83-2.836,5.314-6.469,7.441-10.895
		c2.127-4.43,3.988-9.129,5.584-14.094c0,3.368,0.27,6.383,0.799,9.034c0.531,3.021,1.639,5.631,3.326,7.849
		c1.676,2.215,3.633,3.899,5.842,5.051c2.215,1.145,4.529,1.812,6.92,1.998c2.391,0.17,4.559-0.357,6.504-1.603
		c3.188-1.942,6.07-5.051,8.648-9.305c1.111-1.857,2.154-3.756,3.141-5.678c-0.07,2.086-0.141,4.154-0.223,6.205
		c-0.271,6.914-0.574,13.295-0.939,19.143c-0.34,5.857-0.703,10.547-1.055,14.092c-0.352,2.121,0.445,3.674,2.391,4.652
		c1.943,0.973,4.076,1.418,6.373,1.324c2.312-0.082,4.48-0.656,6.52-1.723c2.035-1.066,3.059-2.572,3.059-4.518
		c0-3.545,0.047-8.291,0.141-14.227c0.082-5.936,0.305-12.363,0.656-19.271c0.539,0.527,1.066,0.973,1.594,1.33
		c0.539,0.357,1.078,0.709,1.607,1.061c3.186,2.128,6.375,3.188,9.557,3.188c4.781,0.363,9-1.014,12.639-4.119
		c3.633-3.093,6.598-7.131,8.903-12.088c2.296-4.968,3.812-10.37,4.515-16.224C600.324,140.645,600.055,135.154,598.824,130.01z
		 M433.461,148.889c-0.709,4.787-1.816,9.129-3.316,13.025c-1.511,3.896-3.281,7.096-5.32,9.568
		c-2.038,2.484-4.222,3.551-6.519,3.193c-2.309-0.357-4.078-1.904-5.317-4.652c-1.23-2.748-1.992-6.111-2.25-10.102
		c-0.272-3.99-0.104-8.2,0.524-12.629c0.621-4.43,1.644-8.467,3.062-12.1c1.419-3.633,3.231-6.604,5.449-8.906
		c2.215-2.3,4.736-3.188,7.579-2.654c1.948,0.354,3.401,1.772,4.386,4.248c0.973,2.49,1.629,4.969,1.992,7.447
		C434.258,139.584,434.169,144.102,433.461,148.889z M581.539,145.836c-0.527,3.979-1.289,7.611-2.264,10.893
		c-0.974,3.281-2.216,5.988-3.729,8.109c-1.5,2.121-3.141,3.012-4.909,2.66c-2.133-0.357-3.901-1.863-5.319-4.523
		c-1.418-2.654-2.311-5.848-2.648-9.574c-0.375-3.715-0.234-7.705,0.387-11.953c0.621-4.26,1.723-8.244,3.328-11.965
		c1.066-2.133,2.391-3.99,3.984-5.584c1.594-1.6,3.365-2.302,5.32-2.127c1.943,0.176,3.409,1.465,4.383,3.85
		c0.975,2.396,1.594,5.367,1.862,8.912S582.064,141.84,581.539,145.836z"/>
	<g>
		<path fill="#0B1F2C" d="M147.626,49.086c0,4.942,4.008,8.959,8.953,8.959s8.954-4.017,8.954-8.959
			c0-4.951-4.008-8.958-8.954-8.958S147.626,44.135,147.626,49.086z"/>
		<path fill="#FFFFFF" d="M158.759,43.397c0.527,0,1.055,0.059,1.559,0.146c-1.137-0.888-2.566-1.418-4.119-1.418
			c-3.709,0-6.721,3.006-6.721,6.709c0,0.979,0.217,1.901,0.598,2.742C150.345,47.018,154.125,43.397,158.759,43.397z"/>
		<path fill="#D9272E" d="M99.149,80.077l-10.336-5.801l1.172-1.863c0-0.006,0.117-0.182,0.281-0.475
			c3.064-5.47,0.729-7.556-0.416-8.197c-10.89-6.111-15.724-19.055-11.496-30.773l0.313-0.855
			c5.174-10.629,1.166-23.479-9.135-29.256c-10.746-6.029-24.398-2.2-30.433,8.546c-1.93,3.439-2.912,7.335-2.836,11.271
			c0.062,3.77,1.09,7.493,2.965,10.781l0.006,0.041c0.006,0.026,0.029,0.182,0.328,0.586c0.832,1.137,0.926,2.657,0.24,3.891
			c-0.446,0.785-1.18,1.371-2.074,1.643c-0.07,0.021-0.144,0.041-0.211,0.056c-0.158,0.035-0.322,0.076-0.471,0.117
			c-0.519,0.088-0.736,0.223-0.809,0.27c-3.732,1.289-6.844,3.873-8.754,7.289c-1.911,3.398-2.497,7.383-1.67,11.221
			c-0.018,0.047-0.088,0.328,0.217,1.014c0.457,1.043,0.398,2.209-0.165,3.199c-0.609,1.102-1.764,1.781-3.07,1.805
			c-0.103,0-0.217,0-0.326,0c-0.091,0.006-0.178,0.012-0.266,0.012c-0.182-0.012-0.287,0-0.322,0.012
			c-3.832,0.082-7.582,1.148-10.875,3.07c-3.396,1.993-6.211,4.864-8.145,8.303l0,0c-2.918,5.197-3.633,11.232-2.016,16.986
			c1.617,5.754,5.367,10.529,10.57,13.453c10.289,5.771,23.355,2.502,29.725-7.441l0.574-0.727
			c7.799-9.708,21.368-12.322,32.256-6.222c0.516,0.293,1.582,0.726,2.897,0.333c1.547-0.457,3-1.88,4.322-4.242
			c0.158-0.293,0.252-0.486,0.252-0.486l0.981-1.969l9.882,5.552L99.149,80.077z M32.007,92.34
			c-2.985,5.338-9.735,7.23-15.067,4.236c-5.338-2.994-7.236-9.744-4.243-15.076c2.989-5.338,9.745-7.236,15.083-4.236
			C33.109,80.252,35.007,87.002,32.007,92.34z M68.25,27.765c-2.988,5.331-9.744,7.23-15.076,4.242
			c-5.333-3-7.23-9.751-4.242-15.082c3-5.332,9.744-7.23,15.082-4.236C69.346,15.683,71.244,22.433,68.25,27.765z"/>
		<path fill="#0B1F2C" d="M184.389,200.686c-15.457-19.154-21.059-31.266-24.235-38.367c-2.062-4.617-3.013-7.676-3.445-9.469
			c4.512-3.035,8.555-6.527,12.024-10.383c19.324-21.48,20.191-53.437,19.734-65.648c0,0-4.711,36.421-26.004,60.07
			c-10.436,11.578-25.395,17.461-44.476,17.461h-0.012c0,0-11.965,0.516-21.996-2.824c0,0-2.051,9.984,12.729,11.941l-17.66,35.736
			c-2.613,0.463-3.609,0.48-10.312,0.48c-14.836,0-36.955-3.334-59.924-18.762l39.58-44.645c37.582,5.514,81.738-2.93,92.642-45.146
			c-14.197,35.068-50.314,40.063-82.587,32.695c21.351-28.494,32.074-48.322,39.369-61.811
			c9.328-17.256,13.189-24.398,27.064-29.408c8.127-2.936,15.27-4.424,21.205-4.424c12.334,0,17.877,6.252,23.245,12.305
			c2.52,2.842,4.898,5.531,7.863,7.395l0.463,0.293l-24.721,12.949l24.164,11.941l43.829-20.068L193.257,40.5
			c-1.814-1.254-3.598-3.275-5.646-5.584c-5.666-6.381-13.418-15.128-29.526-15.128c-7.014,0-14.889,1.605-24.053,4.916
			c-16.898,6.105-22.119,15.773-31.605,33.316c-7.793,14.426-19.576,36.229-44.467,68.344L3.25,182.293
			c0,0,28.441,25.787,77.484,25.787c16.904,0,26.435-3.439,26.435-3.439l9.715-39.656c0.762-0.012,1.529-0.029,2.285-0.064
			c0.932,7.98,4.33,23.264,16.16,44.877c-1.365,0.533-3.062,1.423-4.951,2.958c-3.486,2.812,3.519,0.621,7.986-0.328
			c4.834,0.521,21.873,8.381,15.849,2.521c-1.183-1.145-2.308-2.045-3.386-2.836c5.824,1.978,11.496,3.885,7.617,0.117
			c-5.074-4.939-9.451-6.316-11.109-6.688c-14.039-22.084-16.98-35.52-17.42-41.824c5.906-1.102,11.525-2.889,16.734-5.262
			c2.531,8.045,7.922,20.578,25.5,45.436c-1.473,0.381-3.791,1.281-6.486,3.463c-3.493,2.822,3.533,0.633,7.998-0.316
			c4.846,0.527,21.855,8.373,15.838,2.52c-1.178-1.143-2.303-2.045-3.387-2.836c5.824,1.98,11.496,3.879,7.617,0.117
			C189.949,203.158,186.568,201.471,184.389,200.686z"/>
		<g>
			<path fill="#5D7E95" d="M159.216,133.01c-10.125,11.244-24.65,16.945-43.166,16.945c-0.006,0-0.006,0-0.012,0
				c0,0-11.613,0.504-21.349-2.736c0,0-0.586,2.883,1.201,5.812c-0.029-0.92,0.088-1.506,0.088-1.506
				c10.031,3.34,21.996,2.822,21.996,2.822h0.012c19.081,0,34.04-5.883,44.476-17.461c20.426-22.682,25.583-57.1,25.981-59.883
				l0.656-3.938l-4.021-1.992l-0.621,3.621C184.459,74.698,179.895,110.053,159.216,133.01z"/>
			<path fill="#5D7E95" d="M79.893,193.971c-13.898,0-34.383-3.023-55.848-16.699l-3.232,3.65
				c22.969,15.428,45.088,18.762,59.924,18.762c6.703,0,7.699-0.018,10.312-0.48l17.66-35.736c-1.336-0.176-2.532-0.422-3.609-0.715
				L89.9,193.502C87.354,193.947,86.396,193.971,79.893,193.971z"/>
		</g>
	</g>
</g>
</svg>
